<?xml version="1.0" encoding="UTF-8" standalone="no"?>
<!-- Created with Inkscape (http://www.inkscape.org/) -->

<svg
   width="48.947918mm"
   height="48.683334mm"
   viewBox="0 0 48.947918 48.683334"
   version="1.1"
   id="svg5"
   inkscape:version="1.1 (c68e22c387, 2021-05-23)"
   sodipodi:docname="bigger_viewfield.svg"
   xmlns:inkscape="http://www.inkscape.org/namespaces/inkscape"
   xmlns:sodipodi="http://sodipodi.sourceforge.net/DTD/sodipodi-0.dtd"
   xmlns="http://www.w3.org/2000/svg"
   xmlns:svg="http://www.w3.org/2000/svg">
  <sodipodi:namedview
     id="namedview7"
     pagecolor="#ffffff"
     bordercolor="#666666"
     borderopacity="1.0"
     inkscape:pageshadow="2"
     inkscape:pageopacity="0.0"
     inkscape:pagecheckerboard="0"
     inkscape:document-units="mm"
     showgrid="false"
     inkscape:zoom="0.74118967"
     inkscape:cx="-80.950939"
     inkscape:cy="109.95836"
     inkscape:window-width="1920"
     inkscape:window-height="1017"
     inkscape:window-x="-8"
     inkscape:window-y="-8"
     inkscape:window-maximized="1"
     inkscape:current-layer="layer1" />
  <defs
     id="defs2" />
  <g
     inkscape:label="Ebene 1"
     inkscape:groupmode="layer"
     id="layer1"
     transform="translate(-126.52484,-119.51771)">
    <g
       id="g219">
      <path
         style="fill:#ecebea;stroke-width:0.264583"
         d="m 148.18384,168.07601 c -0.0688,-0.0688 -3.69025,-0.19634 -8.04775,-0.28351 -4.35749,-0.0872 -8.02486,-0.25807 -8.1497,-0.37978 -0.28159,-0.27451 0.19182,-1.77432 1.18939,-3.76819 0.90484,-1.80851 0.93956,-2.34167 0.19599,-3.00925 -3.85277,-3.45902 -6.61,-10.3953 -6.61598,-16.64361 -0.0208,-21.74202 25.83341,-32.58988 41.38732,-17.36522 13.99971,13.70337 6.64634,37.49307 -12.73582,41.20297 -1.81804,0.34799 -6.94696,0.52308 -7.22345,0.24659 z"
         id="path269" />
      <path
         style="fill:#d8d8d8;stroke-width:0.264583"
         d="m 147.8238,167.94968 c -0.72761,-0.11954 -4.4688,-0.23338 -8.31377,-0.25297 -8.72029,-0.0444 -8.249,0.28993 -6.11991,-4.34215 0.82908,-1.80378 0.82908,-1.80378 -0.4702,-3.30729 -11.92551,-13.80009 -5.45591,-35.19623 11.97499,-39.60347 17.50485,-4.42595 33.32888,10.51824 29.93272,28.26839 -2.32857,12.17033 -15.01391,21.20735 -27.00383,19.23749 z m -2.86703,-1.53457 c -0.0939,-0.1551 -3.16743,-8.17747 -4.93037,-12.86899 -0.37804,-1.00604 -0.14459,-1.40285 -3.58403,6.09212 l -3.01884,6.57843 2.70222,0.14664 c 4.39248,0.23838 8.9602,0.26517 8.83102,0.0518 z m 6.94501,-11.75053 c 0.72408,-0.27395 0.7953,-0.19058 -1.73486,-2.03071 -3.42531,-2.49115 -7.97913,-7.74712 -9.99179,-11.53242 -0.7938,-1.49293 -1.42795,-0.74475 -1.67463,1.97575 -0.64446,7.10713 7.23527,13.92031 13.40128,11.58738 z m 2.50296,-1.49035 c 0.25773,-0.41703 -2.53468,-5.60058 -3.02127,-5.60837 -0.51048,-0.008 -1.24743,3.46276 -0.82497,3.88552 1.28168,1.28259 3.50331,2.27772 3.84624,1.72285 z m -4.64911,-7.63558 c -0.69237,-0.69237 -0.69237,-0.69237 -2.03957,0.46783 -1.65332,1.4238 -1.65396,1.35893 0.0296,2.98168 l 1.37709,1.32733 0.66262,-2.04223 c 0.66262,-2.04223 0.66262,-2.04223 -0.0298,-2.73461 z m -1.63543,-1.46617 c 0.55554,-0.89888 -1.05334,-1.52408 -2.80994,-1.09192 -2.28967,0.56331 -2.29841,0.58144 -1.0412,2.16043 1.09175,1.37117 1.09175,1.37117 2.38858,0.2854 0.71327,-0.59718 1.37141,-1.20643 1.46256,-1.35391 z m -3.9888,-1.96506 c 1.99901,-0.50214 2.00219,-0.50952 0.68929,-1.59917 -2.71211,-2.25092 -4.27293,-2.89954 -4.27293,-1.77567 0,0.57547 1.52143,3.80388 1.79263,3.80388 0.0456,0 0.8516,-0.19307 1.79101,-0.42904 z m 9.32911,-1.19081 c 0.0848,-0.73083 -0.43011,-1.12903 -1.11834,-0.86493 -0.98963,0.37976 -0.57187,1.78874 0.48556,1.63765 0.37308,-0.0533 0.57843,-0.30407 0.63278,-0.77272 z"
         id="path267" />
      <path
         style="fill:#c8c8c8;stroke-width:0.264583"
         d="m 148.08838,167.92429 c -0.7276,-0.11333 -4.45613,-0.21648 -8.28562,-0.22923 -8.98708,-0.0299 -8.46194,0.29724 -6.5025,-4.0511 0.92086,-2.04355 0.92086,-2.04355 -0.93234,-4.33443 -12.2062,-15.08895 -3.10735,-37.36552 16.1335,-39.49942 18.70025,-2.07393 32.47762,17.44558 24.35121,34.50031 -4.46753,9.37591 -14.95563,15.14162 -24.76425,13.61387 z m -3.13161,-1.50918 c -0.0939,-0.1551 -3.16743,-8.17747 -4.93037,-12.86899 -0.37804,-1.00604 -0.14459,-1.40285 -3.58403,6.09212 l -3.01884,6.57843 2.70222,0.14664 c 4.39248,0.23838 8.9602,0.26517 8.83102,0.0518 z m 6.94501,-11.75053 c 0.72408,-0.27395 0.7953,-0.19058 -1.73486,-2.03071 -3.42531,-2.49115 -7.97913,-7.74712 -9.99179,-11.53242 -0.7938,-1.49293 -1.42795,-0.74475 -1.67463,1.97575 -0.64713,7.13661 7.20969,13.92999 13.40128,11.58738 z m 2.50296,-1.49035 c 0.25773,-0.41703 -2.53468,-5.60058 -3.02127,-5.60837 -0.51048,-0.008 -1.24743,3.46276 -0.82497,3.88552 1.28168,1.28259 3.50331,2.27772 3.84624,1.72285 z m -4.46279,-5.29396 c 0.78275,-2.67682 -0.26715,-3.56064 -2.22589,-1.87379 -1.64812,1.41933 -1.64805,1.33208 -0.002,2.97768 1.51601,1.516 1.45312,1.54715 2.22834,-1.10389 z m -1.82175,-3.80779 c 0.55554,-0.89888 -1.05334,-1.52408 -2.80994,-1.09192 -2.28967,0.56331 -2.29841,0.58144 -1.0412,2.16043 1.09175,1.37117 1.09175,1.37117 2.38858,0.2854 0.71327,-0.59718 1.37141,-1.20643 1.46256,-1.35391 z m -3.9888,-1.96506 c 1.99901,-0.50214 2.00219,-0.50952 0.68929,-1.59917 -2.71211,-2.25092 -4.27293,-2.89954 -4.27293,-1.77567 0,0.57547 1.52143,3.80388 1.79263,3.80388 0.0456,0 0.8516,-0.19307 1.79101,-0.42904 z m 9.32911,-1.19081 c 0.0848,-0.73083 -0.43011,-1.12903 -1.11834,-0.86493 -0.98963,0.37976 -0.57187,1.78874 0.48556,1.63765 0.37308,-0.0533 0.57843,-0.30407 0.63278,-0.77272 z"
         id="path265" />
      <path
         style="fill:#b0b0b0;stroke-width:0.264583"
         d="m 148.61755,167.93696 c -0.87313,-0.11421 -4.76269,-0.22057 -8.64347,-0.23637 -9.07332,-0.0369 -8.64272,0.19394 -6.83466,-3.66437 1.30512,-2.78505 1.3299,-2.46287 -0.33073,-4.30067 -10.46778,-11.5846 -6.59011,-30.71542 7.61992,-37.59347 20.01871,-9.68961 41.45172,10.59294 32.90032,31.13433 -3.99756,9.60258 -14.72492,15.96681 -24.71138,14.66055 z m -5.95828,-7.47498 c -1.28355,-3.38336 -2.46565,-6.4955 -2.6269,-6.91586 -0.38498,-1.00365 -0.14308,-1.41351 -3.59463,6.09063 l -3.02645,6.57992 2.70834,0.14664 c 1.48958,0.0807 4.09547,0.16996 5.79085,0.19844 l 3.08251,0.0518 z m 9.23612,-5.79496 c 0.3476,-0.13151 0.58573,-0.28286 0.52917,-0.33632 -0.0566,-0.0535 -1.05885,-0.80406 -2.22729,-1.66801 -3.29057,-2.43304 -8.28232,-8.17143 -9.9883,-11.4823 -0.81938,-1.59021 -1.45641,-0.88295 -1.70847,1.89681 -0.64675,7.13239 7.20951,13.92996 13.39489,11.58982 z m 2.50935,-1.49279 c 0.25773,-0.41703 -2.53468,-5.60058 -3.02127,-5.60837 -0.51048,-0.008 -1.24743,3.46276 -0.82497,3.88552 1.28168,1.28259 3.50331,2.27772 3.84624,1.72285 z m -4.46279,-5.29396 c 0.78275,-2.67682 -0.26715,-3.56064 -2.22589,-1.87379 -1.64812,1.41933 -1.64805,1.33208 -0.002,2.97768 1.51601,1.516 1.45312,1.54715 2.22834,-1.10389 z m -1.82175,-3.80779 c 0.55554,-0.89888 -1.05334,-1.52408 -2.80994,-1.09192 -2.28967,0.56331 -2.29841,0.58144 -1.0412,2.16043 1.09175,1.37117 1.09175,1.37117 2.38858,0.2854 0.71327,-0.59718 1.37141,-1.20643 1.46256,-1.35391 z m -3.9888,-1.96506 c 1.99901,-0.50214 2.00219,-0.50952 0.68929,-1.59917 -2.71211,-2.25092 -4.27293,-2.89954 -4.27293,-1.77567 0,0.57547 1.52143,3.80388 1.79263,3.80388 0.0456,0 0.8516,-0.19307 1.79101,-0.42904 z m 9.32911,-1.19081 c 0.0848,-0.73083 -0.43011,-1.12903 -1.11834,-0.86493 -0.98963,0.37976 -0.57187,1.78874 0.48556,1.63765 0.37308,-0.0533 0.57843,-0.30407 0.63278,-0.77272 z"
         id="path263" />
      <path
         style="fill:#8f918e;stroke-width:0.264583"
         d="m 147.3673,167.78865 c -0.0813,-0.0813 -3.16818,-0.13809 -6.85974,-0.12621 -9.56856,0.0308 -9.13676,0.26951 -7.19538,-3.97755 0.66224,-1.44875 0.90217,-2.25964 0.73571,-2.4865 -0.13585,-0.18516 -0.93493,-1.15327 -1.77571,-2.15135 -14.32228,-17.00169 1.66277,-43.35036 23.56642,-38.8453 25.61394,5.26819 25.59193,41.89955 -0.0285,47.35103 -1.73094,0.36831 -8.13159,0.54713 -8.44285,0.23588 z m -2.72235,-2.16729 c -0.21804,-0.54571 -1.39236,-3.61157 -2.60961,-6.81302 -1.21724,-3.20146 -2.29235,-5.82084 -2.38912,-5.82084 -0.0968,0 -1.53823,2.97656 -3.20325,6.61459 l -3.02729,6.61458 2.44156,0.14779 c 7.61527,0.46097 9.21477,0.32571 8.78771,-0.7431 z m 7.21336,-10.94868 c 0.85951,-0.27075 0.85951,-0.27075 -0.79375,-1.35367 -3.21018,-2.10274 -9.04658,-8.62779 -10.85298,-12.13356 -0.82207,-1.59543 -1.4587,-0.89158 -1.71108,1.89175 -0.65157,7.18559 6.80606,13.65932 13.35781,11.59548 z m 2.54643,-1.49845 c 0.2598,-0.42037 -2.53613,-5.60081 -3.02689,-5.60837 -0.0826,-10e-4 -0.36578,0.68229 -0.62935,1.51904 -0.26358,0.83674 -0.53058,1.65557 -0.59333,1.81961 -0.26822,0.70109 3.85724,2.90453 4.24957,2.26972 z m -4.46279,-5.29396 c 0.78275,-2.67682 -0.26715,-3.56064 -2.22589,-1.87379 -1.65908,1.42877 -1.659,1.45783 0.008,3.01718 1.52467,1.42615 1.4561,1.4615 2.21782,-1.14339 z m -2.1342,-3.47262 c 1.04847,-1.16136 -0.34383,-1.95694 -2.49749,-1.42709 -2.28958,0.56329 -2.29836,0.5815 -1.04181,2.15966 1.16586,1.46425 1.64566,1.36494 3.5393,-0.73257 z m -3.35632,-2.35273 c 1.65472,-0.46294 1.65472,-0.46294 0.49942,-1.42866 -4.02485,-3.36435 -5.51133,-3.21552 -3.54827,0.35528 0.96228,1.75038 0.81472,1.69843 3.04885,1.07338 z m 9.00908,-1.13831 c 0.0848,-0.73083 -0.43011,-1.12903 -1.11834,-0.86493 -0.98963,0.37976 -0.57187,1.78874 0.48556,1.63765 0.37308,-0.0533 0.57843,-0.30407 0.63278,-0.77272 z"
         id="path261" />
      <path
         style="fill:#818f7c;stroke-width:0.264583"
         d="m 147.63143,167.78819 c -0.0815,-0.0815 -2.9453,-0.13845 -6.36387,-0.12643 -10.16055,0.0357 -9.79142,0.19696 -8.12404,-3.54891 1.22472,-2.75142 1.23341,-2.81268 0.49283,-3.47757 -4.47517,-4.01781 -7.42471,-12.69101 -6.58693,-19.36911 2.5709,-20.49332 27.33646,-28.86407 41.44719,-14.00914 13.04338,13.73129 5.90284,36.44245 -12.65801,40.25998 -1.93732,0.39846 -7.88342,0.59493 -8.20717,0.27118 z m -2.98648,-2.16683 c -0.21804,-0.54571 -1.37793,-3.57363 -2.57754,-6.72872 -1.19961,-3.15509 -2.29986,-5.71493 -2.44499,-5.68854 -0.1949,0.0354 -6.21841,12.68727 -6.21841,13.06119 0,0.0868 3.92111,0.22843 8.13379,0.29385 3.50359,0.0544 3.50359,0.0544 3.10715,-0.93778 z m 7.24619,-10.94197 c 0.85918,-0.2995 0.85918,-0.2995 -0.81033,-1.369 -3.13429,-2.00782 -9.06539,-8.62414 -10.86923,-12.12494 -0.82044,-1.59226 -1.45862,-0.8925 -1.70952,1.8745 -0.6574,7.2499 6.9601,13.8606 13.38908,11.61944 z m 2.5136,-1.50516 c 0.2598,-0.42037 -2.53613,-5.60081 -3.02689,-5.60837 -0.0826,-10e-4 -0.36578,0.68229 -0.62935,1.51904 -0.26358,0.83674 -0.53058,1.65557 -0.59333,1.81961 -0.26822,0.70109 3.85724,2.90453 4.24957,2.26972 z m -4.28673,-5.70319 c 0.27001,-1.00954 0.24602,-1.23053 -0.19995,-1.84194 -0.6644,-0.91087 -0.71741,-0.90111 -2.24346,0.41309 -1.61544,1.39118 -1.61469,1.42479 0.0671,2.99796 1.53023,1.43135 1.58309,1.39644 2.37626,-1.56911 z m -2.31026,-3.06339 c 1.04847,-1.16136 -0.34383,-1.95694 -2.49749,-1.42709 -2.28958,0.56329 -2.29836,0.5815 -1.04181,2.15966 1.16586,1.46425 1.64566,1.36494 3.5393,-0.73257 z m -3.33121,-2.34807 c 1.67983,-0.47481 1.67983,-0.47481 0.52719,-1.4193 -4.11458,-3.37159 -5.53205,-3.23952 -3.62536,0.33779 0.93815,1.76016 0.83035,1.72252 3.09817,1.08151 z m 9.02597,-0.82766 c 0.27178,-0.50783 -0.21534,-1.34129 -0.78392,-1.34129 -0.21754,0 -1.05833,0.73351 -1.05833,0.9233 0,0.9591 1.38453,1.27324 1.84225,0.41799 z"
         id="path259" />
      <path
         style="fill:#798674;stroke-width:0.264583"
         d="m 147.65348,167.81611 c -0.0937,-0.0969 -2.96735,-0.16637 -6.38592,-0.15435 -10.16055,0.0357 -9.79142,0.19696 -8.12404,-3.54891 1.22472,-2.75142 1.23341,-2.81268 0.49283,-3.47757 -4.47796,-4.02031 -7.38297,-12.58093 -6.57299,-19.3696 2.84737,-23.8646 34.84026,-29.549 45.59429,-8.10105 6.73072,13.42383 -0.57082,29.77772 -15.17656,33.99222 -1.98863,0.57382 -9.4278,1.07286 -9.82761,0.65926 z m -3.10708,-2.45934 c -0.27035,-0.69122 -1.48404,-3.86093 -2.69708,-7.0438 -2.20553,-5.78703 -2.20553,-5.78703 -2.64982,-4.7625 -0.24437,0.56349 -1.64832,3.6358 -3.1199,6.82735 -1.47158,3.19155 -2.67559,5.83588 -2.67559,5.87628 0,0.10154 3.6569,0.24123 7.99978,0.30559 3.63416,0.0539 3.63416,0.0539 3.14261,-1.20292 z m 7.34474,-10.67738 c 0.85918,-0.2995 0.85918,-0.2995 -0.81033,-1.36758 -3.136,-2.00626 -8.86518,-8.39965 -10.79268,-12.0439 -0.81281,-1.53676 -1.06245,-1.48207 -1.56347,0.34251 -2.02654,7.38001 6.16413,15.51001 13.16648,13.06897 z m 2.48154,-1.4498 c 0.3558,-0.3558 -2.44996,-5.66366 -2.99483,-5.66553 -0.0826,-2.6e-4 -0.36578,0.68409 -0.62935,1.52084 -0.26358,0.83674 -0.53058,1.65557 -0.59333,1.81961 -0.25269,0.6605 3.70194,2.84066 4.21751,2.32508 z m -4.25467,-5.75855 c 0.27001,-1.00954 0.24602,-1.23053 -0.19995,-1.84194 -0.6644,-0.91087 -0.71741,-0.90111 -2.24346,0.41309 -1.61544,1.39118 -1.61469,1.42479 0.0671,2.99796 1.53023,1.43135 1.58309,1.39644 2.37626,-1.56911 z m -2.31026,-3.06339 c 1.04847,-1.16136 -0.34383,-1.95694 -2.49749,-1.42709 -2.28958,0.56329 -2.29836,0.5815 -1.04181,2.15966 1.16586,1.46425 1.64566,1.36494 3.5393,-0.73257 z m -3.36383,-2.31227 c 1.98587,-0.49884 1.85707,-0.73933 -1.62208,-3.02874 -2.51601,-1.65562 -3.00181,-1.01232 -1.44347,1.91143 0.94442,1.77191 0.7466,1.69981 3.06555,1.11731 z m 9.05859,-0.86346 c 0.27178,-0.50783 -0.21534,-1.34129 -0.78392,-1.34129 -0.21754,0 -1.05833,0.73351 -1.05833,0.9233 0,0.9591 1.38453,1.27324 1.84225,0.41799 z"
         id="path257" />
      <path
         style="fill:#6ab849;stroke-width:0.264583"
         d="m 147.63095,167.78771 c -0.0818,-0.0818 -2.84573,-0.13861 -6.14203,-0.12621 -10.39258,0.0391 -10.02558,0.20395 -8.25559,-3.70816 l 1.14374,-2.52792 -1.19132,-1.30854 c -17.21941,-18.91372 3.54636,-48.23885 27.24023,-38.46829 21.65803,8.93106 18.4384,41.1231 -4.58738,45.86765 -1.93895,0.39953 -7.88299,0.59613 -8.20765,0.27147 z m -3.08325,-2.43094 c -0.26964,-0.69122 -1.48249,-3.86288 -2.69523,-7.04814 -2.20499,-5.79137 -2.20499,-5.79137 -2.65113,-4.7625 -0.24538,0.56588 -1.65016,3.64014 -3.12174,6.83169 -1.47158,3.19155 -2.67559,5.83588 -2.67559,5.87628 0,0.10154 3.6569,0.24123 7.99978,0.30559 3.63416,0.0539 3.63416,0.0539 3.14391,-1.20292 z m 7.34344,-10.67738 c 0.85918,-0.2995 0.85918,-0.2995 -0.81033,-1.37714 -3.23247,-2.08649 -9.09617,-8.63869 -10.75157,-12.01398 -0.83783,-1.7083 -0.94486,-1.71989 -1.4764,-0.15989 -2.51826,7.39069 5.82755,16.0647 13.0383,13.55101 z m 2.46293,-1.95647 c -0.15806,-0.99191 -2.55014,-5.13319 -2.97622,-5.15255 -0.0826,-0.004 -0.36578,0.67778 -0.62935,1.51453 -0.26358,0.83674 -0.53058,1.65557 -0.59333,1.81961 -0.0628,0.16404 0.62911,0.79455 1.53748,1.40114 1.75859,1.17434 2.80827,1.33892 2.66142,0.41727 z m -4.23606,-5.25188 c 0.27001,-1.00954 0.24602,-1.23053 -0.19995,-1.84194 -0.66295,-0.9089 -0.71807,-0.89936 -2.24523,0.38836 -1.61787,1.36421 -1.61599,1.44665 0.0689,3.02269 1.53023,1.43135 1.58309,1.39644 2.37626,-1.56911 z m -2.31026,-3.06339 c 1.04847,-1.16136 -0.34383,-1.95694 -2.49749,-1.42709 -2.29357,0.56427 -2.30659,0.59103 -1.05662,2.17237 1.15926,1.46656 1.6502,1.36361 3.55411,-0.74528 z m -2.76237,-2.4757 c 1.15239,-0.33365 1.15239,-0.33365 -0.54814,-1.68052 -3.84863,-3.04825 -4.98524,-2.77502 -3.10795,0.74712 0.93407,1.75251 0.87716,1.73798 3.65609,0.9334 z m 8.43913,-0.55258 c 0.69505,-0.83749 -0.70872,-1.92391 -1.48407,-1.14856 -0.56269,0.56268 -0.20402,1.5119 0.57129,1.5119 0.33618,0 0.74693,-0.1635 0.91278,-0.36334 z"
         id="path255" />
      <path
         style="fill:#68b448;stroke-width:0.264583"
         d="m 147.63095,167.78771 c -0.0818,-0.0818 -2.84573,-0.13861 -6.14203,-0.12621 -10.39258,0.0391 -10.02558,0.20395 -8.25559,-3.70816 l 1.14374,-2.52792 -1.19132,-1.30854 c -17.21941,-18.91372 3.54636,-48.23885 27.24023,-38.46829 21.65803,8.93106 18.4384,41.1231 -4.58738,45.86765 -1.93895,0.39953 -7.88299,0.59613 -8.20765,0.27147 z m 8.49461,-1.57811 c 22.52571,-5.16437 23.88203,-36.89164 1.8847,-44.08704 -21.1202,-6.90848 -38.85761,18.4941 -25.0299,35.8465 1.81876,2.28236 1.46992,2.52681 3.87955,-2.71869 2.07258,-4.51176 2.07258,-4.51176 1.27888,-6.20786 -1.48405,-3.17132 -1.56223,-6.67871 -0.20683,-9.27826 0.30519,-0.58534 0.77597,-1.49567 1.04618,-2.02296 1.00042,-1.95225 3.18858,-1.36669 6.98808,1.87005 0.8701,0.74123 1.72485,1.29287 1.89944,1.22588 0.17459,-0.067 0.72596,-0.19846 1.22527,-0.29213 0.53827,-0.10098 1.25478,-0.53813 1.76008,-1.07384 1.16865,-1.239 2.56706,-1.27411 3.56385,-0.0895 1.13761,1.35197 0.76551,2.95359 -0.88443,3.80681 -1.62271,0.83913 -1.58886,2.46547 0.10427,5.01009 2.46931,3.71114 2.97554,6.77322 1.11977,6.77322 -0.14484,0 -0.89965,0.31131 -1.67736,0.69181 -3.14702,1.53969 -7.4453,0.97627 -10.60157,-1.38967 -0.85033,-0.63741 -0.85033,-0.63741 -0.48956,0.36095 0.84737,2.34489 4.41146,11.56645 4.50749,11.66248 0.64727,0.64728 6.66504,0.59239 9.63209,-0.0879 z m 9.87924,-21.88461 c -0.20695,-0.24936 -0.21243,-0.69268 -0.019,-1.5327 1.75594,-7.62403 -4.13688,-14.99614 -12.17603,-15.23258 -3.87236,-0.1139 -3.8294,-1.50597 0.0505,-1.636 5.95043,-0.19942 11.4074,3.72694 13.45798,9.6832 1.3789,4.00524 0.36429,10.73966 -1.31348,8.71808 z m -3.40826,-0.35239 c -0.0878,-0.22877 -0.0254,-1.22894 0.13874,-2.22259 0.95661,-5.79245 -2.84288,-10.41523 -8.90099,-10.82971 -2.64011,-0.18063 -3.43638,-1.13681 -1.42669,-1.71319 5.79655,-1.66243 12.57358,4.84449 12.14813,11.66395 -0.17451,2.79718 -1.3574,4.66978 -1.95919,3.10154 z m -2.27288,-1.46885 c -0.37288,-0.20867 -0.42526,-0.51433 -0.3022,-1.7635 0.35945,-3.64871 -2.47495,-6.93504 -5.98133,-6.93504 -1.52326,0 -2.38216,-0.54698 -1.94913,-1.24127 0.77969,-1.25009 5.06266,-0.29944 7.15097,1.58723 2.72201,2.45917 3.67303,9.80277 1.08169,8.35258 z m -2.48045,-1.15307 c -0.11585,-0.30192 -0.26987,-0.32811 -0.67006,-0.11393 -0.7242,0.38758 -1.27956,-0.1333 -1.27956,-1.20011 0,-1.06633 -0.90661,-1.96381 -2.195,-2.17288 -1.63187,-0.26482 -1.51219,-1.54197 0.16418,-1.75195 0.8402,-0.10525 0.8402,-0.10525 0.0127,-0.14759 -1.07754,-0.0551 -1.62703,-0.66647 -1.13353,-1.26111 1.70069,-2.0492 6.85582,1.87088 6.85582,5.21332 0,1.67011 -1.2667,2.70556 -1.75455,1.43425 z m -0.59387,-3.38269 c -0.26131,-0.25936 -0.2917,-0.22897 -0.14811,0.14811 0.0994,0.26094 0.2473,0.40778 0.32876,0.32632 0.0815,-0.0815 1.7e-4,-0.29496 -0.18065,-0.47443 z m -12.70164,27.38878 c -0.26964,-0.69122 -1.48249,-3.86288 -2.69523,-7.04814 -2.20499,-5.79137 -2.20499,-5.79137 -2.65113,-4.7625 -0.24538,0.56588 -1.65016,3.64014 -3.12174,6.83169 -1.47158,3.19155 -2.67559,5.83588 -2.67559,5.87628 0,0.10154 3.6569,0.24123 7.99978,0.30559 3.63416,0.0539 3.63416,0.0539 3.14391,-1.20292 z m 7.34344,-10.67738 c 0.85918,-0.2995 0.85918,-0.2995 -0.81033,-1.37714 -3.23247,-2.08649 -9.09617,-8.63869 -10.75157,-12.01398 -0.83783,-1.7083 -0.94486,-1.71989 -1.4764,-0.15989 -2.51826,7.39069 5.82755,16.0647 13.0383,13.55101 z m 2.46293,-1.95647 c -0.15806,-0.99191 -2.55014,-5.13319 -2.97622,-5.15255 -0.0826,-0.004 -0.36578,0.67778 -0.62935,1.51453 -0.26358,0.83674 -0.53058,1.65557 -0.59333,1.81961 -0.0628,0.16404 0.62911,0.79455 1.53748,1.40114 1.75859,1.17434 2.80827,1.33892 2.66142,0.41727 z m -4.23606,-5.25188 c 0.27001,-1.00954 0.24602,-1.23053 -0.19995,-1.84194 -0.66295,-0.9089 -0.71807,-0.89936 -2.24523,0.38836 -1.61787,1.36421 -1.61599,1.44665 0.0689,3.02269 1.53023,1.43135 1.58309,1.39644 2.37626,-1.56911 z m -2.31026,-3.06339 c 1.04847,-1.16136 -0.34383,-1.95694 -2.49749,-1.42709 -2.29357,0.56427 -2.30659,0.59103 -1.05662,2.17237 1.15926,1.46656 1.6502,1.36361 3.55411,-0.74528 z m -2.76237,-2.4757 c 1.15239,-0.33365 1.15239,-0.33365 -0.54814,-1.68052 -3.84863,-3.04825 -4.98524,-2.77502 -3.10795,0.74712 0.93407,1.75251 0.87716,1.73798 3.65609,0.9334 z m 4.87984,0.3646 c 0.0815,-0.13195 -0.09,-0.17759 -0.38126,-0.10143 -0.6178,0.16156 -0.6959,0.34134 -0.14828,0.34134 0.2097,0 0.44799,-0.10796 0.52954,-0.23991 z m 3.55929,-0.91718 c 0.69505,-0.83749 -0.70872,-1.92391 -1.48407,-1.14856 -0.56269,0.56268 -0.20402,1.5119 0.57129,1.5119 0.33618,0 0.74693,-0.1635 0.91278,-0.36334 z"
         id="path253" />
      <path
         style="fill:#66aa49;stroke-width:0.264583"
         d="m 147.63095,167.78771 c -0.0818,-0.0818 -2.84573,-0.13861 -6.14203,-0.12621 -10.39258,0.0391 -10.02558,0.20395 -8.25559,-3.70816 l 1.14374,-2.52792 -1.19132,-1.30854 c -17.21941,-18.91372 3.54636,-48.23885 27.24023,-38.46829 21.65803,8.93106 18.4384,41.1231 -4.58738,45.86765 -1.93895,0.39953 -7.88299,0.59613 -8.20765,0.27147 z m 8.49461,-1.57811 c 22.52571,-5.16437 23.88203,-36.89164 1.8847,-44.08704 -21.16258,-6.92235 -38.85086,18.48017 -24.99392,35.89431 1.78579,2.24422 1.8081,2.25387 2.31379,1.00091 0.45617,-1.13027 2.91597,-6.48434 3.42819,-7.46189 0.2954,-0.56376 0.22665,-0.85381 -0.59181,-2.49677 -1.457,-2.92474 -1.3907,-6.48158 0.18182,-9.7546 1.62113,-3.37418 2.74434,-3.38633 6.88366,-0.0745 1.18161,0.9454 2.35339,1.71891 2.60398,1.71891 0.98566,0 2.57429,-0.65908 2.94226,-1.22066 0.52793,-0.80573 1.76613,-1.21373 2.6563,-0.87529 2.00059,0.76062 1.84507,3.55835 -0.23857,4.29167 -1.27464,0.44861 -1.32954,2.7863 -0.10597,4.51235 3.33741,4.70794 3.43025,6.23209 0.46615,7.65271 -3.31343,1.58805 -7.11227,1.29518 -10.48865,-0.80862 -0.7242,-0.45125 -1.36739,-0.76978 -1.42931,-0.70786 -0.0844,0.0844 4.3491,12.11645 4.6037,12.49413 0.4331,0.64248 6.96634,0.59105 9.88368,-0.0778 z m 10.10868,-21.80752 c -0.29658,-0.1833 -0.30049,-0.52142 -0.023,-1.99184 1.44466,-7.65643 -4.02731,-14.442 -12.0374,-14.92709 -2.4641,-0.14923 -2.65151,-0.20009 -2.72841,-0.74047 -0.10579,-0.74345 1.13678,-1.01862 3.42874,-0.75932 7.58386,0.85802 12.92974,6.71559 12.92423,14.16129 -0.002,3.0305 -0.6586,4.81707 -1.56412,4.25743 z m -3.59158,-0.53915 c -0.0887,-0.14356 -0.0369,-0.70911 0.1152,-1.25677 1.6674,-6.00413 -3.77336,-12.68912 -9.66963,-11.88095 -1.33081,0.18241 -2.00654,-0.32391 -1.40294,-1.05121 0.50857,-0.61278 4.09661,-0.37153 6.13568,0.41255 3.1686,1.21842 5.89303,4.67438 6.55971,8.32103 0.55541,3.03797 -0.73288,7.0817 -1.73802,5.45535 z m -2.3302,-1.49371 c -0.10204,-0.10205 -0.18815,-1.0289 -0.19135,-2.05967 -0.0123,-3.97603 -2.76741,-6.76892 -6.6773,-6.76892 -1.22165,0 -1.67542,-0.37708 -1.2609,-1.04779 0.35162,-0.56894 3.61778,-0.23784 5.12085,0.51912 3.02841,1.52513 5.00247,5.48301 4.22243,8.46576 -0.22903,0.87577 -0.80581,1.29942 -1.21373,0.8915 z m -2.14984,-0.93768 c -0.0609,-0.19266 -0.16646,-0.92944 -0.2347,-1.63728 -0.20271,-2.10288 -1.76055,-3.65221 -4.01169,-3.98979 -1.39702,-0.2095 -1.72573,-1.06289 -0.52544,-1.36414 2.79909,-0.70253 6.10065,2.58076 5.89281,5.8602 -0.0814,1.28436 -0.83305,2.04272 -1.12098,1.13101 z m -1.81273,-0.40178 c -0.0672,-0.1172 -0.20181,-0.65442 -0.2991,-1.19381 -0.18723,-1.03812 -1.1919,-2.06199 -2.02332,-2.06199 -1.26333,0 -1.87731,-1.11255 -0.77331,-1.40125 2.07175,-0.54178 4.50391,1.81466 4.18633,4.05601 -0.0884,0.624 -0.83991,1.03815 -1.0906,0.60104 z m -11.80219,24.32701 c -0.26964,-0.69122 -1.48249,-3.86288 -2.69523,-7.04814 -2.20499,-5.79137 -2.20499,-5.79137 -2.65113,-4.7625 -0.24538,0.56588 -1.65016,3.64014 -3.12174,6.83169 -1.47158,3.19155 -2.67559,5.83588 -2.67559,5.87628 0,0.10154 3.6569,0.24123 7.99978,0.30559 3.63416,0.0539 3.63416,0.0539 3.14391,-1.20292 z m 7.34344,-10.67738 c 0.85918,-0.2995 0.85918,-0.2995 -0.81033,-1.37714 -3.23247,-2.08649 -9.09617,-8.63869 -10.75157,-12.01398 -0.83783,-1.7083 -0.94486,-1.71989 -1.4764,-0.15989 -2.51826,7.39069 5.82755,16.0647 13.0383,13.55101 z m 2.46293,-1.95647 c -0.15806,-0.99191 -2.55014,-5.13319 -2.97622,-5.15255 -0.0826,-0.004 -0.36578,0.67778 -0.62935,1.51453 -0.26358,0.83674 -0.53058,1.65557 -0.59333,1.81961 -0.0628,0.16404 0.62911,0.79455 1.53748,1.40114 1.75859,1.17434 2.80827,1.33892 2.66142,0.41727 z m -4.23606,-5.25188 c 0.27001,-1.00954 0.24602,-1.23053 -0.19995,-1.84194 -0.66295,-0.9089 -0.71807,-0.89936 -2.24523,0.38836 -1.61787,1.36421 -1.61599,1.44665 0.0689,3.02269 1.53023,1.43135 1.58309,1.39644 2.37626,-1.56911 z m -2.31026,-3.06339 c 1.04847,-1.16136 -0.34383,-1.95694 -2.49749,-1.42709 -2.29357,0.56427 -2.30659,0.59103 -1.05662,2.17237 1.15926,1.46656 1.6502,1.36361 3.55411,-0.74528 z m 3.31929,-0.80341 c 0.003,-0.32303 -0.0671,-0.31626 -0.42413,0.0408 -0.2359,0.2359 -0.33986,0.57108 -0.23151,0.7464 0.22895,0.37045 0.6488,-0.13362 0.65564,-0.78716 z m -1.31887,-1.20007 c 0.27468,-0.33097 0.23872,-0.39688 -0.21657,-0.39688 -0.57947,0 -0.94032,0.34242 -0.65818,0.62456 0.2666,0.26659 0.51909,0.20087 0.87475,-0.22768 z m -4.76279,-0.47222 c 1.15239,-0.33365 1.15239,-0.33365 -0.54814,-1.68052 -3.84863,-3.04825 -4.98524,-2.77502 -3.10795,0.74712 0.93407,1.75251 0.87716,1.73798 3.65609,0.9334 z m 8.43913,-0.55258 c 0.69505,-0.83749 -0.70872,-1.92391 -1.48407,-1.14856 -0.56269,0.56268 -0.20402,1.5119 0.57129,1.5119 0.33618,0 0.74693,-0.1635 0.91278,-0.36334 z"
         id="path251" />
      <path
         style="fill:#70716f;stroke-width:0.264583"
         d="m 147.63095,167.78771 c -0.0818,-0.0818 -2.84573,-0.13861 -6.14203,-0.12621 -10.39258,0.0391 -10.02558,0.20395 -8.25559,-3.70816 l 1.14374,-2.52792 -1.19132,-1.30854 c -17.21941,-18.91372 3.54636,-48.23885 27.24023,-38.46829 21.65803,8.93106 18.4384,41.1231 -4.58738,45.86765 -1.93895,0.39953 -7.88299,0.59613 -8.20765,0.27147 z m 7.32393,-1.31165 c 24.34589,-4.24556 25.34327,-39.12742 1.28303,-44.87198 -19.78844,-4.72463 -35.67706,17.87505 -24.42797,34.7459 2.80256,4.20315 2.90839,4.2447 4.09316,1.6072 0.57414,-1.27811 1.5507,-3.39998 2.17013,-4.71525 1.12625,-2.39141 1.12625,-2.39141 0.3639,-3.90277 -1.69332,-3.35704 -1.69172,-6.45946 0.005,-9.96836 1.69152,-3.49785 3.41865,-3.28505 7.95574,0.9802 1.19314,1.12166 3.36375,0.79342 4.61911,-0.69848 1.30919,-1.5559 3.81813,-0.70399 3.81813,1.29644 0,0.86911 -0.9919,2.11667 -1.6829,2.11667 -0.3594,0 -1.22752,2.00609 -1.22752,2.83661 0,0.1986 0.46938,0.98279 1.04307,1.74263 2.20311,2.918 3.24087,6.23811 2.13193,6.82068 -4.7368,2.48841 -8.53602,2.37116 -12.59765,-0.38879 -0.54907,-0.3731 -1.04014,-0.63653 -1.09127,-0.5854 -0.0951,0.0951 4.59805,12.58617 4.80751,12.79564 0.57809,0.57809 5.85124,0.6922 8.73645,0.18906 z m 11.13642,-22.3339 c -0.0937,-0.15162 -0.0459,-0.72376 0.10615,-1.27142 2.07495,-7.47171 -4.12429,-15.31201 -12.28823,-15.54116 -2.13339,-0.0599 -2.38125,-0.11879 -2.38125,-0.56592 0,-0.44343 0.24863,-0.50773 2.22992,-0.57668 7.38823,-0.25713 13.51256,5.52835 13.9461,13.17448 0.18835,3.32192 -0.76592,6.1508 -1.61269,4.7807 z m -3.37106,-0.30805 c -0.0584,-0.17508 0.045,-1.04469 0.22974,-1.93247 1.19706,-5.75314 -2.93021,-10.82188 -9.15935,-11.24869 -2.54317,-0.17425 -3.12952,-0.73468 -1.25345,-1.19804 6.52533,-1.61166 13.73925,6.83025 11.51473,13.47481 -0.34275,1.02378 -1.11667,1.54939 -1.33167,0.90439 z m -2.41981,-1.47692 c -0.0986,-0.0986 -0.10526,-0.73717 -0.0148,-1.41904 0.50242,-3.78744 -2.23357,-7.01971 -6.24411,-7.37672 -2.18294,-0.19432 -2.61371,-1.14695 -0.58483,-1.2933 4.12754,-0.29774 8.02593,3.34788 8.06123,7.53853 0.0191,2.26433 -0.47295,3.29506 -1.21748,2.55053 z m -1.9329,-0.82805 c -0.15753,-0.10082 -0.34037,-0.84906 -0.40629,-1.66276 -0.19255,-2.3767 -2.01459,-4.18516 -4.23485,-4.20328 -0.88649,-0.007 -1.23369,-0.50919 -0.64828,-0.93725 1.2837,-0.93867 4.51548,0.71945 5.58485,2.86539 0.99019,1.98706 0.79165,4.63357 -0.29543,3.9379 z m -2.03297,-0.49199 c -0.097,-0.097 -0.17639,-0.46011 -0.17639,-0.80688 0,-1.50516 -1.32672,-2.72089 -2.9693,-2.72089 -0.34394,0 -0.47886,-0.1502 -0.41592,-0.46302 0.31379,-1.55962 3.80609,-0.0133 4.4626,1.97592 0.46724,1.41575 -0.14066,2.7752 -0.90099,2.01487 z m -11.78686,24.31962 c -0.26964,-0.69122 -1.48249,-3.86288 -2.69523,-7.04814 -2.20499,-5.79137 -2.20499,-5.79137 -2.65113,-4.7625 -0.24538,0.56588 -1.65016,3.64014 -3.12174,6.83169 -1.47158,3.19155 -2.67559,5.83588 -2.67559,5.87628 0,0.10154 3.6569,0.24123 7.99978,0.30559 3.63416,0.0539 3.63416,0.0539 3.14391,-1.20292 z m 7.34344,-10.67738 c 0.85918,-0.2995 0.85918,-0.2995 -0.81033,-1.37714 -3.23247,-2.08649 -9.09617,-8.63869 -10.75157,-12.01398 -0.83783,-1.7083 -0.94486,-1.71989 -1.4764,-0.15989 -2.51826,7.39069 5.82755,16.0647 13.0383,13.55101 z m 2.46293,-1.95647 c -0.15806,-0.99191 -2.55014,-5.13319 -2.97622,-5.15255 -0.0826,-0.004 -0.36578,0.67778 -0.62935,1.51453 -0.26358,0.83674 -0.53058,1.65557 -0.59333,1.81961 -0.0628,0.16404 0.62911,0.79455 1.53748,1.40114 1.75859,1.17434 2.80827,1.33892 2.66142,0.41727 z m -4.23606,-5.25188 c 0.27001,-1.00954 0.24602,-1.23053 -0.19995,-1.84194 -0.66295,-0.9089 -0.71807,-0.89936 -2.24523,0.38836 -1.61787,1.36421 -1.61599,1.44665 0.0689,3.02269 1.53023,1.43135 1.58309,1.39644 2.37626,-1.56911 z m -2.31026,-3.06339 c 1.04847,-1.16136 -0.34383,-1.95694 -2.49749,-1.42709 -2.29357,0.56427 -2.30659,0.59103 -1.05662,2.17237 1.15926,1.46656 1.6502,1.36361 3.55411,-0.74528 z m 3.45085,-0.76916 c 0.18484,-0.61067 0.17905,-0.61256 -0.50406,-0.16498 -0.5531,0.36241 -0.62897,0.52757 -0.38012,0.82742 0.35352,0.42597 0.61375,0.231 0.88418,-0.66244 z m -1.18584,-1.23432 c 0.68325,-0.72729 0.50899,-0.81137 -0.76274,-0.36804 -0.67705,0.23602 -0.78195,0.36541 -0.53625,0.66146 0.41962,0.5056 0.58302,0.46869 1.29899,-0.29342 z m -5.02738,-0.47222 c 1.15239,-0.33365 1.15239,-0.33365 -0.54814,-1.68052 -3.84863,-3.04825 -4.98524,-2.77502 -3.10795,0.74712 0.93407,1.75251 0.87716,1.73798 3.65609,0.9334 z m 8.43913,-0.55258 c 0.69505,-0.83749 -0.70872,-1.92391 -1.48407,-1.14856 -0.56269,0.56268 -0.20402,1.5119 0.57129,1.5119 0.33618,0 0.74693,-0.1635 0.91278,-0.36334 z"
         id="path249" />
      <path
         style="fill:#64944f;stroke-width:0.264583"
         d="m 147.89897,167.79764 c -0.10418,-0.10775 -2.48543,-0.17462 -5.29167,-0.14859 -11.32913,0.1051 -11.1609,0.17915 -9.21364,-4.05571 0.98964,-2.15226 0.98964,-2.15226 -0.31257,-3.60093 -14.1857,-15.78109 -2.23462,-41.05262 18.97604,-40.12638 27.45177,1.19878 31.56261,39.9134 5.02709,47.34354 -1.91565,0.5364 -8.80856,0.9777 -9.18525,0.58807 z m 7.05591,-1.32158 c 24.34589,-4.24556 25.34327,-39.12742 1.28303,-44.87198 -19.78844,-4.72463 -35.67706,17.87505 -24.42797,34.7459 2.80256,4.20315 2.90839,4.2447 4.09316,1.6072 0.57414,-1.27811 1.5507,-3.39998 2.17013,-4.71525 1.12625,-2.39141 1.12625,-2.39141 0.3639,-3.90277 -1.69332,-3.35704 -1.69172,-6.45946 0.005,-9.96836 1.69152,-3.49785 3.41865,-3.28505 7.95574,0.9802 1.19314,1.12166 3.36375,0.79342 4.61911,-0.69848 1.30919,-1.5559 3.81813,-0.70399 3.81813,1.29644 0,0.86911 -0.9919,2.11667 -1.6829,2.11667 -0.3594,0 -1.22752,2.00609 -1.22752,2.83661 0,0.1986 0.46938,0.98279 1.04307,1.74263 2.20311,2.918 3.24087,6.23811 2.13193,6.82068 -4.7368,2.48841 -8.53602,2.37116 -12.59765,-0.38879 -0.54907,-0.3731 -1.04014,-0.63653 -1.09127,-0.5854 -0.0951,0.0951 4.59805,12.58617 4.80751,12.79564 0.57809,0.57809 5.85124,0.6922 8.73645,0.18906 z m 11.13642,-22.3339 c -0.0937,-0.15162 -0.0459,-0.72376 0.10615,-1.27142 2.07495,-7.47171 -4.12429,-15.31201 -12.28823,-15.54116 -2.13339,-0.0599 -2.38125,-0.11879 -2.38125,-0.56592 0,-0.44343 0.24863,-0.50773 2.22992,-0.57668 7.38823,-0.25713 13.51256,5.52835 13.9461,13.17448 0.18835,3.32192 -0.76592,6.1508 -1.61269,4.7807 z m -3.37106,-0.30805 c -0.0584,-0.17508 0.045,-1.04469 0.22974,-1.93247 1.19706,-5.75314 -2.93021,-10.82188 -9.15935,-11.24869 -2.54317,-0.17425 -3.12952,-0.73468 -1.25345,-1.19804 6.52533,-1.61166 13.73925,6.83025 11.51473,13.47481 -0.34275,1.02378 -1.11667,1.54939 -1.33167,0.90439 z m -2.41981,-1.47692 c -0.0986,-0.0986 -0.10526,-0.73717 -0.0148,-1.41904 0.50242,-3.78744 -2.23357,-7.01971 -6.24411,-7.37672 -2.18294,-0.19432 -2.61371,-1.14695 -0.58483,-1.2933 4.12754,-0.29774 8.02593,3.34788 8.06123,7.53853 0.0191,2.26433 -0.47295,3.29506 -1.21748,2.55053 z m -1.9329,-0.82805 c -0.15753,-0.10082 -0.34037,-0.84906 -0.40629,-1.66276 -0.19255,-2.3767 -2.01459,-4.18516 -4.23485,-4.20328 -0.88649,-0.007 -1.23369,-0.50919 -0.64828,-0.93725 1.2837,-0.93867 4.51548,0.71945 5.58485,2.86539 0.99019,1.98706 0.79165,4.63357 -0.29543,3.9379 z m -2.03297,-0.49199 c -0.097,-0.097 -0.17639,-0.46011 -0.17639,-0.80688 0,-1.50516 -1.32672,-2.72089 -2.9693,-2.72089 -0.34394,0 -0.47886,-0.1502 -0.41592,-0.46302 0.31379,-1.55962 3.80609,-0.0133 4.4626,1.97592 0.46724,1.41575 -0.14066,2.7752 -0.90099,2.01487 z m -11.78686,24.31962 c -0.26964,-0.69122 -1.47679,-3.84795 -2.68257,-7.01496 -1.20577,-3.167 -2.21888,-5.72684 -2.25135,-5.68854 -0.0575,0.0679 -5.86009,12.71937 -6.12425,13.35289 -0.15033,0.36053 1.35887,0.46999 7.64968,0.55481 3.89874,0.0526 3.89874,0.0526 3.40849,-1.2042 z m 7.36283,-10.68413 c 0.87856,-0.30627 0.87856,-0.30627 -0.0284,-0.86341 -3.85366,-2.36716 -9.65675,-8.6549 -11.54942,-12.51399 -0.84147,-1.71572 -0.94798,-1.72773 -1.47982,-0.16686 -2.52238,7.40277 5.82817,16.06448 13.05769,13.54426 z m 2.44354,-1.94972 c -0.16069,-1.00841 -2.55431,-5.15743 -2.97622,-5.15887 -0.0826,-2.6e-4 -0.36578,0.6841 -0.62935,1.52085 -0.26358,0.83674 -0.53445,1.66566 -0.60194,1.84205 -0.0681,0.178 0.6202,0.80085 1.54702,1.39989 1.78239,1.15201 2.8052,1.30428 2.66049,0.39608 z m -4.57019,-4.15242 c 0.67107,-1.98713 0.67502,-2.29534 0.0392,-3.05748 -0.65291,-0.78264 -0.62978,-0.78907 -2.3016,0.63921 l -1.44502,1.23452 1.39378,1.41131 c 1.72383,1.74551 1.64467,1.7533 2.31361,-0.22756 z m -1.97613,-4.16285 c 1.061,-1.17523 -0.39771,-2.01164 -2.51746,-1.44349 -2.27731,0.61038 -2.27992,0.6159 -1.03665,2.18877 1.15926,1.46656 1.6502,1.36361 3.55411,-0.74528 z m 3.45085,-0.76916 c 0.18484,-0.61067 0.17905,-0.61256 -0.50406,-0.16498 -0.5531,0.36241 -0.62897,0.52757 -0.38012,0.82742 0.35352,0.42597 0.61375,0.231 0.88418,-0.66244 z m -1.18584,-1.23432 c 0.68325,-0.72729 0.50899,-0.81137 -0.76274,-0.36804 -0.67705,0.23602 -0.78195,0.36541 -0.53625,0.66146 0.41962,0.5056 0.58302,0.46869 1.29899,-0.29342 z m -5.02738,-0.47222 c 1.15239,-0.33365 1.15239,-0.33365 -0.54814,-1.68052 -3.84863,-3.04825 -4.98524,-2.77502 -3.10795,0.74712 0.93407,1.75251 0.87716,1.73798 3.65609,0.9334 z m 8.58511,-1.3213 c -0.24324,-0.63389 -1.16193,-0.84797 -1.63005,-0.37984 -0.48039,0.48038 -0.23969,1.4336 0.39985,1.5835 0.61696,0.14461 1.43896,-0.65965 1.2302,-1.20366 z"
         id="path247" />
      <path
         style="fill:#5a8a45;stroke-width:0.264583"
         d="m 147.89897,167.79764 c -0.10418,-0.10775 -2.48543,-0.17462 -5.29167,-0.14859 -11.32913,0.1051 -11.1609,0.17915 -9.21364,-4.05571 0.98964,-2.15226 0.98964,-2.15226 -0.31257,-3.60093 -14.1857,-15.78109 -2.23462,-41.05262 18.97604,-40.12638 27.45177,1.19878 31.56261,39.9134 5.02709,47.34354 -1.91565,0.5364 -8.80856,0.9777 -9.18525,0.58807 z m 7.59775,-1.4204 c 21.1711,-4.39149 25.25856,-32.66865 6.17769,-42.73748 -18.37686,-9.69733 -39.09152,8.29239 -32.24981,28.00746 0.9248,2.66488 4.97557,9.0518 5.43425,8.56826 0.0439,-0.0463 0.6147,-1.27485 1.26834,-2.73006 0.65365,-1.45521 1.62195,-3.55727 2.15179,-4.67125 0.96333,-2.02541 0.96333,-2.02541 0.15808,-3.61005 -2.48859,-4.89723 -0.39779,-13.35741 3.02214,-12.22873 1.06256,0.35068 3.6159,2.08586 4.93882,3.35628 1.17692,1.13023 3.30582,0.82225 4.71047,-0.68143 1.39697,-1.49547 3.72677,-0.68357 3.72677,1.29872 0,0.86911 -0.9919,2.11667 -1.6829,2.11667 -0.3594,0 -1.22752,2.00609 -1.22752,2.83661 0,0.1986 0.46938,0.98279 1.04307,1.74263 2.20311,2.918 3.24087,6.23811 2.13193,6.82068 -4.69811,2.46809 -8.25803,2.39181 -12.36867,-0.26502 -1.41328,-0.91345 -1.60052,-0.9765 -1.40232,-0.47216 0.12581,0.32012 1.24496,3.2443 2.487,6.49817 1.24204,3.25387 2.31288,5.97075 2.37964,6.03751 0.66313,0.66314 6.31818,0.73195 9.30123,0.11319 z m 10.62424,-22.18709 c -0.0774,-0.12523 -0.0318,-0.69737 0.10131,-1.27142 1.81587,-7.83069 -4.04738,-15.28442 -12.27469,-15.60436 -2.52498,-0.0982 -2.69887,-0.15288 -2.4606,-0.77379 0.21695,-0.56538 4.07049,-0.55652 6.01223,0.0138 5.90814,1.73538 9.83707,6.66877 10.19951,12.80706 0.19215,3.2543 -0.75648,6.15755 -1.57776,4.82869 z m -3.40072,-0.35604 c -0.0584,-0.17508 0.0476,-1.04469 0.23539,-1.93247 1.19452,-5.64609 -2.96934,-10.87968 -8.91272,-11.20248 -2.86537,-0.15563 -3.64144,-0.86715 -1.4037,-1.28696 6.7005,-1.25702 13.68933,7.04407 11.38368,13.52114 -0.36831,1.03464 -1.09136,1.53463 -1.30265,0.90077 z m -2.41981,-1.47692 c -0.0986,-0.0986 -0.10526,-0.73717 -0.0148,-1.41904 0.50242,-3.78744 -2.23357,-7.01971 -6.24411,-7.37672 -2.59506,-0.23101 -2.59506,-1.22199 0,-1.19068 4.22612,0.051 7.4414,3.36288 7.4414,7.66503 0,1.95027 -0.52431,2.97958 -1.18248,2.32141 z m -1.9329,-0.82805 c -0.15753,-0.10082 -0.34234,-0.87285 -0.41067,-1.71563 -0.19056,-2.35016 -1.47467,-3.68324 -3.95595,-4.10683 -1.44379,-0.24647 -1.58854,-0.93375 -0.22399,-1.06345 2.057,-0.19551 4.07612,1.10623 5.06124,3.26302 0.81869,1.79243 0.50021,4.24417 -0.47063,3.62289 z m -2.03297,-0.49199 c -0.097,-0.097 -0.17639,-0.55587 -0.17639,-1.01969 0,-1.16964 -1.00389,-2.18623 -2.37552,-2.40556 -1.62764,-0.26028 -1.37313,-1.03464 0.33259,-1.01194 1.45912,0.0194 2.62632,0.92553 3.12031,2.42232 0.46724,1.41575 -0.14066,2.7752 -0.90099,2.01487 z m -11.78686,24.31962 c -0.26964,-0.69122 -1.47679,-3.84795 -2.68257,-7.01496 -1.20577,-3.167 -2.21888,-5.72684 -2.25135,-5.68854 -0.0575,0.0679 -5.86009,12.71937 -6.12425,13.35289 -0.15033,0.36053 1.35887,0.46999 7.64968,0.55481 3.89874,0.0526 3.89874,0.0526 3.40849,-1.2042 z m 7.36283,-10.68413 c 0.87856,-0.30627 0.87856,-0.30627 -0.0284,-0.86341 -3.85366,-2.36716 -9.65675,-8.6549 -11.54942,-12.51399 -0.84147,-1.71572 -0.94798,-1.72773 -1.47982,-0.16686 -2.52238,7.40277 5.82817,16.06448 13.05769,13.54426 z m 2.44354,-1.94972 c -0.16069,-1.00841 -2.55431,-5.15743 -2.97622,-5.15887 -0.0826,-2.6e-4 -0.36578,0.6841 -0.62935,1.52085 -0.26358,0.83674 -0.53445,1.66566 -0.60194,1.84205 -0.0681,0.178 0.6202,0.80085 1.54702,1.39989 1.78239,1.15201 2.8052,1.30428 2.66049,0.39608 z m -4.57019,-4.15242 c 0.67107,-1.98713 0.67502,-2.29534 0.0392,-3.05748 -0.65291,-0.78264 -0.62978,-0.78907 -2.3016,0.63921 l -1.44502,1.23452 1.39378,1.41131 c 1.72383,1.74551 1.64467,1.7533 2.31361,-0.22756 z m -1.97613,-4.16285 c 1.061,-1.17523 -0.39771,-2.01164 -2.51746,-1.44349 -2.27731,0.61038 -2.27992,0.6159 -1.03665,2.18877 1.15926,1.46656 1.6502,1.36361 3.55411,-0.74528 z m 3.32334,-0.12976 c 0,-0.20638 0.078,-0.57838 0.17323,-0.82667 0.1612,-0.42008 0.12412,-0.41926 -0.53379,0.0118 -0.55533,0.36386 -0.64232,0.54123 -0.40542,0.82667 0.39062,0.47067 0.76598,0.46488 0.76598,-0.0118 z m -1.03831,-1.90458 c 0.64144,-0.69232 0.64144,-0.69232 -0.28461,-0.49805 -1.25128,0.26249 -1.40117,0.38039 -1.03878,0.81705 0.42708,0.5146 0.58671,0.47612 1.32339,-0.319 z m -5.0474,-0.44136 c 1.15239,-0.33365 1.15239,-0.33365 -0.54814,-1.68052 -3.84863,-3.04825 -4.98524,-2.77502 -3.10795,0.74712 0.93407,1.75251 0.87716,1.73798 3.65609,0.9334 z m 8.58511,-1.3213 c -0.24324,-0.63389 -1.16193,-0.84797 -1.63005,-0.37984 -0.48039,0.48038 -0.23969,1.4336 0.39985,1.5835 0.61696,0.14461 1.43896,-0.65965 1.2302,-1.20366 z"
         id="path245" />
      <path
         style="fill:#547048;stroke-width:0.264583"
         d="m 147.89897,167.79764 c -0.10418,-0.10775 -2.48543,-0.17462 -5.29167,-0.14859 -11.32913,0.1051 -11.1609,0.17915 -9.21364,-4.05571 0.98964,-2.15226 0.98964,-2.15226 -0.31257,-3.60093 -14.1857,-15.78109 -2.23462,-41.05262 18.97604,-40.12638 27.45177,1.19878 31.56261,39.9134 5.02709,47.34354 -1.91565,0.5364 -8.80856,0.9777 -9.18525,0.58807 z m 9.39382,-1.82623 c 19.98119,-5.88062 22.6539,-33.18828 4.15807,-42.48403 -19.5381,-9.81959 -40.55108,10.68957 -31.07965,30.33447 1.35465,2.80969 4.30624,6.73353 4.62593,6.14969 0.11126,-0.2032 1.00342,-2.15539 1.98256,-4.3382 0.97915,-2.18282 1.92658,-4.12527 2.1054,-4.31658 0.25974,-0.27787 0.14785,-0.68165 -0.55635,-2.00783 -1.70122,-3.20379 -1.67452,-6.87408 0.0746,-10.254 1.58555,-3.06387 2.79735,-2.93337 7.17128,0.77228 1.91607,1.62332 3.70768,1.56387 5.33387,-0.17697 0.96832,-1.03659 2.14483,-1.10102 3.07733,-0.16851 1.04659,1.04658 0.69168,2.75385 -0.69158,3.32681 -0.53754,0.22266 -0.85752,0.64334 -1.1563,1.52022 -0.56658,1.66282 -0.56527,1.66883 0.78112,3.59486 2.25759,3.22951 3.09213,5.9805 1.98078,6.52948 -4.88909,2.41507 -8.1078,2.41799 -11.84774,0.0107 -0.83255,-0.53588 -1.65904,-1.06236 -1.83665,-1.16997 -0.18619,-0.1128 -0.0558,0.50916 0.30785,1.46879 2.46242,6.4975 4.36138,11.3906 4.45811,11.48734 0.85157,0.85157 7.86919,0.67563 11.11138,-0.27857 z m 8.81279,-21.80613 c -0.0759,-0.1228 -0.009,-0.68835 0.14815,-1.25677 2.10647,-7.60844 -4.85838,-15.98235 -13.04724,-15.68684 -1.67484,0.0604 -1.96063,-0.0528 -1.71951,-0.68109 0.21061,-0.54886 3.72414,-0.55709 5.81068,-0.0136 4.49451,1.17068 8.1455,4.59592 9.73208,9.13033 1.23371,3.52593 0.45088,10.73285 -0.92416,8.50799 z m -3.33282,-0.50249 c 0,-0.27499 0.12968,-1.20147 0.28817,-2.05885 1.02802,-5.56108 -3.18204,-10.62166 -9.08557,-10.92105 -2.71303,-0.13759 -3.43883,-0.91008 -1.17415,-1.24969 6.79802,-1.01942 13.25459,6.66293 11.23367,13.36638 -0.37152,1.23234 -1.26212,1.84145 -1.26212,0.86321 z m -2.41181,-1.32477 c -0.0168,-0.10914 -0.0499,-1.0914 -0.0734,-2.18281 -0.0849,-3.92798 -2.69201,-6.61458 -6.41891,-6.61458 -1.47734,0 -2.20211,-0.56486 -1.387,-1.08099 2.01869,-1.27823 6.90294,1.28719 8.34453,4.38291 0.972,2.08732 0.83078,5.69391 -0.22296,5.69391 -0.11641,0 -0.22542,-0.0893 -0.24222,-0.19844 z m -2.16516,-1.02714 c -0.10204,-0.10204 -0.18553,-0.74339 -0.18553,-1.42522 0,-2.14989 -1.54274,-3.7579 -4.00935,-4.17898 -1.55673,-0.26575 -1.57658,-0.94452 -0.0309,-1.05653 2.81465,-0.20396 5.60242,2.86739 5.31236,5.85272 -0.0777,0.79999 -0.66092,1.23367 -1.08658,0.80801 z m -1.86123,-0.27373 c -0.097,-0.097 -0.17639,-0.52156 -0.17639,-0.94343 0,-1.46571 -1.20522,-2.58434 -2.78438,-2.58434 -0.99158,0 -0.78335,-0.89565 0.2354,-1.01251 1.65139,-0.18943 3.38658,1.20811 3.72237,2.99803 0.22227,1.1848 -0.3968,2.14245 -0.997,1.54225 z m -11.78686,24.31962 c -0.26964,-0.69122 -1.47679,-3.84795 -2.68257,-7.01496 -1.20577,-3.167 -2.21888,-5.72684 -2.25135,-5.68854 -0.0575,0.0679 -5.86009,12.71937 -6.12425,13.35289 -0.15033,0.36053 1.35887,0.46999 7.64968,0.55481 3.89874,0.0526 3.89874,0.0526 3.40849,-1.2042 z m 7.36283,-10.68413 c 0.87856,-0.30627 0.87856,-0.30627 -0.0284,-0.86341 -3.85366,-2.36716 -9.65675,-8.6549 -11.54942,-12.51399 -0.84147,-1.71572 -0.94798,-1.72773 -1.47982,-0.16686 -2.52238,7.40277 5.82817,16.06448 13.05769,13.54426 z m 2.44354,-1.94972 c -0.16069,-1.00841 -2.55431,-5.15743 -2.97622,-5.15887 -0.0826,-2.6e-4 -0.36578,0.6841 -0.62935,1.52085 -0.26358,0.83674 -0.53445,1.66566 -0.60194,1.84205 -0.0681,0.178 0.6202,0.80085 1.54702,1.39989 1.78239,1.15201 2.8052,1.30428 2.66049,0.39608 z m -4.57019,-4.15242 c 0.67107,-1.98713 0.67502,-2.29534 0.0392,-3.05748 -0.65291,-0.78264 -0.62978,-0.78907 -2.3016,0.63921 l -1.44502,1.23452 1.39378,1.41131 c 1.72383,1.74551 1.64467,1.7533 2.31361,-0.22756 z m -1.97613,-4.16285 c 1.061,-1.17523 -0.39771,-2.01164 -2.51746,-1.44349 -2.27731,0.61038 -2.27992,0.6159 -1.03665,2.18877 1.15926,1.46656 1.6502,1.36361 3.55411,-0.74528 z m 3.4755,-0.65388 c 0.15177,-0.61402 0.11591,-0.72458 -0.17972,-0.55412 -0.92721,0.53464 -1.01659,0.68962 -0.69482,1.20485 0.36734,0.58821 0.61359,0.40498 0.87454,-0.65073 z m -1.19047,-1.38046 c 0.64144,-0.69232 0.64144,-0.69232 -0.28461,-0.49805 -1.25128,0.26249 -1.40117,0.38039 -1.03878,0.81705 0.42708,0.5146 0.58671,0.47612 1.32339,-0.319 z m -5.0474,-0.44136 c 1.15239,-0.33365 1.15239,-0.33365 -0.54814,-1.68052 -3.84863,-3.04825 -4.98524,-2.77502 -3.10795,0.74712 0.93407,1.75251 0.87716,1.73798 3.65609,0.9334 z m 8.58511,-1.3213 c -0.24324,-0.63389 -1.16193,-0.84797 -1.63005,-0.37984 -0.48039,0.48038 -0.23969,1.4336 0.39985,1.5835 0.61696,0.14461 1.43896,-0.65965 1.2302,-1.20366 z"
         id="path243" />
      <path
         style="fill:#486c39;stroke-width:0.264583"
         d="m 147.89897,167.79764 c -0.10418,-0.10775 -2.48543,-0.17462 -5.29167,-0.14859 -11.32913,0.1051 -11.1609,0.17915 -9.21364,-4.05571 0.98964,-2.15226 0.98964,-2.15226 -0.31257,-3.60093 -14.1857,-15.78109 -2.23462,-41.05262 18.97604,-40.12638 27.45177,1.19878 31.56261,39.9134 5.02709,47.34354 -1.91565,0.5364 -8.80856,0.9777 -9.18525,0.58807 z m 6.6717,-1.19485 c 21.82737,-3.44377 26.57822,-33.21544 6.88019,-43.11541 -22.25079,-11.18296 -44.22742,16.82762 -27.81129,35.44722 l 1.22837,1.39325 1.94516,-4.33163 c 1.06985,-2.3824 2.08668,-4.48297 2.25963,-4.66794 0.24548,-0.26254 0.11708,-0.73397 -0.58532,-2.14901 -1.6433,-3.31059 -1.60042,-6.80772 0.12435,-10.1406 1.5591,-3.01277 2.84283,-2.87144 7.16286,0.78854 1.91607,1.62332 3.70768,1.56387 5.33387,-0.17697 0.96832,-1.03659 2.14483,-1.10102 3.07733,-0.16851 1.04659,1.04658 0.69168,2.75385 -0.69158,3.32681 -0.53754,0.22266 -0.85752,0.64334 -1.1563,1.52022 -0.56635,1.66215 -0.56474,1.66959 0.77342,3.58384 2.52882,3.61751 3.27886,6.79469 1.60404,6.79469 -0.20121,0 -0.96656,0.30173 -1.70078,0.67051 -1.80725,0.90773 -4.16018,1.1087 -6.38191,0.54508 -1.54989,-0.39319 -2.54253,-0.88416 -4.84178,-2.39479 -0.7412,-0.48698 -0.7412,-0.48698 -0.33832,0.54455 0.22159,0.56734 1.34689,3.51001 2.50067,6.53925 1.15377,3.02925 2.17143,5.58138 2.26146,5.67141 0.54168,0.54169 5.69801,0.73884 8.35593,0.31949 z m 11.57798,-22.53074 c -0.0645,-0.18973 -0.003,-0.76168 0.13697,-1.27101 2.08092,-7.57933 -4.69754,-15.61041 -13.17564,-15.61041 -2.73992,0 -2.41073,-0.89246 0.37049,-1.00442 8.59745,-0.34609 15.70475,7.82599 14.04186,16.14556 -0.36892,1.84575 -1.04614,2.70371 -1.37368,1.74028 z m -3.37589,-0.40926 c 0,-0.27499 0.12968,-1.20147 0.28817,-2.05885 1.02802,-5.56108 -3.18204,-10.62166 -9.08557,-10.92105 -2.63804,-0.13378 -3.41445,-0.87877 -1.28992,-1.2377 6.77168,-1.14407 13.37718,6.62833 11.34944,13.35439 -0.37152,1.23234 -1.26212,1.84145 -1.26212,0.86321 z m -2.41181,-1.32477 c -0.0168,-0.10914 -0.0499,-1.0914 -0.0734,-2.18281 -0.0849,-3.92798 -2.69201,-6.61458 -6.41891,-6.61458 -1.47734,0 -2.20211,-0.56486 -1.387,-1.08099 1.89692,-1.20112 6.74873,1.21191 8.2315,4.09391 0.68516,1.33172 0.9928,4.9587 0.47365,5.58424 -0.35279,0.42508 -0.77539,0.52755 -0.8258,0.20023 z m -2.16516,-1.02714 c -0.10204,-0.10204 -0.18553,-0.74339 -0.18553,-1.42522 0,-2.14747 -1.69723,-3.89848 -4.0881,-4.21765 -1.50316,-0.20066 -1.46991,-0.90787 0.0479,-1.01786 2.81465,-0.20396 5.60242,2.86739 5.31236,5.85272 -0.0777,0.79999 -0.66092,1.23367 -1.08658,0.80801 z m -1.86123,-0.27373 c -0.097,-0.097 -0.17639,-0.52156 -0.17639,-0.94343 0,-1.46571 -1.20522,-2.58434 -2.78438,-2.58434 -0.99158,0 -0.78335,-0.89565 0.2354,-1.01251 1.65139,-0.18943 3.38658,1.20811 3.72237,2.99803 0.22227,1.1848 -0.3968,2.14245 -0.997,1.54225 z m -11.78318,24.31962 c -0.26761,-0.69122 -1.47318,-3.84954 -2.67904,-7.01849 -1.20586,-3.16894 -2.22106,-5.72878 -2.256,-5.68854 -0.0627,0.0722 -5.8746,12.73827 -6.1287,13.35642 -0.14817,0.36048 1.36234,0.47001 7.65157,0.55481 3.89874,0.0526 3.89874,0.0526 3.41217,-1.2042 z m 6.80583,-10.53027 c 1.3805,-0.40997 1.3805,-0.40997 -0.67958,-1.87655 -3.54732,-2.52536 -8.73429,-8.37059 -10.34839,-11.66168 -0.83783,-1.7083 -0.94486,-1.71989 -1.4764,-0.15989 -2.43919,7.15864 5.4443,15.79473 12.50437,13.69812 z m 2.99686,-2.10358 c -0.16069,-1.00841 -2.55431,-5.15743 -2.97622,-5.15887 -0.0826,-2.6e-4 -0.36578,0.6841 -0.62935,1.52085 -0.26358,0.83674 -0.53206,1.65942 -0.59662,1.82818 -0.1792,0.46837 2.84375,2.46833 3.62504,2.3983 0.49889,-0.0447 0.64074,-0.18936 0.57715,-0.58846 z m -4.57019,-4.15242 c 0.67107,-1.98713 0.67502,-2.29534 0.0392,-3.05748 -0.65291,-0.78264 -0.62978,-0.78907 -2.3016,0.63921 l -1.44502,1.23452 1.39378,1.41131 c 1.72383,1.74551 1.64467,1.7533 2.31361,-0.22756 z m -2.23611,-3.89863 c 1.34341,-1.41389 0.0915,-2.36527 -2.26739,-1.72306 -2.26427,0.61645 -2.27075,0.63032 -1.02828,2.20216 1.21414,1.53601 1.40777,1.50787 3.29567,-0.4791 z m 3.80119,-1.01999 c 0.30706,-0.9198 0.15911,-0.94234 -0.79825,-0.12164 -0.3612,0.30964 -0.38814,0.48014 -0.13892,0.8792 0.36063,0.57745 0.53986,0.43258 0.93717,-0.75756 z m -1.25618,-1.27857 c 0.64144,-0.69232 0.64144,-0.69232 -0.28461,-0.49805 -1.25128,0.26249 -1.40117,0.38039 -1.03878,0.81705 0.42708,0.5146 0.58671,0.47612 1.32339,-0.319 z m -5.02932,-0.44659 c 1.17047,-0.33888 1.17047,-0.33888 -0.41585,-1.60011 -3.90243,-3.1027 -5.13473,-2.84857 -3.25832,0.67194 0.93481,1.75389 0.87466,1.7387 3.67417,0.92817 z m 8.55241,-0.60134 c 0.21426,-0.55834 -0.082,-1.12768 -0.68664,-1.31958 -0.70959,-0.22522 -1.37765,0.44853 -1.15144,1.16123 0.26917,0.8481 1.53166,0.95686 1.83808,0.15835 z"
         id="path241" />
      <path
         style="fill:#4d4f4c;stroke-width:0.264583"
         d="m 147.89897,167.79764 c -0.10418,-0.10775 -2.48543,-0.17462 -5.29167,-0.14859 -11.32913,0.1051 -11.1609,0.17915 -9.21364,-4.05571 0.98964,-2.15226 0.98964,-2.15226 -0.31257,-3.60093 -14.1857,-15.78109 -2.23462,-41.05262 18.97604,-40.12638 27.45177,1.19878 31.56261,39.9134 5.02709,47.34354 -1.91565,0.5364 -8.80856,0.9777 -9.18525,0.58807 z m 6.82155,-1.19758 c 23.89061,-4.23155 26.07362,-37.55061 2.92692,-44.67342 -20.97816,-6.4555 -38.18349,18.23774 -24.96134,35.82473 2.25501,2.99942 1.93887,3.1352 4.15789,-1.78569 1.06674,-2.3656 2.07536,-4.45243 2.24137,-4.6374 0.23037,-0.25669 0.0852,-0.77268 -0.61304,-2.17941 -1.62582,-3.27538 -1.56416,-6.88972 0.17312,-10.14721 1.52127,-2.85245 3.29172,-2.57543 7.56172,1.18318 1.50433,1.32416 3.18351,1.16399 4.80594,-0.45844 0.98547,-0.98548 2.00239,-1.15964 2.9393,-0.5034 1.22739,0.85969 0.96075,2.99781 -0.44653,3.58073 -0.55026,0.22792 -0.86679,0.64124 -1.16793,1.52503 -0.57274,1.68091 -0.55915,1.74467 0.76924,3.60623 1.40237,1.96525 2.51723,4.26343 2.51519,5.1848 -0.003,1.23679 -0.0697,1.2825 -3.96211,2.70274 -2.62742,0.95868 -6.22449,0.23958 -9.08639,-1.81649 -0.70631,-0.50743 -1.31831,-0.88466 -1.36001,-0.83828 -0.10373,0.11539 4.73612,12.85078 4.97417,13.08884 0.56967,0.56966 6.01731,0.78895 8.53249,0.34346 z m 11.67098,-25.43624 c 0.37583,-8.25889 -5.07607,-13.97319 -13.33155,-13.97319 -1.48035,0 -1.69114,-0.0606 -1.61184,-0.46302 0.13112,-0.66538 4.77622,-0.64819 6.74388,0.025 6.34851,2.17187 10.53409,9.14139 9.32206,15.52244 -0.27689,1.45775 -0.49335,1.99997 -0.82323,2.0621 -0.40709,0.0767 -0.43416,-0.21027 -0.29932,-3.17328 z m -3.48434,2.69896 c -0.0983,-0.15901 -0.037,-1.08803 0.13614,-2.06448 1.03189,-5.81915 -3.04233,-10.81379 -9.06794,-11.11651 -2.66648,-0.13396 -3.40962,-0.86726 -1.23181,-1.21551 5.48222,-0.87664 11.20339,4.05759 11.53103,9.94495 0.1643,2.95239 -0.65186,5.60935 -1.36742,4.45155 z m -2.53877,-1.39247 c -0.0127,-0.0364 -0.0462,-1.01864 -0.0744,-2.18281 -0.0987,-4.07902 -2.62334,-6.74687 -6.38462,-6.74687 -1.52637,0 -2.23743,-0.54718 -1.42781,-1.09874 1.78293,-1.21464 6.77897,1.28898 8.24063,4.12955 0.67638,1.31449 0.97943,4.94591 0.46452,5.56635 -0.28691,0.3457 -0.74823,0.53315 -0.81836,0.33252 z m -2.18174,-1.16857 c -0.097,-0.097 -0.17639,-0.69824 -0.17639,-1.33606 0,-2.20998 -1.57122,-3.93395 -3.88732,-4.26526 -1.66819,-0.23862 -1.77736,-0.93242 -0.16517,-1.04967 2.61965,-0.19051 5.36663,2.57831 5.37393,5.41667 0.003,1.1538 -0.58826,1.79112 -1.14505,1.23432 z m -1.85209,-0.26459 c -0.097,-0.097 -0.17639,-0.57867 -0.17639,-1.07036 0,-1.05395 -0.89708,-2.08762 -2.02773,-2.33646 -1.28416,-0.28263 -1.45918,-0.37569 -1.3473,-0.7164 0.30507,-0.92907 2.69632,-0.36998 3.74427,0.87544 1.18452,1.40772 1.00419,4.44482 -0.19285,3.24778 z m -11.78318,24.31962 c -0.26761,-0.69122 -1.47318,-3.84954 -2.67904,-7.01849 -1.20586,-3.16894 -2.22106,-5.72878 -2.256,-5.68854 -0.0627,0.0722 -5.8746,12.73827 -6.1287,13.35642 -0.14817,0.36048 1.36234,0.47001 7.65157,0.55481 3.89874,0.0526 3.89874,0.0526 3.41217,-1.2042 z m 6.80583,-10.53027 c 1.3805,-0.40997 1.3805,-0.40997 -0.67958,-1.87655 -3.54732,-2.52536 -8.73429,-8.37059 -10.34839,-11.66168 -0.83783,-1.7083 -0.94486,-1.71989 -1.4764,-0.15989 -2.43919,7.15864 5.4443,15.79473 12.50437,13.69812 z m 2.99686,-2.10358 c -0.16069,-1.00841 -2.55431,-5.15743 -2.97622,-5.15887 -0.0826,-2.6e-4 -0.36578,0.6841 -0.62935,1.52085 -0.26358,0.83674 -0.53206,1.65942 -0.59662,1.82818 -0.1792,0.46837 2.84375,2.46833 3.62504,2.3983 0.49889,-0.0447 0.64074,-0.18936 0.57715,-0.58846 z m -4.57019,-4.15242 c 0.67107,-1.98713 0.67502,-2.29534 0.0392,-3.05748 -0.65291,-0.78264 -0.62978,-0.78907 -2.3016,0.63921 l -1.44502,1.23452 1.39378,1.41131 c 1.72383,1.74551 1.64467,1.7533 2.31361,-0.22756 z m -2.23611,-3.89863 c 1.34341,-1.41389 0.0915,-2.36527 -2.26739,-1.72306 -2.26427,0.61645 -2.27075,0.63032 -1.02828,2.20216 1.21414,1.53601 1.40777,1.50787 3.29567,-0.4791 z m 3.80119,-1.01999 c 0.30758,-0.92134 0.15914,-0.94271 -0.80467,-0.11583 -0.35511,0.30466 -0.39315,0.50458 -0.17392,0.9142 0.3269,0.61082 0.57599,0.40761 0.97859,-0.79837 z m -1.25618,-1.27857 c 0.64144,-0.69232 0.64144,-0.69232 -0.28461,-0.49805 -1.25128,0.26249 -1.40117,0.38039 -1.03878,0.81705 0.42708,0.5146 0.58671,0.47612 1.32339,-0.319 z m -5.02932,-0.44659 c 1.17047,-0.33888 1.17047,-0.33888 -0.41585,-1.60011 -3.90243,-3.1027 -5.13473,-2.84857 -3.25832,0.67194 0.93481,1.75389 0.87466,1.7387 3.67417,0.92817 z m 8.55241,-0.60134 c 0.21426,-0.55834 -0.082,-1.12768 -0.68664,-1.31958 -0.70959,-0.22522 -1.37765,0.44853 -1.15144,1.16123 0.26917,0.8481 1.53166,0.95686 1.83808,0.15835 z"
         id="path239" />
      <path
         style="fill:#415937;stroke-width:0.264583"
         d="m 148.15278,167.789 c -0.11011,-0.11485 -2.1937,-0.18153 -4.63021,-0.14818 -11.98923,0.16411 -12.04822,0.14075 -10.13073,-4.01186 l 0.99732,-2.15983 -1.68721,-1.99186 c -13.27271,-15.66925 -2.09591,-39.64496 18.42914,-39.53293 27.74572,0.15145 33.07523,39.21383 6.42457,47.08862 -2.38079,0.70347 -8.94712,1.23144 -9.40288,0.75604 z m 6.56774,-1.18894 c 23.89061,-4.23155 26.07362,-37.55061 2.92692,-44.67342 -20.97816,-6.4555 -38.18349,18.23774 -24.96134,35.82473 2.25501,2.99942 1.93887,3.1352 4.15789,-1.78569 1.06674,-2.3656 2.07536,-4.45243 2.24137,-4.6374 0.23037,-0.25669 0.0852,-0.77268 -0.61304,-2.17941 -1.62582,-3.27538 -1.56416,-6.88972 0.17312,-10.14721 1.52127,-2.85245 3.29172,-2.57543 7.56172,1.18318 1.50433,1.32416 3.18351,1.16399 4.80594,-0.45844 0.98547,-0.98548 2.00239,-1.15964 2.9393,-0.5034 1.22739,0.85969 0.96075,2.99781 -0.44653,3.58073 -0.55026,0.22792 -0.86679,0.64124 -1.16793,1.52503 -0.57274,1.68091 -0.55915,1.74467 0.76924,3.60623 1.40237,1.96525 2.51723,4.26343 2.51519,5.1848 -0.003,1.23679 -0.0697,1.2825 -3.96211,2.70274 -2.62742,0.95868 -6.22449,0.23958 -9.08639,-1.81649 -0.70631,-0.50743 -1.31831,-0.88466 -1.36001,-0.83828 -0.10373,0.11539 4.73612,12.85078 4.97417,13.08884 0.56967,0.56966 6.01731,0.78895 8.53249,0.34346 z m 11.67098,-25.43624 c 0.37583,-8.25889 -5.07607,-13.97319 -13.33155,-13.97319 -1.48035,0 -1.69114,-0.0606 -1.61184,-0.46302 0.13112,-0.66538 4.77622,-0.64819 6.74388,0.025 6.34851,2.17187 10.53409,9.14139 9.32206,15.52244 -0.27689,1.45775 -0.49335,1.99997 -0.82323,2.0621 -0.40709,0.0767 -0.43416,-0.21027 -0.29932,-3.17328 z m -3.48434,2.69896 c -0.0983,-0.15901 -0.037,-1.08803 0.13614,-2.06448 1.03189,-5.81915 -3.04233,-10.81379 -9.06794,-11.11651 -2.66648,-0.13396 -3.40962,-0.86726 -1.23181,-1.21551 5.48222,-0.87664 11.20339,4.05759 11.53103,9.94495 0.1643,2.95239 -0.65186,5.60935 -1.36742,4.45155 z m -2.53877,-1.39247 c -0.0127,-0.0364 -0.0462,-1.01864 -0.0744,-2.18281 -0.0987,-4.07902 -2.62334,-6.74687 -6.38462,-6.74687 -1.52637,0 -2.23743,-0.54718 -1.42781,-1.09874 1.78293,-1.21464 6.77897,1.28898 8.24063,4.12955 0.67638,1.31449 0.97943,4.94591 0.46452,5.56635 -0.28691,0.3457 -0.74823,0.53315 -0.81836,0.33252 z m -2.18174,-1.16857 c -0.097,-0.097 -0.17639,-0.69824 -0.17639,-1.33606 0,-2.20998 -1.57122,-3.93395 -3.88732,-4.26526 -1.66819,-0.23862 -1.77736,-0.93242 -0.16517,-1.04967 2.61965,-0.19051 5.36663,2.57831 5.37393,5.41667 0.003,1.1538 -0.58826,1.79112 -1.14505,1.23432 z m -1.85209,-0.26459 c -0.097,-0.097 -0.17639,-0.57867 -0.17639,-1.07036 0,-1.05395 -0.89708,-2.08762 -2.02773,-2.33646 -1.28416,-0.28263 -1.45918,-0.37569 -1.3473,-0.7164 0.30507,-0.92907 2.69632,-0.36998 3.74427,0.87544 1.18452,1.40772 1.00419,4.44482 -0.19285,3.24778 z m -11.58199,24.84879 c -0.154,-0.40018 -1.29379,-3.40651 -2.53285,-6.68073 -1.23906,-3.27422 -2.33469,-6.10098 -2.43473,-6.2817 -0.13212,-0.23866 -5.33743,10.596 -6.33208,13.17997 -0.10877,0.28259 1.73041,0.40113 7.15444,0.46112 4.42523,0.0489 4.42523,0.0489 4.14522,-0.67866 z m 7.12247,-11.21525 c 0.87623,-0.36027 0.87623,-0.36027 -0.79375,-1.46259 -3.63336,-2.39828 -9.23526,-8.70112 -10.95459,-12.32529 -0.60768,-1.28092 -0.764,-1.25078 -1.27386,0.24557 -2.51123,7.37004 6.14355,16.3705 13.0222,13.54231 z m 2.54597,-1.52279 c 0.29327,-0.47453 -2.48212,-5.58436 -3.03313,-5.58436 -0.0881,0 -0.37581,0.68461 -0.63938,1.52136 -0.26358,0.83674 -0.53206,1.65942 -0.59662,1.82818 -0.29554,0.77244 3.83619,2.93534 4.26913,2.23482 z m -4.57878,-4.78201 c 0.53079,-1.64808 0.5539,-1.91791 0.21798,-2.54558 -0.58322,-1.08976 -0.92316,-1.04828 -2.50841,0.30605 l -1.47531,1.26039 1.39378,1.41131 c 1.74039,1.76228 1.6605,1.77684 2.37196,-0.43217 z m -2.29446,-3.69402 c 1.33581,-1.40589 0.11156,-2.34569 -2.26165,-1.73616 -2.29829,0.59028 -2.34233,0.68417 -1.04684,2.23149 1.25657,1.50083 1.43761,1.47373 3.30849,-0.49533 z m 3.80119,-1.01999 c 0.30758,-0.92134 0.15914,-0.94271 -0.80467,-0.11583 -0.35511,0.30466 -0.39315,0.50458 -0.17392,0.9142 0.3269,0.61082 0.57599,0.40761 0.97859,-0.79837 z m -1.25618,-1.27857 c 0.64144,-0.69232 0.64144,-0.69232 -0.28461,-0.49805 -1.25128,0.26249 -1.40117,0.38039 -1.03878,0.81705 0.42708,0.5146 0.58671,0.47612 1.32339,-0.319 z m -5.02932,-0.44659 c 1.17047,-0.33888 1.17047,-0.33888 -0.41585,-1.60011 -3.90243,-3.1027 -5.13473,-2.84857 -3.25832,0.67194 0.93481,1.75389 0.87466,1.7387 3.67417,0.92817 z m 8.29769,-0.3352 c 0.49188,-0.49188 0.4961,-0.52725 0.14188,-1.18912 -0.15064,-0.28148 -0.48401,-0.51177 -0.74083,-0.51177 -1.03459,0 -1.49874,1.33009 -0.63892,1.83089 0.62742,0.36544 0.75593,0.35194 1.23787,-0.13 z"
         id="path237" />
      <path
         style="fill:#364b2d;stroke-width:0.264583"
         d="m 148.15278,167.789 c -0.11011,-0.11485 -2.1937,-0.18153 -4.63021,-0.14818 -11.98923,0.16411 -12.04822,0.14075 -10.13073,-4.01186 l 0.99732,-2.15983 -1.68721,-1.99186 c -13.27271,-15.66925 -2.09591,-39.64496 18.42914,-39.53293 27.74572,0.15145 33.07523,39.21383 6.42457,47.08862 -2.38079,0.70347 -8.94712,1.23144 -9.40288,0.75604 z m 7.64463,-1.41671 c 22.61188,-4.66658 24.5181,-36.93692 2.60972,-44.1801 -22.27996,-7.36603 -40.12069,19.49035 -24.56522,36.97904 1.02879,1.15664 1.02879,1.15664 3.11647,-3.38434 1.14823,-2.49754 2.16813,-4.5907 2.26644,-4.65146 0.0983,-0.0608 -0.24842,-0.97104 -0.77051,-2.02285 -1.47321,-2.96791 -1.43042,-6.85267 0.10907,-9.90306 1.55222,-3.07563 2.65192,-3.01718 6.84343,0.36372 2.43064,1.96057 3.9053,1.99985 5.62767,0.14992 0.9744,-1.04656 2.17476,-1.19396 3.0003,-0.36843 1.17521,1.17522 0.84984,2.73215 -0.74313,3.55591 -1.56917,0.81145 -1.66357,2.95158 -0.21946,4.97532 3.31048,4.63922 3.34183,5.95619 0.17557,7.37599 -3.52171,1.57918 -6.86655,1.21799 -10.42341,-1.12556 -0.85793,-0.56527 -1.59237,-0.99527 -1.63208,-0.95555 -0.10162,0.10162 4.75742,12.83741 4.9844,13.0644 0.72473,0.72473 6.36384,0.7992 9.62074,0.12705 z m 10.5972,-25.02274 c 0.44233,-8.25381 -5.01679,-14.15892 -13.08955,-14.15892 -2.8279,0 -2.76035,-0.87984 0.0777,-1.01247 8.44131,-0.39451 15.46952,7.45645 14.17044,15.82927 -0.33578,2.16412 -0.42235,2.38111 -0.94991,2.38111 -0.30691,0 -0.34322,-0.52877 -0.2087,-3.03899 z m -3.52169,2.38922 c -0.0794,-0.20694 -0.004,-1.05424 0.16839,-1.88289 1.17617,-5.66555 -3.04781,-10.87174 -9.06595,-11.17409 -2.61267,-0.13126 -3.41489,-0.86642 -1.31232,-1.20263 5.65437,-0.90417 11.69722,4.48212 11.69722,10.42631 0,2.62343 -0.9812,5.15227 -1.48734,3.8333 z m -2.35799,-1.41588 c -0.14064,-0.10082 -0.26037,-1.07627 -0.26606,-2.16768 -0.02,-3.83202 -2.44774,-6.43556 -6.27293,-6.72712 -0.7643,-0.0583 -1.47894,-0.1163 -1.58808,-0.12898 -0.49603,-0.0577 -0.12881,-0.82421 0.46641,-0.9736 2.83235,-0.71088 7.10435,1.95997 8.17883,5.11338 0.77111,2.26309 0.42157,5.55764 -0.51817,4.884 z m -2.32828,-1.02115 c -0.097,-0.097 -0.17639,-0.73425 -0.17639,-1.41608 0,-2.15502 -1.56522,-3.85308 -3.85335,-4.18038 -1.57414,-0.22517 -1.84019,-0.92307 -0.40411,-1.06007 2.64616,-0.25245 5.58037,2.58131 5.58037,5.38933 0,1.18694 -0.58272,1.831 -1.14652,1.2672 z m -1.85209,-0.26459 c -0.097,-0.097 -0.17639,-0.5572 -0.17639,-1.02265 0,-1.21748 -0.85734,-2.16965 -2.19104,-2.4334 -1.30807,-0.25869 -1.53759,-0.94958 -0.3602,-1.08423 1.65771,-0.18958 3.2315,1.0508 3.64,2.86887 0.29671,1.32056 -0.25412,2.32966 -0.91237,1.67141 z m -11.58199,24.84879 c -0.154,-0.40018 -1.29379,-3.40651 -2.53285,-6.68073 -1.23906,-3.27422 -2.33469,-6.10098 -2.43473,-6.2817 -0.13212,-0.23866 -5.33743,10.596 -6.33208,13.17997 -0.10877,0.28259 1.73041,0.40113 7.15444,0.46112 4.42523,0.0489 4.42523,0.0489 4.14522,-0.67866 z m 7.12247,-11.21525 c 0.87623,-0.36027 0.87623,-0.36027 -0.79375,-1.46259 -3.63336,-2.39828 -9.23526,-8.70112 -10.95459,-12.32529 -0.60768,-1.28092 -0.764,-1.25078 -1.27386,0.24557 -2.51123,7.37004 6.14355,16.3705 13.0222,13.54231 z m 2.54597,-1.52279 c 0.29327,-0.47453 -2.48212,-5.58436 -3.03313,-5.58436 -0.0881,0 -0.37581,0.68461 -0.63938,1.52136 -0.26358,0.83674 -0.53206,1.65942 -0.59662,1.82818 -0.29554,0.77244 3.83619,2.93534 4.26913,2.23482 z m -4.57878,-4.78201 c 0.53079,-1.64808 0.5539,-1.91791 0.21798,-2.54558 -0.58322,-1.08976 -0.92316,-1.04828 -2.50841,0.30605 l -1.47531,1.26039 1.39378,1.41131 c 1.74039,1.76228 1.6605,1.77684 2.37196,-0.43217 z m -2.29446,-3.69402 c 1.38205,-1.45456 0.13595,-2.31698 -2.45076,-1.69618 -2.22604,0.53425 -2.23189,0.55021 -0.8202,2.23633 1.21497,1.45115 1.40946,1.41903 3.27096,-0.54015 z m 3.80119,-1.01999 c 0.30758,-0.92134 0.15914,-0.94271 -0.80467,-0.11583 -0.35511,0.30466 -0.39315,0.50458 -0.17392,0.9142 0.3269,0.61082 0.57599,0.40761 0.97859,-0.79837 z m -1.2762,-1.24771 c 0.69688,-0.7418 0.35624,-0.8844 -0.93758,-0.39249 -0.58689,0.22313 -0.65193,0.33585 -0.3817,0.66146 0.44122,0.53164 0.59698,0.49988 1.31928,-0.26897 z m -5.62668,-0.30934 c 1.75813,-0.44162 1.75813,-0.44162 0.58355,-1.47276 -2.23153,-1.95903 -4.2861,-2.94617 -4.57344,-2.19738 -0.17139,0.44665 1.58793,4.11177 1.97372,4.11177 0.14193,0 1.04921,-0.19873 2.01617,-0.44163 z m 8.91507,-0.50331 c 0.49188,-0.49188 0.4961,-0.52725 0.14188,-1.18912 -0.15064,-0.28148 -0.48401,-0.51177 -0.74083,-0.51177 -1.03459,0 -1.49874,1.33009 -0.63892,1.83089 0.62742,0.36544 0.75593,0.35194 1.23787,-0.13 z"
         id="path235" />
      <path
         style="fill:#363735;stroke-width:0.264583"
         d="m 148.15278,167.789 c -0.11011,-0.11485 -2.1937,-0.18153 -4.63021,-0.14818 -11.98923,0.16411 -12.04822,0.14075 -10.13073,-4.01186 l 0.99732,-2.15983 -1.68721,-1.99186 c -13.27271,-15.66925 -2.09591,-39.64496 18.42914,-39.53293 27.74572,0.15145 33.07523,39.21383 6.42457,47.08862 -2.38079,0.70347 -8.94712,1.23144 -9.40288,0.75604 z m 9.06373,-1.70331 c 23.6708,-6.75892 21.63064,-40.6392 -2.70228,-44.87581 -20.68072,-3.60073 -34.86437,22.12691 -20.83604,37.79437 l 1.20021,1.34046 2.09463,-4.55607 c 1.15204,-2.50584 2.1702,-4.60278 2.26258,-4.65988 0.0924,-0.0571 -0.25921,-0.96437 -0.7813,-2.01618 -2.03323,-4.09614 -0.68995,-11.84554 2.09345,-12.07713 1.08454,-0.0902 3.1345,1.04321 5.42328,2.99858 1.74902,1.49423 3.48186,1.38784 5.06344,-0.31087 0.97362,-1.04573 2.0706,-1.17733 2.95393,-0.35438 1.22996,1.14588 0.91947,2.70607 -0.70577,3.54652 -1.48533,0.76809 -1.74865,2.90612 -0.55619,4.51595 3.51252,4.74193 3.66949,6.45676 0.70761,7.73039 -4.05139,1.74213 -8.19607,1.14784 -11.52396,-1.6524 -0.45825,-0.38559 -0.83318,-0.61441 -0.83318,-0.50848 0,0.33638 4.82639,12.94078 5.05033,13.18923 0.77465,0.85943 7.95051,0.79194 11.08926,-0.1043 z m 9.14685,-23.35079 c 1.09221,-8.89835 -4.48254,-15.54427 -13.0389,-15.54427 -1.47225,0 -1.92879,-0.0872 -1.92879,-0.36857 0,-0.80371 3.07911,-0.9576 5.6991,-0.28484 7.43361,1.90883 12.33271,10.11494 10.14398,16.99143 -0.5164,1.62242 -1.10631,1.08753 -0.87539,-0.79375 z m -3.43002,1.17025 c -0.10358,-0.16759 -0.0486,-1.01485 0.12215,-1.88279 1.16065,-5.89947 -3.00254,-11.09465 -9.09436,-11.34872 -1.99181,-0.0831 -2.31693,-0.16034 -2.24377,-0.53331 0.0719,-0.36655 0.46595,-0.43616 2.46896,-0.43616 6.2045,0 10.85476,5.48994 10.05722,11.87323 -0.19063,1.52576 -0.96051,2.89356 -1.3102,2.32775 z m -2.42959,-1.65934 c -0.12821,-0.20394 -0.19586,-1.03974 -0.15034,-1.85733 0.23506,-4.22158 -2.6818,-6.8222 -7.96555,-7.10193 -0.50989,-0.027 -0.12169,-0.81344 0.47551,-0.96333 2.79646,-0.70186 7.10487,1.9905 8.16525,5.10253 0.74609,2.18967 0.31431,6.15494 -0.52487,4.82006 z m -2.39295,-1.15189 c -0.0811,-0.21131 -0.072,-0.50622 0.0201,-0.65535 0.88888,-1.43823 -1.64232,-4.39975 -4.05548,-4.74494 -1.50207,-0.21486 -1.71765,-0.91534 -0.32266,-1.04842 2.92432,-0.27898 6.17078,3.38619 5.47055,6.17613 -0.17981,0.71643 -0.87671,0.88718 -1.11255,0.27258 z m -1.6219,-0.0651 c -0.1819,-0.0682 -0.33073,-0.51465 -0.33073,-0.99222 0,-1.23818 -0.84945,-2.19014 -2.19104,-2.45545 -1.53154,-0.30288 -1.54156,-1.00594 -0.0139,-0.97657 1.76066,0.0339 2.8748,1.04569 3.35276,3.04488 0.18221,0.76213 -0.29848,1.57364 -0.81706,1.37936 z m -11.73488,24.85717 c -0.15321,-0.40018 -1.29229,-3.40651 -2.5313,-6.68073 -1.23901,-3.27422 -2.33529,-6.10098 -2.43619,-6.2817 -0.13348,-0.23908 -5.33377,10.58249 -6.33362,13.17997 -0.10877,0.28259 1.73041,0.40113 7.15444,0.46112 4.42523,0.0489 4.42523,0.0489 4.14667,-0.67866 z m 7.12102,-11.21525 c 0.87623,-0.36027 0.87623,-0.36027 -0.82256,-1.47645 -3.268,-2.14721 -8.81336,-8.29346 -10.64477,-11.79821 -0.95148,-1.82084 -1.02154,-1.8329 -1.55487,-0.26765 -2.51123,7.37004 6.14355,16.3705 13.0222,13.54231 z m 2.49281,-2.08006 c -0.0755,-0.70759 -2.46855,-4.81511 -2.88652,-4.95444 -0.13762,-0.0459 -0.46663,0.60363 -0.73114,1.44333 -0.26451,0.8397 -0.53375,1.6648 -0.59831,1.83356 -0.1792,0.46837 2.84375,2.46833 3.62504,2.3983 0.53548,-0.048 0.64803,-0.18528 0.59093,-0.72075 z m -4.52562,-4.22474 c 0.53079,-1.64808 0.5539,-1.91791 0.21798,-2.54558 -0.58322,-1.08976 -0.92316,-1.04828 -2.50841,0.30605 l -1.47531,1.26039 1.39378,1.41131 c 1.74039,1.76228 1.6605,1.77684 2.37196,-0.43217 z m -2.51068,-3.48533 c 1.74979,-1.56278 0.55759,-2.57498 -2.24161,-1.90317 -2.21945,0.53267 -2.22506,0.54823 -0.80748,2.24138 1.21174,1.44728 1.02698,1.46778 3.04909,-0.33821 z m 4.01425,-1.21962 c 0.34274,-1.02715 0.0988,-1.09543 -0.73659,-0.20619 -0.51737,0.55071 -0.55975,0.71921 -0.269,1.06954 0.40513,0.48816 0.61464,0.30829 1.00559,-0.86335 z m -1.14075,-1.29224 c 0.79375,-0.67789 0.79375,-0.67789 -0.38694,-0.50753 -1.41016,0.20346 -1.50865,0.27696 -1.07358,0.80119 0.43622,0.52561 0.52126,0.50851 1.46052,-0.29366 z m -5.75897,-0.27387 c 1.75813,-0.44162 1.75813,-0.44162 0.58355,-1.47276 -2.23153,-1.95903 -4.2861,-2.94617 -4.57344,-2.19738 -0.17139,0.44665 1.58793,4.11177 1.97372,4.11177 0.14193,0 1.04921,-0.19873 2.01617,-0.44163 z m 8.91507,-0.50331 c 0.49188,-0.49188 0.4961,-0.52725 0.14188,-1.18912 -0.15064,-0.28148 -0.48401,-0.51177 -0.74083,-0.51177 -1.03459,0 -1.49874,1.33009 -0.63892,1.83089 0.62742,0.36544 0.75593,0.35194 1.23787,-0.13 z"
         id="path233" />
      <path
         style="fill:#293723;stroke-width:0.264583"
         d="m 147.55922,167.68679 c -0.58209,-0.096 -1.95751,-0.12325 -3.05649,-0.0605 -1.09899,0.0627 -4.34999,0.0259 -7.22445,-0.0819 -6.03068,-0.22612 -5.73076,0.0769 -3.88199,-3.92287 1.00177,-2.16731 1.00177,-2.16731 -0.0906,-3.44308 -13.89423,-16.2274 -3.25676,-40.23965 17.82537,-40.23768 19.20803,0.002 30.45229,20.98127 19.94811,37.21907 -4.86653,7.52289 -14.79432,11.96634 -23.51998,10.527 z m 9.65729,-1.6011 c 23.6708,-6.75892 21.63064,-40.6392 -2.70228,-44.87581 -20.68072,-3.60073 -34.86437,22.12691 -20.83604,37.79437 l 1.20021,1.34046 2.09463,-4.55607 c 1.15204,-2.50584 2.1702,-4.60278 2.26258,-4.65988 0.0924,-0.0571 -0.25921,-0.96437 -0.7813,-2.01618 -2.03323,-4.09614 -0.68995,-11.84554 2.09345,-12.07713 1.08454,-0.0902 3.1345,1.04321 5.42328,2.99858 1.74902,1.49423 3.48186,1.38784 5.06344,-0.31087 0.97362,-1.04573 2.0706,-1.17733 2.95393,-0.35438 1.22996,1.14588 0.91947,2.70607 -0.70577,3.54652 -1.48533,0.76809 -1.74865,2.90612 -0.55619,4.51595 3.51252,4.74193 3.66949,6.45676 0.70761,7.73039 -4.05139,1.74213 -8.19607,1.14784 -11.52396,-1.6524 -0.45825,-0.38559 -0.83318,-0.61441 -0.83318,-0.50848 0,0.33638 4.82639,12.94078 5.05033,13.18923 0.77465,0.85943 7.95051,0.79194 11.08926,-0.1043 z m 9.14685,-23.35079 c 1.09221,-8.89835 -4.48254,-15.54427 -13.0389,-15.54427 -1.47225,0 -1.92879,-0.0872 -1.92879,-0.36857 0,-0.80371 3.07911,-0.9576 5.6991,-0.28484 7.43361,1.90883 12.33271,10.11494 10.14398,16.99143 -0.5164,1.62242 -1.10631,1.08753 -0.87539,-0.79375 z m -3.43002,1.17025 c -0.10358,-0.16759 -0.0486,-1.01485 0.12215,-1.88279 1.16065,-5.89947 -3.00254,-11.09465 -9.09436,-11.34872 -1.99181,-0.0831 -2.31693,-0.16034 -2.24377,-0.53331 0.0719,-0.36655 0.46595,-0.43616 2.46896,-0.43616 6.2045,0 10.85476,5.48994 10.05722,11.87323 -0.19063,1.52576 -0.96051,2.89356 -1.3102,2.32775 z m -2.42959,-1.65934 c -0.12821,-0.20394 -0.19586,-1.03974 -0.15034,-1.85733 0.23506,-4.22158 -2.6818,-6.8222 -7.96555,-7.10193 -0.50989,-0.027 -0.12169,-0.81344 0.47551,-0.96333 2.79646,-0.70186 7.10487,1.9905 8.16525,5.10253 0.74609,2.18967 0.31431,6.15494 -0.52487,4.82006 z m -2.39295,-1.15189 c -0.0811,-0.21131 -0.072,-0.50622 0.0201,-0.65535 0.88888,-1.43823 -1.64232,-4.39975 -4.05548,-4.74494 -1.50207,-0.21486 -1.71765,-0.91534 -0.32266,-1.04842 2.92432,-0.27898 6.17078,3.38619 5.47055,6.17613 -0.17981,0.71643 -0.87671,0.88718 -1.11255,0.27258 z m -1.6219,-0.0651 c -0.1819,-0.0682 -0.33073,-0.51465 -0.33073,-0.99222 0,-1.23818 -0.84945,-2.19014 -2.19104,-2.45545 -1.53154,-0.30288 -1.54156,-1.00594 -0.0139,-0.97657 1.76066,0.0339 2.8748,1.04569 3.35276,3.04488 0.18221,0.76213 -0.29848,1.57364 -0.81706,1.37936 z m -12.07556,23.93113 c -0.34528,-0.90951 -1.48661,-3.91584 -2.53629,-6.68073 -1.04969,-2.7649 -1.99221,-5.17757 -2.09451,-5.36149 -0.13649,-0.24543 -5.43433,10.78539 -6.32937,13.17862 -0.11182,0.29898 1.59027,0.41273 7.02617,0.46955 l 4.56179,0.0477 z m 7.49425,-10.30156 c 0.9088,-0.37262 0.9088,-0.37262 -0.39687,-1.13711 -2.93466,-1.71829 -9.29375,-8.66282 -11.10301,-12.1252 -0.95148,-1.82084 -1.02154,-1.8329 -1.55487,-0.26765 -2.52837,7.42036 6.11292,16.3762 13.05475,13.52996 z m 2.46026,-2.06771 c -0.0792,-0.74309 -2.47829,-4.81836 -2.92395,-4.96691 -0.15821,-0.0527 -0.48806,0.59676 -0.73301,1.44332 -0.24495,0.84657 -0.49675,1.67575 -0.55957,1.84262 -0.18351,0.48751 2.84217,2.51107 3.61904,2.4204 0.53857,-0.0629 0.65435,-0.20616 0.59749,-0.73943 z m -4.52562,-4.22474 c 0.53079,-1.64808 0.5539,-1.91791 0.21798,-2.54558 -0.58607,-1.09509 -0.945,-1.05299 -2.52411,0.29609 l -1.47212,1.25768 1.40004,1.41765 c 1.7474,1.76938 1.66652,1.78386 2.37821,-0.42584 z m -2.4656,-3.46944 c 1.7699,-1.5256 0.50321,-2.58863 -2.28669,-1.91906 -2.21813,0.53235 -2.22427,0.54918 -0.81457,2.23291 1.20649,1.44102 1.04662,1.4572 3.10126,-0.31385 z m 3.96917,-1.23551 c 0.34274,-1.02715 0.0988,-1.09543 -0.73659,-0.20619 -0.51737,0.55071 -0.55975,0.71921 -0.269,1.06954 0.40513,0.48816 0.61464,0.30829 1.00559,-0.86335 z m -1.14075,-1.29224 c 0.79375,-0.67789 0.79375,-0.67789 -0.38694,-0.50753 -1.41016,0.20346 -1.50865,0.27696 -1.07358,0.80119 0.43622,0.52561 0.52126,0.50851 1.46052,-0.29366 z m -5.75897,-0.27387 c 1.75813,-0.44162 1.75813,-0.44162 0.58355,-1.47276 -2.23153,-1.95903 -4.2861,-2.94617 -4.57344,-2.19738 -0.17139,0.44665 1.58793,4.11177 1.97372,4.11177 0.14193,0 1.04921,-0.19873 2.01617,-0.44163 z m 8.91507,-0.50331 c 0.49188,-0.49188 0.4961,-0.52725 0.14188,-1.18912 -0.15064,-0.28148 -0.48401,-0.51177 -0.74083,-0.51177 -1.03459,0 -1.49874,1.33009 -0.63892,1.83089 0.62742,0.36544 0.75593,0.35194 1.23787,-0.13 z"
         id="path231" />
      <path
         style="fill:#272826;stroke-width:0.264583"
         d="m 147.55922,167.68679 c -0.58209,-0.096 -1.95751,-0.12325 -3.05649,-0.0605 -1.09899,0.0627 -4.34999,0.0259 -7.22445,-0.0819 -6.03068,-0.22612 -5.73076,0.0769 -3.88199,-3.92287 1.00177,-2.16731 1.00177,-2.16731 -0.0906,-3.44308 -13.89423,-16.2274 -3.25676,-40.23965 17.82537,-40.23768 19.20803,0.002 30.45229,20.98127 19.94811,37.21907 -4.86653,7.52289 -14.79432,11.96634 -23.51998,10.527 z m 8.0148,-1.22673 c 23.68368,-4.85507 24.6345,-38.68286 1.25937,-44.80539 -21.70638,-5.68544 -38.07068,20.88134 -23.06886,37.45137 l 1.1256,1.24325 2.08992,-4.55908 c 1.14945,-2.50749 2.16498,-4.60546 2.25672,-4.66216 0.0917,-0.0567 -0.26037,-0.96366 -0.78246,-2.01547 -2.03555,-4.1008 -0.67516,-11.83631 2.12392,-12.07713 1.05127,-0.0904 3.13001,1.0654 5.39281,2.99858 1.74902,1.49423 3.48186,1.38784 5.06344,-0.31087 1.21809,-1.30831 2.91438,-1.06915 3.56545,0.50268 0.40759,0.98401 -0.0282,1.91679 -1.19779,2.56378 -1.85531,1.02633 -1.90532,2.8912 -0.14664,5.46848 3.00447,4.40293 3.03735,5.67424 0.17856,6.90354 -4.05139,1.74213 -8.19607,1.14784 -11.52396,-1.6524 -0.45825,-0.38559 -0.83318,-0.60488 -0.83318,-0.48731 0,0.35391 4.81762,12.90518 5.08413,13.24559 0.52878,0.67542 6.4651,0.79685 9.41297,0.19254 z m 10.8157,-23.85745 c 1.06785,-8.68855 -4.56732,-15.41198 -12.91735,-15.41198 -1.75373,0 -2.51796,-0.35178 -1.77986,-0.81928 1.15122,-0.72918 5.67254,-0.0356 8.373,1.28438 5.47382,2.67565 8.83257,9.92074 7.23586,15.60833 -0.55032,1.96032 -1.17791,1.50498 -0.91165,-0.66145 z m -3.46385,1.29046 c -0.0872,-0.14112 -0.0139,-1.10031 0.16294,-2.13152 1.00307,-5.84947 -2.97531,-10.74024 -9.0473,-11.12217 -3.35508,-0.21104 -3.25264,-0.93521 0.13229,-0.93521 5.60595,0 10.18646,4.67179 10.18646,10.38947 0,2.15135 -0.93019,4.61524 -1.43439,3.79943 z m -2.58326,-1.75828 c -0.0754,-0.0754 -0.08,-0.73111 -0.0102,-1.45713 0.41826,-4.35289 -2.53988,-7.10498 -7.9445,-7.39111 -0.445,-0.0236 -0.15886,-0.78116 0.35686,-0.94484 2.64766,-0.84034 7.22179,1.96693 8.2839,5.08404 0.84026,2.46605 0.36098,5.75603 -0.68601,4.70904 z m -2.1853,-0.89737 c -0.0818,-0.13239 -0.0809,-0.41757 0.002,-0.63373 0.69197,-1.80324 -1.59611,-4.5542 -4.0839,-4.91006 -1.50206,-0.21486 -1.71764,-0.91534 -0.32265,-1.04842 2.92322,-0.27888 6.06506,3.23005 5.44006,6.07568 -0.16039,0.73024 -0.72838,1.01355 -1.03556,0.51653 z m -1.67194,-0.33168 c -0.17996,-0.17996 -0.3272,-0.65393 -0.3272,-1.05328 0,-1.06427 -1.02628,-2.11358 -2.26397,-2.31477 -1.21464,-0.19743 -1.44977,-0.90729 -0.34298,-1.03544 1.67407,-0.19384 3.23254,1.07276 3.66179,2.976 0.24951,1.10628 -0.18886,1.96627 -0.72764,1.42749 z m -11.82306,24.71562 c -0.93207,-2.56969 -4.69867,-12.38216 -4.87162,-12.69121 -0.14602,-0.26091 -5.496,10.8485 -6.33752,13.16008 -0.11103,0.30498 1.5636,0.4185 7.0167,0.47562 4.55233,0.0477 4.55233,0.0477 4.19244,-0.94449 z m 7.21273,-10.95067 c 0.87623,-0.36027 0.87623,-0.36027 -0.80256,-1.4633 -3.29027,-2.16183 -10.38588,-10.26609 -11.18055,-12.76987 -0.27195,-0.85683 -0.58197,-0.65071 -1.03909,0.69086 -2.521,7.39872 6.11679,16.3815 13.0222,13.54231 z m 2.49281,-2.08006 c -0.0792,-0.74309 -2.47829,-4.81836 -2.92395,-4.96691 -0.15821,-0.0527 -0.48806,0.59676 -0.73301,1.44332 -0.24495,0.84657 -0.49675,1.67575 -0.55957,1.84262 -0.18351,0.48751 2.84217,2.51107 3.61904,2.4204 0.53857,-0.0629 0.65435,-0.20616 0.59749,-0.73943 z m -4.52562,-4.22474 c 0.53079,-1.64808 0.5539,-1.91791 0.21798,-2.54558 -0.58607,-1.09509 -0.945,-1.05299 -2.52411,0.29609 l -1.47212,1.25768 1.40004,1.41765 c 1.7474,1.76938 1.66652,1.78386 2.37821,-0.42584 z m -2.4656,-3.46944 c 1.7699,-1.5256 0.50321,-2.58863 -2.28669,-1.91906 -2.21813,0.53235 -2.22427,0.54918 -0.81457,2.23291 1.20649,1.44102 1.04662,1.4572 3.10126,-0.31385 z m 3.96917,-1.23551 c 0.34274,-1.02715 0.0988,-1.09543 -0.73659,-0.20619 -0.51737,0.55071 -0.55975,0.71921 -0.269,1.06954 0.40513,0.48816 0.61464,0.30829 1.00559,-0.86335 z m -1.14075,-1.29224 c 0.79375,-0.67789 0.79375,-0.67789 -0.38694,-0.50753 -1.41016,0.20346 -1.50865,0.27696 -1.07358,0.80119 0.43622,0.52561 0.52126,0.50851 1.46052,-0.29366 z m -5.75897,-0.27387 c 1.75813,-0.44162 1.75813,-0.44162 0.58355,-1.47276 -2.28016,-2.00172 -4.28583,-2.94687 -4.58715,-2.16165 -0.17632,0.45949 1.59991,4.07604 2.0019,4.07604 0.13397,0 1.03474,-0.19873 2.0017,-0.44163 z m 8.91507,-0.50331 c 0.49188,-0.49188 0.4961,-0.52725 0.14188,-1.18912 -0.15064,-0.28148 -0.48401,-0.51177 -0.74083,-0.51177 -1.03459,0 -1.49874,1.33009 -0.63892,1.83089 0.62742,0.36544 0.75593,0.35194 1.23787,-0.13 z"
         id="path229" />
      <path
         style="fill:#222e1d;stroke-width:0.264583"
         d="m 148.47318,167.84524 c -0.0794,-0.0844 -3.68076,-0.21024 -8.003,-0.27967 -4.32224,-0.0694 -7.98282,-0.203 -8.13462,-0.29682 -0.3473,-0.21464 -0.18486,-0.75367 1.0912,-3.62095 1.02551,-2.30429 1.02551,-2.30429 0.20705,-3.175 -10.3406,-11.00074 -8.23084,-28.61943 4.40533,-36.78914 14.98282,-9.68691 35.21234,0.0352 36.89861,17.7332 1.13086,11.86868 -6.41289,22.74418 -17.85353,25.73866 -2.03103,0.5316 -8.28822,1.03278 -8.61104,0.68972 z m 7.10084,-1.38518 c 23.68368,-4.85507 24.6345,-38.68286 1.25937,-44.80539 -21.70638,-5.68544 -38.07068,20.88134 -23.06886,37.45137 l 1.1256,1.24325 2.08992,-4.55908 c 1.14945,-2.50749 2.16498,-4.60546 2.25672,-4.66216 0.0917,-0.0567 -0.26037,-0.96366 -0.78246,-2.01547 -2.03555,-4.1008 -0.67516,-11.83631 2.12392,-12.07713 1.05127,-0.0904 3.13001,1.0654 5.39281,2.99858 1.74902,1.49423 3.48186,1.38784 5.06344,-0.31087 1.21809,-1.30831 2.91438,-1.06915 3.56545,0.50268 0.40759,0.98401 -0.0282,1.91679 -1.19779,2.56378 -1.85531,1.02633 -1.90532,2.8912 -0.14664,5.46848 3.00447,4.40293 3.03735,5.67424 0.17856,6.90354 -4.05139,1.74213 -8.19607,1.14784 -11.52396,-1.6524 -0.45825,-0.38559 -0.83318,-0.60488 -0.83318,-0.48731 0,0.35391 4.81762,12.90518 5.08413,13.24559 0.52878,0.67542 6.4651,0.79685 9.41297,0.19254 z m 10.8157,-23.85745 c 1.06785,-8.68855 -4.56732,-15.41198 -12.91735,-15.41198 -1.75373,0 -2.51796,-0.35178 -1.77986,-0.81928 1.15122,-0.72918 5.67254,-0.0356 8.373,1.28438 5.47382,2.67565 8.83257,9.92074 7.23586,15.60833 -0.55032,1.96032 -1.17791,1.50498 -0.91165,-0.66145 z m -3.46385,1.29046 c -0.0872,-0.14112 -0.0139,-1.10031 0.16294,-2.13152 1.00307,-5.84947 -2.97531,-10.74024 -9.0473,-11.12217 -3.35508,-0.21104 -3.25264,-0.93521 0.13229,-0.93521 5.60595,0 10.18646,4.67179 10.18646,10.38947 0,2.15135 -0.93019,4.61524 -1.43439,3.79943 z m -2.58326,-1.75828 c -0.0754,-0.0754 -0.08,-0.73111 -0.0102,-1.45713 0.41826,-4.35289 -2.53988,-7.10498 -7.9445,-7.39111 -0.445,-0.0236 -0.15886,-0.78116 0.35686,-0.94484 2.64766,-0.84034 7.22179,1.96693 8.2839,5.08404 0.84026,2.46605 0.36098,5.75603 -0.68601,4.70904 z m -2.1853,-0.89737 c -0.0818,-0.13239 -0.0809,-0.41757 0.002,-0.63373 0.69197,-1.80324 -1.59611,-4.5542 -4.0839,-4.91006 -1.50206,-0.21486 -1.71764,-0.91534 -0.32265,-1.04842 2.92322,-0.27888 6.06506,3.23005 5.44006,6.07568 -0.16039,0.73024 -0.72838,1.01355 -1.03556,0.51653 z m -1.67194,-0.33168 c -0.17996,-0.17996 -0.3272,-0.65393 -0.3272,-1.05328 0,-1.06427 -1.02628,-2.11358 -2.26397,-2.31477 -1.21464,-0.19743 -1.44977,-0.90729 -0.34298,-1.03544 1.67407,-0.19384 3.23254,1.07276 3.66179,2.976 0.24951,1.10628 -0.18886,1.96627 -0.72764,1.42749 z m -11.81838,24.71562 c -0.75039,-2.09603 -4.70627,-12.38586 -4.88422,-12.70458 -0.13808,-0.2473 -5.52373,10.96111 -6.32902,13.17169 -0.1194,0.32777 1.32344,0.43047 6.75154,0.4806 4.81691,0.0445 4.81691,0.0445 4.4617,-0.94771 z m 7.20805,-10.95067 c 0.87623,-0.36027 0.87623,-0.36027 -0.80256,-1.4633 -3.29027,-2.16183 -10.38588,-10.26609 -11.18055,-12.76987 -0.27195,-0.85683 -0.58197,-0.65071 -1.03909,0.69086 -2.521,7.39872 6.11679,16.3815 13.0222,13.54231 z m 2.49281,-2.08006 c -0.0789,-0.74006 -2.47745,-4.81808 -2.92072,-4.96584 -0.21132,-0.0704 -1.37437,2.91166 -1.37437,3.52394 0,0.0494 0.68165,0.57798 1.51479,1.17458 1.77352,1.26998 2.89875,1.37817 2.7803,0.26732 z m -4.52562,-4.22474 c 0.53079,-1.64808 0.5539,-1.91791 0.21798,-2.54558 -0.58607,-1.09509 -0.945,-1.05299 -2.52411,0.29609 l -1.47212,1.25768 1.40004,1.41765 c 1.7474,1.76938 1.66652,1.78386 2.37821,-0.42584 z m -2.59541,-3.34124 c 1.87629,-1.6663 0.74196,-2.74298 -2.15688,-2.04726 -2.21829,0.53239 -2.22436,0.54907 -0.81374,2.23389 1.1996,1.4328 1.14312,1.43635 2.97062,-0.18663 z m 4.09898,-1.36371 c 0.34274,-1.02715 0.0988,-1.09543 -0.73659,-0.20619 -0.51737,0.55071 -0.55975,0.71921 -0.269,1.06954 0.40513,0.48816 0.61464,0.30829 1.00559,-0.86335 z m -1.14075,-1.29224 c 0.79375,-0.67789 0.79375,-0.67789 -0.38694,-0.50753 -1.41016,0.20346 -1.50865,0.27696 -1.07358,0.80119 0.43622,0.52561 0.52126,0.50851 1.46052,-0.29366 z m -5.75897,-0.27387 c 1.75813,-0.44162 1.75813,-0.44162 0.58355,-1.47276 -2.28016,-2.00172 -4.28583,-2.94687 -4.58715,-2.16165 -0.17632,0.45949 1.59991,4.07604 2.0019,4.07604 0.13397,0 1.03474,-0.19873 2.0017,-0.44163 z m 8.91507,-0.50331 c 0.49188,-0.49188 0.4961,-0.52725 0.14188,-1.18912 -0.15064,-0.28148 -0.48401,-0.51177 -0.74083,-0.51177 -1.03459,0 -1.49874,1.33009 -0.63892,1.83089 0.62742,0.36544 0.75593,0.35194 1.23787,-0.13 z"
         id="path227" />
      <path
         style="fill:#1c2418;stroke-width:0.264583"
         d="m 148.47318,167.84524 c -0.0794,-0.0844 -3.68076,-0.21024 -8.003,-0.27967 -4.32224,-0.0694 -7.98282,-0.203 -8.13462,-0.29682 -0.3473,-0.21464 -0.18486,-0.75367 1.0912,-3.62095 1.02551,-2.30429 1.02551,-2.30429 0.20705,-3.175 -10.3406,-11.00074 -8.23084,-28.61943 4.40533,-36.78914 14.98282,-9.68691 35.21234,0.0352 36.89861,17.7332 1.13086,11.86868 -6.41289,22.74418 -17.85353,25.73866 -2.03103,0.5316 -8.28822,1.03278 -8.61104,0.68972 z m 7.10084,-1.38733 c 21.78927,-4.48977 25.14846,-34.36133 4.8967,-43.54391 -18.04257,-8.18089 -37.5592,9.40236 -31.2843,28.18518 1.56192,4.67535 5.42209,10.17488 6.03921,8.60397 0.53632,-1.3652 3.77554,-8.31508 3.96388,-8.50464 0.1101,-0.11082 -0.22386,-1.05578 -0.74214,-2.0999 -1.48417,-2.99002 -1.42394,-6.86137 0.15382,-9.88527 1.59172,-3.05066 2.56957,-2.98967 6.81429,0.42503 2.28628,1.83922 4.26255,1.92132 5.46887,0.2272 0.99495,-1.39728 3.00534,-1.17831 3.72718,0.40594 0.37238,0.81728 -0.17016,1.94779 -1.20939,2.52005 -1.89518,1.04361 -1.91093,2.88292 -0.0485,5.66849 2.92363,4.37282 2.93124,5.47573 0.0463,6.71626 -4.0382,1.73646 -8.58373,1.01247 -11.72771,-1.86794 -0.32743,-0.29997 -0.59532,-0.43569 -0.59532,-0.30159 0,0.38261 4.79754,12.90786 5.07926,13.26074 0.54049,0.67703 6.47398,0.79698 9.41784,0.19039 z m 10.64032,-22.53239 c 0.001,-0.25466 0.12112,-1.19697 0.26671,-2.09402 1.19561,-7.36655 -4.56331,-14.18767 -12.30725,-14.57724 -3.56778,-0.17949 -3.88924,-1.10971 -0.38632,-1.11792 8.7564,-0.0205 15.78746,8.89379 13.50933,17.12772 -0.30929,1.11788 -1.08649,1.5928 -1.08247,0.66146 z m -3.28072,-0.0199 c -0.0915,-0.14802 -0.0216,-1.11285 0.15519,-2.14406 0.99825,-5.82136 -2.93201,-10.71862 -8.91501,-11.10847 -1.87132,-0.12193 -2.38125,-0.24015 -2.38125,-0.55204 0,-0.75583 4.44756,-0.52598 6.28455,0.32479 4.30877,1.99553 6.86203,6.71285 6.08586,11.24407 -0.29192,1.7042 -0.88793,2.78813 -1.22934,2.23571 z m -2.59101,-1.77082 c -0.0754,-0.0754 -0.08,-0.73111 -0.0102,-1.45713 0.38034,-3.95835 -2.93779,-7.40162 -7.13263,-7.40162 -1.29013,0 -1.4027,-0.6964 -0.15042,-0.93054 3.00503,-0.56186 7.07312,2.11301 8.00961,5.26649 0.77747,2.61803 0.3128,5.55192 -0.71632,4.5228 z m -2.1853,-0.89737 c -0.0818,-0.13239 -0.0809,-0.41757 0.002,-0.63373 0.69197,-1.80324 -1.59611,-4.5542 -4.0839,-4.91006 -1.43182,-0.20481 -1.7221,-0.90585 -0.43561,-1.05202 2.46244,-0.27978 4.92899,1.7762 5.54231,4.61975 0.31579,1.46411 -0.44027,2.92192 -1.02485,1.97606 z m -1.82275,-0.46485 c -0.097,-0.097 -0.17639,-0.50709 -0.17639,-0.91129 0,-1.07231 -1.02256,-2.1218 -2.26397,-2.32359 -1.21464,-0.19743 -1.44977,-0.90729 -0.34298,-1.03544 1.07697,-0.1247 2.53748,0.61575 3.12934,1.58652 0.86934,1.42588 0.5869,3.61669 -0.346,2.6838 z m -11.66757,24.84879 c -0.75039,-2.09603 -4.70627,-12.38586 -4.88422,-12.70458 -0.13808,-0.2473 -5.52373,10.96111 -6.32902,13.17169 -0.1194,0.32777 1.32344,0.43047 6.75154,0.4806 4.81691,0.0445 4.81691,0.0445 4.4617,-0.94771 z m 7.20805,-10.95067 c 0.87623,-0.36027 0.87623,-0.36027 -0.80256,-1.4633 -3.29027,-2.16183 -10.38588,-10.26609 -11.18055,-12.76987 -0.27195,-0.85683 -0.58197,-0.65071 -1.03909,0.69086 -2.521,7.39872 6.11679,16.3815 13.0222,13.54231 z m 2.49281,-2.08006 c -0.0789,-0.74006 -2.47745,-4.81808 -2.92072,-4.96584 -0.21132,-0.0704 -1.37437,2.91166 -1.37437,3.52394 0,0.0494 0.68165,0.57798 1.51479,1.17458 1.77352,1.26998 2.89875,1.37817 2.7803,0.26732 z m -4.52562,-4.22474 c 0.53079,-1.64808 0.5539,-1.91791 0.21798,-2.54558 -0.58607,-1.09509 -0.945,-1.05299 -2.52411,0.29609 l -1.47212,1.25768 1.40004,1.41765 c 1.7474,1.76938 1.66652,1.78386 2.37821,-0.42584 z m -2.59541,-3.34124 c 1.87629,-1.6663 0.74196,-2.74298 -2.15688,-2.04726 -2.21829,0.53239 -2.22436,0.54907 -0.81374,2.23389 1.1996,1.4328 1.14312,1.43635 2.97062,-0.18663 z m 4.08854,-1.16527 c 0.31033,-1.22261 0.1344,-1.32064 -0.72615,-0.40463 -0.50946,0.54229 -0.55689,0.72266 -0.27831,1.05833 0.51671,0.62259 0.71291,0.4949 1.00446,-0.6537 z m -1.13031,-1.49068 c 0.79375,-0.67789 0.79375,-0.67789 -0.38694,-0.50753 -1.41016,0.20346 -1.50865,0.27696 -1.07358,0.80119 0.43622,0.52561 0.52126,0.50851 1.46052,-0.29366 z m -5.75897,-0.27387 c 1.75813,-0.44162 1.75813,-0.44162 0.58355,-1.47276 -2.28016,-2.00172 -4.28583,-2.94687 -4.58715,-2.16165 -0.17632,0.45949 1.59991,4.07604 2.0019,4.07604 0.13397,0 1.03474,-0.19873 2.0017,-0.44163 z m 8.91507,-0.50331 c 0.49188,-0.49188 0.4961,-0.52725 0.14188,-1.18912 -0.15064,-0.28148 -0.48401,-0.51177 -0.74083,-0.51177 -1.03459,0 -1.49874,1.33009 -0.63892,1.83089 0.62742,0.36544 0.75593,0.35194 1.23787,-0.13 z"
         id="path225" />
      <path
         style="fill:#151814;stroke-width:0.264583"
         d="m 148.73244,167.84087 c -0.0823,-0.0878 -3.7442,-0.21473 -8.13749,-0.28198 -4.39328,-0.0673 -8.111,-0.19842 -8.26159,-0.29149 -0.34575,-0.21369 -0.18158,-0.75483 1.10765,-3.65125 l 1.03976,-2.33593 -1.45645,-1.57314 c -14.67188,-15.84738 -0.62564,-42.51615 20.89716,-39.67623 23.93932,3.15879 29.02751,35.5653 7.16979,45.66418 -3.32363,1.53561 -11.5861,2.97021 -12.35883,2.14584 z m 8.48407,-1.74241 c 21.64018,-6.199 22.4984,-36.63491 1.23964,-43.96249 -19.95436,-6.87798 -38.00567,15.19102 -27.31931,33.39978 2.06756,3.52297 3.70629,5.0615 4.18828,3.93218 1.22369,-2.86719 3.71768,-8.08771 3.92491,-8.21579 0.13303,-0.0822 -0.20517,-1.0208 -0.75155,-2.08573 -1.5416,-3.00467 -1.50163,-6.87823 0.10271,-9.95307 1.58951,-3.04643 2.57195,-2.98775 6.79003,0.40551 2.216,1.78268 2.09387,1.7464 4.00641,1.19041 0.97836,-0.28442 1.4757,-0.59087 1.67742,-1.03359 0.61291,-1.34518 2.83992,-1.03294 3.53648,0.49584 0.37238,0.81728 -0.17016,1.94779 -1.20939,2.52005 -1.85371,1.02077 -1.91005,2.90153 -0.16492,5.50489 2.94927,4.39966 3.01103,5.49528 0.38182,6.77303 -3.84726,1.86971 -8.8791,1.13471 -11.94406,-1.74467 -0.32893,-0.30901 -0.59806,-0.44185 -0.59806,-0.29519 0,0.40595 4.78024,12.8772 5.0741,13.2379 0.65336,0.80198 8.07129,0.68865 11.06549,-0.16906 z m 8.99783,-22.17294 c 0.001,-0.25466 0.12611,-1.22794 0.2778,-2.16284 1.21959,-7.51669 -5.01231,-14.5559 -12.89804,-14.56891 -1.8676,-0.003 -2.6565,-0.34428 -1.90159,-0.82242 1.12439,-0.71218 5.39339,-0.0772 8.09839,1.20461 5.7394,2.71969 9.12981,9.80649 7.50536,15.6881 -0.30874,1.11788 -1.08594,1.59304 -1.08192,0.66146 z m -3.28072,-0.0199 c -0.0915,-0.14802 -0.0216,-1.11285 0.15519,-2.14406 1.00057,-5.83487 -2.91812,-10.71772 -8.91501,-11.10847 -1.87132,-0.12193 -2.38125,-0.24015 -2.38125,-0.55204 0,-0.75583 4.44756,-0.52598 6.28455,0.32479 4.28838,1.98609 6.85835,6.73429 6.08586,11.24407 -0.29192,1.7042 -0.88793,2.78813 -1.22934,2.23571 z m -2.56467,-1.83217 c -0.0124,-0.10914 -0.004,-0.82599 0.0194,-1.593 0.11656,-3.8707 -2.50699,-6.74939 -6.49016,-7.12135 -1.7908,-0.16722 -2.08231,-0.3937 -1.14938,-0.89299 3.69053,-1.97511 9.76572,4.46922 8.59827,9.12071 -0.15308,0.60992 -0.92074,0.99183 -0.97817,0.48663 z m -2.17748,-0.76688 c -0.0944,-0.0944 -0.10289,-0.44523 -0.019,-0.7797 0.49421,-1.9691 -1.93923,-4.86957 -4.08548,-4.86957 -0.94861,0 -1.66787,-0.69546 -0.98876,-0.95605 1.42616,-0.54727 4.27329,0.80123 5.2605,2.49156 1.20221,2.05848 1.06836,5.34944 -0.16731,4.11376 z m -1.85691,-0.53399 c -0.097,-0.097 -0.17639,-0.52289 -0.17639,-0.94639 0,-1.05249 -1.27985,-2.3168 -2.34528,-2.3168 -0.8969,0 -1.3523,-0.46786 -0.79747,-0.81928 0.93354,-0.59129 2.93202,0.1966 3.70217,1.45956 0.84021,1.37784 0.52569,3.53163 -0.38303,2.62291 z m -11.66757,24.84879 c -0.75403,-2.1062 -4.7067,-12.38663 -4.88581,-12.70742 -0.14157,-0.25356 -5.03993,9.92846 -6.29589,13.08703 -0.16788,0.42219 0.92505,0.51459 6.72,0.5681 4.81691,0.0445 4.81691,0.0445 4.4617,-0.94771 z m 7.38888,-10.97849 c 0.66718,-0.34958 0.66718,-0.34958 -0.9975,-1.44404 -3.27933,-2.15604 -10.37374,-10.26372 -11.16644,-12.76131 -0.86136,-2.71388 -1.88098,3.21823 -1.06884,6.21848 1.61316,5.95953 8.81079,10.30378 13.23278,7.98687 z m 2.38063,-1.52003 c 0.23069,-0.37326 -0.68856,-2.33098 -2.00423,-4.26839 l -1.12858,-1.66191 -0.61547,1.82454 c -0.78334,2.32221 -0.8566,2.04884 0.88282,3.2944 1.4541,1.04126 2.53434,1.34713 2.86546,0.81136 z m -4.55788,-4.83908 c 0.64743,-1.92562 0.64743,-1.92562 -0.009,-2.77621 -0.65596,-0.85059 -0.65596,-0.85059 -2.22787,0.51118 l -1.57191,1.36177 1.39687,1.41444 c 1.7443,1.76625 1.63815,1.78875 2.41143,-0.51118 z m -2.6318,-3.25911 c 1.87629,-1.6663 0.74196,-2.74298 -2.15688,-2.04726 -2.20988,0.53037 -2.23874,0.61083 -0.81478,2.27215 1.19567,1.39498 1.14319,1.39895 2.97166,-0.22489 z m 4.08854,-1.16527 c 0.31033,-1.22261 0.1344,-1.32064 -0.72615,-0.40463 -0.50946,0.54229 -0.55689,0.72266 -0.27831,1.05833 0.51671,0.62259 0.71291,0.4949 1.00446,-0.6537 z m -1.13031,-1.47415 c 0.79375,-0.67776 0.79375,-0.67776 -0.38694,-0.51573 -1.40869,0.19331 -1.50942,0.2677 -1.07358,0.79286 0.44251,0.53319 0.53125,0.51635 1.46052,-0.27713 z m -5.75897,-0.2904 c 1.75813,-0.44162 1.75813,-0.44162 0.58355,-1.47276 -4.26942,-3.74805 -5.88261,-3.07019 -3.13917,1.31908 0.44483,0.7117 0.35554,0.70633 2.55562,0.15368 z m 8.91507,-0.50331 c 0.49188,-0.49188 0.4961,-0.52725 0.14188,-1.18912 -0.15064,-0.28148 -0.48401,-0.51177 -0.74083,-0.51177 -1.03459,0 -1.49874,1.33009 -0.63892,1.83089 0.62742,0.36544 0.75593,0.35194 1.23787,-0.13 z"
         id="path223" />
      <path
         style="fill:#000000;stroke-width:0.264583"
         d="m 147.72232,167.68184 c -0.78341,-0.12395 -1.51098,-0.36547 -1.61682,-0.53672 -0.1344,-0.21746 -0.24517,-0.17393 -0.3673,0.14433 -0.18643,0.48583 -12.9635,0.36068 -13.47548,-0.13198 -0.20775,-0.19991 0.31362,-1.62609 1.77741,-4.86206 0.38314,-0.847 0.58913,-1.47357 0.45776,-1.39238 -0.59969,0.37063 -4.0284,-4.22696 -5.35147,-7.17583 -6.10321,-13.6029 1.82841,-29.80859 16.2164,-33.13294 21.53455,-4.97557 37.79055,18.70016 25.38385,36.96983 -4.85886,7.15498 -14.625,11.44658 -23.02435,10.11775 z m 7.82324,-1.1874 c 23.63022,-5.02801 24.91887,-37.98456 1.74942,-44.7401 -21.84366,-6.36898 -38.64585,20.39081 -23.50634,37.43708 l 1.11949,1.26049 2.0793,-4.58779 c 1.14362,-2.5233 2.17629,-4.62013 2.29483,-4.65965 0.11854,-0.0395 -0.23284,-0.96418 -0.78084,-2.05482 -1.55331,-3.0914 -1.50437,-6.82027 0.13106,-9.98663 1.56666,-3.03319 2.83209,-2.90687 7.0632,0.7051 1.74888,1.49296 1.67388,1.47149 3.59262,1.02859 0.98,-0.22621 1.44964,-0.48595 1.64201,-0.90815 0.41597,-0.91297 1.69282,-1.34476 2.55219,-0.86306 1.61537,0.90543 1.57483,2.75461 -0.0804,3.66606 -1.68243,0.92646 -1.9164,2.97739 -0.55698,4.88244 2.78986,3.90964 3.48595,7.03329 1.56734,7.03329 -0.18741,0 -0.7345,0.22891 -1.21576,0.50869 -3.03823,1.76625 -8.3047,0.90186 -11.47739,-1.88381 -0.90102,-0.7911 -0.90102,-0.7911 -0.53707,0.22586 0.29945,0.83674 4.18303,11.03288 4.79057,12.57741 0.30565,0.77703 6.51387,1.00985 9.57271,0.359 z m 10.66678,-22.51795 c 0,-0.22663 0.1332,-1.21862 0.296,-2.20442 1.24249,-7.52357 -5.00329,-14.58144 -12.90368,-14.58144 -1.878,0 -2.66993,-0.33931 -1.91215,-0.81928 1.17339,-0.74322 5.96367,0.0529 8.52155,1.41623 5.54041,2.95301 8.64594,9.8358 7.0427,15.60878 -0.27094,0.97561 -1.04442,1.40525 -1.04442,0.58013 z m -3.27059,-1.1093 c 1.52237,-6.62829 -2.70659,-12.16517 -9.41538,-12.32736 -2.99392,-0.0724 -2.39477,-0.83799 0.64743,-0.82729 6.75953,0.0238 11.99887,7.32656 9.66342,13.46925 -0.43561,1.14575 -1.1715,0.88722 -0.89547,-0.3146 z m -2.57109,-0.79375 c -0.0114,-0.10914 -0.004,-0.92803 0.0171,-1.81975 0.0885,-3.78452 -2.55934,-6.59745 -6.50859,-6.91446 -1.79626,-0.14419 -2.13105,-0.43765 -0.99293,-0.87037 4.00327,-1.52204 9.34935,4.07664 8.45334,8.85277 -0.15334,0.81738 -0.90105,1.39757 -0.96888,0.75181 z m -2.10759,-0.79375 c -0.21932,-3.69771 -1.34305,-5.24121 -4.0858,-5.61206 -0.7595,-0.10269 -1.08195,-0.28349 -1.1516,-0.64571 -0.0884,-0.45981 0.025,-0.48868 1.31775,-0.33557 3.07056,0.36367 4.88373,2.67691 4.75321,6.06417 -0.0245,0.63686 -0.79805,1.1279 -0.83356,0.52917 z m -1.92851,-0.50712 c -0.097,-0.097 -0.17639,-0.56268 -0.17639,-1.03481 0,-1.04687 -1.24995,-2.22838 -2.35745,-2.22838 -0.90226,0 -1.16822,-0.23892 -0.78285,-0.70326 0.66262,-0.79842 2.88589,0.009 3.69972,1.34354 0.84021,1.37784 0.52569,3.53163 -0.38303,2.62291 z m -12.06195,23.79045 c -1.64323,-4.435 -4.26413,-11.2437 -4.46897,-11.60973 -0.16952,-0.30291 -5.04879,9.76754 -6.31994,13.04389 -0.18081,0.46601 0.63746,0.54103 6.3298,0.58033 l 5.21886,0.036 z m 7.78326,-9.92015 c 0.66718,-0.34958 0.66718,-0.34958 -1.0134,-1.4545 -3.24104,-2.13086 -10.36571,-10.27805 -11.15054,-12.75085 -0.42925,-1.35242 -1.20485,0.14854 -1.39785,2.70512 -0.55397,7.33809 7.87069,14.4821 13.56179,11.50023 z m 2.38063,-1.52003 c 0.23069,-0.37326 -0.68856,-2.33098 -2.00423,-4.26839 l -1.12858,-1.66191 -0.61547,1.82454 c -0.78334,2.32221 -0.8566,2.04884 0.88282,3.2944 1.4541,1.04126 2.53434,1.34713 2.86546,0.81136 z m -4.55052,-4.86097 c 0.65479,-1.9475 0.65479,-1.9475 2.7e-4,-2.78382 -0.65453,-0.83632 -0.65453,-0.83632 -2.23523,0.53306 l -1.58071,1.36939 1.39687,1.41444 c 1.74542,1.76737 1.63733,1.7912 2.41879,-0.53307 z m -2.63916,-3.23722 c 1.87629,-1.6663 0.74196,-2.74298 -2.15688,-2.04726 -2.20988,0.53037 -2.23874,0.61083 -0.81478,2.27215 1.19567,1.39498 1.14319,1.39895 2.97166,-0.22489 z m 4.09587,-1.08567 c 0.38733,-1.26205 0.20594,-1.41116 -0.66147,-0.54375 -0.58805,0.58805 -0.64438,0.76353 -0.35646,1.11045 0.50837,0.61255 0.68643,0.51343 1.01793,-0.5667 z m -1.1708,-1.42371 c 0.9246,-0.72729 0.66584,-1.05886 -0.56423,-0.72298 -1.23517,0.33727 -1.27336,0.37576 -0.86313,0.87007 0.43677,0.52627 0.59161,0.51031 1.42736,-0.14709 z m -5.64999,-0.41945 c 1.86468,-0.51843 1.8206,-0.64143 -0.93648,-2.61307 -3.33262,-2.38324 -4.11358,-1.54904 -1.96268,2.09647 0.6462,1.09522 0.75088,1.11387 2.89916,0.5166 z m 8.85247,-0.51752 c 0.51569,-0.51569 0.4383,-1.12826 -0.19276,-1.52567 -0.98874,-0.62266 -2.04557,0.91699 -1.10268,1.60645 0.61387,0.44887 0.77589,0.43877 1.29544,-0.0808 z"
         id="path221" />
    </g>
  </g>
</svg>
