<?xml version="1.0" encoding="UTF-8" standalone="no"?>
<!-- Created with Inkscape (http://www.inkscape.org/) -->

<svg
   width="48.522236mm"
   height="48.637241mm"
   viewBox="0 0 48.522237 48.637241"
   version="1.1"
   id="svg5"
   sodipodi:docname="view3.svg"
   inkscape:version="1.1 (c68e22c387, 2021-05-23)"
   xmlns:inkscape="http://www.inkscape.org/namespaces/inkscape"
   xmlns:sodipodi="http://sodipodi.sourceforge.net/DTD/sodipodi-0.dtd"
   xmlns="http://www.w3.org/2000/svg"
   xmlns:svg="http://www.w3.org/2000/svg">
  <sodipodi:namedview
     id="namedview7"
     pagecolor="#ffffff"
     bordercolor="#666666"
     borderopacity="1.0"
     inkscape:pageshadow="2"
     inkscape:pageopacity="0.0"
     inkscape:pagecheckerboard="0"
     inkscape:document-units="mm"
     showgrid="false"
     inkscape:zoom="0.74118967"
     inkscape:cx="-249.59873"
     inkscape:cy="304.24061"
     inkscape:window-width="1920"
     inkscape:window-height="1017"
     inkscape:window-x="-8"
     inkscape:window-y="-8"
     inkscape:window-maximized="1"
     inkscape:current-layer="layer1" />
  <defs
     id="defs2" />
  <g
     inkscape:label="Ebene 1"
     inkscape:groupmode="layer"
     id="layer1"
     transform="translate(-171.17819,-67.986947)">
    <g
       id="g3855"
       transform="translate(67.824519,-12.49399)">
      <path
         style="fill:#e8e9e8;stroke-width:0.264583"
         d="m 124.73387,128.99315 c -0.0688,-0.0688 -3.69025,-0.19635 -8.04775,-0.28351 -4.35749,-0.0872 -8.03029,-0.26351 -8.16178,-0.39186 -0.2589,-0.25272 0.25268,-1.76791 1.46568,-4.34108 l 0.73991,-1.56961 -1.18744,-1.26947 c -2.72264,-2.91072 -4.93271,-7.26336 -5.78282,-11.38902 -0.54133,-2.62715 -0.54133,-7.31702 0,-9.94418 1.84576,-8.957661 8.79966,-16.260687 17.70374,-18.592579 2.65864,-0.696271 7.0469,-0.939733 9.64052,-0.53486 9.69454,1.513354 17.56828,8.598347 20.16657,18.146406 0.81219,2.984573 0.80622,8.834183 -0.0121,11.906253 -2.90852,10.9183 -12.58567,18.38854 -23.821,18.38854 -1.41815,0 -2.63472,-0.0563 -2.70349,-0.12503 z m -3.40275,-1.70016 c 0,-0.25981 -4.69397,-12.64597 -5.00293,-13.20143 -0.1149,-0.20657 -1.40035,2.31083 -3.24249,6.35 l -3.05213,6.69224 3.59826,0.14372 c 6.38431,0.25499 7.69929,0.25763 7.69929,0.0155 z m 6.96995,-11.74925 0.75224,-0.32141 -1.8641,-1.27368 c -3.18102,-2.17349 -8.54774,-8.19735 -10.35555,-11.62356 -0.36355,-0.68901 -0.74589,-1.25274 -0.84965,-1.25274 -0.29065,0 -1.00289,2.62528 -1.00289,3.6966 0,1.26073 0.65332,3.72212 1.35088,5.08945 0.594,1.16434 2.78843,3.62256 4.01086,4.49301 1.91463,1.36334 6.09284,1.98933 7.95821,1.19233 z m 2.47616,-1.68286 c 0.18632,-0.48554 -0.86015,-2.65421 -2.11995,-4.39332 l -0.79187,-1.09314 -0.52658,1.7667 c -0.60368,2.02533 -0.57855,2.08834 1.33969,3.35893 1.37363,0.90985 1.85619,0.99282 2.09871,0.36083 z m -4.40554,-7.35022 c -0.69644,-0.74133 -0.79825,-0.70985 -2.39319,0.74015 l -1.12096,1.01909 1.4196,1.43859 1.41961,1.43858 0.64712,-1.9886 0.64712,-1.9886 z m -1.60099,-1.72017 c 0,-0.10247 -0.27386,-0.4436 -0.60858,-0.75805 l -0.60858,-0.57174 -1.80827,0.51712 c -0.99455,0.28442 -1.84446,0.55331 -1.88869,0.59754 -0.0442,0.0442 0.40249,0.70016 0.9927,1.45762 l 1.07312,1.37721 1.42415,-1.21669 c 0.78329,-0.66917 1.42415,-1.30053 1.42415,-1.40301 z m -3.63802,-1.88551 c 0.69123,-0.16937 1.25114,-0.38312 1.24426,-0.47498 -0.0445,-0.59348 -4.8485,-3.728589 -5.19005,-3.387037 -0.60585,0.605853 1.43854,4.542587 2.23567,4.305067 0.24935,-0.0743 1.0189,-0.27367 1.71012,-0.44305 z m 8.87631,-0.92975 c 0.0434,-0.30377 -0.0903,-0.69278 -0.29719,-0.86446 -0.76393,-0.634 -1.83251,0.43458 -1.1985,1.1985 0.44853,0.54046 1.40114,0.32771 1.49569,-0.33404 z"
         id="path3893" />
      <path
         style="fill:#cfd0cf;stroke-width:0.264583"
         d="m 124.37383,128.85977 c -0.72761,-0.12342 -4.48403,-0.23483 -8.34761,-0.24758 -4.8293,-0.0159 -7.11787,-0.11637 -7.32286,-0.32136 -0.33972,-0.33971 -0.25114,-0.62721 1.15397,-3.74533 l 0.92789,-2.05913 -1.30727,-1.51274 c -2.92886,-3.38919 -4.77245,-7.10571 -5.67087,-11.43196 -0.96279,-4.63617 -0.31721,-10.39296 1.65266,-14.737433 3.03709,-6.698141 9.31039,-11.852001 16.56538,-13.609359 2.89844,-0.702081 7.73761,-0.765588 10.58133,-0.138865 8.88001,1.957049 15.88191,8.525481 18.41756,17.277368 0.51789,1.787529 0.6019,2.686849 0.6019,6.443129 0,3.75628 -0.084,4.6556 -0.6019,6.44313 -2.51033,8.66451 -9.31256,15.13823 -18.11592,17.24101 -2.0244,0.48355 -6.73714,0.70395 -8.53426,0.39912 z m -3.04271,-1.56953 c 0,-0.27795 -4.65274,-12.575 -4.97742,-13.15517 -0.14967,-0.26744 -1.16288,1.67848 -3.28342,6.30597 l -3.06696,6.69276 3.3488,0.14442 c 5.91184,0.25496 7.979,0.25807 7.979,0.012 z m 6.9701,-11.77036 0.75239,-0.29735 -1.879,-1.28385 c -3.0909,-2.11193 -8.29071,-7.93849 -10.23928,-11.47346 -0.41997,-0.76189 -0.83377,-1.38697 -0.91955,-1.38906 -0.31069,-0.008 -0.8237,1.48108 -0.95859,2.78171 -0.18004,1.7359 0.29678,3.96088 1.26334,5.89515 0.94408,1.88927 3.68807,4.60893 5.42565,5.37754 2.2184,0.98131 4.6862,1.12788 6.55504,0.38932 z m 2.5549,-1.77664 c 0,-0.68889 -1.37387,-3.30687 -2.34727,-4.47284 l -0.72142,-0.86414 -0.49935,1.64924 c -0.58763,1.94084 -0.50325,2.16016 1.30276,3.38612 1.48815,1.01018 2.26528,1.11366 2.26528,0.30162 z m -4.56112,-7.29811 -0.70303,-0.70304 -1.27053,1.16076 c -0.69879,0.63842 -1.30915,1.25142 -1.35636,1.36221 -0.0472,0.1108 0.5412,0.82848 1.30758,1.59485 l 1.39341,1.39341 0.66598,-2.05258 0.66598,-2.05258 z m -1.62477,-1.45551 c 0.0911,-0.14748 -0.11686,-0.55017 -0.46222,-0.89487 -0.62302,-0.62184 -0.64036,-0.6235 -2.21543,-0.21229 -2.3664,0.6178 -2.35472,0.59582 -1.14344,2.15033 l 1.07771,1.3831 1.28883,-1.07907 c 0.70886,-0.59349 1.3634,-1.19973 1.45455,-1.3472 z m -3.53755,-2.08464 c 0.69123,-0.16937 1.25677,-0.38954 1.25677,-0.48926 0,-0.21131 -3.29963,-2.726459 -4.14979,-3.163173 -0.87667,-0.450331 -1.14187,-0.362601 -1.14187,0.377729 0,1.297234 1.65156,3.917584 2.34015,3.712874 0.24089,-0.0716 1.00352,-0.26879 1.69474,-0.43817 z m 8.87631,-0.92975 c 0.0434,-0.30377 -0.0903,-0.69278 -0.29719,-0.86446 -0.76393,-0.634 -1.83251,0.43458 -1.1985,1.1985 0.44853,0.54046 1.40114,0.32771 1.49569,-0.33404 z"
         id="path3891" />
      <path
         style="fill:#b8c4b3;stroke-width:0.264583"
         d="m 124.903,128.85777 c -0.87313,-0.11623 -4.70316,-0.22425 -8.51118,-0.24004 -3.80802,-0.0158 -7.112,-0.10099 -7.34219,-0.18932 -0.64984,-0.24937 -0.5062,-1.0295 0.63982,-3.47506 0.58209,-1.24213 1.05834,-2.37926 1.05834,-2.52696 0,-0.1477 -0.57067,-0.87536 -1.26816,-1.61702 -1.73685,-1.84686 -3.61427,-4.95186 -4.55853,-7.53921 -3.40826,-9.33884 -1.05951,-19.295232 6.15893,-26.107894 3.43049,-3.237638 7.6861,-5.389232 12.26465,-6.200879 2.69727,-0.47815 8.41957,-0.211171 10.80922,0.504315 9.2109,2.757837 15.86321,10.215679 17.35368,19.455048 0.40492,2.51007 0.18979,7.59545 -0.42054,9.94118 -1.32149,5.07899 -4.79537,10.19244 -9.11842,13.4221 -4.55297,3.40142 -11.62803,5.2976 -17.06562,4.57374 z m -3.57188,-1.59079 c 0,-0.34431 -4.79732,-13.03309 -5.03179,-13.30892 -0.0987,-0.11614 -1.1708,1.96745 -2.38241,4.63021 -1.2116,2.66275 -2.60093,5.6748 -3.0874,6.69345 l -0.88449,1.85208 2.84877,0.14614 c 5.20721,0.26712 8.53732,0.26207 8.53732,-0.013 z m 7.08594,-11.75095 c 0.57995,-0.29975 0.52675,-0.36568 -1.355,-1.67952 -3.16305,-2.20845 -7.8908,-7.50724 -10.02415,-11.23494 -0.47639,-0.83242 -0.93635,-1.51703 -1.02213,-1.52136 -0.30918,-0.0156 -0.82344,1.47456 -0.95859,2.77766 -0.32204,3.10499 1.0943,6.54067 3.74607,9.08703 1.7506,1.68101 3.27627,2.53544 5.24505,2.93744 1.30343,0.26614 3.50171,0.0818 4.36875,-0.36631 z m 2.43906,-1.75248 c 0,-0.67788 -1.01136,-2.67398 -2.13758,-4.21891 l -0.86383,-1.18499 -0.57723,1.71416 c -0.31748,0.94279 -0.53115,1.84015 -0.47483,1.99415 0.16209,0.44321 3.01659,2.23355 3.56116,2.23355 0.3186,0 0.49231,-0.18981 0.49231,-0.53796 z m -4.56112,-7.31842 -0.70303,-0.70304 -1.27053,1.16076 c -0.69879,0.63842 -1.31332,1.26393 -1.36563,1.39003 -0.0523,0.12609 0.53761,0.83912 1.31093,1.5845 l 1.40605,1.35524 0.66262,-2.04223 0.66262,-2.04223 z m -1.62477,-1.45551 c 0.0911,-0.14748 -0.11686,-0.54869 -0.46222,-0.89158 -0.62629,-0.62182 -0.63242,-0.62235 -2.34772,-0.20034 -0.94589,0.2327 -1.81275,0.50549 -1.92637,0.60618 -0.11361,0.10069 0.28471,0.8001 0.88517,1.55424 l 1.09175,1.37118 1.29683,-1.08578 c 0.71327,-0.59717 1.37141,-1.20643 1.46256,-1.3539 z m -3.53755,-2.08464 c 0.69123,-0.16937 1.25677,-0.38954 1.25677,-0.48926 0,-0.21131 -3.29963,-2.726459 -4.14979,-3.163173 -0.87667,-0.450331 -1.14187,-0.362601 -1.14187,0.377729 0,1.297234 1.65156,3.917584 2.34015,3.712874 0.24089,-0.0716 1.00352,-0.26879 1.69474,-0.43817 z m 8.87786,-1.07123 c 0.0848,-0.73083 -0.43011,-1.12903 -1.11834,-0.86494 -0.98963,0.37976 -0.57187,1.78874 0.48556,1.63766 0.37308,-0.0533 0.57843,-0.30407 0.63278,-0.77272 z"
         id="path3889" />
      <path
         style="fill:#b0b1af;stroke-width:0.264583"
         d="m 125.16758,128.84947 c -0.87313,-0.11166 -4.76269,-0.21595 -8.64347,-0.23174 -3.88078,-0.0158 -7.24429,-0.10099 -7.47448,-0.18932 -0.64235,-0.24649 -0.51128,-0.95191 0.63982,-3.44348 0.58209,-1.25991 1.05834,-2.43042 1.05834,-2.60113 0,-0.1707 -0.36931,-0.66007 -0.82068,-1.08747 -2.2315,-2.11302 -4.81719,-6.80174 -5.8272,-10.56669 -0.83293,-3.10485 -0.83928,-8.65304 -0.0135,-11.773961 2.2671,-8.567908 8.56163,-15.03083 17.02604,-17.48151 2.43505,-0.705016 8.16581,-0.991923 10.60314,-0.530841 9.38567,1.775532 16.66365,8.417268 19.30295,17.615476 0.5184,1.806686 0.60626,2.717246 0.59992,6.217706 -0.005,3.0295 -0.12595,4.53668 -0.46104,5.76832 -2.86454,10.5288 -11.63936,17.76773 -22.2857,18.38495 -1.16417,0.0675 -2.83105,0.0314 -3.70417,-0.0803 z m -3.83646,-1.57952 c 0,-0.34601 -4.79244,-13.04153 -5.02364,-13.30799 -0.0989,-0.11399 -0.93249,1.43382 -1.8524,3.43958 -0.9199,2.00577 -2.30586,5.01607 -3.07991,6.68956 l -1.40736,3.0427 2.70509,0.14665 c 4.91229,0.2663 8.65822,0.26176 8.65822,-0.0105 z m 7.12069,-11.68823 c 0.72408,-0.27396 0.7953,-0.19059 -1.73486,-2.03072 -3.42531,-2.49114 -7.97913,-7.74711 -9.99179,-11.53242 l -0.65816,-1.23782 -0.43963,0.85015 c -1.55467,3.00641 -0.16961,8.13656 3.04378,11.27391 2.83562,2.76852 6.725,3.83302 9.78066,2.6769 z m 2.50296,-1.49036 c 0.25773,-0.41702 -2.53468,-5.60057 -3.02127,-5.60837 -0.0795,-0.001 -0.39666,0.77331 -0.70488,1.7213 -0.64284,1.97724 -0.63246,2.0005 1.49649,3.35103 1.16987,0.74213 1.98167,0.9373 2.22966,0.53604 z m -4.46279,-5.29395 0.48765,-1.66765 -0.68317,-0.68317 -0.68317,-0.68317 -1.3472,1.16019 c -0.74097,0.63811 -1.34727,1.2665 -1.34734,1.39643 -7e-5,0.12993 0.60513,0.84149 1.34489,1.58126 1.51601,1.516 1.45312,1.54715 2.22834,-1.10389 z m -1.82175,-3.80779 c 0.0911,-0.14748 -0.11686,-0.54869 -0.46222,-0.89158 -0.62629,-0.62182 -0.63242,-0.62235 -2.34772,-0.20034 -0.94589,0.2327 -1.81275,0.50549 -1.92637,0.60618 -0.11361,0.10069 0.28471,0.8001 0.88517,1.55424 l 1.09175,1.37118 1.29683,-1.08578 c 0.71327,-0.59717 1.37141,-1.20643 1.46256,-1.3539 z m -3.9888,-1.96507 c 0.93941,-0.23597 1.70588,-0.50386 1.70325,-0.59531 -0.0136,-0.47431 -4.28063,-3.473561 -4.94182,-3.473561 -0.60583,0 -0.37475,1.334081 0.50975,2.942991 0.47015,0.85521 0.89217,1.55493 0.93781,1.55493 0.0456,0 0.8516,-0.19307 1.79101,-0.42905 z m 9.32911,-1.1908 c 0.0848,-0.73083 -0.43011,-1.12903 -1.11834,-0.86494 -0.98963,0.37976 -0.57187,1.78874 0.48556,1.63766 0.37308,-0.0533 0.57843,-0.30407 0.63278,-0.77272 z"
         id="path3887" />
      <path
         style="fill:#8f918e;stroke-width:0.264583"
         d="m 123.91733,128.70578 c -0.0813,-0.0813 -3.16818,-0.13809 -6.85974,-0.1262 -3.69156,0.0119 -7.10915,-0.0578 -7.59464,-0.15493 -0.80112,-0.16023 -0.86888,-0.24569 -0.73309,-0.92466 0.0823,-0.41146 0.59185,-1.71555 1.13235,-2.89797 0.66224,-1.44874 0.90217,-2.25964 0.73571,-2.4865 -0.13585,-0.18516 -0.93493,-1.15326 -1.77571,-2.15135 -1.93326,-2.29493 -3.97172,-6.38714 -4.7318,-9.49912 -0.8238,-3.37287 -0.8188,-8.08845 0.0121,-11.37708 1.91854,-7.593675 7.28649,-13.802259 14.42071,-16.679009 5.60694,-2.260901 12.19635,-2.306823 17.83202,-0.124272 5.937,2.299247 11.14773,7.367337 13.57884,13.207122 1.3773,3.308412 1.90602,6.465399 1.73223,10.343039 -0.28102,6.27023 -2.35884,11.15308 -6.62689,15.57314 -3.68973,3.82114 -7.54807,5.97012 -12.67921,7.06191 -1.73094,0.36831 -8.13159,0.54713 -8.44285,0.23588 z m -2.41053,-1.37354 c -0.0939,-0.1551 -3.16743,-8.17746 -4.93037,-12.86899 -0.15796,-0.42036 -0.34908,-0.70241 -0.42471,-0.62679 -0.0756,0.0756 -1.49946,3.09848 -3.16408,6.71743 l -3.02657,6.57991 2.44388,0.14779 c 3.91679,0.23687 9.23249,0.26645 9.10185,0.0507 z m 6.90154,-11.74243 0.85951,-0.27075 -1.65326,-1.08292 c -3.21018,-2.10274 -9.04658,-8.62779 -10.85298,-12.13355 l -0.68784,-1.33492 -0.44301,0.8567 c -1.55277,3.00271 -0.19631,8.12035 2.97234,11.21401 2.937,2.86751 6.37457,3.83211 9.80524,2.75143 z m 2.54643,-1.49845 c 0.2598,-0.42036 -2.53613,-5.6008 -3.02689,-5.60837 -0.0826,-0.001 -0.36578,0.6823 -0.62935,1.51904 -0.26358,0.83675 -0.53058,1.65557 -0.59333,1.81961 -0.0628,0.16404 0.62097,0.78912 1.51939,1.38907 1.56581,1.0456 2.45164,1.33134 2.73018,0.88065 z m -4.46279,-5.29395 0.48765,-1.66765 -0.68317,-0.68317 -0.68317,-0.68317 -1.3472,1.16019 c -0.74097,0.63811 -1.34727,1.29273 -1.34734,1.45472 -7e-5,0.16199 0.60986,0.86509 1.35541,1.56247 1.52467,1.42615 1.4561,1.4615 2.21782,-1.14339 z m -2.1342,-3.47262 c 0.50961,-0.56448 0.50871,-0.57273 -0.1323,-1.20928 l -0.6454,-0.64092 -1.71979,0.42311 c -0.94589,0.2327 -1.81275,0.50549 -1.92637,0.60618 -0.11361,0.10069 0.28444,0.79975 0.88456,1.55347 l 1.09113,1.3704 0.96752,-0.7673 c 0.53214,-0.42202 1.19843,-1.02306 1.48065,-1.33566 z m -3.35632,-2.35273 1.65472,-0.46295 -1.1553,-0.96571 c -1.45592,-1.217 -3.60546,-2.587721 -4.05802,-2.587721 -0.60583,0 -0.37475,1.334081 0.50975,2.942991 0.47015,0.85521 0.97617,1.55074 1.12448,1.54563 0.14831,-0.005 1.01428,-0.21762 1.92437,-0.47224 z m 9.00908,-1.13831 c 0.0848,-0.73083 -0.43011,-1.12903 -1.11834,-0.86494 -0.98963,0.37976 -0.57187,1.78874 0.48556,1.63766 0.37308,-0.0533 0.57843,-0.30407 0.63278,-0.77272 z"
         id="path3885" />
      <path
         style="fill:#818f7c;stroke-width:0.264583"
         d="m 124.18146,128.70532 c -0.0816,-0.0815 -2.9453,-0.13844 -6.36387,-0.12643 -7.2758,0.0256 -9.18835,-0.13145 -9.18237,-0.75391 0.002,-0.23463 0.4785,-1.49238 1.05833,-2.795 0.57983,-1.30262 1.05424,-2.50456 1.05424,-2.67097 0,-0.16641 -0.25263,-0.52938 -0.56141,-0.80659 -1.0235,-0.9189 -2.86453,-3.48054 -3.91357,-5.44539 -6.34536,-11.88491 -1.5888,-26.857744 10.4281,-32.825884 3.62922,-1.802435 6.90948,-2.581718 10.86728,-2.581718 4.88092,0 9.21167,1.290131 13.24065,3.944393 7.24102,4.770324 11.34769,12.885205 10.85796,21.455609 -0.26626,4.65963 -1.40337,8.06237 -4.0276,12.05238 -3.43737,5.22633 -9.04255,9.00549 -15.25057,10.28234 -1.93732,0.39846 -7.88342,0.59492 -8.20717,0.27117 z m -2.98648,-2.16683 c -0.21804,-0.5457 -1.37793,-3.57362 -2.57754,-6.72871 -1.19961,-3.15509 -2.29986,-5.71494 -2.44499,-5.68854 -0.1949,0.0354 -6.21841,12.68726 -6.21841,13.06119 0,0.0868 3.92111,0.22842 8.13379,0.29384 l 3.50359,0.0544 z m 7.24619,-10.94196 0.85918,-0.29951 -1.66951,-1.06949 c -3.13429,-2.00783 -9.06539,-8.62414 -10.86923,-12.12494 l -0.68784,-1.33492 -0.44301,0.8567 c -1.0093,1.95176 -0.75779,5.31105 0.60852,8.12791 0.82019,1.69096 3.3179,4.30838 4.86401,5.09715 2.43776,1.24365 5.12781,1.51754 7.33788,0.7471 z m 2.5136,-1.50517 c 0.2598,-0.42036 -2.53613,-5.6008 -3.02689,-5.60837 -0.0826,-0.001 -0.36578,0.6823 -0.62935,1.51904 -0.26358,0.83675 -0.53058,1.65557 -0.59333,1.81961 -0.0628,0.16404 0.62097,0.78912 1.51939,1.38907 1.56581,1.0456 2.45164,1.33134 2.73018,0.88065 z m -4.28673,-5.70318 c 0.27001,-1.00954 0.24602,-1.23054 -0.19995,-1.84194 -0.27872,-0.38212 -0.60373,-0.69851 -0.72224,-0.70308 -0.3459,-0.0134 -2.82696,2.21151 -2.8271,2.53517 -7e-5,0.16199 0.61779,0.87251 1.37303,1.57895 l 1.37317,1.28444 0.34813,-0.85318 c 0.19147,-0.46925 0.4862,-1.36941 0.65496,-2.00036 z m -2.31026,-3.06339 c 0.50961,-0.56448 0.50871,-0.57273 -0.1323,-1.20928 l -0.6454,-0.64092 -1.71979,0.42311 c -0.94589,0.2327 -1.81275,0.50549 -1.92637,0.60618 -0.11361,0.10069 0.28444,0.79975 0.88456,1.55347 l 1.09113,1.3704 0.96752,-0.7673 c 0.53214,-0.42202 1.19843,-1.02306 1.48065,-1.33566 z m -3.33121,-2.34807 1.67983,-0.47481 -1.15264,-0.9445 c -1.49308,-1.22347 -3.67083,-2.601731 -4.1109,-2.601731 -0.19557,0 -0.34507,0.299191 -0.34507,0.690568 0,0.821273 1.53401,3.807793 1.95509,3.806313 0.16163,-5.5e-4 1.04979,-0.2147 1.97369,-0.47584 z m 9.02597,-0.82767 c 0.20635,-0.38556 0.17156,-0.61259 -0.14188,-0.92604 -0.52165,-0.52164 -0.76253,-0.52154 -1.2846,5.3e-4 -0.47431,0.47431 -0.47013,0.45763 -0.25517,1.0178 0.22474,0.58567 1.35192,0.52382 1.68165,-0.0923 z"
         id="path3883" />
      <path
         style="fill:#69b748;stroke-width:0.264583"
         d="m 124.20303,128.73277 c -0.0939,-0.0972 -2.86778,-0.16654 -6.16408,-0.15413 -7.23734,0.0272 -9.40837,-0.14674 -9.40655,-0.75377 7.2e-4,-0.23456 0.51529,-1.56626 1.14353,-2.95932 l 1.14225,-2.53284 -1.18686,-1.30362 c -2.74583,-3.01594 -4.88506,-7.20686 -5.79528,-11.35342 -0.24591,-1.12024 -0.40363,-3.11555 -0.39773,-5.03145 0.0111,-3.5926 0.76343,-7.104909 2.1622,-10.094018 2.88968,-6.175098 8.4121,-10.868897 15.24679,-12.959052 2.13064,-0.651581 2.77958,-0.725825 6.46924,-0.740124 3.21365,-0.01245 4.49696,0.09108 5.93078,0.478488 8.68024,2.345342 14.89419,8.37028 17.51844,16.985587 0.64277,2.110179 0.71989,2.781039 0.72754,6.329119 0.0101,4.66854 -0.34757,6.39059 -2.10743,10.14717 -3.12608,6.67287 -8.44961,11.23742 -15.50069,13.29071 -1.42671,0.41547 -2.95121,0.59918 -5.77489,0.69591 -2.11005,0.0723 -3.91332,0.0519 -4.00726,-0.0452 z m -3.1053,-2.45886 c -0.26964,-0.69123 -1.48249,-3.86289 -2.69523,-7.04814 l -2.20499,-5.79138 -0.44614,1.02888 c -0.24538,0.56588 -1.65016,3.64014 -3.12174,6.83169 -1.47158,3.19155 -2.67559,5.83587 -2.67559,5.87627 0,0.10154 3.6569,0.24124 7.99978,0.30559 l 3.63416,0.0539 z m 7.34344,-10.67738 0.85918,-0.29951 -1.66951,-1.06949 c -3.18115,-2.03785 -9.10165,-8.65799 -10.75157,-12.02213 -0.37701,-0.7687 -0.77512,-1.39764 -0.88468,-1.39764 -0.33419,0 -1.01387,2.66652 -1.007,3.95063 0.0157,2.93751 1.27429,5.7959 3.53584,8.03039 0.85686,0.84661 2.04748,1.7924 2.64583,2.10175 2.33225,1.2058 5.07447,1.47203 7.27191,0.706 z m 2.48154,-1.4498 c 0.27203,-0.27203 -0.38144,-1.77361 -1.6308,-3.74731 -0.66765,-1.05474 -1.28147,-1.91794 -1.36403,-1.91823 -0.0826,-2.6e-4 -0.36578,0.6841 -0.62935,1.52084 -0.26358,0.83675 -0.53058,1.65557 -0.59333,1.81961 -0.0628,0.16404 0.62097,0.78912 1.51939,1.38907 1.53066,1.02213 2.33349,1.30065 2.69812,0.93602 z m -4.25467,-5.75855 c 0.27001,-1.00954 0.24602,-1.23054 -0.19995,-1.84194 -0.27872,-0.38212 -0.60373,-0.69851 -0.72224,-0.70308 -0.3459,-0.0134 -2.82696,2.21151 -2.8271,2.53517 -7e-5,0.16199 0.61779,0.87251 1.37303,1.57895 l 1.37317,1.28444 0.34813,-0.85318 c 0.19147,-0.46925 0.4862,-1.36941 0.65496,-2.00036 z m -2.31026,-3.06339 c 0.50961,-0.56448 0.50871,-0.57273 -0.1323,-1.20928 l -0.6454,-0.64092 -1.71979,0.42311 c -0.94589,0.2327 -1.81275,0.50549 -1.92637,0.60618 -0.11361,0.10069 0.28444,0.79975 0.88456,1.55347 l 1.09113,1.3704 0.96752,-0.7673 c 0.53214,-0.42202 1.19843,-1.02306 1.48065,-1.33566 z m -2.76237,-2.4757 1.15239,-0.33365 -1.70053,-1.34688 c -1.69028,-1.338763 -3.14068,-2.212881 -3.67176,-2.212881 -0.53567,0 -0.26975,1.396091 0.56381,2.960011 0.93407,1.7525 0.87716,1.73797 3.65609,0.9334 z m 8.45713,-0.70004 c 0.30115,-0.56271 -0.23625,-1.34129 -0.9258,-1.34129 -0.48231,0 -0.95842,0.9057 -0.7549,1.43604 0.22397,0.58368 1.35164,0.5201 1.6807,-0.0947 z"
         id="path3881" />
      <path
         style="fill:#66aa49;stroke-width:0.264583"
         d="m 124.20303,128.73277 c -0.0939,-0.0972 -2.86778,-0.16654 -6.16408,-0.15413 -7.23734,0.0272 -9.40837,-0.14674 -9.40655,-0.75377 7.2e-4,-0.23456 0.51529,-1.56626 1.14353,-2.95932 l 1.14225,-2.53284 -1.18686,-1.30362 c -2.74583,-3.01594 -4.88506,-7.20686 -5.79528,-11.35342 -0.24591,-1.12024 -0.40363,-3.11555 -0.39773,-5.03145 0.0111,-3.5926 0.76343,-7.104909 2.1622,-10.094018 2.88968,-6.175098 8.4121,-10.868897 15.24679,-12.959052 2.13064,-0.651581 2.77958,-0.725825 6.46924,-0.740124 3.21365,-0.01245 4.49696,0.09108 5.93078,0.478488 8.68024,2.345342 14.89419,8.37028 17.51844,16.985587 0.64277,2.110179 0.71989,2.781039 0.72754,6.329119 0.0101,4.66854 -0.34757,6.39059 -2.10743,10.14717 -3.12608,6.67287 -8.44961,11.23742 -15.50069,13.29071 -1.42671,0.41547 -2.95121,0.59918 -5.77489,0.69591 -2.11005,0.0723 -3.91332,0.0519 -4.00726,-0.0452 z m 8.47256,-1.60604 c 10.43763,-2.39298 17.7597,-11.55065 17.7597,-22.21195 0,-6.492149 -2.40402,-12.114075 -7.09771,-16.598407 -2.57792,-2.462922 -5.4455,-4.186838 -8.77729,-5.276679 -3.22774,-1.055804 -8.16175,-1.337987 -11.46182,-0.655518 -5.75331,1.189811 -11.17351,4.772608 -14.47115,9.565563 -4.58053,6.657576 -5.19596,15.651681 -1.57487,23.015511 0.9161,1.86297 3.63877,5.69527 4.18374,5.88884 0.10883,0.0387 0.82517,-1.33057 1.59187,-3.04271 0.76669,-1.71215 1.71361,-3.76695 2.10425,-4.56624 l 0.71027,-1.45324 -0.92604,-1.83728 c -0.88507,-1.75598 -0.92604,-1.96176 -0.92604,-4.65034 0,-2.80753 0.002,-2.81772 1.19062,-5.17615 1.03587,-2.055926 1.28819,-2.374247 1.94123,-2.449016 1.0461,-0.119772 3.14565,0.975218 5.2896,2.758716 l 1.80688,1.5031 1.44169,-0.32264 c 0.9929,-0.2222 1.56836,-0.51596 1.84861,-0.94366 0.56143,-0.856852 1.74664,-1.236457 2.75883,-0.883608 0.95116,0.331578 1.31733,0.927488 1.31733,2.143848 0,0.90202 -0.68137,1.79021 -1.62848,2.1228 -0.24542,0.0862 -0.61603,0.76155 -0.84325,1.53669 l -0.4054,1.38294 1.14237,1.61159 c 1.25187,1.76608 2.35696,3.85895 2.62418,4.96986 0.18655,0.7755 -0.27084,2.06469 -0.73346,2.06731 -0.15854,7.9e-4 -0.64544,0.1918 -1.082,0.42422 -1.57661,0.83938 -2.94314,1.18626 -4.69741,1.19236 -2.20909,0.008 -4.1016,-0.53248 -6.08437,-1.73664 -0.83674,-0.50817 -1.523,-0.83824 -1.52501,-0.73348 -0.003,0.15427 4.49173,12.18899 4.64308,12.43201 0.0242,0.0389 0.74644,0.18109 1.60492,0.31597 2.10946,0.33145 5.89828,0.15116 8.27513,-0.39377 z m 10.10938,-21.80708 c -0.25859,-0.15983 -0.25817,-0.6466 0.002,-2.34651 1.18366,-7.732557 -4.68493,-14.600795 -12.47576,-14.600795 -2.13145,0 -2.82634,-0.314342 -2.35919,-1.067207 0.18309,-0.295057 0.79741,-0.384747 2.56456,-0.374418 3.66795,0.02144 6.77273,1.26789 9.39975,3.773642 1.91778,1.829249 3.14869,3.829477 3.91306,6.358678 0.49645,1.642701 0.56682,2.359971 0.45432,4.63021 -0.0732,1.47751 -0.21658,2.88554 -0.31858,3.12895 -0.22907,0.54662 -0.7473,0.76504 -1.18028,0.49745 z m -3.58081,-0.52103 c -0.0824,-0.13336 -0.0154,-0.86956 0.14901,-1.63601 1.26358,-5.891905 -2.95403,-11.314499 -8.92376,-11.473285 -2.16127,-0.05749 -2.79736,-0.371283 -2.20339,-1.086973 0.518,-0.624151 4.08376,-0.391268 6.14498,0.401335 3.1686,1.218423 5.89303,4.674375 6.55971,8.321025 0.30159,1.649608 -0.0393,4.704648 -0.60039,5.380718 -0.32544,0.39214 -0.91143,0.44063 -1.12616,0.0932 z m -2.52721,-3.3379 c 0,-2.296941 -0.43352,-3.556475 -1.66705,-4.843331 -1.19837,-1.250177 -2.67133,-1.931359 -4.5315,-2.095622 -1.62874,-0.143828 -2.06445,-0.391144 -1.81845,-1.032199 0.19129,-0.498494 2.84865,-0.460893 4.38332,0.06202 1.6047,0.546776 3.49513,2.237844 4.31886,3.863398 1.20781,2.383504 1.11735,6.038614 -0.14946,6.038614 -0.49048,0 -0.53572,-0.16827 -0.53572,-1.99288 z m -1.9627,0.88795 c -0.06,-0.19266 -0.17934,-0.9456 -0.2653,-1.6732 -0.086,-0.727604 -0.37491,-1.620573 -0.64212,-1.984375 -0.71096,-0.967987 -2.12784,-1.852083 -2.9682,-1.852083 -1.07538,0 -1.57001,-0.257402 -1.57001,-0.817017 0,-1.239284 2.9703,-0.78795 4.73061,0.718812 1.28595,1.100724 1.94624,2.712162 1.8344,4.476863 -0.063,0.99351 -0.19346,1.32615 -0.54654,1.3932 -0.2551,0.0484 -0.51288,-0.0695 -0.57284,-0.2622 z m -2.08171,-1.30155 c -0.18384,-1.370678 -0.89476,-2.117731 -2.21897,-2.331764 -0.77911,-0.125928 -1.03187,-0.297995 -1.09598,-0.746075 -0.21156,-1.47871 3.14357,-0.648963 4.18323,1.034544 0.73565,1.191225 0.64325,2.959555 -0.16064,3.074305 -0.47396,0.0677 -0.58124,-0.0887 -0.70764,-1.03101 z m -11.53481,25.22679 c -0.26964,-0.69123 -1.48249,-3.86289 -2.69523,-7.04814 l -2.20499,-5.79138 -0.44614,1.02888 c -0.24538,0.56588 -1.65016,3.64014 -3.12174,6.83169 -1.47158,3.19155 -2.67559,5.83587 -2.67559,5.87627 0,0.10154 3.6569,0.24124 7.99978,0.30559 l 3.63416,0.0539 z m 7.34344,-10.67738 0.85918,-0.29951 -1.66951,-1.06949 c -3.18115,-2.03785 -9.10165,-8.65799 -10.75157,-12.02213 -0.37701,-0.7687 -0.77512,-1.39764 -0.88468,-1.39764 -0.33419,0 -1.01387,2.66652 -1.007,3.95063 0.0157,2.93751 1.27429,5.7959 3.53584,8.03039 0.85686,0.84661 2.04748,1.7924 2.64583,2.10175 2.33225,1.2058 5.07447,1.47203 7.27191,0.706 z m 2.48154,-1.4498 c 0.27203,-0.27203 -0.38144,-1.77361 -1.6308,-3.74731 -0.66765,-1.05474 -1.28147,-1.91794 -1.36403,-1.91823 -0.0826,-2.6e-4 -0.36578,0.6841 -0.62935,1.52084 -0.26358,0.83675 -0.53058,1.65557 -0.59333,1.81961 -0.0628,0.16404 0.62097,0.78912 1.51939,1.38907 1.53066,1.02213 2.33349,1.30065 2.69812,0.93602 z m -4.25467,-5.75855 c 0.27001,-1.00954 0.24602,-1.23054 -0.19995,-1.84194 -0.27872,-0.38212 -0.60373,-0.69851 -0.72224,-0.70308 -0.3459,-0.0134 -2.82696,2.21151 -2.8271,2.53517 -7e-5,0.16199 0.61779,0.87251 1.37303,1.57895 l 1.37317,1.28444 0.34813,-0.85318 c 0.19147,-0.46925 0.4862,-1.36941 0.65496,-2.00036 z m -2.31026,-3.06339 c 0.50961,-0.56448 0.50871,-0.57273 -0.1323,-1.20928 l -0.6454,-0.64092 -1.71979,0.42311 c -0.94589,0.2327 -1.81275,0.50549 -1.92637,0.60618 -0.11361,0.10069 0.28444,0.79975 0.88456,1.55347 l 1.09113,1.3704 0.96752,-0.7673 c 0.53214,-0.42202 1.19843,-1.02306 1.48065,-1.33566 z m 3.31929,-0.80341 c 0.003,-0.32304 -0.0671,-0.31626 -0.42413,0.0408 -0.2359,0.23591 -0.33986,0.57109 -0.23151,0.74641 0.22895,0.37045 0.6488,-0.13362 0.65564,-0.78716 z m -1.31887,-1.20008 c 0.34893,-0.42043 0.0902,-0.51642 -0.6383,-0.23686 -0.22934,0.088 -0.35112,0.26661 -0.2706,0.39688 0.21427,0.34671 0.53526,0.2902 0.9089,-0.16002 z m -4.76279,-0.47221 1.15239,-0.33365 -1.70053,-1.34688 c -1.69028,-1.338763 -3.14068,-2.212881 -3.67176,-2.212881 -0.53567,0 -0.26975,1.396091 0.56381,2.960011 0.93407,1.7525 0.87716,1.73797 3.65609,0.9334 z m 8.45713,-0.70004 c 0.30115,-0.56271 -0.23625,-1.34129 -0.9258,-1.34129 -0.48231,0 -0.95842,0.9057 -0.7549,1.43604 0.22397,0.58368 1.35164,0.5201 1.6807,-0.0947 z"
         id="path3879" />
      <path
         style="fill:#70716f;stroke-width:0.264583"
         d="m 124.20303,128.73277 c -0.0939,-0.0972 -2.86778,-0.16654 -6.16408,-0.15413 -7.23734,0.0272 -9.40837,-0.14674 -9.40655,-0.75377 7.2e-4,-0.23456 0.51529,-1.56626 1.14353,-2.95932 l 1.14225,-2.53284 -1.18686,-1.30362 c -2.74583,-3.01594 -4.88506,-7.20686 -5.79528,-11.35342 -0.24591,-1.12024 -0.40363,-3.11555 -0.39773,-5.03145 0.0111,-3.5926 0.76343,-7.104909 2.1622,-10.094018 2.88968,-6.175098 8.4121,-10.868897 15.24679,-12.959052 2.13064,-0.651581 2.77958,-0.725825 6.46924,-0.740124 3.21365,-0.01245 4.49696,0.09108 5.93078,0.478488 8.68024,2.345342 14.89419,8.37028 17.51844,16.985587 0.64277,2.110179 0.71989,2.781039 0.72754,6.329119 0.0101,4.66854 -0.34757,6.39059 -2.10743,10.14717 -3.12608,6.67287 -8.44961,11.23742 -15.50069,13.29071 -1.42671,0.41547 -2.95121,0.59918 -5.77489,0.69591 -2.11005,0.0723 -3.91332,0.0519 -4.00726,-0.0452 z m 7.30188,-1.33957 c 8.70196,-1.5175 15.70676,-7.85061 18.20101,-16.45574 0.51277,-1.76906 0.59512,-2.65763 0.58325,-6.29324 -0.0128,-3.91267 -0.0702,-4.40368 -0.75869,-6.482291 -2.18698,-6.603089 -6.38166,-11.373618 -12.47696,-14.18982 -3.32379,-1.535688 -5.99776,-2.02598 -10.29844,-1.8883 -3.28972,0.105315 -3.9854,0.213572 -6.21771,0.967558 -3.84817,1.299761 -6.09192,2.693792 -8.99019,5.585561 -2.65865,2.652694 -3.72103,4.212528 -5.1685,7.588637 -3.34615,7.804605 -1.69687,17.333395 4.1491,23.971675 l 0.88147,1.00093 1.04388,-2.32385 c 0.57414,-1.27812 1.5507,-3.39998 2.17013,-4.71526 l 1.12625,-2.3914 -0.76235,-1.51137 c -1.69332,-3.35703 -1.69172,-6.45946 0.005,-9.96836 1.27626,-2.639145 1.77554,-2.942915 3.54821,-2.158777 1.32216,0.584851 2.84205,1.6673 4.40753,3.138987 l 0.95546,0.89822 1.48674,-0.38824 c 1.04927,-0.27401 1.68981,-0.62959 2.17691,-1.20847 0.52668,-0.62593 0.9068,-0.820221 1.60472,-0.820221 1.94434,0 2.91761,2.230271 1.56397,3.583901 -0.35718,0.35719 -0.82224,0.64943 -1.03346,0.64943 -0.3594,0 -1.22752,2.00609 -1.22752,2.83661 0,0.1986 0.46938,0.98279 1.04307,1.74264 2.20311,2.918 3.24087,6.2381 2.13193,6.82067 -2.85639,1.50057 -3.56732,1.69699 -6.08542,1.68129 -2.68186,-0.0167 -4.20116,-0.49966 -6.51223,-2.07007 -0.54907,-0.3731 -1.04014,-0.63654 -1.09127,-0.58541 -0.0951,0.0951 4.59805,12.58618 4.80751,12.79564 0.20525,0.20525 2.87944,0.5242 4.67957,0.55812 0.9632,0.0182 2.7888,-0.14792 4.05688,-0.36905 z m 11.13642,-22.3339 c -0.0937,-0.15162 -0.0459,-0.72376 0.10615,-1.27142 0.15209,-0.54766 0.27719,-1.83734 0.278,-2.86595 0.002,-3.159274 -1.13895,-6.114873 -3.28214,-8.498615 -2.4412,-2.715201 -5.45053,-4.068998 -9.28409,-4.176602 -2.13339,-0.05988 -2.38125,-0.118788 -2.38125,-0.565916 0,-0.443431 0.24863,-0.50773 2.22992,-0.576684 7.38823,-0.257131 13.51256,5.528352 13.9461,13.174487 0.1467,2.58731 -0.30799,4.83934 -1.00396,4.9725 -0.24109,0.0461 -0.51502,-0.0402 -0.60873,-0.1918 z m -3.37106,-0.30805 c -0.0584,-0.17508 0.045,-1.04469 0.22974,-1.93247 0.6434,-3.092192 -0.43634,-6.519299 -2.71598,-8.620601 -1.78858,-1.648656 -3.7349,-2.442512 -6.44337,-2.628092 -1.76596,-0.121 -2.26266,-0.242156 -2.26266,-0.551909 0,-0.645656 1.77811,-0.936561 3.70604,-0.60632 3.71283,0.635981 6.38803,2.582192 7.98165,5.806655 0.85734,1.734721 0.9971,2.285488 1.08662,4.282197 0.11293,2.51883 -0.31029,4.34441 -1.03971,4.48487 -0.23992,0.0462 -0.48397,-0.0593 -0.54233,-0.23433 z m -2.41981,-1.47692 c -0.0986,-0.0986 -0.10526,-0.73717 -0.0148,-1.41905 0.2157,-1.62604 -0.42134,-3.790483 -1.49812,-5.090093 -1.12136,-1.353417 -2.67578,-2.102337 -4.74599,-2.286624 -1.49237,-0.132848 -1.71979,-0.223068 -1.71979,-0.682259 0,-1.279812 4.14094,-0.587231 6.28718,1.051543 2.21267,1.689498 3.52396,5.535233 2.73133,8.010433 -0.18574,0.58003 -0.6786,0.77724 -1.0398,0.41605 z m -1.9329,-0.82806 c -0.15753,-0.10081 -0.34037,-0.84905 -0.40629,-1.66275 -0.0792,-0.978131 -0.32893,-1.773071 -0.73685,-2.345938 -0.67341,-0.945716 -2.37301,-1.848161 -3.498,-1.857343 -0.88649,-0.0072 -1.23369,-0.509196 -0.64828,-0.937258 0.62911,-0.460012 2.68642,-0.02371 3.92035,0.831409 1.23679,0.857089 2.33471,2.966323 2.33471,4.48522 0,1.12665 -0.44871,1.81747 -0.96564,1.48666 z m -2.03297,-0.49198 c -0.097,-0.097 -0.17639,-0.46011 -0.17639,-0.80689 0,-1.505159 -1.32672,-2.720888 -2.9693,-2.720888 -0.34394,0 -0.47886,-0.1502 -0.41592,-0.463021 0.0735,-0.365457 0.35636,-0.459518 1.34229,-0.446395 0.99991,0.01331 1.4063,0.16719 2.0368,0.771246 0.91763,0.879151 1.44836,2.272598 1.21688,3.194928 -0.15518,0.61827 -0.65809,0.84728 -1.03436,0.47102 z m -11.78686,24.31962 c -0.26964,-0.69123 -1.48249,-3.86289 -2.69523,-7.04814 l -2.20499,-5.79138 -0.44614,1.02888 c -0.24538,0.56588 -1.65016,3.64014 -3.12174,6.83169 -1.47158,3.19155 -2.67559,5.83587 -2.67559,5.87627 0,0.10154 3.6569,0.24124 7.99978,0.30559 l 3.63416,0.0539 z m 7.34344,-10.67738 0.85918,-0.29951 -1.66951,-1.06949 c -3.18115,-2.03785 -9.10165,-8.65799 -10.75157,-12.02213 -0.37701,-0.7687 -0.77512,-1.39764 -0.88468,-1.39764 -0.33419,0 -1.01387,2.66652 -1.007,3.95063 0.0157,2.93751 1.27429,5.7959 3.53584,8.03039 0.85686,0.84661 2.04748,1.7924 2.64583,2.10175 2.33225,1.2058 5.07447,1.47203 7.27191,0.706 z m 2.48154,-1.4498 c 0.27203,-0.27203 -0.38144,-1.77361 -1.6308,-3.74731 -0.66765,-1.05474 -1.28147,-1.91794 -1.36403,-1.91823 -0.0826,-2.6e-4 -0.36578,0.6841 -0.62935,1.52084 -0.26358,0.83675 -0.53058,1.65557 -0.59333,1.81961 -0.0628,0.16404 0.62097,0.78912 1.51939,1.38907 1.53066,1.02213 2.33349,1.30065 2.69812,0.93602 z m -4.25467,-5.75855 c 0.27001,-1.00954 0.24602,-1.23054 -0.19995,-1.84194 -0.27872,-0.38212 -0.60373,-0.69851 -0.72224,-0.70308 -0.3459,-0.0134 -2.82696,2.21151 -2.8271,2.53517 -7e-5,0.16199 0.61779,0.87251 1.37303,1.57895 l 1.37317,1.28444 0.34813,-0.85318 c 0.19147,-0.46925 0.4862,-1.36941 0.65496,-2.00036 z m -2.31026,-3.06339 c 0.50961,-0.56448 0.50871,-0.57273 -0.1323,-1.20928 l -0.6454,-0.64092 -1.71979,0.42311 c -0.94589,0.2327 -1.81275,0.50549 -1.92637,0.60618 -0.11361,0.10069 0.28444,0.79975 0.88456,1.55347 l 1.09113,1.3704 0.96752,-0.7673 c 0.53214,-0.42202 1.19843,-1.02306 1.48065,-1.33566 z m 3.45085,-0.76917 c 0.18484,-0.61066 0.17905,-0.61256 -0.50406,-0.16497 -0.5531,0.3624 -0.62897,0.52756 -0.38012,0.82741 0.35352,0.42597 0.61375,0.231 0.88418,-0.66244 z m -1.18584,-1.23432 c 0.68325,-0.72728 0.50899,-0.81137 -0.76274,-0.36804 -0.67705,0.23602 -0.78195,0.36541 -0.53625,0.66146 0.41962,0.50561 0.58302,0.4687 1.29899,-0.29342 z m -5.02738,-0.47221 1.15239,-0.33365 -1.70053,-1.34688 c -1.69028,-1.338763 -3.14068,-2.212881 -3.67176,-2.212881 -0.53567,0 -0.26975,1.396091 0.56381,2.960011 0.93407,1.7525 0.87716,1.73797 3.65609,0.9334 z m 8.45713,-0.70004 c 0.30115,-0.56271 -0.23625,-1.34129 -0.9258,-1.34129 -0.48231,0 -0.95842,0.9057 -0.7549,1.43604 0.22397,0.58368 1.35164,0.5201 1.6807,-0.0947 z"
         id="path3877" />
      <path
         style="fill:#64944f;stroke-width:0.264583"
         d="m 124.449,128.71478 c -0.10418,-0.10776 -2.48543,-0.17462 -5.29167,-0.14859 -2.80624,0.026 -6.32845,-0.0344 -7.82713,-0.13419 l -2.72488,-0.18151 0.17436,-0.79388 c 0.0959,-0.43663 0.6197,-1.76239 1.16401,-2.94613 l 0.98964,-2.15227 -1.30221,-1.44866 c -4.00776,-4.4585 -6.08947,-10.03872 -6.06781,-16.26533 0.063,-18.097413 19.07531,-29.496068 35.25752,-21.138282 5.83388,3.013081 10.4378,8.797944 12.19048,15.317449 0.8048,2.993653 0.80413,8.874033 -0.001,11.849043 -0.64161,2.36974 -2.25057,5.93581 -3.49277,7.74129 -3.1853,4.62967 -8.1609,8.11077 -13.88295,9.71299 -1.91564,0.53639 -8.80855,0.9777 -9.18525,0.58807 z m 7.05591,-1.32158 c 8.70196,-1.5175 15.70676,-7.85061 18.20101,-16.45574 0.51277,-1.76906 0.59512,-2.65763 0.58325,-6.29324 -0.0128,-3.91267 -0.0702,-4.40368 -0.75869,-6.482291 -2.18698,-6.603089 -6.38166,-11.373618 -12.47696,-14.18982 -3.32379,-1.535688 -5.99776,-2.02598 -10.29844,-1.8883 -3.28972,0.105315 -3.9854,0.213572 -6.21771,0.967558 -3.84817,1.299761 -6.09192,2.693792 -8.99019,5.585561 -2.65865,2.652694 -3.72103,4.212528 -5.1685,7.588637 -3.34615,7.804605 -1.69687,17.333395 4.1491,23.971675 l 0.88147,1.00093 1.04388,-2.32385 c 0.57414,-1.27812 1.5507,-3.39998 2.17013,-4.71526 l 1.12625,-2.3914 -0.76235,-1.51137 c -1.69332,-3.35703 -1.69172,-6.45946 0.005,-9.96836 1.27626,-2.639145 1.77554,-2.942915 3.54821,-2.158777 1.32216,0.584851 2.84205,1.6673 4.40753,3.138987 l 0.95546,0.89822 1.48674,-0.38824 c 1.04927,-0.27401 1.68981,-0.62959 2.17691,-1.20847 0.52668,-0.62593 0.9068,-0.820221 1.60472,-0.820221 1.94434,0 2.91761,2.230271 1.56397,3.583901 -0.35718,0.35719 -0.82224,0.64943 -1.03346,0.64943 -0.3594,0 -1.22752,2.00609 -1.22752,2.83661 0,0.1986 0.46938,0.98279 1.04307,1.74264 2.20311,2.918 3.24087,6.2381 2.13193,6.82067 -2.85639,1.50057 -3.56732,1.69699 -6.08542,1.68129 -2.68186,-0.0167 -4.20116,-0.49966 -6.51223,-2.07007 -0.54907,-0.3731 -1.04014,-0.63654 -1.09127,-0.58541 -0.0951,0.0951 4.59805,12.58618 4.80751,12.79564 0.20525,0.20525 2.87944,0.5242 4.67957,0.55812 0.9632,0.0182 2.7888,-0.14792 4.05688,-0.36905 z m 11.13642,-22.3339 c -0.0937,-0.15162 -0.0459,-0.72376 0.10615,-1.27142 0.15209,-0.54766 0.27719,-1.83734 0.278,-2.86595 0.002,-3.159274 -1.13895,-6.114873 -3.28214,-8.498615 -2.4412,-2.715201 -5.45053,-4.068998 -9.28409,-4.176602 -2.13339,-0.05988 -2.38125,-0.118788 -2.38125,-0.565916 0,-0.443431 0.24863,-0.50773 2.22992,-0.576684 7.38823,-0.257131 13.51256,5.528352 13.9461,13.174487 0.1467,2.58731 -0.30799,4.83934 -1.00396,4.9725 -0.24109,0.0461 -0.51502,-0.0402 -0.60873,-0.1918 z m -3.37106,-0.30805 c -0.0584,-0.17508 0.045,-1.04469 0.22974,-1.93247 0.6434,-3.092192 -0.43634,-6.519299 -2.71598,-8.620601 -1.78858,-1.648656 -3.7349,-2.442512 -6.44337,-2.628092 -1.76596,-0.121 -2.26266,-0.242156 -2.26266,-0.551909 0,-0.645656 1.77811,-0.936561 3.70604,-0.60632 3.71283,0.635981 6.38803,2.582192 7.98165,5.806655 0.85734,1.734721 0.9971,2.285488 1.08662,4.282197 0.11293,2.51883 -0.31029,4.34441 -1.03971,4.48487 -0.23992,0.0462 -0.48397,-0.0593 -0.54233,-0.23433 z m -2.41981,-1.47692 c -0.0986,-0.0986 -0.10526,-0.73717 -0.0148,-1.41905 0.2157,-1.62604 -0.42134,-3.790483 -1.49812,-5.090093 -1.12136,-1.353417 -2.67578,-2.102337 -4.74599,-2.286624 -1.49237,-0.132848 -1.71979,-0.223068 -1.71979,-0.682259 0,-1.279812 4.14094,-0.587231 6.28718,1.051543 2.21267,1.689498 3.52396,5.535233 2.73133,8.010433 -0.18574,0.58003 -0.6786,0.77724 -1.0398,0.41605 z m -1.9329,-0.82806 c -0.15753,-0.10081 -0.34037,-0.84905 -0.40629,-1.66275 -0.0792,-0.978131 -0.32893,-1.773071 -0.73685,-2.345938 -0.67341,-0.945716 -2.37301,-1.848161 -3.498,-1.857343 -0.88649,-0.0072 -1.23369,-0.509196 -0.64828,-0.937258 0.62911,-0.460012 2.68642,-0.02371 3.92035,0.831409 1.23679,0.857089 2.33471,2.966323 2.33471,4.48522 0,1.12665 -0.44871,1.81747 -0.96564,1.48666 z m -2.03297,-0.49198 c -0.097,-0.097 -0.17639,-0.46011 -0.17639,-0.80689 0,-1.505159 -1.32672,-2.720888 -2.9693,-2.720888 -0.34394,0 -0.47886,-0.1502 -0.41592,-0.463021 0.0735,-0.365457 0.35636,-0.459518 1.34229,-0.446395 0.99991,0.01331 1.4063,0.16719 2.0368,0.771246 0.91763,0.879151 1.44836,2.272598 1.21688,3.194928 -0.15518,0.61827 -0.65809,0.84728 -1.03436,0.47102 z m -11.78686,24.31962 c -0.26964,-0.69123 -1.47679,-3.84796 -2.68257,-7.01496 -1.20577,-3.167 -2.21888,-5.72685 -2.25135,-5.68854 -0.0575,0.0679 -5.86009,12.71937 -6.12425,13.35289 -0.15033,0.36052 1.35887,0.46998 7.64968,0.55481 l 3.89874,0.0526 z m 7.36283,-10.68414 0.87856,-0.30626 -0.90701,-0.55715 c -3.85366,-2.36715 -9.65675,-8.6549 -11.54942,-12.51398 -0.37889,-0.77254 -0.77196,-1.40462 -0.87348,-1.40462 -0.36014,0 -1.02799,2.49554 -1.02162,3.81745 0.0148,3.07369 1.23454,5.88981 3.53584,8.16357 0.85686,0.84661 2.04748,1.7924 2.64583,2.10175 2.34026,1.20994 5.0742,1.47213 7.2913,0.69924 z m 2.44354,-1.94972 c -0.16069,-1.00841 -2.55431,-5.15742 -2.97622,-5.15886 -0.0826,-2.7e-4 -0.36578,0.6841 -0.62935,1.52084 -0.26358,0.83675 -0.53445,1.66567 -0.60194,1.84205 -0.0681,0.17801 0.6202,0.80086 1.54702,1.39989 1.78239,1.15202 2.8052,1.30429 2.66049,0.39608 z m -4.57019,-4.15241 c 0.30441,-0.90138 0.5495,-1.82412 0.54466,-2.05052 -0.009,-0.43192 -0.87263,-1.60227 -1.18204,-1.60227 -0.099,0 -0.83023,0.55553 -1.62499,1.23451 l -1.44502,1.23452 1.39378,1.41132 c 0.76658,0.77622 1.47622,1.41131 1.57697,1.41131 0.10075,0 0.43224,-0.73749 0.73664,-1.63887 z m -1.97613,-4.16285 c 0.50982,-0.56471 0.50884,-0.57262 -0.15226,-1.23373 l -0.66537,-0.66537 -1.69983,0.45561 c -0.9349,0.25058 -1.79491,0.53649 -1.91113,0.63536 -0.11623,0.0989 0.27729,0.7979 0.87448,1.5534 l 1.0858,1.37364 0.9776,-0.77528 c 0.53767,-0.4264 1.20849,-1.03103 1.49071,-1.34363 z m 3.45085,-0.76917 c 0.18484,-0.61066 0.17905,-0.61256 -0.50406,-0.16497 -0.5531,0.3624 -0.62897,0.52756 -0.38012,0.82741 0.35352,0.42597 0.61375,0.231 0.88418,-0.66244 z m -1.18584,-1.23432 c 0.68325,-0.72728 0.50899,-0.81137 -0.76274,-0.36804 -0.67705,0.23602 -0.78195,0.36541 -0.53625,0.66146 0.41962,0.50561 0.58302,0.4687 1.29899,-0.29342 z m -5.02738,-0.47221 1.15239,-0.33365 -1.70053,-1.34688 c -1.69028,-1.338763 -3.14068,-2.212881 -3.67176,-2.212881 -0.53567,0 -0.26975,1.396091 0.56381,2.960011 0.93407,1.7525 0.87716,1.73797 3.65609,0.9334 z m 8.58511,-1.32131 c -0.24324,-0.63388 -1.16193,-0.84796 -1.63005,-0.37984 -0.48039,0.48038 -0.23969,1.4336 0.39985,1.58351 0.61696,0.14461 1.43896,-0.65966 1.2302,-1.20367 z"
         id="path3875" />
      <path
         style="fill:#5a8a45;stroke-width:0.264583"
         d="m 124.449,128.71478 c -0.10418,-0.10776 -2.48543,-0.17462 -5.29167,-0.14859 -2.80624,0.026 -6.32845,-0.0344 -7.82713,-0.13419 l -2.72488,-0.18151 0.17436,-0.79388 c 0.0959,-0.43663 0.6197,-1.76239 1.16401,-2.94613 l 0.98964,-2.15227 -1.30221,-1.44866 c -4.00776,-4.4585 -6.08947,-10.03872 -6.06781,-16.26533 0.063,-18.097413 19.07531,-29.496068 35.25752,-21.138282 5.83388,3.013081 10.4378,8.797944 12.19048,15.317449 0.8048,2.993653 0.80413,8.874033 -0.001,11.849043 -0.64161,2.36974 -2.25057,5.93581 -3.49277,7.74129 -3.1853,4.62967 -8.1609,8.11077 -13.88295,9.71299 -1.91564,0.53639 -8.80855,0.9777 -9.18525,0.58807 z m 7.59775,-1.42041 c 6.0912,-1.26349 11.23105,-4.68295 14.5606,-9.68695 1.71869,-2.58304 2.58177,-4.59057 3.33376,-7.75441 1.9615,-8.25253 -1.24987,-17.558425 -7.88021,-22.835208 -9.42062,-7.497441 -22.59667,-6.677194 -30.95761,1.9272 -6.99063,7.194181 -8.46277,18.107308 -3.63231,26.926638 0.88283,1.61185 3.75699,5.45169 3.9379,5.26097 0.0439,-0.0463 0.6147,-1.27485 1.26834,-2.73006 0.65365,-1.4552 1.62195,-3.55727 2.15179,-4.67124 l 0.96333,-2.02542 -0.80525,-1.58463 c -1.66451,-3.27554 -1.66903,-6.38464 -0.0142,-9.75542 1.22612,-2.49752 1.72693,-2.905458 3.03634,-2.473312 1.06256,0.350675 3.6159,2.085853 4.93882,3.356272 l 0.95546,0.91756 1.49547,-0.39052 c 1.00479,-0.26239 1.74617,-0.6589 2.25954,-1.20847 0.54065,-0.578769 1.00733,-0.817941 1.59599,-0.817941 1.10226,0 2.13078,1.021701 2.13078,2.116671 0,0.8691 -0.9919,2.11666 -1.6829,2.11666 -0.3594,0 -1.22752,2.00609 -1.22752,2.83661 0,0.1986 0.46938,0.98279 1.04307,1.74264 2.20311,2.918 3.24087,6.2381 2.13193,6.82067 -3.60555,1.89413 -5.94137,2.246 -8.91461,1.34291 -1.00264,-0.30455 -2.55697,-1.02811 -3.45406,-1.60793 -1.41328,-0.91345 -1.60052,-0.97649 -1.40232,-0.47216 0.12581,0.32013 1.24496,3.24431 2.487,6.49818 1.24204,3.25387 2.31288,5.97075 2.37964,6.03751 0.25006,0.25006 2.75933,0.55278 4.80331,0.57948 1.16417,0.0152 3.18823,-0.19463 4.49792,-0.4663 z m 10.62424,-22.18708 c -0.0774,-0.12523 -0.0318,-0.69737 0.10131,-1.27142 0.89791,-3.872102 -0.29688,-8.373819 -3.02896,-11.412555 -2.41006,-2.680561 -5.41477,-4.042834 -9.24573,-4.191812 -1.28859,-0.05011 -2.40462,-0.152848 -2.48008,-0.228306 -0.0755,-0.07546 -0.0667,-0.320925 0.0195,-0.545483 0.21695,-0.56538 4.07049,-0.556519 6.01224,0.01383 4.50365,1.322846 8.00523,4.644101 9.54086,9.049544 1.04521,2.998498 0.83068,8.506012 -0.34005,8.730012 -0.24109,0.0461 -0.50167,-0.0186 -0.57907,-0.14381 z m -3.40072,-0.35604 c -0.0584,-0.17508 0.0476,-1.04469 0.23539,-1.93247 1.19452,-5.64609 -2.96934,-10.879687 -8.91272,-11.202488 -2.42416,-0.131663 -2.67992,-0.205069 -2.48494,-0.713193 0.39505,-1.029483 4.3639,-0.715562 6.95005,0.549723 2.01751,0.987077 3.85197,2.893456 4.8627,5.05333 0.68157,1.456468 0.85026,2.187388 0.93068,4.032448 0.0657,1.50707 -0.0266,2.6041 -0.27851,3.31187 -0.36831,1.03465 -1.09136,1.53464 -1.30265,0.90078 z m -2.41981,-1.47692 c -0.0986,-0.0986 -0.10526,-0.73717 -0.0148,-1.41905 0.2157,-1.62604 -0.42134,-3.790483 -1.49812,-5.090093 -1.12136,-1.353417 -2.67578,-2.102337 -4.74599,-2.286624 -1.49237,-0.132848 -1.71979,-0.223068 -1.71979,-0.682259 0,-0.477021 0.16947,-0.527123 1.71979,-0.508422 4.22612,0.05098 7.4414,3.362886 7.4414,7.665038 0,1.95026 -0.52431,2.97957 -1.18248,2.32141 z m -1.9329,-0.82806 c -0.15753,-0.10081 -0.34234,-0.87285 -0.41067,-1.71563 -0.19056,-2.350152 -1.47467,-3.683238 -3.95595,-4.106824 -1.44379,-0.246473 -1.58854,-0.933749 -0.22399,-1.063447 2.057,-0.195513 4.07612,1.106231 5.06124,3.263018 0.81869,1.792423 0.50021,4.244163 -0.47063,3.622883 z m -2.03297,-0.49198 c -0.097,-0.097 -0.17639,-0.55588 -0.17639,-1.0197 0,-1.169634 -1.00389,-2.186228 -2.37552,-2.405559 -0.81046,-0.129599 -1.067,-0.283436 -1.0028,-0.601355 0.0654,-0.323721 0.38884,-0.423179 1.33539,-0.41058 0.99991,0.01331 1.4063,0.16719 2.0368,0.771246 0.91763,0.879151 1.44836,2.272598 1.21688,3.194928 -0.15518,0.61827 -0.65809,0.84728 -1.03436,0.47102 z m -11.78686,24.31962 c -0.26964,-0.69123 -1.47679,-3.84796 -2.68257,-7.01496 -1.20577,-3.167 -2.21888,-5.72685 -2.25135,-5.68854 -0.0575,0.0679 -5.86009,12.71937 -6.12425,13.35289 -0.15033,0.36052 1.35887,0.46998 7.64968,0.55481 l 3.89874,0.0526 z m 7.36283,-10.68414 0.87856,-0.30626 -0.90701,-0.55715 c -3.85366,-2.36715 -9.65675,-8.6549 -11.54942,-12.51398 -0.37889,-0.77254 -0.77196,-1.40462 -0.87348,-1.40462 -0.36014,0 -1.02799,2.49554 -1.02162,3.81745 0.0148,3.07369 1.23454,5.88981 3.53584,8.16357 0.85686,0.84661 2.04748,1.7924 2.64583,2.10175 2.34026,1.20994 5.0742,1.47213 7.2913,0.69924 z m 2.44354,-1.94972 c -0.16069,-1.00841 -2.55431,-5.15742 -2.97622,-5.15886 -0.0826,-2.7e-4 -0.36578,0.6841 -0.62935,1.52084 -0.26358,0.83675 -0.53445,1.66567 -0.60194,1.84205 -0.0681,0.17801 0.6202,0.80086 1.54702,1.39989 1.78239,1.15202 2.8052,1.30429 2.66049,0.39608 z m -4.57019,-4.15241 c 0.30441,-0.90138 0.5495,-1.82412 0.54466,-2.05052 -0.009,-0.43192 -0.87263,-1.60227 -1.18204,-1.60227 -0.099,0 -0.83023,0.55553 -1.62499,1.23451 l -1.44502,1.23452 1.39378,1.41132 c 0.76658,0.77622 1.47622,1.41131 1.57697,1.41131 0.10075,0 0.43224,-0.73749 0.73664,-1.63887 z m -1.97613,-4.16285 c 0.50982,-0.56471 0.50884,-0.57262 -0.15226,-1.23373 l -0.66537,-0.66537 -1.69983,0.45561 c -0.9349,0.25058 -1.79491,0.53649 -1.91113,0.63536 -0.11623,0.0989 0.27729,0.7979 0.87448,1.5534 l 1.0858,1.37364 0.9776,-0.77528 c 0.53767,-0.4264 1.20849,-1.03103 1.49071,-1.34363 z m 3.32334,-0.12976 c 0,-0.20638 0.078,-0.57839 0.17323,-0.82668 0.1612,-0.42008 0.12412,-0.41926 -0.53379,0.0118 -0.55533,0.36387 -0.64232,0.54124 -0.40542,0.82668 0.39062,0.47067 0.76598,0.46487 0.76598,-0.0118 z m -1.03831,-1.90459 0.64144,-0.69232 -0.92605,0.19427 c -1.25128,0.2625 -1.40117,0.3804 -1.03878,0.81705 0.42708,0.51461 0.58671,0.47613 1.32339,-0.319 z m -5.0474,-0.44135 1.15239,-0.33365 -1.70053,-1.34688 c -1.69028,-1.338763 -3.14068,-2.212881 -3.67176,-2.212881 -0.53567,0 -0.26975,1.396091 0.56381,2.960011 0.93407,1.7525 0.87716,1.73797 3.65609,0.9334 z m 8.58511,-1.32131 c -0.24324,-0.63388 -1.16193,-0.84796 -1.63005,-0.37984 -0.48039,0.48038 -0.23969,1.4336 0.39985,1.58351 0.61696,0.14461 1.43896,-0.65966 1.2302,-1.20367 z"
         id="path3873" />
      <path
         style="fill:#547048;stroke-width:0.264583"
         d="m 124.449,128.71478 c -0.10418,-0.10776 -2.48543,-0.17462 -5.29167,-0.14859 -2.80624,0.026 -6.32845,-0.0344 -7.82713,-0.13419 l -2.72488,-0.18151 0.17436,-0.79388 c 0.0959,-0.43663 0.6197,-1.76239 1.16401,-2.94613 l 0.98964,-2.15227 -1.30221,-1.44866 c -4.00776,-4.4585 -6.08947,-10.03872 -6.06781,-16.26533 0.063,-18.097413 19.07531,-29.496068 35.25752,-21.138282 5.83388,3.013081 10.4378,8.797944 12.19048,15.317449 0.8048,2.993653 0.80413,8.874033 -0.001,11.849043 -0.64161,2.36974 -2.25057,5.93581 -3.49277,7.74129 -3.1853,4.62967 -8.1609,8.11077 -13.88295,9.71299 -1.91564,0.53639 -8.80855,0.9777 -9.18525,0.58807 z m 9.39382,-1.82624 c 10.02837,-2.95142 16.57088,-11.5906 16.6454,-21.97974 0.11996,-16.723893 -17.32327,-27.914304 -32.55442,-20.884735 -5.24984,2.422936 -9.59511,7.070736 -11.78291,12.603281 -1.19746,3.028142 -1.57247,5.478864 -1.40874,9.206244 0.17075,3.8874 0.5943,5.61834 2.17909,8.90539 1.35465,2.8097 4.30624,6.73353 4.62593,6.14969 0.11126,-0.2032 1.00342,-2.15539 1.98256,-4.3382 0.97915,-2.18281 1.92658,-4.12527 2.1054,-4.31657 0.25974,-0.27788 0.14785,-0.68166 -0.55635,-2.00784 -1.0859,-2.04499 -1.49641,-4.53152 -1.12691,-6.82589 0.28353,-1.76055 1.87079,-5.103598 2.61133,-5.499923 0.96829,-0.518214 2.94389,0.457029 5.76145,2.844103 l 1.65499,1.40213 1.4574,-0.38058 c 0.96773,-0.25271 1.71413,-0.65541 2.22148,-1.19853 0.96832,-1.036586 2.14483,-1.101011 3.07733,-0.16851 1.04659,1.04658 0.69168,2.75385 -0.69158,3.32682 -0.53754,0.22265 -0.85752,0.64334 -1.1563,1.52022 -0.2272,0.66681 -0.4131,1.36406 -0.4131,1.54944 0,0.18539 0.5374,1.10582 1.19422,2.04542 2.25759,3.22951 3.09213,5.9805 1.98078,6.52947 -2.48573,1.22789 -3.76495,1.66417 -5.22255,1.78117 -2.17111,0.17428 -4.62097,-0.4804 -6.62519,-1.77044 -0.83255,-0.53588 -1.65904,-1.06237 -1.83665,-1.16998 -0.18619,-0.1128 -0.0558,0.50916 0.30785,1.46879 2.46242,6.49751 4.36138,11.39061 4.45811,11.48734 0.36911,0.36911 2.85275,0.59308 5.61114,0.506 2.41877,-0.0764 3.72883,-0.26323 5.50024,-0.78457 z m 8.81279,-21.80613 c -0.0759,-0.1228 -0.009,-0.68834 0.14815,-1.25677 0.1616,-0.58369 0.23224,-2.15918 0.16231,-3.61988 -0.11356,-2.371934 -0.21354,-2.766814 -1.20588,-4.762502 -2.30623,-4.638027 -6.98565,-7.48554 -12.00367,-7.304458 -1.67484,0.06044 -1.96063,-0.05276 -1.71951,-0.681086 0.12273,-0.319836 0.60497,-0.408286 2.22605,-0.408286 4.8109,0 8.97674,2.178244 11.53742,6.032719 1.80418,2.715741 2.38159,4.655607 2.37831,7.990203 -0.002,1.52796 -0.13927,3.10554 -0.30615,3.50572 -0.29253,0.7015 -0.93152,0.96629 -1.21703,0.50434 z m -3.33282,-0.50249 c 0,-0.27498 0.12968,-1.20146 0.28817,-2.05884 0.5332,-2.884336 -0.37773,-5.727373 -2.59439,-8.097156 -1.73906,-1.859201 -3.62212,-2.6784 -6.49118,-2.823899 -2.01762,-0.102321 -2.3151,-0.179161 -2.3151,-0.597998 0,-0.652279 1.80017,-0.911836 3.78251,-0.545381 5.04379,0.932396 8.62083,4.949981 8.85203,9.942234 0.1126,2.43126 -0.35935,4.4571 -1.07023,4.59401 -0.29733,0.0572 -0.45181,-0.084 -0.45181,-0.41297 z m -2.41181,-1.32476 c -0.0168,-0.10914 -0.0499,-1.09141 -0.0734,-2.18281 -0.0498,-2.303609 -0.63367,-3.664666 -2.13922,-4.986558 -1.29855,-1.140134 -2.5811,-1.62803 -4.27969,-1.62803 -1.0682,0 -1.47243,-0.107433 -1.59374,-0.423578 -0.35868,-0.934693 1.51671,-1.180758 3.80959,-0.499847 1.74765,0.518997 3.91519,2.450508 4.74168,4.225352 0.972,2.087314 0.83078,5.693911 -0.22296,5.693911 -0.11641,0 -0.22542,-0.0893 -0.24222,-0.19844 z m -2.16516,-1.02714 c -0.10204,-0.10204 -0.18553,-0.7434 -0.18553,-1.42523 0,-2.149883 -1.54274,-3.757892 -4.00935,-4.178974 -1.55673,-0.265754 -1.57658,-0.944519 -0.0309,-1.056527 2.81465,-0.203962 5.60242,2.867381 5.31236,5.852711 -0.0777,0.79999 -0.66092,1.23367 -1.08658,0.80802 z m -1.86123,-0.27373 c -0.097,-0.097 -0.17639,-0.52156 -0.17639,-0.94344 0,-0.42187 -0.12259,-0.99611 -0.27242,-1.276077 -0.34697,-0.648319 -1.61411,-1.308261 -2.51196,-1.308261 -0.99158,0 -0.78335,-0.895648 0.2354,-1.012506 1.65139,-0.189427 3.38658,1.208106 3.72237,2.998024 0.22227,1.1848 -0.3968,2.14245 -0.997,1.54226 z m -11.78686,24.31962 c -0.26964,-0.69123 -1.47679,-3.84796 -2.68257,-7.01496 -1.20577,-3.167 -2.21888,-5.72685 -2.25135,-5.68854 -0.0575,0.0679 -5.86009,12.71937 -6.12425,13.35289 -0.15033,0.36052 1.35887,0.46998 7.64968,0.55481 l 3.89874,0.0526 z m 7.36283,-10.68414 0.87856,-0.30626 -0.90701,-0.55715 c -3.85366,-2.36715 -9.65675,-8.6549 -11.54942,-12.51398 -0.37889,-0.77254 -0.77196,-1.40462 -0.87348,-1.40462 -0.36014,0 -1.02799,2.49554 -1.02162,3.81745 0.0148,3.07369 1.23454,5.88981 3.53584,8.16357 0.85686,0.84661 2.04748,1.7924 2.64583,2.10175 2.34026,1.20994 5.0742,1.47213 7.2913,0.69924 z m 2.44354,-1.94972 c -0.16069,-1.00841 -2.55431,-5.15742 -2.97622,-5.15886 -0.0826,-2.7e-4 -0.36578,0.6841 -0.62935,1.52084 -0.26358,0.83675 -0.53445,1.66567 -0.60194,1.84205 -0.0681,0.17801 0.6202,0.80086 1.54702,1.39989 1.78239,1.15202 2.8052,1.30429 2.66049,0.39608 z m -4.57019,-4.15241 c 0.30441,-0.90138 0.5495,-1.82412 0.54466,-2.05052 -0.009,-0.43192 -0.87263,-1.60227 -1.18204,-1.60227 -0.099,0 -0.83023,0.55553 -1.62499,1.23451 l -1.44502,1.23452 1.39378,1.41132 c 0.76658,0.77622 1.47622,1.41131 1.57697,1.41131 0.10075,0 0.43224,-0.73749 0.73664,-1.63887 z m -1.97613,-4.16285 c 0.50982,-0.56471 0.50884,-0.57262 -0.15226,-1.23373 l -0.66537,-0.66537 -1.69983,0.45561 c -0.9349,0.25058 -1.79491,0.53649 -1.91113,0.63536 -0.11623,0.0989 0.27729,0.7979 0.87448,1.5534 l 1.0858,1.37364 0.9776,-0.77528 c 0.53767,-0.4264 1.20849,-1.03103 1.49071,-1.34363 z m 3.4755,-0.65389 c 0.15177,-0.61401 0.11591,-0.72458 -0.17972,-0.55411 -0.92721,0.53463 -1.01659,0.68962 -0.69482,1.20485 0.36734,0.58821 0.61359,0.40498 0.87454,-0.65074 z m -1.19047,-1.38046 0.64144,-0.69232 -0.92605,0.19427 c -1.25128,0.2625 -1.40117,0.3804 -1.03878,0.81705 0.42708,0.51461 0.58671,0.47613 1.32339,-0.319 z m -5.0474,-0.44135 1.15239,-0.33365 -1.70053,-1.34688 c -1.69028,-1.338763 -3.14068,-2.212881 -3.67176,-2.212881 -0.53567,0 -0.26975,1.396091 0.56381,2.960011 0.93407,1.7525 0.87716,1.73797 3.65609,0.9334 z m 8.58511,-1.32131 c -0.24324,-0.63388 -1.16193,-0.84796 -1.63005,-0.37984 -0.48039,0.48038 -0.23969,1.4336 0.39985,1.58351 0.61696,0.14461 1.43896,-0.65966 1.2302,-1.20367 z"
         id="path3871" />
      <path
         style="fill:#4d4f4c;stroke-width:0.264583"
         d="m 124.449,128.71478 c -0.10418,-0.10776 -2.48543,-0.17462 -5.29167,-0.14859 -2.80624,0.026 -6.32845,-0.0344 -7.82713,-0.13419 l -2.72488,-0.18151 0.17436,-0.79388 c 0.0959,-0.43663 0.6197,-1.76239 1.16401,-2.94613 l 0.98964,-2.15227 -1.30221,-1.44866 c -4.00776,-4.4585 -6.08947,-10.03872 -6.06781,-16.26533 0.063,-18.097413 19.07531,-29.496068 35.25752,-21.138282 5.83388,3.013081 10.4378,8.797944 12.19048,15.317449 0.8048,2.993653 0.80413,8.874033 -0.001,11.849043 -0.64161,2.36974 -2.25057,5.93581 -3.49277,7.74129 -3.1853,4.62967 -8.1609,8.11077 -13.88295,9.71299 -1.91564,0.53639 -8.80855,0.9777 -9.18525,0.58807 z m 6.6717,-1.19485 c 8.45305,-1.33367 15.67856,-7.46228 18.23572,-15.46738 1.93653,-6.06221 1.574,-11.55884 -1.13427,-17.197913 -4.29745,-8.948008 -14.04676,-14.175606 -23.76471,-12.742688 -5.3624,0.790688 -9.07664,2.68572 -13.04819,6.657271 -3.03358,3.033573 -4.39681,5.211194 -5.71439,9.128125 -1.0936,3.251085 -1.35838,7.873795 -0.65277,11.396505 0.7533,3.7608 2.7308,7.81679 5.14751,10.55788 l 1.22837,1.39325 1.94516,-4.33163 c 1.06985,-2.3824 2.08668,-4.48297 2.25963,-4.66794 0.24548,-0.26253 0.11708,-0.73396 -0.58532,-2.14901 -1.05363,-2.12263 -1.4255,-4.46694 -1.06996,-6.74503 0.29278,-1.87598 1.91883,-5.149844 2.70163,-5.439419 1.1124,-0.411502 2.85928,0.463366 5.65554,2.832399 l 1.65499,1.40213 1.4574,-0.38058 c 0.96773,-0.25271 1.71413,-0.65541 2.22148,-1.19853 0.96832,-1.036586 2.14483,-1.101011 3.07733,-0.16851 1.04659,1.04658 0.69168,2.75385 -0.69158,3.32682 -0.53754,0.22265 -0.85752,0.64334 -1.1563,1.52022 -0.2272,0.66681 -0.4131,1.36406 -0.4131,1.54944 0,0.18539 0.53393,1.10087 1.18652,2.0344 1.3883,1.98598 2.5114,4.28947 2.51506,5.15844 0.003,0.81187 -0.45557,1.63625 -0.91102,1.63625 -0.20121,0 -0.96656,0.30173 -1.70078,0.67051 -1.80725,0.90773 -4.16018,1.10869 -6.38191,0.54507 -1.54989,-0.39318 -2.54253,-0.88415 -4.84178,-2.39478 l -0.7412,-0.48698 0.40288,1.03153 c 0.22159,0.56734 1.34689,3.51 2.50067,6.53925 1.15377,3.02925 2.17143,5.58138 2.26146,5.6714 0.54168,0.54169 5.69801,0.73885 8.35593,0.3195 z m 11.57798,-22.53074 c -0.0645,-0.18973 -0.003,-0.76169 0.13697,-1.27101 0.13984,-0.50932 0.19852,-2.08991 0.13042,-3.51242 -0.11356,-2.371934 -0.21354,-2.766814 -1.20588,-4.762502 -2.32417,-4.674102 -6.71424,-7.335496 -12.10018,-7.335496 -1.52689,0 -1.74171,-0.05975 -1.66475,-0.463021 0.0729,-0.38211 0.42856,-0.476716 2.03524,-0.541393 2.52438,-0.101619 4.36584,0.296428 6.64405,1.436172 5.26241,2.632675 8.51787,9.105644 7.39781,14.70938 -0.27483,1.37499 -0.50793,1.94428 -0.82017,2.00309 -0.23993,0.0452 -0.489,-0.0731 -0.55351,-0.2628 z m -3.37589,-0.40927 c 0,-0.27498 0.12968,-1.20146 0.28817,-2.05884 0.5332,-2.884336 -0.37773,-5.727373 -2.59439,-8.097156 -1.73906,-1.859201 -3.62212,-2.6784 -6.49118,-2.823899 -2.00434,-0.101647 -2.3151,-0.180972 -2.3151,-0.590954 0,-1.109979 4.09444,-0.837201 6.82557,0.454729 1.92002,0.908243 3.92062,2.98175 4.90358,5.082282 0.96018,2.051864 1.24264,5.189788 0.64547,7.170628 -0.37152,1.23235 -1.26212,1.84146 -1.26212,0.86321 z m -2.41181,-1.32476 c -0.0168,-0.10914 -0.0499,-1.09141 -0.0734,-2.18281 -0.0498,-2.303609 -0.63367,-3.664666 -2.13922,-4.986558 -1.29855,-1.140134 -2.5811,-1.62803 -4.27969,-1.62803 -1.0682,0 -1.47243,-0.107433 -1.59374,-0.423578 -0.36745,-0.957557 1.60436,-1.188479 3.87804,-0.454163 1.64546,0.531425 3.76015,2.335631 4.5602,3.890666 0.68516,1.33172 0.9928,4.958703 0.47365,5.584233 -0.35279,0.42509 -0.77539,0.52756 -0.8258,0.20024 z m -2.16516,-1.02714 c -0.10204,-0.10204 -0.18553,-0.7434 -0.18553,-1.42523 0,-2.147463 -1.69723,-3.898473 -4.0881,-4.217643 -1.50316,-0.200665 -1.46991,-0.907873 0.0478,-1.017858 2.81465,-0.203962 5.60242,2.867381 5.31236,5.852711 -0.0777,0.79999 -0.66092,1.23367 -1.08658,0.80802 z m -1.86123,-0.27373 c -0.097,-0.097 -0.17639,-0.57868 -0.17639,-1.07036 0,-1.053957 -0.89708,-2.087625 -2.02773,-2.336465 -1.28416,-0.282626 -1.45918,-0.375688 -1.3473,-0.716405 0.0597,-0.181824 0.43959,-0.369499 0.84419,-0.417054 1.63081,-0.19168 3.36989,1.21585 3.70423,2.998024 0.22227,1.1848 -0.3968,2.14245 -0.997,1.54226 z m -11.78318,24.31962 c -0.26761,-0.69123 -1.47318,-3.84955 -2.67904,-7.01849 -1.20586,-3.16894 -2.22106,-5.72879 -2.256,-5.68854 -0.0627,0.0722 -5.8746,12.73826 -6.1287,13.35642 -0.14817,0.36048 1.36234,0.47 7.65157,0.55481 l 3.89874,0.0526 z m 6.80583,-10.53028 1.3805,-0.40996 -2.06008,-1.46659 c -3.54732,-2.52535 -8.73429,-8.37059 -10.34839,-11.66168 -0.37701,-0.7687 -0.76854,-1.39764 -0.87006,-1.39764 -0.36014,0 -1.02799,2.49554 -1.02162,3.81745 0.0148,3.07457 1.23446,5.88973 3.5375,8.16521 2.94802,2.91274 6.13763,3.91673 9.38215,2.95321 z m 2.99686,-2.10358 c -0.16069,-1.00841 -2.55431,-5.15742 -2.97622,-5.15886 -0.0826,-2.7e-4 -0.36578,0.6841 -0.62935,1.52084 -0.26358,0.83675 -0.53206,1.65943 -0.59662,1.82818 -0.1792,0.46837 2.84375,2.46833 3.62504,2.3983 0.49889,-0.0447 0.64074,-0.18935 0.57715,-0.58846 z m -4.57019,-4.15241 c 0.30441,-0.90138 0.5495,-1.82412 0.54466,-2.05052 -0.009,-0.43192 -0.87263,-1.60227 -1.18204,-1.60227 -0.099,0 -0.83023,0.55553 -1.62499,1.23451 l -1.44502,1.23452 1.39378,1.41132 c 0.76658,0.77622 1.47622,1.41131 1.57697,1.41131 0.10075,0 0.43224,-0.73749 0.73664,-1.63887 z m -2.23611,-3.89863 0.78231,-0.82336 -0.67989,-0.67989 -0.6799,-0.6799 -1.68991,0.46009 c -0.92945,0.25304 -1.785,0.54342 -1.90122,0.64528 -0.11623,0.10185 0.2766,0.80245 0.87294,1.55688 l 1.08426,1.37168 0.71455,-0.51371 c 0.39301,-0.28254 1.06659,-0.88423 1.49686,-1.33707 z m 3.80119,-1.02 c 0.30706,-0.91979 0.15911,-0.94233 -0.79825,-0.12163 -0.3612,0.30963 -0.38814,0.48013 -0.13892,0.87919 0.36063,0.57746 0.53986,0.43258 0.93717,-0.75756 z m -1.25618,-1.27857 0.64144,-0.69232 -0.92605,0.19427 c -1.25128,0.2625 -1.40117,0.3804 -1.03878,0.81705 0.42708,0.51461 0.58671,0.47613 1.32339,-0.319 z m -5.02932,-0.44659 1.17047,-0.33888 -1.58632,-1.26123 c -1.58298,-1.258575 -3.30387,-2.288061 -3.82473,-2.288061 -0.53327,0 -0.26555,1.399091 0.56641,2.960011 0.93481,1.75389 0.87466,1.73869 3.67417,0.92816 z m 8.55241,-0.60134 c 0.21426,-0.55834 -0.082,-1.12767 -0.68664,-1.31958 -0.70959,-0.22521 -1.37765,0.44853 -1.15144,1.16124 0.26917,0.8481 1.53166,0.95686 1.83808,0.15834 z"
         id="path3869" />
      <path
         style="fill:#476839;stroke-width:0.264583"
         d="m 124.70157,128.70489 c -0.11079,-0.11553 -2.07532,-0.18215 -4.36563,-0.14804 -2.29031,0.0341 -5.86671,-0.0205 -7.94757,-0.12144 l -3.78338,-0.18345 0.16978,-0.77301 c 0.0934,-0.42516 0.61858,-1.74494 1.1671,-2.93285 l 0.99732,-2.15984 -1.68721,-1.99185 c -1.86039,-2.1963 -4.2777,-6.74469 -4.99589,-9.40019 -0.57403,-2.1225 -0.81258,-8.11438 -0.40815,-10.25221 1.8119,-9.577952 8.43348,-16.764403 17.77218,-19.288298 3.12129,-0.843568 8.90518,-0.84131 12.01413,0.0047 8.62611,2.347323 15.24965,9.085176 17.38214,17.682128 0.72782,2.93412 0.78323,8.23221 0.1152,11.01467 -1.3012,5.41976 -4.74499,10.67091 -9.10817,13.88828 -4.13635,3.05011 -8.3795,4.51785 -13.68084,4.73232 -1.89177,0.0765 -3.53023,0.0446 -3.64101,-0.0709 z m 6.41913,-1.18496 c 8.45305,-1.33367 15.67856,-7.46228 18.23572,-15.46738 1.93653,-6.06221 1.574,-11.55884 -1.13427,-17.197913 -4.29745,-8.948008 -14.04676,-14.175606 -23.76471,-12.742688 -5.3624,0.790688 -9.07664,2.68572 -13.04819,6.657271 -3.03358,3.033573 -4.39681,5.211194 -5.71439,9.128125 -1.0936,3.251085 -1.35838,7.873795 -0.65277,11.396505 0.7533,3.7608 2.7308,7.81679 5.14751,10.55788 l 1.22837,1.39325 1.94516,-4.33163 c 1.06985,-2.3824 2.08668,-4.48297 2.25963,-4.66794 0.24548,-0.26253 0.11708,-0.73396 -0.58532,-2.14901 -1.05363,-2.12263 -1.4255,-4.46694 -1.06996,-6.74503 0.29278,-1.87598 1.91883,-5.149844 2.70163,-5.439419 1.1124,-0.411502 2.85928,0.463366 5.65554,2.832399 l 1.65499,1.40213 1.4574,-0.38058 c 0.96773,-0.25271 1.71413,-0.65541 2.22148,-1.19853 0.96832,-1.036586 2.14483,-1.101011 3.07733,-0.16851 1.04659,1.04658 0.69168,2.75385 -0.69158,3.32682 -0.53754,0.22265 -0.85752,0.64334 -1.1563,1.52022 -0.2272,0.66681 -0.4131,1.36406 -0.4131,1.54944 0,0.18539 0.53393,1.10087 1.18652,2.0344 1.3883,1.98598 2.5114,4.28947 2.51506,5.15844 0.003,0.81187 -0.45557,1.63625 -0.91102,1.63625 -0.20121,0 -0.96656,0.30173 -1.70078,0.67051 -1.80725,0.90773 -4.16018,1.10869 -6.38191,0.54507 -1.54989,-0.39318 -2.54253,-0.88415 -4.84178,-2.39478 l -0.7412,-0.48698 0.40288,1.03153 c 0.22159,0.56734 1.34689,3.51 2.50067,6.53925 1.15377,3.02925 2.17143,5.58138 2.26146,5.6714 0.54168,0.54169 5.69801,0.73885 8.35593,0.3195 z m 11.57798,-22.53074 c -0.0645,-0.18973 -0.003,-0.76169 0.13697,-1.27101 0.13984,-0.50932 0.19852,-2.08991 0.13042,-3.51242 -0.11356,-2.371934 -0.21354,-2.766814 -1.20588,-4.762502 -2.32417,-4.674102 -6.71424,-7.335496 -12.10018,-7.335496 -1.52689,0 -1.74171,-0.05975 -1.66475,-0.463021 0.0729,-0.38211 0.42856,-0.476716 2.03524,-0.541393 2.52438,-0.101619 4.36584,0.296428 6.64405,1.436172 5.26241,2.632675 8.51787,9.105644 7.39781,14.70938 -0.27483,1.37499 -0.50793,1.94428 -0.82017,2.00309 -0.23993,0.0452 -0.489,-0.0731 -0.55351,-0.2628 z m -3.37589,-0.40927 c 0,-0.27498 0.12968,-1.20146 0.28817,-2.05884 0.5332,-2.884336 -0.37773,-5.727373 -2.59439,-8.097156 -1.73906,-1.859201 -3.62212,-2.6784 -6.49118,-2.823899 -2.00434,-0.101647 -2.3151,-0.180972 -2.3151,-0.590954 0,-1.109979 4.09444,-0.837201 6.82557,0.454729 1.92002,0.908243 3.92062,2.98175 4.90358,5.082282 0.96018,2.051864 1.24264,5.189788 0.64547,7.170628 -0.37152,1.23235 -1.26212,1.84146 -1.26212,0.86321 z m -2.41181,-1.32476 c -0.0168,-0.10914 -0.0499,-1.09141 -0.0734,-2.18281 -0.0498,-2.303609 -0.63367,-3.664666 -2.13922,-4.986558 -1.29855,-1.140134 -2.5811,-1.62803 -4.27969,-1.62803 -1.0682,0 -1.47243,-0.107433 -1.59374,-0.423578 -0.36745,-0.957557 1.60436,-1.188479 3.87804,-0.454163 1.64546,0.531425 3.76015,2.335631 4.5602,3.890666 0.68516,1.33172 0.9928,4.958703 0.47365,5.584233 -0.35279,0.42509 -0.77539,0.52756 -0.8258,0.20024 z m -2.16516,-1.02714 c -0.10204,-0.10204 -0.18553,-0.7434 -0.18553,-1.42523 0,-2.147463 -1.69723,-3.898473 -4.0881,-4.217643 -1.50316,-0.200665 -1.46991,-0.907873 0.0478,-1.017858 2.81465,-0.203962 5.60242,2.867381 5.31236,5.852711 -0.0777,0.79999 -0.66092,1.23367 -1.08658,0.80802 z m -1.86123,-0.27373 c -0.097,-0.097 -0.17639,-0.57868 -0.17639,-1.07036 0,-1.053957 -0.89708,-2.087625 -2.02773,-2.336465 -1.28416,-0.282626 -1.45918,-0.375688 -1.3473,-0.716405 0.0597,-0.181824 0.43959,-0.369499 0.84419,-0.417054 1.63081,-0.19168 3.36989,1.21585 3.70423,2.998024 0.22227,1.1848 -0.3968,2.14245 -0.997,1.54226 z m -11.58199,24.84878 c -0.154,-0.40018 -1.29379,-3.40651 -2.53285,-6.68072 -1.23906,-3.27422 -2.33406,-6.09986 -2.43333,-6.27919 -0.13156,-0.23767 -5.54653,11.01943 -6.33348,13.16657 -0.10756,0.29349 1.68066,0.41146 7.15444,0.47201 l 4.42523,0.0489 z m 7.12247,-11.21525 0.87623,-0.36027 -1.66998,-1.10231 c -3.63336,-2.39829 -9.23526,-8.70113 -10.95459,-12.32529 -0.25889,-0.5457 -0.55652,-0.99219 -0.66141,-0.99219 -0.10489,0 -0.38049,0.55699 -0.61245,1.23776 -1.80659,5.30204 2.40312,12.3689 8.24228,13.83635 1.26561,0.31806 3.64754,0.17154 4.77992,-0.29405 z m 2.54597,-1.52278 c 0.0804,-0.13007 -0.0449,-0.69561 -0.27838,-1.25678 -0.47237,-1.13529 -2.50445,-4.32758 -2.75475,-4.32758 -0.0881,0 -0.37581,0.68461 -0.63938,1.52135 -0.26358,0.83675 -0.53206,1.65943 -0.59662,1.82818 -0.0646,0.16875 0.57583,0.7878 1.4231,1.37566 1.4883,1.03262 2.5422,1.35077 2.84603,0.85917 z m -4.57878,-4.78201 c 0.53079,-1.64808 0.5539,-1.91791 0.21798,-2.54559 -0.20666,-0.38615 -0.52365,-0.75885 -0.70443,-0.82822 -0.18077,-0.0694 -0.99256,0.44105 -1.80398,1.13427 l -1.47531,1.26039 1.39378,1.41132 c 0.76658,0.77622 1.48028,1.41131 1.586,1.41131 0.10572,0 0.4594,-0.82957 0.78596,-1.84348 z m -2.29446,-3.69402 0.78231,-0.82336 -0.66482,-0.66482 -0.66482,-0.66482 -1.90343,0.45682 c -1.04688,0.25125 -1.90342,0.56611 -1.90342,0.69968 0,0.13357 0.48745,0.82506 1.08322,1.53664 l 1.08322,1.29379 0.70272,-0.50529 c 0.38649,-0.27791 1.05475,-0.8758 1.48502,-1.32864 z m 3.80119,-1.02 c 0.30706,-0.91979 0.15911,-0.94233 -0.79825,-0.12163 -0.3612,0.30963 -0.38814,0.48013 -0.13892,0.87919 0.36063,0.57746 0.53986,0.43258 0.93717,-0.75756 z m -1.25618,-1.27857 0.64144,-0.69232 -0.92605,0.19427 c -1.25128,0.2625 -1.40117,0.3804 -1.03878,0.81705 0.42708,0.51461 0.58671,0.47613 1.32339,-0.319 z m -5.6467,-0.27847 1.75813,-0.44163 -1.17458,-1.03114 c -1.24406,-1.09214 -3.61571,-2.576875 -4.12284,-2.581039 -0.66368,-0.0054 -0.55434,0.858652 0.33315,2.632629 0.51256,1.02454 1.04804,1.86281 1.18997,1.86281 0.14193,0 1.04921,-0.19874 2.01617,-0.44163 z m 8.91507,-0.50332 c 0.49188,-0.49188 0.4961,-0.52724 0.14188,-1.18912 -0.15064,-0.28147 -0.48401,-0.51177 -0.74083,-0.51177 -1.03459,0 -1.49874,1.33009 -0.63892,1.83089 0.62742,0.36544 0.75593,0.35194 1.23787,-0.13 z"
         id="path3867" />
      <path
         style="fill:#364b2d;stroke-width:0.264583"
         d="m 124.70157,128.70489 c -0.11079,-0.11553 -2.07532,-0.18215 -4.36563,-0.14804 -2.29031,0.0341 -5.86671,-0.0205 -7.94757,-0.12144 l -3.78338,-0.18345 0.16978,-0.77301 c 0.0934,-0.42516 0.61858,-1.74494 1.1671,-2.93285 l 0.99732,-2.15984 -1.68721,-1.99185 c -1.86039,-2.1963 -4.2777,-6.74469 -4.99589,-9.40019 -0.57403,-2.1225 -0.81258,-8.11438 -0.40815,-10.25221 1.8119,-9.577952 8.43348,-16.764403 17.77218,-19.288298 3.12129,-0.843568 8.90518,-0.84131 12.01413,0.0047 8.62611,2.347323 15.24965,9.085176 17.38214,17.682128 0.72782,2.93412 0.78323,8.23221 0.1152,11.01467 -1.3012,5.41976 -4.74499,10.67091 -9.10817,13.88828 -4.13635,3.05011 -8.3795,4.51785 -13.68084,4.73232 -1.89177,0.0765 -3.53023,0.0446 -3.64101,-0.0709 z m 8.5358,-1.5782 c 2.07535,-0.54311 5.57334,-2.13136 7.32189,-3.32448 1.85146,-1.26333 4.47318,-3.83541 5.77358,-5.66424 1.48232,-2.08468 2.30436,-3.76091 3.13168,-6.38585 1.90813,-6.05421 1.39384,-11.810927 -1.57003,-17.574248 -3.4635,-6.734868 -9.93472,-11.174364 -17.74468,-12.173503 -8.27067,-1.05808 -16.94458,2.992703 -21.68862,10.128759 -5.57752,8.389782 -5.00295,19.554442 1.4062,27.324562 l 1.4998,1.81827 0.60991,-1.30441 c 0.33546,-0.71743 1.35695,-2.85542 2.26999,-4.7511 l 1.66007,-3.44669 -0.92604,-1.83871 c -0.89225,-1.77161 -0.92604,-1.94585 -0.92604,-4.77504 0,-2.89984 0.0131,-2.96241 1.05833,-5.03336 0.96189,-1.905912 1.13598,-2.104515 1.91031,-2.179332 1.16654,-0.112712 2.48011,0.564446 4.93312,2.543062 l 2.08093,1.67849 1.35866,-0.31886 c 0.95067,-0.22311 1.60771,-0.58637 2.18808,-1.20972 1.2659,-1.359646 2.8736,-1.167585 3.53201,0.42194 0.44029,1.06298 -0.0252,2.22973 -1.06062,2.65863 -0.55026,0.22792 -0.86679,0.64124 -1.16793,1.52504 -0.2272,0.66681 -0.4131,1.37819 -0.4131,1.58085 0,0.20267 0.53205,1.11408 1.18234,2.02538 2.00375,2.808 2.91868,5.23078 2.31934,6.14169 -0.10691,0.16249 -1.08736,0.69586 -2.17876,1.18526 -1.71205,0.76771 -2.27486,0.89056 -4.10104,0.89519 -2.46543,0.006 -3.98128,-0.47824 -6.32237,-2.02074 -0.85793,-0.56527 -1.58831,-0.99549 -1.62308,-0.95604 -0.0929,0.10537 4.76406,12.85354 4.97893,13.06841 0.72652,0.72652 7.68026,0.70057 10.50714,-0.0392 z m 9.70416,-25.04573 c 0.13179,-2.896222 0.0838,-3.448344 -0.43292,-4.977365 -1.88999,-5.592977 -6.76916,-8.995833 -12.89863,-8.995833 -1.48011,0 -1.69121,-0.06062 -1.61247,-0.463021 0.13453,-0.68746 4.51108,-0.657222 6.65818,0.046 5.05081,1.65426 8.83266,6.31298 9.4668,11.661812 0.33561,2.830827 -0.10079,5.751587 -0.88164,5.900577 -0.40713,0.0777 -0.43417,-0.20888 -0.29932,-3.17217 z m -3.50842,2.60141 c -0.085,-0.2215 -0.0138,-1.08071 0.15823,-1.90935 0.64369,-3.100656 -0.45609,-6.404422 -2.88436,-8.6647 -1.91175,-1.779487 -3.36067,-2.367674 -6.18159,-2.509394 -1.9841,-0.09968 -2.3151,-0.182505 -2.3151,-0.579295 0,-1.085465 4.2428,-0.805503 6.71033,0.442782 1.80241,0.911808 2.94023,1.875467 4.03874,3.420539 1.70684,2.400703 2.35285,5.962508 1.5989,8.815558 -0.32092,1.21446 -0.85684,1.68307 -1.12515,0.98386 z m -2.36815,-1.44235 c -0.14064,-0.10081 -0.26037,-1.07627 -0.26606,-2.16767 -0.0121,-2.321884 -0.57742,-3.649201 -2.13764,-5.019091 -1.31151,-1.151527 -2.4767,-1.608507 -4.28826,-1.681828 -1.16333,-0.04708 -1.51597,-0.160008 -1.58276,-0.506839 -0.19504,-1.012742 2.83071,-0.890956 4.98487,0.20064 1.31818,0.66797 2.86633,2.226029 3.59486,3.61787 0.6171,1.178933 0.84247,5.000118 0.32046,5.433348 -0.20337,0.16878 -0.48483,0.22439 -0.62547,0.12357 z m -2.32828,-1.02115 c -0.097,-0.097 -0.17639,-0.73425 -0.17639,-1.41608 0,-2.155012 -1.56522,-3.85307 -3.85335,-4.180373 -1.57414,-0.225171 -1.84019,-0.923071 -0.40411,-1.060074 2.68676,-0.256318 5.57151,2.547408 5.5789,5.422217 0.003,1.1538 -0.58826,1.79111 -1.14505,1.23431 z m -1.85209,-0.26458 c -0.097,-0.097 -0.17639,-0.55721 -0.17639,-1.02265 0,-1.217484 -0.85734,-2.169655 -2.19104,-2.433409 -1.30807,-0.258681 -1.53759,-0.949574 -0.3602,-1.084225 1.65395,-0.189153 3.38866,1.207147 3.72463,2.998024 0.22227,1.1848 -0.3968,2.14245 -0.997,1.54226 z m -11.58199,24.84878 c -0.154,-0.40018 -1.29379,-3.40651 -2.53285,-6.68072 -1.23906,-3.27422 -2.33406,-6.09986 -2.43333,-6.27919 -0.13156,-0.23767 -5.54653,11.01943 -6.33348,13.16657 -0.10756,0.29349 1.68066,0.41146 7.15444,0.47201 l 4.42523,0.0489 z m 7.12247,-11.21525 0.87623,-0.36027 -1.66998,-1.10231 c -3.63336,-2.39829 -9.23526,-8.70113 -10.95459,-12.32529 -0.25889,-0.5457 -0.55652,-0.99219 -0.66141,-0.99219 -0.10489,0 -0.38049,0.55699 -0.61245,1.23776 -1.80659,5.30204 2.40312,12.3689 8.24228,13.83635 1.26561,0.31806 3.64754,0.17154 4.77992,-0.29405 z m 2.54597,-1.52278 c 0.0804,-0.13007 -0.0449,-0.69561 -0.27838,-1.25678 -0.47237,-1.13529 -2.50445,-4.32758 -2.75475,-4.32758 -0.0881,0 -0.37581,0.68461 -0.63938,1.52135 -0.26358,0.83675 -0.53206,1.65943 -0.59662,1.82818 -0.0646,0.16875 0.57583,0.7878 1.4231,1.37566 1.4883,1.03262 2.5422,1.35077 2.84603,0.85917 z m -4.57878,-4.78201 c 0.53079,-1.64808 0.5539,-1.91791 0.21798,-2.54559 -0.20666,-0.38615 -0.52365,-0.75885 -0.70443,-0.82822 -0.18077,-0.0694 -0.99256,0.44105 -1.80398,1.13427 l -1.47531,1.26039 1.39378,1.41132 c 0.76658,0.77622 1.48028,1.41131 1.586,1.41131 0.10572,0 0.4594,-0.82957 0.78596,-1.84348 z m -2.29446,-3.69402 0.78231,-0.82336 -0.66482,-0.66482 -0.66482,-0.66482 -1.90343,0.45682 c -1.04688,0.25125 -1.90342,0.56611 -1.90342,0.69968 0,0.13357 0.48745,0.82506 1.08322,1.53664 l 1.08322,1.29379 0.70272,-0.50529 c 0.38649,-0.27791 1.05475,-0.8758 1.48502,-1.32864 z m 3.80119,-1.02 c 0.30758,-0.92134 0.15914,-0.94271 -0.80467,-0.11583 -0.35511,0.30466 -0.39315,0.50459 -0.17392,0.91421 0.3269,0.61082 0.57599,0.4076 0.97859,-0.79838 z m -1.2762,-1.24771 c 0.69688,-0.74179 0.35624,-0.88439 -0.93758,-0.39249 -0.58689,0.22314 -0.65193,0.33585 -0.3817,0.66146 0.44122,0.53164 0.59698,0.49989 1.31928,-0.26897 z m -5.62668,-0.30933 1.75813,-0.44163 -1.17458,-1.03114 c -1.24406,-1.09214 -3.61571,-2.576875 -4.12284,-2.581039 -0.66368,-0.0054 -0.55434,0.858652 0.33315,2.632629 0.51256,1.02454 1.04804,1.86281 1.18997,1.86281 0.14193,0 1.04921,-0.19874 2.01617,-0.44163 z m 8.91507,-0.50332 c 0.49188,-0.49188 0.4961,-0.52724 0.14188,-1.18912 -0.15064,-0.28147 -0.48401,-0.51177 -0.74083,-0.51177 -1.03459,0 -1.49874,1.33009 -0.63892,1.83089 0.62742,0.36544 0.75593,0.35194 1.23787,-0.13 z"
         id="path3865" />
      <path
         style="fill:#2c332a;stroke-width:0.264583"
         d="m 124.70157,128.70489 c -0.11079,-0.11553 -2.07532,-0.18215 -4.36563,-0.14804 -2.29031,0.0341 -5.86671,-0.0205 -7.94757,-0.12144 l -3.78338,-0.18345 0.16978,-0.77301 c 0.0934,-0.42516 0.6205,-1.74831 1.17138,-2.94033 l 1.00159,-2.16732 -1.24476,-1.4552 c -2.51575,-2.94107 -4.27228,-6.12522 -5.33267,-9.66681 -0.69616,-2.3251 -0.98212,-8.07702 -0.52237,-10.50728 1.8426,-9.740238 8.64157,-16.95934 18.27693,-19.406338 2.61613,-0.664391 8.30223,-0.676834 10.93494,-0.02393 8.89331,2.205517 15.77642,9.039642 17.95658,17.828785 0.81003,3.265573 0.7935,8.278983 -0.0378,11.456683 -2.20723,8.43747 -8.45049,14.87492 -16.81519,17.3382 -1.83027,0.53898 -3.17711,0.73344 -5.82083,0.84039 -1.89177,0.0765 -3.53023,0.0446 -3.64101,-0.0709 z m 9.0198,-1.69074 c 4.06975,-1.16537 7.66819,-3.38508 10.64422,-6.56593 3.68686,-3.94059 5.63577,-8.35848 6.2204,-14.1007 0.39111,-3.8414 -0.99267,-9.483052 -3.27064,-13.334351 -1.63824,-2.769737 -5.09078,-6.224718 -7.87089,-7.876473 -3.94661,-2.344811 -8.91474,-3.579547 -13.14509,-3.266965 -10.38167,0.767104 -18.75486,7.817991 -21.13813,17.799966 -0.46964,1.967023 -0.53757,2.903973 -0.43741,6.032853 0.1052,3.28612 0.21419,3.98785 0.96569,6.21771 0.95565,2.83565 2.7571,6.01135 4.5387,8.00112 l 1.20021,1.34047 2.09463,-4.55608 c 1.15204,-2.50583 2.1702,-4.60278 2.26258,-4.65987 0.0924,-0.0571 -0.25921,-0.96438 -0.7813,-2.01618 -0.918,-1.84941 -0.94926,-2.00941 -0.94926,-4.85922 0,-2.91208 0.0125,-2.97156 1.05833,-5.04385 0.99384,-1.969217 1.11477,-2.101709 1.98438,-2.174061 1.08454,-0.09024 3.1345,1.043204 5.42328,2.998571 l 1.44537,1.23482 1.39432,-0.32741 c 0.98689,-0.23175 1.63669,-0.58774 2.22375,-1.21828 0.97362,-1.045724 2.0706,-1.177324 2.95393,-0.35437 1.22996,1.14588 0.91947,2.70607 -0.70577,3.54651 -0.57332,0.29647 -0.84757,0.72557 -1.14501,1.79145 l -0.39111,1.40159 0.97993,1.32292 c 1.96602,2.65414 3.08846,5.17642 2.80541,6.30418 -0.18114,0.72172 -3.38282,2.17661 -5.37003,2.44022 -2.43108,0.3225 -6.1139,-0.86755 -8.25173,-2.66641 -0.45825,-0.38559 -0.83318,-0.61441 -0.83318,-0.50849 0,0.33639 4.82639,12.94078 5.05033,13.18923 0.76873,0.85286 7.95221,0.79239 11.04409,-0.093 z m 9.19202,-23.36212 c 0.31185,-2.54068 0.18184,-4.684244 -0.39789,-6.560081 -1.67046,-5.405182 -6.70623,-8.984187 -12.64101,-8.984187 -1.47225,0 -1.92879,-0.08724 -1.92879,-0.368568 0,-0.523112 0.59909,-0.689766 2.4796,-0.689766 3.66636,0 6.86041,1.366197 9.62495,4.116897 2.19514,2.184156 3.27777,4.190812 3.93045,7.285075 0.59794,2.83473 0.0889,6.85428 -0.86795,6.85428 -0.33879,0 -0.37028,-0.26117 -0.19936,-1.65365 z m -3.43002,1.17026 c -0.10358,-0.1676 -0.0486,-1.01485 0.12215,-1.8828 0.83941,-4.266666 -1.40622,-8.736318 -5.30982,-10.568538 -1.13201,-0.53133 -1.97254,-0.704603 -3.78454,-0.780174 -1.99181,-0.08307 -2.31693,-0.160346 -2.24377,-0.53331 0.0719,-0.366552 0.46595,-0.436165 2.46896,-0.436165 2.1573,0 2.54985,0.08202 4.13784,0.864581 4.17086,2.055384 6.49741,6.382221 5.91938,11.008646 -0.19063,1.52576 -0.96051,2.89356 -1.3102,2.32776 z m -2.42959,-1.65934 c -0.12821,-0.20395 -0.19586,-1.03975 -0.15034,-1.85734 0.10333,-1.855717 -0.64533,-3.72938 -2.02877,-5.077407 -1.4529,-1.415696 -2.74229,-1.855396 -5.93678,-2.024519 -0.50989,-0.02699 -0.12169,-0.813437 0.47551,-0.963325 1.83938,-0.461654 4.9462,0.754452 6.58553,2.577785 1.36339,1.51641 2.00094,3.189449 2.00094,5.250766 0,1.61041 -0.52275,2.76745 -0.94609,2.09404 z m -2.39295,-1.15189 c -0.0811,-0.21132 -0.072,-0.50622 0.0201,-0.65536 0.2795,-0.45223 -0.35631,-2.325005 -1.08222,-3.187705 -0.87014,-1.034097 -1.45404,-1.339913 -2.97326,-1.557228 -1.50207,-0.214862 -1.71765,-0.915341 -0.32266,-1.048424 1.35042,-0.128831 3.07271,0.647995 4.10157,1.849982 0.98252,1.147852 1.64291,3.234755 1.36898,4.326155 -0.17981,0.71643 -0.87671,0.88717 -1.11255,0.27258 z m -1.6219,-0.0652 c -0.1819,-0.0681 -0.33073,-0.51464 -0.33073,-0.99221 0,-1.238181 -0.84945,-2.190147 -2.19104,-2.455459 -1.53154,-0.302875 -1.54156,-1.00594 -0.0139,-0.976562 1.76066,0.03386 2.8748,1.045684 3.35276,3.044871 0.18221,0.76214 -0.29848,1.57364 -0.81706,1.37936 z m -12.07556,23.93113 c -0.34528,-0.9095 -1.48661,-3.91583 -2.53629,-6.68073 -1.04969,-2.76489 -1.99221,-5.17756 -2.09451,-5.36149 -0.10902,-0.19603 -1.43983,2.4154 -3.21611,6.31096 -1.66657,3.65496 -3.06766,6.74575 -3.11352,6.86843 -0.10807,0.28908 1.70101,0.40723 7.15872,0.46754 l 4.4295,0.0489 z m 7.4617,-10.28921 0.87623,-0.36027 -1.69606,-1.11438 c -3.19859,-2.1016 -8.86071,-8.38051 -10.65669,-11.81755 -0.42724,-0.81763 -0.85491,-1.48688 -0.95037,-1.48723 -0.0955,-3.4e-4 -0.36335,0.55636 -0.59531,1.23713 -1.80659,5.30204 2.40312,12.3689 8.24228,13.83635 1.26561,0.31806 3.64754,0.17154 4.77992,-0.29405 z m 2.49281,-2.08006 c -0.0787,-0.73859 -2.47705,-4.81794 -2.91916,-4.96531 -0.15556,-0.0519 -0.52578,0.71547 -0.82269,1.70516 -0.60409,2.01357 -0.65373,1.89004 1.29884,3.23203 1.46909,1.00969 2.549,1.02212 2.44301,0.0281 z m -4.52562,-4.22473 c 0.53079,-1.64808 0.5539,-1.91791 0.21798,-2.54559 -0.20666,-0.38615 -0.5279,-0.76048 -0.71386,-0.83184 -0.18597,-0.0714 -1.00057,0.43621 -1.81025,1.12793 l -1.47212,1.25768 1.40004,1.41765 c 0.77002,0.77971 1.48653,1.41765 1.59225,1.41765 0.10572,0 0.4594,-0.82957 0.78596,-1.84348 z m -2.4656,-3.46944 1.099,-0.9473 -0.74468,-0.71344 -0.74467,-0.71345 -1.89634,0.45513 c -1.04299,0.25032 -1.89635,0.56441 -1.89635,0.69798 0,0.13357 0.4868,0.82429 1.08178,1.53492 1.20649,1.44102 1.04662,1.4572 3.10126,-0.31384 z m 3.96917,-1.23552 c 0.34274,-1.02714 0.0988,-1.09543 -0.73659,-0.20619 -0.51737,0.55072 -0.55975,0.71922 -0.269,1.06955 0.40513,0.48815 0.61464,0.30828 1.00559,-0.86336 z m -1.14075,-1.29223 0.79375,-0.6779 -1.18069,0.17036 c -1.41016,0.20347 -1.50865,0.27697 -1.07358,0.80119 0.43622,0.52561 0.52126,0.50851 1.46052,-0.29365 z m -5.75897,-0.27387 1.75813,-0.44163 -1.17458,-1.03114 c -1.24406,-1.09214 -3.61571,-2.576875 -4.12284,-2.581039 -0.66368,-0.0054 -0.55434,0.858652 0.33315,2.632629 0.51256,1.02454 1.04804,1.86281 1.18997,1.86281 0.14193,0 1.04921,-0.19874 2.01617,-0.44163 z m 8.91507,-0.50332 c 0.49188,-0.49188 0.4961,-0.52724 0.14188,-1.18912 -0.15064,-0.28147 -0.48401,-0.51177 -0.74083,-0.51177 -1.03459,0 -1.49874,1.33009 -0.63892,1.83089 0.62742,0.36544 0.75593,0.35194 1.23787,-0.13 z"
         id="path3863" />
      <path
         style="fill:#222e1d;stroke-width:0.264583"
         d="m 124.97188,128.71105 c -0.10764,-0.11262 -2.36982,-0.19314 -5.02709,-0.17894 -2.65726,0.0142 -6.26013,-0.0565 -8.00638,-0.15708 l -3.175,-0.18289 0.0731,-0.70803 c 0.0402,-0.38942 0.53377,-1.6881 1.09681,-2.88595 l 1.02371,-2.17791 -1.80286,-2.22866 c -4.1017,-5.0704 -5.77819,-10.17054 -5.48032,-16.67194 0.2934,-6.403746 2.65925,-11.564489 7.3758,-16.089159 8.52342,-8.176676 21.76102,-8.898408 31.2384,-1.70316 8.60252,6.531053 11.76676,18.870159 7.35858,28.695149 -3.03666,6.76814 -8.9629,11.80257 -16.09215,13.67051 -2.11031,0.55292 -8.22404,0.99319 -8.58259,0.61806 z m 7.15217,-1.33404 c 6.96338,-1.42812 12.94836,-6.05847 16.19016,-12.5257 0.98707,-1.96915 1.99958,-5.72734 2.26285,-8.39916 0.39971,-4.0564 -1.01687,-9.7675 -3.37193,-13.594345 -8.95376,-14.549383 -29.73894,-14.714593 -39.04522,-0.310351 -2.37061,3.669226 -3.52205,7.664366 -3.52655,12.235996 -0.003,3.20778 0.44509,5.66124 1.55789,8.52705 0.83749,2.15682 3.21046,5.93387 4.49601,7.15631 l 0.77961,0.74134 2.07656,-4.52994 c 1.14211,-2.49147 2.15163,-4.57633 2.24337,-4.63303 0.0917,-0.0567 -0.26037,-0.96334 -0.78246,-2.01476 -0.91882,-1.85038 -0.94926,-2.0066 -0.94926,-4.87198 0,-2.95346 0.003,-2.96513 1.08881,-5.04456 1.00512,-1.924047 1.15764,-2.090165 1.98437,-2.161291 1.05127,-0.09044 3.13001,1.065397 5.39281,2.998571 l 1.44537,1.23482 1.39432,-0.32741 c 0.98689,-0.23175 1.63669,-0.58774 2.22375,-1.21828 1.20982,-1.299411 2.91396,-1.070154 3.55535,0.4783 0.41559,1.00332 0.0291,1.88794 -1.13375,2.59512 -0.6219,0.3782 -0.98821,0.89831 -1.31986,1.87402 l -0.45906,1.35054 1.01461,1.36651 c 1.9974,2.69018 3.12535,5.21122 2.84009,6.34779 -0.18114,0.72172 -3.38282,2.17661 -5.37003,2.44022 -2.43108,0.3225 -6.1139,-0.86755 -8.25173,-2.66641 -0.45825,-0.38559 -0.83318,-0.60488 -0.83318,-0.48731 0,0.35263 4.81471,12.91067 5.04859,13.16805 0.66008,0.72642 6.42025,0.89095 9.44851,0.26989 z m 10.81141,-23.85727 c 0.59495,-4.937165 -0.55588,-8.64885 -3.61539,-11.660488 -2.43885,-2.400677 -5.83995,-3.75149 -9.44558,-3.75149 -1.47225,0 -1.92879,-0.08724 -1.92879,-0.368568 0,-0.523112 0.59909,-0.689766 2.4796,-0.689766 5.86028,0 11.34204,4.068171 13.16552,9.770499 0.96515,3.018209 0.66029,8.485753 -0.47315,8.485753 -0.33551,0 -0.36389,-0.27823 -0.18221,-1.78594 z m -3.45956,1.29046 c -0.0872,-0.14112 -0.0139,-1.1003 0.16294,-2.13151 0.54146,-3.157599 -0.36283,-6.073219 -2.59646,-8.371456 -1.67819,-1.726723 -3.6693,-2.575759 -6.45084,-2.75072 -1.75982,-0.110693 -2.24896,-0.22778 -2.24896,-0.538336 0,-0.32347 0.44179,-0.396875 2.38859,-0.396875 2.16314,0 2.55417,0.0816 4.14302,0.864581 4.34391,2.14066 6.85267,7.196362 5.7832,11.654406 -0.32765,1.36583 -0.8837,2.15174 -1.18149,1.66991 z m -2.43168,-1.62434 c -0.16693,-0.16693 -0.23435,-0.83633 -0.16105,-1.59911 0.18314,-1.906041 -0.36233,-3.511532 -1.69768,-4.996758 -1.53534,-1.707668 -2.83973,-2.205889 -6.2476,-2.386308 -0.10914,-0.0058 -0.19844,-0.181076 -0.19844,-0.389551 0,-0.901133 2.53784,-0.809727 4.83644,0.174195 1.57869,0.675766 3.43875,2.699305 4.00276,4.354559 0.76057,2.232173 0.3724,5.749803 -0.53443,4.842973 z m -2.38339,-1.1748 c -0.0811,-0.21132 -0.072,-0.50622 0.0201,-0.65536 0.2795,-0.45223 -0.35631,-2.325005 -1.08222,-3.187705 -0.87014,-1.034097 -1.45404,-1.339913 -2.97326,-1.557228 -1.50207,-0.214862 -1.71765,-0.915341 -0.32266,-1.048424 2.92323,-0.278878 6.06507,3.230054 5.44006,6.075677 -0.17527,0.79802 -0.83209,1.02445 -1.08206,0.37304 z m -1.62543,-0.18819 c -0.17996,-0.17995 -0.3272,-0.64451 -0.3272,-1.03234 0,-1.085504 -0.91165,-2.039287 -2.19104,-2.292299 -1.27375,-0.251895 -1.54227,-0.948433 -0.41591,-1.07885 1.67407,-0.193833 3.23254,1.072766 3.66179,2.976009 0.24951,1.10628 -0.18886,1.96626 -0.72764,1.42748 z m -11.81838,24.71562 c -0.75039,-2.09603 -4.70627,-12.38585 -4.88422,-12.70457 -0.11042,-0.19777 -1.42987,2.3883 -3.21684,6.30489 -1.6663,3.65211 -3.06691,6.74258 -3.11248,6.86771 -0.11502,0.31585 1.44682,0.42428 6.88413,0.47793 l 4.68462,0.0462 z m 7.20805,-10.95067 0.87623,-0.36027 -1.67879,-1.10302 c -3.29027,-2.16183 -10.38588,-10.26609 -11.18055,-12.76987 -0.27195,-0.85684 -0.58197,-0.65072 -1.03909,0.69086 -0.87436,2.56608 -0.2954,6.12709 1.43443,8.82279 1.45136,2.26176 4.3484,4.39593 6.80481,5.01293 1.26845,0.31861 3.64969,0.17253 4.78296,-0.29342 z m 2.49281,-2.08006 c -0.0792,-0.74308 -2.47829,-4.81836 -2.92395,-4.96691 -0.15821,-0.0527 -0.48806,0.59676 -0.73301,1.44333 -0.24495,0.84656 -0.49675,1.67574 -0.55957,1.84261 -0.18351,0.48752 2.84217,2.51108 3.61904,2.4204 0.53857,-0.0629 0.65435,-0.20615 0.59749,-0.73943 z m -4.52562,-4.22473 c 0.53079,-1.64808 0.5539,-1.91791 0.21798,-2.54559 -0.20666,-0.38615 -0.5279,-0.76048 -0.71386,-0.83184 -0.18597,-0.0714 -1.00057,0.43621 -1.81025,1.12793 l -1.47212,1.25768 1.40004,1.41765 c 0.77002,0.77971 1.48653,1.41765 1.59225,1.41765 0.10572,0 0.4594,-0.82957 0.78596,-1.84348 z m -2.4656,-3.46944 1.099,-0.9473 -0.74468,-0.71344 -0.74467,-0.71345 -1.89634,0.45513 c -1.04299,0.25032 -1.89635,0.56441 -1.89635,0.69798 0,0.13357 0.4868,0.82429 1.08178,1.53492 1.20649,1.44102 1.04662,1.4572 3.10126,-0.31384 z m 3.96917,-1.23552 c 0.34274,-1.02714 0.0988,-1.09543 -0.73659,-0.20619 -0.51737,0.55072 -0.55975,0.71922 -0.269,1.06955 0.40513,0.48815 0.61464,0.30828 1.00559,-0.86336 z m -1.14075,-1.29223 0.79375,-0.6779 -1.18069,0.17036 c -1.41016,0.20347 -1.50865,0.27697 -1.07358,0.80119 0.43622,0.52561 0.52126,0.50851 1.46052,-0.29365 z m -5.75897,-0.27387 1.75813,-0.44163 -1.17458,-1.03114 c -1.24406,-1.09214 -3.61571,-2.576875 -4.12284,-2.581039 -0.6939,-0.0057 -0.57595,0.936885 0.33391,2.668349 0.52806,1.0049 1.06971,1.82709 1.20368,1.82709 0.13397,0 1.03474,-0.19874 2.0017,-0.44163 z m 8.91507,-0.50332 c 0.49188,-0.49188 0.4961,-0.52724 0.14188,-1.18912 -0.15064,-0.28147 -0.48401,-0.51177 -0.74083,-0.51177 -1.03459,0 -1.49874,1.33009 -0.63892,1.83089 0.62742,0.36544 0.75593,0.35194 1.23787,-0.13 z"
         id="path3861" />
      <path
         style="fill:#1c2418;stroke-width:0.264583"
         d="m 125.02293,128.7621 c -0.0795,-0.0845 -3.69597,-0.20856 -8.03648,-0.2756 -4.3405,-0.067 -8.00232,-0.23239 -8.13737,-0.36744 -0.25178,-0.25179 0.16699,-1.50151 1.44516,-4.31275 l 0.67082,-1.47541 -1.30973,-1.53484 c -2.62788,-3.07955 -4.03219,-5.61071 -5.17441,-9.32649 -0.6546,-2.12948 -0.71545,-2.69874 -0.71545,-6.69306 0,-3.99431 0.0609,-4.56358 0.71545,-6.693053 1.31293,-4.271108 3.24184,-7.42855 6.4429,-10.546419 8.89094,-8.659885 22.94809,-9.033268 32.51084,-0.863546 4.40715,3.765138 7.49115,9.762454 8.05312,15.660508 0.96883,10.16808 -4.24457,19.54263 -13.35562,24.01559 -3.2137,1.57773 -5.91144,2.24507 -9.78958,2.42165 -1.74625,0.0795 -3.24009,0.0754 -3.31965,-0.009 z m 7.10112,-1.38706 c 4.48472,-0.92409 8.32147,-2.9738 11.59492,-6.19436 7.99496,-7.86578 9.14815,-20.21737 2.75148,-29.470495 -3.11266,-4.502618 -7.74603,-7.735913 -13.20837,-9.217165 -1.57677,-0.427583 -2.80614,-0.545336 -5.71325,-0.547233 -3.26571,-0.0021 -3.98603,0.08223 -6.08542,0.712693 -3.26011,0.97904 -5.72754,2.244714 -8.22312,4.218061 -9.77155,7.72674 -11.54108,22.055749 -3.94224,31.922889 0.61637,0.80036 1.37028,1.67928 1.67536,1.95315 0.5462,0.49033 0.55846,0.4883 0.80225,-0.13229 0.53632,-1.36521 3.77554,-8.31508 3.96388,-8.50465 0.1101,-0.11082 -0.22386,-1.05577 -0.74214,-2.09989 -0.90978,-1.83285 -0.94232,-2.00003 -0.94232,-4.84142 0,-2.93598 0.003,-2.94804 1.09614,-5.04385 0.96739,-1.854096 1.1904,-2.11041 1.89875,-2.1823 1.05978,-0.107556 2.47173,0.641381 4.91554,2.60733 l 2.00658,1.61421 1.47187,-0.32939 c 1.08427,-0.24265 1.60843,-0.52117 1.99042,-1.05763 0.99495,-1.397271 3.00534,-1.17831 3.72718,0.40595 0.37238,0.81728 -0.17016,1.94778 -1.20939,2.52005 -0.54989,0.3028 -0.90643,0.82141 -1.2406,1.80453 l -0.46894,1.3796 1.66101,2.48436 c 1.67722,2.50858 2.46156,4.45012 2.16951,5.3703 -0.21041,0.66293 -3.66161,2.14048 -5.50599,2.35725 -2.40499,0.28266 -6.3971,-1.09473 -8.34489,-2.87923 -0.32743,-0.29997 -0.59532,-0.43569 -0.59532,-0.3016 0,0.38261 4.79754,12.90786 5.07926,13.26075 0.54049,0.67703 6.47398,0.79697 9.41784,0.19038 z m 10.64032,-22.53238 c 10e-4,-0.25466 0.12112,-1.19697 0.26671,-2.09402 0.72702,-4.479415 -1.46684,-9.552336 -5.29121,-12.234975 -2.21665,-1.554892 -4.14209,-2.197694 -7.01604,-2.342274 -1.30969,-0.06589 -2.49932,-0.231177 -2.64362,-0.367312 -0.46683,-0.440399 0.45334,-0.746375 2.2573,-0.750599 5.90614,-0.01383 11.43322,4.059762 13.25121,9.766447 0.92718,2.91043 0.63831,8.485753 -0.43967,8.485753 -0.21267,0 -0.38578,-0.20836 -0.38468,-0.46302 z m -3.28072,-0.0199 c -0.0915,-0.14802 -0.0216,-1.11285 0.15519,-2.14406 0.72264,-4.214127 -1.31582,-8.289665 -5.11671,-10.229943 -1.11146,-0.567376 -1.93057,-0.756834 -3.7983,-0.878534 -1.87132,-0.121933 -2.38125,-0.240148 -2.38125,-0.552035 0,-0.324 0.43725,-0.395337 2.38125,-0.388499 2.01096,0.0071 2.61793,0.117992 3.9033,0.713287 4.30877,1.995526 6.86203,6.712852 6.08586,11.244064 -0.29192,1.70421 -0.88793,2.78813 -1.22934,2.23572 z m -2.59101,-1.77083 c -0.0754,-0.0754 -0.08,-0.7311 -0.0102,-1.45713 0.19855,-2.066332 -0.36801,-3.604803 -1.90966,-5.18558 -1.43305,-1.469404 -3.19277,-2.216031 -5.22297,-2.216031 -1.29013,0 -1.4027,-0.696409 -0.15042,-0.930547 3.00503,-0.561852 7.07312,2.113008 8.00961,5.266491 0.40041,1.34835 0.51695,3.494407 0.23031,4.241377 -0.15601,0.40656 -0.66899,0.55906 -0.94663,0.28142 z m -2.1853,-0.89736 c -0.0818,-0.13239 -0.0809,-0.41757 0.002,-0.63373 0.24147,-0.62927 -0.36859,-2.470972 -1.11063,-3.352835 -0.87014,-1.034097 -1.45404,-1.339913 -2.97327,-1.557228 -1.43182,-0.204814 -1.7221,-0.905852 -0.43561,-1.052021 1.10219,-0.125229 2.61115,0.376152 3.57634,1.188305 1.38108,1.162097 2.32515,3.536099 1.96958,4.952789 -0.17111,0.68175 -0.73426,0.93074 -1.02846,0.45472 z m -1.82275,-0.46485 c -0.097,-0.097 -0.17639,-0.5071 -0.17639,-0.91129 0,-1.072313 -1.02256,-2.121805 -2.26397,-2.32359 -1.21464,-0.197433 -1.44977,-0.907299 -0.34298,-1.035449 1.07697,-0.124697 2.53748,0.615758 3.12934,1.586522 0.86934,1.425887 0.5869,3.616697 -0.346,2.683807 z m -11.66757,24.84878 c -0.75039,-2.09603 -4.70627,-12.38585 -4.88422,-12.70457 -0.11042,-0.19777 -1.42987,2.3883 -3.21684,6.30489 -1.6663,3.65211 -3.06691,6.74258 -3.11248,6.86771 -0.11502,0.31585 1.44682,0.42428 6.88413,0.47793 l 4.68462,0.0462 z m 7.20805,-10.95067 0.87623,-0.36027 -1.67879,-1.10302 c -3.29027,-2.16183 -10.38588,-10.26609 -11.18055,-12.76987 -0.27195,-0.85684 -0.58197,-0.65072 -1.03909,0.69086 -0.87436,2.56608 -0.2954,6.12709 1.43443,8.82279 1.45136,2.26176 4.3484,4.39593 6.80481,5.01293 1.26845,0.31861 3.64969,0.17253 4.78296,-0.29342 z m 2.49281,-2.08006 c -0.0789,-0.74006 -2.47745,-4.81808 -2.92072,-4.96583 -0.21132,-0.0704 -1.37437,2.91166 -1.37437,3.52393 0,0.0494 0.68165,0.57799 1.51479,1.17458 1.77352,1.26999 2.89875,1.37818 2.7803,0.26732 z m -4.52562,-4.22473 c 0.53079,-1.64808 0.5539,-1.91791 0.21798,-2.54559 -0.20666,-0.38615 -0.5279,-0.76048 -0.71386,-0.83184 -0.18597,-0.0714 -1.00057,0.43621 -1.81025,1.12793 l -1.47212,1.25768 1.40004,1.41765 c 0.77002,0.77971 1.48653,1.41765 1.59225,1.41765 0.10572,0 0.4594,-0.82957 0.78596,-1.84348 z m -2.59541,-3.34125 1.22026,-1.08369 -0.7404,-0.70934 -0.7404,-0.70935 -1.89634,0.45513 c -1.04299,0.25032 -1.89635,0.56441 -1.89635,0.69798 0,0.13357 0.48717,0.82473 1.08261,1.53591 1.1996,1.4328 1.14312,1.43635 2.97062,-0.18664 z m 4.08854,-1.16527 c 0.31033,-1.2226 0.1344,-1.32064 -0.72615,-0.40463 -0.50946,0.54229 -0.55689,0.72266 -0.27831,1.05833 0.51671,0.62259 0.71291,0.4949 1.00446,-0.6537 z m -1.13031,-1.49067 0.79375,-0.6779 -1.18069,0.17036 c -1.41016,0.20347 -1.50865,0.27697 -1.07358,0.80119 0.43622,0.52561 0.52126,0.50851 1.46052,-0.29365 z m -5.75897,-0.27387 1.75813,-0.44163 -1.17458,-1.03114 c -1.24406,-1.09214 -3.61571,-2.576875 -4.12284,-2.581039 -0.6939,-0.0057 -0.57595,0.936885 0.33391,2.668349 0.52806,1.0049 1.06971,1.82709 1.20368,1.82709 0.13397,0 1.03474,-0.19874 2.0017,-0.44163 z m 8.91507,-0.50332 c 0.49188,-0.49188 0.4961,-0.52724 0.14188,-1.18912 -0.15064,-0.28147 -0.48401,-0.51177 -0.74083,-0.51177 -1.03459,0 -1.49874,1.33009 -0.63892,1.83089 0.62742,0.36544 0.75593,0.35194 1.23787,-0.13 z"
         id="path3859" />
      <path
         style="fill:#010100;stroke-width:0.264583"
         d="m 125.54876,128.7591 c -0.0814,-0.0866 -3.82141,-0.21527 -8.31115,-0.28603 -4.48974,-0.0708 -8.27047,-0.23596 -8.40163,-0.36712 -0.23273,-0.23272 0.23072,-1.52553 1.75418,-4.8934 0.38314,-0.847 0.58708,-1.47231 0.45321,-1.38957 -0.13388,0.0827 -0.85156,-0.51497 -1.59485,-1.32825 -6.90871,-7.55924 -7.76288,-20.11538 -1.96375,-28.866923 6.75312,-10.191237 19.92071,-13.701901 30.91048,-8.241173 8.11852,4.034024 13.08707,12.080353 13.11451,21.238316 0.0133,4.43236 -0.5988,7.16977 -2.40346,10.74888 -4.06166,8.05535 -11.52972,12.90333 -20.63143,13.39314 -1.52797,0.0822 -2.84472,0.0787 -2.92611,-0.008 z m 6.611,-1.35666 c 11.68331,-2.45766 19.63507,-13.25701 18.33405,-24.89962 -1.28125,-11.46561 -10.22319,-19.955375 -21.75436,-20.654281 -7.39416,-0.448162 -14.98827,3.055856 -19.47203,8.984637 -1.60514,2.122444 -3.3966,5.843606 -4.10144,8.519378 -0.78794,2.991256 -0.79569,7.614946 -0.0181,10.795356 0.93524,3.8252 2.63007,7.07741 5.19079,9.96065 l 1.11949,1.26049 2.0793,-4.5878 c 1.14362,-2.52329 2.17629,-4.62013 2.29483,-4.65964 0.11854,-0.0395 -0.23284,-0.96419 -0.78084,-2.05483 -0.97154,-1.93355 -0.99637,-2.05551 -0.99637,-4.89339 0,-2.90732 10e-4,-2.91274 1.12743,-5.09323 1.03579,-2.005385 1.19257,-2.182815 1.92877,-2.182815 1.10772,0 2.49752,0.762286 4.8711,2.671735 l 2.02345,1.62778 1.59758,-0.33903 c 1.21791,-0.25846 1.66278,-0.48215 1.87196,-0.94125 0.15092,-0.33122 0.63248,-0.75054 1.07013,-0.931824 0.98153,-0.406561 1.99293,0.0597 2.5235,1.163344 0.44301,0.92154 -0.005,1.94824 -1.11683,2.5606 -0.55365,0.30488 -0.90684,0.82264 -1.25017,1.83268 l -0.47851,1.40777 1.1717,1.64198 c 1.30729,1.83202 2.78332,4.77875 2.78364,5.55726 2.4e-4,0.59507 -0.7257,1.47604 -1.2163,1.47604 -0.18741,0 -0.7345,0.22891 -1.21576,0.50868 -1.40785,0.81844 -3.80766,1.17436 -5.6486,0.83776 -1.84816,-0.33792 -4.55167,-1.60023 -5.82879,-2.72156 l -0.90102,-0.79111 0.36395,1.01697 c 1.24745,3.48567 4.74807,12.4465 4.96489,12.70907 0.35136,0.42549 1.15692,0.52477 4.63589,0.57138 1.75903,0.0236 3.71666,-0.11968 4.82667,-0.35318 z m 10.60261,-22.53811 c 0,-0.24274 0.12967,-1.18597 0.28816,-2.09607 0.88198,-5.064717 -2.17439,-10.932548 -6.9043,-13.255337 -2.1518,-1.056716 -3.58402,-1.390473 -6.0021,-1.398693 -1.8671,-0.0063 -2.65506,-0.34851 -1.90159,-0.825748 0.56611,-0.358571 3.36324,-0.272819 5.19599,0.159295 4.73441,1.11625 8.72051,4.802613 10.13419,9.37215 0.90707,2.931953 0.62978,8.485753 -0.42367,8.485753 -0.21267,0 -0.38668,-0.19861 -0.38668,-0.44135 z m -3.27547,-1.05399 c 0.12802,-0.56001 0.22377,-1.9707 0.21278,-3.13487 -0.0162,-1.716697 -0.15229,-2.393509 -0.72019,-3.581736 -0.9864,-2.06386 -2.27869,-3.467262 -4.06836,-4.418154 -1.70605,-0.906461 -2.83608,-1.180174 -5.07097,-1.228287 -1.14047,-0.02455 -1.49758,-0.126879 -1.49758,-0.429115 0,-0.323643 0.44116,-0.396509 2.39084,-0.394891 2.15807,0.0018 2.56006,0.08528 4.12883,0.857589 3.30853,1.628787 5.67734,5.098709 5.94381,8.706724 0.16601,2.24783 -0.33512,4.40793 -1.05458,4.5457 -0.44798,0.0858 -0.47424,-0.006 -0.26458,-0.92296 z m -2.56792,-0.81977 c -0.0124,-0.10914 -0.004,-0.8107 0.0179,-1.55903 0.11826,-3.980815 -2.40556,-6.774032 -6.46305,-7.152927 -1.84178,-0.171988 -2.17621,-0.459698 -1.03756,-0.892613 0.82168,-0.312404 3.10572,0.04163 4.32015,0.669634 1.36359,0.70514 2.66208,2.01924 3.36403,3.404463 1.05313,2.078254 1.18884,5.728913 0.21296,5.728913 -0.21551,0 -0.40198,-0.0893 -0.41439,-0.19844 z m -2.17748,-0.76688 c -0.0944,-0.0944 -0.10532,-0.43556 -0.0243,-0.75822 0.26979,-1.0749 -0.37146,-2.667633 -1.47564,-3.665192 -1.01045,-0.912886 -1.48951,-1.124138 -2.91186,-1.28407 -0.3991,-0.04488 -0.69629,-0.270844 -0.75398,-0.573289 -0.0858,-0.450138 0.0393,-0.486295 1.27268,-0.36778 2.33212,0.224087 4.24285,1.968084 4.78373,4.366302 0.36626,1.623939 -0.17131,3.001529 -0.89059,2.282249 z m -1.85691,-0.53398 c -0.097,-0.097 -0.17639,-0.56268 -0.17639,-1.03482 0,-1.060987 -1.24992,-2.228378 -2.38593,-2.228378 -0.86286,0 -1.30118,-0.474488 -0.75682,-0.81928 0.93354,-0.59129 2.93202,0.196602 3.70217,1.459562 0.84021,1.377846 0.52569,3.531626 -0.38303,2.622916 z m -11.66918,24.84878 c -0.91597,-2.54698 -4.66584,-12.318 -4.86154,-12.66769 -0.15458,-0.27623 -1.10966,1.56201 -3.20578,6.17019 -1.64208,3.61001 -3.04161,6.703 -3.11006,6.87332 -0.1872,0.46581 0.63204,0.54103 6.32042,0.58034 l 5.21378,0.036 z m 7.39049,-10.97849 0.66718,-0.34957 -1.66468,-1.09447 c -3.27933,-2.15603 -10.37374,-10.26371 -11.16644,-12.7613 -0.42925,-1.35242 -1.20485,0.14853 -1.39785,2.70511 -0.39468,5.22811 3.46057,10.52745 8.60104,11.82277 1.26149,0.31788 4.08939,0.13401 4.96075,-0.32254 z m 2.38063,-1.52002 c 0.23069,-0.37327 -0.68856,-2.33099 -2.00423,-4.26839 l -1.12858,-1.66192 -0.61547,1.82454 c -0.3385,1.0035 -0.61546,1.91386 -0.61546,2.02303 0,0.10916 0.67422,0.68128 1.49828,1.27138 1.4541,1.04125 2.53434,1.34713 2.86546,0.81136 z m -4.55052,-4.86097 0.65479,-1.94751 -0.65452,-0.83632 -0.65452,-0.83632 -1.5807,1.36939 -1.58071,1.36939 1.39687,1.41443 c 0.76828,0.77794 1.47947,1.41444 1.58043,1.41444 0.10096,0 0.47823,-0.87637 0.83836,-1.9475 z m -2.63916,-3.23723 1.22026,-1.08369 -0.7404,-0.70934 -0.7404,-0.70935 -1.89634,0.45513 c -1.04299,0.25032 -1.89558,0.58093 -1.89464,0.7347 9.5e-4,0.15376 0.48688,0.84562 1.07986,1.53744 1.19567,1.39499 1.14319,1.39896 2.97166,-0.22489 z m 4.09587,-1.08567 c 0.38733,-1.26205 0.20594,-1.41115 -0.66147,-0.54374 -0.58805,0.58805 -0.64438,0.76352 -0.35646,1.11044 0.50837,0.61256 0.68643,0.51343 1.01793,-0.5667 z m -1.24152,-1.42275 c 1.00176,-0.71331 0.761,-1.06649 -0.49351,-0.72394 -1.23517,0.33727 -1.27336,0.37577 -0.86313,0.87007 0.42464,0.51166 0.43433,0.51062 1.35664,-0.14613 z m -5.65564,-0.42125 1.75756,-0.44149 -1.04173,-0.90795 c -3.34401,-2.914568 -5.559,-3.496993 -4.53019,-1.19119 0.74314,1.66555 1.53156,2.98212 1.78582,2.98212 0.14903,0 1.06188,-0.19867 2.02854,-0.44149 z m 8.91562,-0.50346 c 0.49188,-0.49188 0.4961,-0.52724 0.14188,-1.18912 -0.15064,-0.28147 -0.48401,-0.51177 -0.74083,-0.51177 -1.03459,0 -1.49874,1.33009 -0.63892,1.83089 0.62742,0.36544 0.75593,0.35194 1.23787,-0.13 z"
         id="path3857" />
    </g>
  </g>
</svg>
