<?xml version="1.0" encoding="UTF-8" standalone="no"?>
<!-- Created with Inkscape (http://www.inkscape.org/) -->

<svg
   width="124.35416mm"
   height="97.631248mm"
   viewBox="0 0 124.35416 97.631248"
   version="1.1"
   id="svg4311"
   inkscape:version="1.1 (c68e22c387, 2021-05-23)"
   sodipodi:docname="fast.svg"
   xmlns:inkscape="http://www.inkscape.org/namespaces/inkscape"
   xmlns:sodipodi="http://sodipodi.sourceforge.net/DTD/sodipodi-0.dtd"
   xmlns="http://www.w3.org/2000/svg"
   xmlns:svg="http://www.w3.org/2000/svg">
  <sodipodi:namedview
     id="namedview4313"
     pagecolor="#ffffff"
     bordercolor="#666666"
     borderopacity="1.0"
     inkscape:pageshadow="2"
     inkscape:pageopacity="0.0"
     inkscape:pagecheckerboard="0"
     inkscape:document-units="mm"
     showgrid="false"
     inkscape:zoom="0.74118967"
     inkscape:cx="499.19746"
     inkscape:cy="385.19155"
     inkscape:window-width="1920"
     inkscape:window-height="1017"
     inkscape:window-x="-8"
     inkscape:window-y="-8"
     inkscape:window-maximized="1"
     inkscape:current-layer="layer1" />
  <defs
     id="defs4308" />
  <g
     inkscape:label="Ebene 1"
     inkscape:groupmode="layer"
     id="layer1"
     transform="translate(27.193905,-46.852646)">
    <g
       id="g4551">
      <path
         style="fill:#d2d1d1;stroke-width:0.264583"
         d="m 73.28161,144.02148 c 2.073672,-0.0447 5.466953,-0.0447 7.540625,0 2.073672,0.0447 0.377031,0.0813 -3.770312,0.0813 -4.147344,0 -5.843984,-0.0366 -3.770313,-0.0813 z m -79.3088495,-0.43277 c 0,-0.0558 0.2382893,-0.16374 0.5295318,-0.23991 0.2912425,-0.0762 0.4628094,-0.0305 0.3812601,0.10144 -0.1424123,0.23042 -0.9107919,0.34725 -0.9107919,0.13847 z m 75.1932435,-0.56002 c 0.0054,-0.43657 0.06469,-0.58313 0.131773,-0.3257 0.06708,0.25743 0.06267,0.61462 -0.0098,0.79375 -0.07248,0.17913 -0.127363,-0.0315 -0.121971,-0.46805 z m -78.5910502,-0.92605 c 0,-0.3638 0.060053,-0.51263 0.1334521,-0.33073 0.073399,0.18191 0.073399,0.47956 0,0.66146 -0.073399,0.1819 -0.1334521,0.0331 -0.1334521,-0.33073 z m 78.8458282,-1.05833 c 0,-0.3638 0.06005,-0.51263 0.133453,-0.33073 0.0734,0.1819 0.0734,0.47956 0,0.66146 -0.0734,0.1819 -0.133453,0.0331 -0.133453,-0.33073 z m -79.1006077,-0.66146 c 0.00539,-0.43656 0.06469,-0.58312 0.1317736,-0.32569 0.067083,0.25743 0.062672,0.61462 -0.0098,0.79375 -0.072476,0.17913 -0.127363,-0.0315 -0.1219708,-0.46806 z m 79.3990887,-2.11666 c 0.0021,-0.72761 0.05337,-0.99386 0.114187,-0.59168 0.06082,0.40218 0.05919,0.9975 -0.0036,1.32292 -0.0628,0.32542 -0.112559,-0.004 -0.110574,-0.73124 z m -79.6485288,0 c 0.00294,-0.58209 0.057119,-0.78906 0.120406,-0.45994 0.063287,0.32912 0.060884,0.80537 -0.00534,1.05833 -0.066223,0.25297 -0.1180034,-0.0163 -0.115066,-0.59839 z m 4.452081,0.24253 c 0.012695,-0.30822 0.075391,-0.37092 0.1598525,-0.15985 0.076431,0.19099 0.067031,0.4192 -0.020889,0.50712 -0.087919,0.0879 -0.1504529,-0.0684 -0.1389645,-0.34727 z M 35.512342,138.034 c 0,-0.0549 0.208359,-0.2633 0.46302,-0.46302 0.419645,-0.32911 0.429004,-0.31975 0.0999,0.0999 -0.345644,0.44073 -0.562917,0.58089 -0.562917,0.36313 z m -3.737917,-0.62771 c -0.329107,-0.41965 -0.319749,-0.429 0.0999,-0.0999 0.254661,0.19972 0.463021,0.40808 0.463021,0.46302 0,0.21777 -0.217273,0.0776 -0.562917,-0.36312 z m 54.029636,-0.48507 c 0.0127,-0.30822 0.07539,-0.37092 0.159851,-0.15985 0.07643,0.19099 0.06703,0.4192 -0.02088,0.50712 -0.08792,0.0879 -0.150452,-0.0684 -0.138964,-0.34727 z m -60.854163,-0.26458 c 0.0127,-0.30823 0.07539,-0.37092 0.15985,-0.15986 0.07643,0.191 0.06703,0.41921 -0.02088,0.50712 -0.08792,0.0879 -0.150453,-0.0683 -0.138965,-0.34726 z m 6.116108,-1.03629 c 0.0054,-0.43656 0.06469,-0.58312 0.131773,-0.32569 0.06708,0.25743 0.06267,0.61462 -0.0098,0.79375 -0.07248,0.17913 -0.127363,-0.0315 -0.12197,-0.46806 z m -41.284802,-1.19062 c 0,-0.3638 0.06005,-0.51263 0.133452,-0.33073 0.0734,0.1819 0.0734,0.47956 0,0.66146 -0.0734,0.1819 -0.133452,0.0331 -0.133452,-0.33073 z m 35.18958,0 c 0,-0.3638 0.06006,-0.51263 0.133453,-0.33073 0.0734,0.1819 0.0734,0.47956 0,0.66146 -0.0734,0.1819 -0.133453,0.0331 -0.133453,-0.33073 z m 44.752091,-0.79375 c 0,-0.80037 0.0496,-1.12779 0.110223,-0.72761 0.06062,0.40019 0.06062,1.05503 0,1.45521 -0.06062,0.40018 -0.110223,0.0728 -0.110223,-0.7276 z m -33.9797,0.0661 c -0.329108,-0.41964 -0.319749,-0.429 0.0999,-0.0999 0.254661,0.19972 0.463021,0.40808 0.463021,0.46302 0,0.21776 -0.217274,0.0776 -0.562917,-0.36313 z m 50.060886,-1.01423 c 0.0127,-0.30823 0.07539,-0.37092 0.159851,-0.15986 0.07643,0.191 0.06703,0.41921 -0.02088,0.50712 -0.08792,0.0879 -0.150452,-0.0683 -0.138964,-0.34726 z m -16.383279,-1.96233 c 0,-0.3638 0.06005,-0.51263 0.133453,-0.33073 0.0734,0.1819 0.0734,0.47956 0,0.66146 -0.0734,0.1819 -0.133453,0.0331 -0.133453,-0.33073 z m -43.168857,0.16469 c 0,-0.0549 0.20836,-0.2633 0.463021,-0.46302 0.419645,-0.32911 0.429004,-0.31975 0.0999,0.0999 -0.345643,0.44073 -0.562917,0.58089 -0.562917,0.36313 z m -36.2061379,-1.22302 c 0,-0.3638 0.060053,-0.51263 0.1334521,-0.33073 0.073399,0.1819 0.073399,0.47956 0,0.66146 -0.073399,0.1819 -0.1334521,0.0331 -0.1334521,-0.33073 z m 0.243695,-2.00643 c 0.012695,-0.30822 0.075391,-0.37091 0.1598525,-0.15985 0.07643,0.191 0.067031,0.4192 -0.020889,0.50712 -0.087919,0.0879 -0.1504529,-0.0684 -0.1389645,-0.34727 z m 5.0577753,-0.50711 c 0.00539,-0.43657 0.06469,-0.58313 0.1317736,-0.3257 0.067083,0.25743 0.062672,0.61462 -0.0098,0.79375 -0.072476,0.17913 -0.127363,-0.0315 -0.1219708,-0.46805 z m 76.4129986,-4.8948 c 0.509323,-0.27884 1.045104,-0.50698 1.190625,-0.50698 0.145521,0 -0.152135,0.22814 -0.661458,0.50698 -0.509323,0.27885 -1.045104,0.50699 -1.190625,0.50699 -0.145521,0 0.152135,-0.22814 0.661458,-0.50699 z m 2.116667,-0.92604 c 0.363802,-0.20796 0.780521,-0.37812 0.926042,-0.37812 0.14552,0 -0.03307,0.17016 -0.396875,0.37812 -0.363803,0.20797 -0.780521,0.37813 -0.926042,0.37813 -0.145521,0 0.03307,-0.17016 0.396875,-0.37813 z m 1.852083,-0.79375 c 0.363802,-0.20796 0.780521,-0.37812 0.926042,-0.37812 0.145521,0 -0.03307,0.17016 -0.396875,0.37812 -0.363802,0.20797 -0.780521,0.37813 -0.926042,0.37813 -0.145521,0 0.03307,-0.17016 0.396875,-0.37813 z m 1.852083,-0.79375 c 0.363802,-0.20796 0.780521,-0.37812 0.926042,-0.37812 0.145521,0 -0.03307,0.17016 -0.396875,0.37812 -0.363802,0.20797 -0.780521,0.37813 -0.926042,0.37813 -0.14552,0 0.03307,-0.17016 0.396875,-0.37813 z m 1.852084,-0.79375 c 0.363802,-0.20796 0.78052,-0.37812 0.926041,-0.37812 0.145521,0 -0.03307,0.17016 -0.396875,0.37812 -0.363802,0.20797 -0.780521,0.37813 -0.926041,0.37813 -0.145521,0 0.03307,-0.17016 0.396875,-0.37813 z m -86.762441,-0.28663 c 0.012695,-0.30822 0.075391,-0.37092 0.1598525,-0.15985 0.076431,0.19099 0.067031,0.4192 -0.020889,0.50712 -0.087919,0.0879 -0.150453,-0.0684 -0.1389645,-0.34727 z m 88.349941,-0.37483 c 0.218281,-0.14106 0.575468,-0.24993 0.793749,-0.24193 0.261689,0.01 0.216625,0.092 -0.132291,0.24193 -0.727364,0.31256 -1.145109,0.31256 -0.661458,0 z m -87.8335593,-1.19062 c 0,-0.14552 0.115416,-0.44318 0.2564802,-0.66146 0.1410642,-0.21828 0.2564802,-0.27781 0.2564802,-0.13229 0,0.14552 -0.115416,0.44318 -0.2564802,0.66146 -0.1410642,0.21828 -0.2564802,0.27781 -0.2564802,0.13229 z m 0.5291666,-1.32292 c 0,-0.14552 0.115416,-0.44317 0.2564802,-0.66146 0.1410642,-0.21828 0.2564802,-0.27781 0.2564802,-0.13229 0,0.14552 -0.115416,0.44318 -0.2564802,0.66146 -0.1410642,0.21828 -0.2564802,0.27781 -0.2564802,0.13229 z m 88.3627257,-0.11667 c 0,-0.13694 0.1177,-0.32172 0.261554,-0.41062 0.149981,-0.0927 0.194336,0.0135 0.103984,0.24897 -0.175893,0.45837 -0.365538,0.54223 -0.365538,0.16165 z M 1.3810935,114.75067 c 0,-0.055 0.2083593,-0.2633 0.4630208,-0.46303 0.419645,-0.3291 0.4290033,-0.31974 0.099896,0.0999 -0.3456438,0.44073 -0.5629169,0.58089 -0.5629168,0.36313 z m 1.1906249,-1.48761 c 0.2633901,-0.29104 0.5384218,-0.52917 0.6111822,-0.52917 0.07276,0 -0.083209,0.23813 -0.3465989,0.52917 -0.26339,0.29104 -0.5384217,0.52917 -0.6111822,0.52917 -0.07276,0 0.083209,-0.23813 0.3465989,-0.52917 z m 2.2489582,-2.47279 c 0.9458854,-0.99053 2.3151041,-2.28909 3.0427082,-2.8857 1.517298,-1.24413 1.228881,-0.94615 -2.2489582,2.32355 -2.0522326,1.92941 -2.1979095,2.03258 -0.79375,0.56215 z m 55.2641634,0.42227 c -0.329107,-0.41964 -0.319749,-0.429 0.0999,-0.0999 0.44073,0.34565 0.580888,0.56292 0.363125,0.56292 -0.05494,0 -0.2633,-0.20836 -0.463021,-0.46302 z m -63.9954129,-0.33073 c 0.1557607,-0.29104 0.3427328,-0.52917 0.4154932,-0.52917 0.07276,0 0.00485,0.23813 -0.1509099,0.52917 -0.1557607,0.29104 -0.3427328,0.52917 -0.4154932,0.52917 -0.07276,0 -0.00485,-0.23813 0.1509099,-0.52917 z m 62.4625519,-1.61264 c -0.01148,-0.23211 0.247002,-0.64882 0.574424,-0.92604 0.590243,-0.49974 0.591664,-0.49952 0.166817,0.0251 -0.235672,0.29104 -0.494165,0.70776 -0.574424,0.92604 -0.123859,0.33685 -0.14909,0.33305 -0.166817,-0.0251 z m -61.1396353,-0.50403 c 0.1557607,-0.29104 0.3427327,-0.52916 0.4154932,-0.52916 0.07276,0 0.00485,0.23812 -0.1509099,0.52916 -0.1557607,0.29105 -0.3427328,0.52917 -0.4154932,0.52917 -0.07276,0 -0.00485,-0.23812 0.1509099,-0.52917 z m 0.5291666,-0.89364 c 0,-0.0549 0.2083594,-0.2633 0.4630208,-0.46302 0.419644,-0.32911 0.4290023,-0.31975 0.099895,0.0999 -0.3456435,0.44073 -0.5629156,0.58089 -0.5629156,0.36313 z m 61.6479137,-0.26458 c 0,-0.055 0.208359,-0.2633 0.46302,-0.46303 0.419646,-0.3291 0.429004,-0.31974 0.0999,0.0999 -0.345644,0.44073 -0.562917,0.58089 -0.562917,0.36313 z m -60.8541637,-0.79375 c 0,-0.055 0.2083593,-0.2633 0.46302079,-0.46303 0.41964501,-0.3291 0.42900333,-0.31974 0.0998961,0.0999 -0.34564479,0.44073 -0.56291689,0.58089 -0.56291689,0.36313 z m 10.5833327,0 c 0,-0.055 0.2083594,-0.2633 0.4630209,-0.46303 0.4196451,-0.3291 0.4290031,-0.31974 0.099896,0.0999 -0.3456437,0.44073 -0.5629169,0.58089 -0.5629169,0.36313 z m 51.064581,-0.26459 c 0,-0.0549 0.208359,-0.2633 0.46302,-0.46302 0.419645,-0.32911 0.429004,-0.31975 0.0999,0.0999 -0.345644,0.44073 -0.562917,0.58088 -0.562917,0.36312 z m -60.45728879,-1.22302 c 0.26339005,-0.29104 0.53842177,-0.52917 0.61118218,-0.52917 0.0727604,0 -0.0832088,0.23813 -0.34659886,0.52917 -0.26339005,0.29104 -0.53842176,0.52917 -0.61118217,0.52917 -0.0727604,0 0.0832088,-0.23813 0.34659885,-0.52917 z m 9.62354089,-0.19844 c -0.3291072,-0.41964 -0.3197489,-0.429 0.099896,-0.0999 0.2546614,0.19972 0.4630209,0.40808 0.4630209,0.46302 0,0.21776 -0.2172733,0.0776 -0.562917,-0.36313 z m 51.6274979,0.36313 c 0,-0.0549 0.208359,-0.2633 0.46302,-0.46302 0.419645,-0.32911 0.429004,-0.31975 0.0999,0.0999 -0.345643,0.44073 -0.562916,0.58089 -0.562916,0.36313 z m 13.473723,-1.42146 -0.641432,-0.7276 0.727604,0.64143 c 0.400182,0.35279 0.727604,0.68021 0.727604,0.7276 0,0.20751 -0.21426,0.0386 -0.813776,-0.64143 z M 1.3810935,103.60577 c 0.4936542,-0.50932 0.9570851,-0.92604 1.0298456,-0.92604 0.07276,0 -0.271608,0.41672 -0.7652623,0.92604 -0.4936543,0.50932 -0.95708519,0.92604 -1.0298456,0.92604 -0.0727604,0 0.271608,-0.41672 0.7652623,-0.92604 z m 60.5895805,0.82615 c 0,-0.055 0.208359,-0.2633 0.46302,-0.46303 0.419645,-0.3291 0.429004,-0.31974 0.0999,0.0999 -0.345643,0.44073 -0.562916,0.58089 -0.562916,0.36313 z m -53.7441645,-0.8923 c -0.3291072,-0.41964 -0.3197489,-0.429 0.099896,-0.0999 0.4407297,0.34564 0.5808874,0.56291 0.3631247,0.56291 -0.054941,0 -0.2633001,-0.20835 -0.4630208,-0.46302 z m 54.5379145,-0.16604 c 0,-0.0549 0.208359,-0.2633 0.46302,-0.46302 0.419645,-0.32911 0.429004,-0.31975 0.0999,0.0999 -0.345643,0.44073 -0.562916,0.58088 -0.562916,0.36312 z M 3.3654684,101.35681 c 0.5683884,-0.58208 1.0929672,-1.05833 1.1657276,-1.05833 0.07276,0 -0.3327558,0.47625 -0.9011443,1.05833 -0.5683885,0.58208 -1.0929673,1.05833 -1.1657277,1.05833 -0.07276,0 0.3327559,-0.47625 0.9011444,-1.05833 z m 3.5381245,0.59531 c -0.3291072,-0.41964 -0.3197489,-0.429 0.099896,-0.0999 0.4407297,0.34564 0.5808874,0.56291 0.3631247,0.56291 -0.054941,0 -0.2633001,-0.20835 -0.4630208,-0.46302 z m 56.6545801,0.36313 c 0,-0.0549 0.20836,-0.2633 0.463021,-0.46302 0.419645,-0.32911 0.429004,-0.31975 0.0999,0.0999 -0.345643,0.44073 -0.562917,0.58089 -0.562917,0.36313 z m 0.79375,-1.05833 c 0,-0.0549 0.20836,-0.2633 0.463021,-0.46303 0.419645,-0.3291 0.429004,-0.31974 0.0999,0.0999 -0.345643,0.44073 -0.562917,0.58089 -0.562917,0.36313 z m 6.06539,-1.421463 -0.641432,-0.727604 0.727605,0.641432 c 0.400182,0.352795 0.727604,0.680215 0.727604,0.727605 0,0.20751 -0.21426,0.0386 -0.813777,-0.641433 z m -5.27164,0.363123 c 0,-0.0549 0.20836,-0.263298 0.463021,-0.463019 0.419645,-0.329107 0.429004,-0.319749 0.0999,0.0999 -0.345643,0.440729 -0.562917,0.580879 -0.562917,0.363119 z M 38.885779,99.594083 c 0.181901,-0.0734 0.479557,-0.0734 0.661458,0 0.181901,0.0734 0.03307,0.133454 -0.330729,0.133454 -0.363802,0 -0.51263,-0.06006 -0.330729,-0.133454 z m -1.150414,-0.458406 c -0.07789,-0.202978 -0.09417,-0.828056 -0.03617,-1.389063 0.101965,-0.986335 0.106912,-0.979244 0.149923,0.214712 0.02532,0.702779 0.186963,1.292215 0.375206,1.368174 0.259043,0.104526 0.257243,0.13798 -0.0083,0.154339 -0.186471,0.01148 -0.402762,-0.145184 -0.480653,-0.348162 z m -8.374586,-0.07076 c 0.181902,-0.0734 0.479558,-0.0734 0.661459,0 0.181901,0.0734 0.03307,0.133453 -0.330729,0.133453 -0.363802,0 -0.512631,-0.06005 -0.33073,-0.133453 z m 37.297769,-0.624158 c 0.468278,-0.491297 0.896241,-0.839843 0.951026,-0.774546 0.05479,0.0653 -0.328351,0.46727 -0.851416,0.89327 l -0.951026,0.774547 z m 2.422125,0.336365 c -0.329107,-0.419645 -0.319749,-0.429003 0.0999,-0.0999 0.44073,0.345644 0.580887,0.562917 0.363125,0.562917 -0.05494,0 -0.2633,-0.208359 -0.463021,-0.463021 z M 32.6437,98.181812 c 0,-0.363802 0.06005,-0.512631 0.133453,-0.33073 0.0734,0.181901 0.0734,0.479558 0,0.661459 -0.0734,0.181901 -0.133453,0.03307 -0.133453,-0.330729 z m -0.234296,-3.175 c 0,-0.654844 0.0516,-0.922735 0.114662,-0.595313 0.06307,0.327422 0.06307,0.863203 0,1.190625 -0.06306,0.327422 -0.114662,0.05953 -0.114662,-0.595312 z m 28.740903,0.661458 c 0.446013,-0.86301 0.812392,-1.341456 0.810431,-1.058333 -0.0011,0.145521 -0.2453,0.562239 -0.542872,0.926041 -0.359362,0.439344 -0.449207,0.483767 -0.267559,0.132292 z M 10.64151,95.68689 c 0,-0.07276 0.238125,-0.259734 0.529166,-0.415494 0.291042,-0.15576 0.529167,-0.223671 0.529167,-0.15091 0,0.07276 -0.238125,0.259733 -0.529167,0.415493 -0.291041,0.155761 -0.529166,0.223671 -0.529166,0.150911 z m 27.327755,-2.39987 c 0.0021,-0.727604 0.05337,-0.993857 0.114186,-0.591674 0.06082,0.402182 0.05919,0.997495 -0.0036,1.322916 -0.0628,0.325422 -0.112559,-0.0036 -0.110575,-0.731242 z M 15.139426,93.033192 c 0,-0.07276 0.47625,-0.375256 1.058333,-0.672214 0.582084,-0.296957 1.058334,-0.48039 1.058334,-0.40763 0,0.07276 -0.47625,0.375256 -1.058334,0.672214 -0.582083,0.296957 -1.058333,0.48039 -1.058333,0.40763 z M 32.14482,91.302645 c 0,-0.654844 0.0516,-0.922734 0.114663,-0.595312 0.06307,0.327421 0.06307,0.863203 0,1.190625 -0.06306,0.327421 -0.114663,0.05953 -0.114663,-0.595313 z m 6.034244,-2.564072 c -0.01148,-0.609875 0.07329,-1.167071 0.188399,-1.238213 0.115109,-0.07114 0.16601,0.308788 0.113115,0.844283 -0.144632,1.464249 -0.27807,1.638583 -0.301514,0.39393 z m -12.241331,0.0021 c 0.190995,-0.07643 0.419198,-0.06703 0.507119,0.02088 0.08792,0.08792 -0.06835,0.150452 -0.347266,0.138964 -0.308226,-0.0127 -0.370919,-0.07539 -0.159853,-0.159851 z m 5.891331,-0.238183 c 0.0127,-0.308227 0.07539,-0.37092 0.159851,-0.159853 0.07643,0.190994 0.06703,0.419197 -0.02088,0.507118 -0.08792,0.08792 -0.150453,-0.06835 -0.138964,-0.347265 z m -3.510081,-0.290984 c 0.190994,-0.07643 0.419198,-0.06703 0.507119,0.02088 0.08792,0.08792 -0.06835,0.150453 -0.347266,0.138964 -0.308226,-0.0127 -0.370919,-0.07539 -0.159853,-0.15985 z m 1.30638,-0.259072 c 0.181901,-0.0734 0.479557,-0.0734 0.661458,0 0.181901,0.0734 0.03307,0.133453 -0.330729,0.133453 -0.363802,0 -0.51263,-0.06006 -0.330729,-0.133453 z M 43.664815,87.68234 c 0.190995,-0.07643 0.419201,-0.06703 0.507119,0.02088 0.08792,0.08792 -0.06835,0.150453 -0.347266,0.138965 -0.308226,-0.0127 -0.370919,-0.07539 -0.159853,-0.159851 z m -1.604036,-0.259072 c 0.181901,-0.0734 0.479557,-0.0734 0.661458,0 0.181901,0.0734 0.03307,0.133453 -0.330729,0.133453 -0.363802,0 -0.51263,-0.06005 -0.330729,-0.133453 z m 39.001669,-8.02689 c 0,-0.363802 0.06005,-0.51263 0.133453,-0.330729 0.0734,0.181901 0.0734,0.479557 0,0.661458 -0.0734,0.181902 -0.133453,0.03307 -0.133453,-0.330729 z M 26.272814,79.242056 c 0.0127,-0.308226 0.07539,-0.370919 0.159851,-0.159853 0.07643,0.190994 0.06703,0.419198 -0.02088,0.507119 -0.08792,0.08792 -0.150452,-0.06835 -0.138964,-0.347266 z m 5.607423,-2.491494 c 0,-0.654844 0.0516,-0.922734 0.114663,-0.595312 0.06307,0.327421 0.06307,0.863203 0,1.190625 -0.06306,0.327421 -0.114663,0.05953 -0.114663,-0.595313 z m 33.265436,-0.0999 c 0,-0.05494 0.20836,-0.2633 0.463021,-0.463021 0.419645,-0.329107 0.429004,-0.319749 0.0999,0.0999 -0.345643,0.44073 -0.562917,0.580888 -0.562917,0.363125 z m 1.322917,-1.322917 c 0,-0.05494 0.208359,-0.2633 0.463021,-0.46302 0.419645,-0.329108 0.429003,-0.319749 0.0999,0.0999 -0.345644,0.440729 -0.562917,0.580887 -0.562917,0.363124 z M -20.792325,73.44327 c 0.0054,-0.436562 0.06469,-0.583124 0.131774,-0.325693 0.06708,0.257431 0.06267,0.614618 -0.0098,0.793749 -0.07248,0.179131 -0.127363,-0.03149 -0.121971,-0.468056 z M 9.6347569,73.178687 c 0.0054,-0.436562 0.064691,-0.583125 0.1317731,-0.325693 0.067082,0.25743 0.062672,0.614618 -0.00982,0.793749 -0.072477,0.179131 -0.1273625,-0.03149 -0.1219702,-0.468056 z M -26.348575,72.914104 c 0.0054,-0.436563 0.06469,-0.583125 0.131774,-0.325694 0.06708,0.257431 0.06267,0.614619 -0.0098,0.79375 -0.07248,0.17913 -0.127362,-0.03149 -0.12197,-0.468056 z M 4.0785072,72.64952 c 0.0054,-0.436562 0.064691,-0.583124 0.1317731,-0.325693 0.067082,0.257431 0.062672,0.614618 -0.00979,0.79375 -0.072491,0.179131 -0.1273757,-0.03149 -0.1219831,-0.468057 z m 82.2854118,0 c 0.0054,-0.436562 0.06469,-0.583124 0.131774,-0.325693 0.06708,0.257431 0.06267,0.614618 -0.0098,0.79375 -0.07246,0.179131 -0.127349,-0.03149 -0.121957,-0.468057 z M 26.038923,72.384937 c 0.0054,-0.436562 0.06469,-0.583125 0.131773,-0.325693 0.06708,0.25743 0.06267,0.614618 -0.0098,0.79375 -0.07246,0.179131 -0.12735,-0.03149 -0.121957,-0.468057 z m 54.768747,0 c 0.0054,-0.436562 0.06469,-0.583125 0.131773,-0.325693 0.06708,0.25743 0.06267,0.614618 -0.0098,0.79375 -0.07246,0.179131 -0.127349,-0.03149 -0.121957,-0.468057 z M 31.630412,70.268271 c 0.0011,-1.018646 0.049,-1.402944 0.106273,-0.853995 0.05727,0.548949 0.05631,1.382386 -0.0021,1.852083 -0.05847,0.469697 -0.105331,0.02056 -0.104156,-0.998088 z m 15.055812,-1.984375 c 0,-0.509323 0.05445,-0.717683 0.121002,-0.463021 0.06655,0.254661 0.06655,0.67138 0,0.926041 -0.06655,0.254662 -0.121002,0.0463 -0.121002,-0.46302 z m 16.363672,0.374826 c 0.0127,-0.308224 0.07539,-0.370919 0.15985,-0.159852 0.07643,0.190996 0.06703,0.419199 -0.02088,0.507118 -0.08792,0.08792 -0.150453,-0.06835 -0.138965,-0.347266 z m -84.106804,-2.359201 c 0.0054,-0.436563 0.06469,-0.583125 0.131773,-0.325694 0.06708,0.257431 0.06267,0.614618 -0.0098,0.79375 -0.07248,0.179131 -0.127363,-0.03149 -0.12197,-0.468056 z M 9.3701736,66.034937 c 0.0054,-0.436562 0.064691,-0.583124 0.131773,-0.325693 0.067082,0.257431 0.062672,0.614618 -0.00982,0.79375 -0.072464,0.179131 -0.1273492,-0.03149 -0.121957,-0.468057 z M -26.622962,65.902646 c 0,-0.363802 0.06005,-0.512631 0.133452,-0.33073 0.0734,0.181901 0.0734,0.479558 0,0.661459 -0.0734,0.181901 -0.133452,0.03307 -0.133452,-0.330729 z m 88.180116,-0.33073 -0.777105,-0.859895 0.859895,0.777105 c 0.801545,0.724371 0.981512,0.942686 0.777105,0.942686 -0.04553,0 -0.432487,-0.386953 -0.859895,-0.859896 z M 3.8139239,65.505771 c 0.0054,-0.436563 0.064691,-0.583125 0.131773,-0.325694 0.067083,0.257431 0.062672,0.614618 -0.00979,0.79375 -0.072491,0.179131 -0.1273757,-0.03149 -0.121983,-0.468056 z m 21.9297241,0.208366 c -0.01976,-0.553847 -0.152742,-0.590088 -2.468285,-0.672692 l -2.447396,-0.08731 2.455699,-0.05491 c 2.512038,-0.05617 2.988381,0.136903 2.617231,1.060839 -0.075,0.186702 -0.145761,0.07603 -0.157249,-0.245927 z m 54.799438,-0.47295 c 0.0054,-0.436562 0.06469,-0.583124 0.131773,-0.325693 0.06708,0.257431 0.06267,0.614618 -0.0098,0.79375 -0.07246,0.179131 -0.127349,-0.03149 -0.121957,-0.468057 z m 5.546445,0.132292 c 0,-0.363802 0.06006,-0.51263 0.133453,-0.330729 0.0734,0.181901 0.0734,0.479557 0,0.661458 -0.0734,0.181901 -0.133453,0.03307 -0.133453,-0.330729 z m -99.458958,-0.723646 c 0.691224,-0.0545 1.822318,-0.0545 2.513542,0 0.691224,0.0545 0.125677,0.0991 -1.256771,0.0991 -1.382448,0 -1.947994,-0.04459 -1.256771,-0.0991 z m 44.733121,-1.393021 c 0,-0.945885 0.04802,-1.332838 0.106714,-0.859895 0.05869,0.472942 0.05869,1.246848 0,1.719791 -0.05869,0.472943 -0.106714,0.08599 -0.106714,-0.859896 z m 23.005244,0.08123 c 0.257432,-0.06708 0.614619,-0.06267 0.79375,0.0098 0.179131,0.07247 -0.03149,0.127362 -0.468056,0.121969 -0.436562,-0.0054 -0.583125,-0.06469 -0.325694,-0.131773 z m -42.073783,-2.39342 c 0.836745,-0.05251 2.205964,-0.05251 3.042709,0 0.836744,0.05251 0.152135,0.09547 -1.521355,0.09547 -1.673489,0 -2.358098,-0.04296 -1.521354,-0.09547 z m -32.940623,-0.255785 c 0.327422,-0.06306 0.863203,-0.06306 1.190625,0 0.327422,0.06306 0.05953,0.114662 -0.595312,0.114662 -0.654844,0 -0.922735,-0.0516 -0.595313,-0.114662 z m -0.685828,-1.400775 c 0,-0.363802 0.06005,-0.51263 0.133453,-0.330729 0.0734,0.181901 0.0734,0.479558 0,0.661459 -0.0734,0.181901 -0.133453,0.03307 -0.133453,-0.33073 z m 78.754444,0.348426 c 0.190995,-0.07643 0.4192,-0.06703 0.507119,0.02089 0.08792,0.08792 -0.06835,0.150453 -0.347266,0.138965 -0.308226,-0.0127 -0.370919,-0.07539 -0.159853,-0.159853 z M 9.1055902,58.891187 c 0.0054,-0.436562 0.064691,-0.583124 0.1317731,-0.325693 0.067082,0.257431 0.062672,0.614618 -0.00982,0.79375 -0.07246,0.179131 -0.1273453,-0.03149 -0.1219531,-0.468057 z M -26.887545,58.758896 c 0,-0.363802 0.06005,-0.51263 0.133452,-0.330729 0.0734,0.181901 0.0734,0.479557 0,0.661458 -0.0734,0.181901 -0.133452,0.03307 -0.133452,-0.330729 z M 3.5493405,58.362021 c 0.0054,-0.436563 0.064691,-0.583125 0.1317731,-0.325694 0.067082,0.257431 0.062672,0.614618 -0.00979,0.79375 -0.07249,0.179132 -0.1273757,-0.03149 -0.1219831,-0.468056 z M 25.519559,57.965146 c 0,-0.509323 0.05445,-0.717683 0.121002,-0.463021 0.06655,0.254661 0.06655,0.67138 0,0.926042 -0.06655,0.254661 -0.121002,0.0463 -0.121002,-0.463021 z m 54.758944,0.132291 c 0.0054,-0.436562 0.06469,-0.583124 0.131773,-0.325693 0.06708,0.257431 0.06267,0.614618 -0.0098,0.79375 -0.07246,0.179131 -0.127349,-0.03149 -0.121957,-0.468057 z m 5.546444,0.132292 c 0,-0.363802 0.06006,-0.51263 0.133454,-0.330729 0.0734,0.181901 0.0734,0.479557 0,0.661458 -0.0734,0.181901 -0.133454,0.03307 -0.133454,-0.330729 z M 31.0562,57.435979 c 0,-0.363802 0.06005,-0.51263 0.133453,-0.330729 0.0734,0.181901 0.0734,0.479557 0,0.661458 -0.0734,0.181901 -0.133453,0.03307 -0.133453,-0.330729 z m 29.083279,-2.53559 c 0.0127,-0.308225 0.07539,-0.370919 0.159851,-0.159853 0.07643,0.190997 0.06703,0.4192 -0.02088,0.507119 -0.08792,0.08792 -0.150452,-0.06835 -0.138964,-0.347266 z m 5.55625,-0.264583 c 0.0127,-0.308225 0.07539,-0.37092 0.159851,-0.159853 0.07643,0.190996 0.06703,0.419199 -0.02088,0.507118 -0.08792,0.08792 -0.150453,-0.06835 -0.138965,-0.347265 z m -87.291608,-2.491493 c 0,-0.363803 0.06005,-0.512631 0.133452,-0.33073 0.0734,0.181901 0.0734,0.479558 0,0.661459 -0.0734,0.181901 -0.133452,0.03307 -0.133452,-0.330729 z m 71.263428,0 c 0.26339,-0.291042 0.538422,-0.529167 0.611182,-0.529167 0.07276,0 -0.08321,0.238125 -0.346598,0.529167 -0.263391,0.291041 -0.538422,0.529166 -0.611183,0.529166 -0.07276,0 0.08321,-0.238125 0.346599,-0.529166 z m -76.819678,-0.529167 c 0,-0.363802 0.06005,-0.51263 0.133452,-0.330729 0.0734,0.181901 0.0734,0.479557 0,0.661458 -0.0734,0.181901 -0.133452,0.03307 -0.133452,-0.330729 z m 95.606967,-0.261553 c -0.09269,-0.149982 0.01352,-0.194338 0.248968,-0.103984 0.458369,0.175893 0.542234,0.365537 0.16165,0.365537 -0.136933,0 -0.321713,-0.117699 -0.410618,-0.261553 z M 6.1435932,50.424521 c 0.3417755,-0.363802 0.6809396,-0.661458 0.7537,-0.661458 0.07276,0 -0.1473412,0.297656 -0.4891167,0.661458 -0.3417755,0.363802 -0.6809395,0.661458 -0.7536999,0.661458 -0.07276,0 0.1473411,-0.297656 0.4891166,-0.661458 z m 10.3848948,0.214491 c 0.254662,-0.06655 0.671381,-0.06655 0.926042,0 0.254662,0.06655 0.0463,0.121 -0.463021,0.121 -0.509323,0 -0.717682,-0.05445 -0.463021,-0.121 z m 74.88674,-2.923845 c 0.842057,-0.05266 2.151745,-0.05218 2.910416,0.0011 0.758672,0.05326 0.06972,0.09635 -1.531014,0.09576 -1.600729,-5.98e-4 -2.22146,-0.04418 -1.379402,-0.09684 z M -17.205885,46.921333 c 0.909505,-0.05167 2.397787,-0.05167 3.307292,0 0.909505,0.05166 0.165364,0.09394 -1.653646,0.09394 -1.81901,0 -2.563151,-0.04227 -1.653646,-0.09394 z"
         id="path4565" />
      <path
         style="fill:#dea0a1;stroke-width:0.264583"
         d="m 27.541092,141.63962 c -0.329107,-0.41964 -0.319749,-0.429 0.0999,-0.0999 0.44073,0.34564 0.580887,0.56291 0.363125,0.56291 -0.05494,0 -0.2633,-0.20836 -0.463021,-0.46302 z m -2.560503,-6.01927 c 0.0054,-0.43656 0.06469,-0.58312 0.131773,-0.32569 0.06708,0.25743 0.06267,0.61462 -0.0098,0.79375 -0.07248,0.17913 -0.127362,-0.0315 -0.12197,-0.46806 z m 0.891472,-3.91401 c 0.09936,-0.26094 0.247303,-0.40778 0.328765,-0.32632 0.08146,0.0815 1.7e-4,0.29495 -0.180652,0.47443 -0.261307,0.25936 -0.291698,0.22897 -0.148113,-0.14811 z m 27.05317,-52.490684 c 0.190995,-0.07643 0.419201,-0.06703 0.507119,0.02088 0.08792,0.08792 -0.06835,0.150453 -0.347265,0.138965 -0.308227,-0.0127 -0.37092,-0.07539 -0.159854,-0.159851 z m -79.009223,-0.745302 c 0.0054,-0.436563 0.06469,-0.583126 0.131774,-0.325694 0.06708,0.257431 0.06267,0.614619 -0.0098,0.79375 -0.07248,0.17913 -0.127362,-0.03149 -0.12197,-0.468056 z M 4.3528933,78.338062 c 0,-0.509323 0.054451,-0.717682 0.1210019,-0.463021 0.066548,0.254662 0.066548,0.67138 0,0.926042 -0.066551,0.254661 -0.1210019,0.0463 -0.1210019,-0.463021 z M 26.318648,77.941187 c 0.0029,-0.582083 0.05712,-0.789054 0.120407,-0.459936 0.06329,0.329118 0.06088,0.805368 -0.0053,1.058334 -0.06622,0.252965 -0.118004,-0.01633 -0.115067,-0.598398 z m 54.768747,0 c 0.0029,-0.582083 0.05712,-0.789054 0.120407,-0.459936 0.06328,0.329118 0.06088,0.805368 -0.0053,1.058334 -0.06622,0.252965 -0.118004,-0.01633 -0.115067,-0.598398 z M -20.777182,75.03077 c 0.0029,-0.582083 0.05712,-0.789053 0.120406,-0.459935 0.06329,0.329117 0.06088,0.805367 -0.0053,1.058333 -0.06622,0.252965 -0.118004,-0.01631 -0.115067,-0.598398 z m 64.72244,0.198438 c -0.329108,-0.419645 -0.319749,-0.429003 0.0999,-0.0999 0.440729,0.345644 0.580887,0.562917 0.363124,0.562917 -0.05494,0 -0.2633,-0.20836 -0.46302,-0.463021 z M 9.6445597,74.633895 c 0,-0.509322 0.054451,-0.717682 0.1210019,-0.46302 0.066548,0.254661 0.066548,0.67138 0,0.926041 -0.066551,0.254662 -0.1210019,0.0463 -0.1210019,-0.463021 z M 86.373722,74.104729 c 0,-0.509323 0.05445,-0.717683 0.121002,-0.463021 0.06655,0.254661 0.06655,0.67138 0,0.926042 -0.06655,0.254661 -0.121002,0.0463 -0.121002,-0.463021 z m -54.750845,-0.79375 c 0,-0.800365 0.0496,-1.127787 0.110223,-0.727604 0.06062,0.400182 0.06062,1.055026 0,1.455208 -0.06062,0.400182 -0.110223,0.07276 -0.110223,-0.727604 z m 16.834021,-0.198438 -0.641432,-0.727604 0.727604,0.641433 c 0.680056,0.599516 0.848939,0.813775 0.641432,0.813775 -0.04739,0 -0.374814,-0.327421 -0.727604,-0.727604 z m 13.249192,0.09854 c 0,-0.05494 0.20836,-0.263302 0.463021,-0.463021 0.419645,-0.329107 0.429003,-0.319749 0.0999,0.0999 -0.345644,0.440729 -0.562917,0.580887 -0.562917,0.363126 z m -88.044861,-1.752189 c 0,-0.509322 0.05445,-0.717682 0.121,-0.46302 0.06655,0.254661 0.06655,0.67138 0,0.926041 -0.06655,0.254662 -0.121,0.0463 -0.121,-0.463021 z M 4.08831,71.194312 c 0,-0.509323 0.054451,-0.717682 0.1210019,-0.463021 0.066548,0.254662 0.066548,0.671381 0,0.926042 -0.066551,0.254661 -0.1210019,0.0463 -0.1210019,-0.463021 z m 21.965755,-0.396875 c 0.0029,-0.582083 0.05712,-0.789054 0.120406,-0.459936 0.06329,0.329119 0.06088,0.805369 -0.0053,1.058333 -0.06622,0.252965 -0.118004,-0.01631 -0.115068,-0.598397 z m 54.768747,0 c 0.0029,-0.582083 0.05712,-0.789054 0.120406,-0.459936 0.06329,0.329119 0.06088,0.805369 -0.0053,1.058333 -0.06622,0.252965 -0.117999,-0.01631 -0.115062,-0.598397 z M 68.657318,69.871396 c 0,-0.654844 0.0516,-0.922735 0.114663,-0.595313 0.06307,0.327422 0.06307,0.863203 0,1.190625 -0.06306,0.327422 -0.114663,0.05953 -0.114663,-0.595312 z M 46.64573,69.452472 c 0.0127,-0.308224 0.07539,-0.370919 0.159851,-0.159853 0.07643,0.190997 0.06703,0.4192 -0.02088,0.507119 -0.08792,0.08792 -0.150453,-0.06835 -0.138965,-0.347266 z m -67.687495,-1.565451 c 0.0029,-0.582084 0.05712,-0.789055 0.120406,-0.459936 0.06329,0.329118 0.06088,0.805368 -0.0053,1.058333 -0.06622,0.252965 -0.118004,-0.01631 -0.115067,-0.598397 z M 9.3799764,67.490146 c 0,-0.509323 0.054451,-0.717683 0.1210019,-0.463021 0.066548,0.254661 0.066548,0.67138 0,0.926041 -0.066551,0.254662 -0.1210019,0.0463 -0.1210019,-0.46302 z M 86.114478,66.828687 c 0.0029,-0.582083 0.05712,-0.789054 0.120407,-0.459936 0.06328,0.329119 0.06088,0.805369 -0.0053,1.058334 -0.06622,0.252964 -0.117999,-0.01631 -0.115062,-0.598398 z M 31.358294,66.167229 c 0,-0.800365 0.0496,-1.127786 0.110222,-0.727604 0.06062,0.400182 0.06062,1.055026 0,1.455208 -0.06062,0.400182 -0.110222,0.07276 -0.110222,-0.727604 z m -57.956309,-1.719792 c 0.0029,-0.582083 0.05712,-0.789054 0.120406,-0.459936 0.06329,0.329119 0.06088,0.805369 -0.0053,1.058334 -0.06622,0.252965 -0.118004,-0.01631 -0.115067,-0.598398 z m 17.0650466,0.221647 c 0.181901,-0.0734 0.4795572,-0.0734 0.6614583,0 0.181901,0.0734 0.033073,0.133452 -0.3307292,0.133452 -0.3638021,0 -0.5126302,-0.06005 -0.3307291,-0.133452 z M 3.8237267,64.050562 c 0,-0.509323 0.054451,-0.717682 0.1210019,-0.463021 0.066548,0.254662 0.066548,0.671381 0,0.926042 -0.066551,0.254662 -0.1210019,0.0463 -0.1210019,-0.463021 z M 80.558229,63.653687 c 0.0029,-0.582083 0.05712,-0.789054 0.120406,-0.459936 0.06329,0.329119 0.06088,0.805369 -0.0053,1.058334 -0.06622,0.252965 -0.117999,-0.01631 -0.115062,-0.598398 z m -25.003701,-0.30752 c 0.181901,-0.0734 0.479557,-0.0734 0.661458,0 0.181901,0.0734 0.03307,0.133452 -0.330729,0.133452 -0.363802,0 -0.51263,-0.06005 -0.330729,-0.133452 z M 65.64109,62.793792 c -0.329107,-0.419644 -0.319749,-0.429003 0.0999,-0.0999 0.44073,0.345643 0.580887,0.562915 0.363125,0.562915 -0.05494,0 -0.263301,-0.208359 -0.463021,-0.46302 z M 9.1556203,60.758726 c -0.0805,-0.209781 -0.090575,-0.596734 -0.022384,-0.859896 0.082979,-0.320257 0.1341252,-0.243421 0.1546674,0.232365 0.025718,0.595512 0.1702038,0.728153 0.8905873,0.817552 l 0.859896,0.106712 -0.868198,0.04234 C 9.627084,61.12429 9.247182,60.997324 9.1556229,60.758726 Z m -30.4869163,-0.41233 c 0,-0.363802 0.06005,-0.51263 0.133453,-0.330729 0.0734,0.181901 0.0734,0.479557 0,0.661458 -0.0734,0.181901 -0.133453,0.03307 -0.133453,-0.330729 z M 85.849895,59.684937 c 0.0029,-0.582083 0.05712,-0.789054 0.120406,-0.459936 0.06329,0.329119 0.06088,0.805369 -0.0053,1.058334 -0.06622,0.252965 -0.118004,-0.01631 -0.115067,-0.598398 z M 31.090099,59.155771 c 0.0021,-0.727604 0.05337,-0.993858 0.114186,-0.591675 0.06082,0.402183 0.05919,0.997496 -0.0036,1.322917 -0.06281,0.325421 -0.112573,-0.0036 -0.110588,-0.731242 z m 13.789812,0.595312 -0.504028,-0.595312 0.595312,0.504028 c 0.327422,0.277215 0.595313,0.545106 0.595313,0.595312 0,0.211734 -0.212934,0.05542 -0.686597,-0.504028 z M 55.822196,59.6301 c 0.329118,-0.06329 0.805368,-0.06088 1.058334,0.0053 0.252965,0.06622 -0.01633,0.118003 -0.598398,0.115066 -0.582083,-0.0029 -0.789053,-0.05712 -0.459936,-0.120405 z m -82.684794,-2.326413 c 0.0029,-0.582083 0.05712,-0.789054 0.120406,-0.459936 0.06329,0.329119 0.06088,0.805369 -0.0053,1.058334 -0.06622,0.252965 -0.118003,-0.01631 -0.115066,-0.598398 z m 76.364105,0.463021 c -0.329107,-0.419644 -0.319749,-0.429002 0.0999,-0.09989 0.254662,0.199719 0.463021,0.408078 0.463021,0.46302 0,0.217761 -0.217273,0.0776 -0.562917,-0.363126 z M 3.5644826,56.774521 c 0.00294,-0.582084 0.057121,-0.789055 0.1204066,-0.459936 0.063286,0.329118 0.060883,0.805368 -0.00534,1.058333 -0.066222,0.252965 -0.1180041,-0.01631 -0.1150666,-0.598397 z M 80.293645,56.509937 c 0.0029,-0.582083 0.05712,-0.789054 0.120407,-0.459936 0.06329,0.329119 0.06088,0.805369 -0.0053,1.058334 -0.06622,0.252965 -0.118004,-0.01631 -0.115067,-0.598398 z m -54.814581,0.242535 c 0.0127,-0.308224 0.07539,-0.370919 0.159851,-0.159852 0.07643,0.190996 0.06703,0.419199 -0.02088,0.507118 -0.08792,0.08792 -0.150452,-0.06835 -0.138964,-0.347266 z m 17.727083,-0.79375 c 0.0127,-0.308224 0.07539,-0.370919 0.15985,-0.159852 0.07643,0.190996 0.06703,0.419199 -0.02087,0.507118 -0.08792,0.08792 -0.150453,-0.06835 -0.138965,-0.347266 z m 0.04049,-1.697743 c 0,-0.509323 0.05445,-0.717682 0.121002,-0.463021 0.06655,0.254662 0.06655,0.671381 0,0.926042 -0.06655,0.254661 -0.121002,0.0463 -0.121002,-0.463021 z m -64.817573,-0.661458 c 0.0029,-0.582083 0.05712,-0.789055 0.120406,-0.459936 0.06329,0.329118 0.06088,0.805368 -0.0053,1.058333 -0.06622,0.252965 -0.118003,-0.01631 -0.115067,-0.598397 z M 23.721739,53.1365 22.944634,52.276604 23.80453,53.05371 c 0.801544,0.724371 0.981511,0.942686 0.777105,0.942686 -0.04553,0 -0.432488,-0.386953 -0.859896,-0.859896 z M 10.509218,52.938063 c 0.26339,-0.291042 0.538422,-0.529167 0.611182,-0.529167 0.07276,0 -0.08321,0.238125 -0.346599,0.529167 -0.26339,0.291041 -0.538421,0.529166 -0.611182,0.529166 -0.07276,0 0.08321,-0.238125 0.346599,-0.529166 z m 75.070754,-0.264584 c 0,-0.509323 0.05445,-0.717682 0.121002,-0.463021 0.06655,0.254662 0.06655,0.671381 0,0.926042 -0.06655,0.254661 -0.121002,0.0463 -0.121002,-0.463021 z m -26.677145,-0.595312 -0.504028,-0.595313 0.595312,0.504028 c 0.327422,0.277216 0.595313,0.545106 0.595313,0.595313 0,0.211733 -0.212934,0.05542 -0.686597,-0.504028 z m -30.683172,-1.058334 -0.777105,-0.859895 0.859896,0.777105 c 0.801545,0.724371 0.981512,0.942686 0.777105,0.942686 -0.04553,0 -0.432488,-0.386953 -0.859896,-0.859896 z m 42.559418,0.39886 c 0.988317,-0.05104 2.536129,-0.05067 3.439583,8.47e-4 0.903452,0.05151 0.09483,0.09327 -1.796941,0.09281 -1.891771,-4.5e-4 -2.630961,-0.04261 -1.642642,-0.09365 z m -97.906254,-1.258755 c 0.0029,-0.582084 0.05712,-0.789055 0.120405,-0.459936 0.06329,0.329118 0.06088,0.805368 -0.0053,1.058333 -0.06622,0.252965 -0.118003,-0.01631 -0.115066,-0.598397 z m 42.746164,0.480717 c 0.190995,-0.07643 0.419198,-0.06703 0.507119,0.02089 0.08792,0.08792 -0.06835,0.150453 -0.347265,0.138965 -0.308227,-0.0127 -0.37092,-0.07539 -0.159854,-0.159853 z m 2.38125,0 c 0.190995,-0.07643 0.419198,-0.06703 0.507119,0.02089 0.08792,0.08792 -0.06835,0.150453 -0.347265,0.138965 -0.308227,-0.0127 -0.37092,-0.07539 -0.159854,-0.159853 z m 36.247915,-0.264583 c 0.190995,-0.07643 0.4192,-0.06703 0.507119,0.02089 0.08792,0.08792 -0.06835,0.150453 -0.347266,0.138964 -0.308226,-0.01269 -0.370919,-0.07539 -0.159853,-0.159852 z m 8.747109,-0.546864 c -0.329108,-0.419643 -0.319749,-0.429002 0.0999,-0.09989 0.440729,0.345643 0.580887,0.562915 0.363124,0.562915 -0.05494,0 -0.2633,-0.208359 -0.46302,-0.463021 z m 21.001978,-2.114896 c 1.127786,-0.0496 2.973255,-0.0496 4.101041,0 1.127787,0.0496 0.205052,0.09018 -2.05052,0.09018 -2.255573,0 -3.178308,-0.04058 -2.050521,-0.09018 z m -28.161587,-0.51324 c 0.190995,-0.07643 0.4192,-0.06703 0.507119,0.02089 0.08792,0.08792 -0.06835,0.150453 -0.347266,0.138964 -0.308226,-0.01269 -0.370919,-0.07539 -0.159853,-0.159852 z m -78.720413,-0.279655 c 0.842058,-0.05266 2.151745,-0.05218 2.910416,0.0011 0.758671,0.05326 0.06971,0.09635 -1.531015,0.09575 -1.600729,-5.96e-4 -2.221459,-0.04417 -1.379401,-0.09684 z"
         id="path4563" />
      <path
         style="fill:#a3a1a2;stroke-width:0.264583"
         d="m -9.0290785,143.49171 c -0.067459,-0.10914 0.4315304,-0.16287 1.1088642,-0.11938 1.9322276,0.12403 2.1665738,0.25355 0.5195273,0.28712 -0.8281566,0.0169 -1.5609326,-0.0586 -1.6283915,-0.16774 z m 3.8373654,-1.65365 c 0,-0.3638 0.060053,-0.51263 0.1334521,-0.33073 0.073399,0.1819 0.073399,0.47956 0,0.66146 -0.073399,0.1819 -0.1334521,0.0331 -0.1334521,-0.33073 z m 90.4874941,-0.52917 c 0,-0.3638 0.06005,-0.51263 0.133453,-0.33073 0.0734,0.18191 0.0734,0.47956 0,0.66146 -0.0734,0.1819 -0.133453,0.0331 -0.133453,-0.33073 z m -58.813022,-0.99218 c -0.329108,-0.41965 -0.319749,-0.42901 0.0999,-0.0999 0.254661,0.19972 0.46302,0.40808 0.46302,0.46302 0,0.21776 -0.217273,0.0776 -0.562916,-0.36312 z M -5.4464926,139.5891 c 0.00539,-0.43656 0.06469,-0.58312 0.1317736,-0.32569 0.067083,0.25743 0.062672,0.61462 -0.0098,0.79375 -0.072476,0.17913 -0.127363,-0.0315 -0.1219708,-0.46806 z m 91.0166616,-0.52916 c 0.0054,-0.43657 0.06469,-0.58313 0.131774,-0.3257 0.06708,0.25743 0.06267,0.61462 -0.0098,0.79375 -0.07248,0.17913 -0.127363,-0.0315 -0.121971,-0.46805 z m -51.711473,-0.57211 c 0.181901,-0.0734 0.479557,-0.0734 0.661458,0 0.181901,0.0734 0.03307,0.13346 -0.330729,0.13346 -0.363802,0 -0.51263,-0.0601 -0.330729,-0.13346 z m -1.387189,-0.35091 c -0.09269,-0.14998 0.01352,-0.19433 0.248967,-0.10398 0.45837,0.17589 0.542235,0.36554 0.16165,0.36554 -0.136932,0 -0.321712,-0.1177 -0.410617,-0.26156 z m -42.4466082,-1.2157 c 0.012695,-0.30822 0.075391,-0.37092 0.1598525,-0.15985 0.07643,0.19099 0.067031,0.4192 -0.020889,0.50712 -0.087919,0.0879 -0.150453,-0.0684 -0.1389645,-0.34727 z m 4.284508,-1.16858 c 0,-0.65484 0.051598,-0.92273 0.1146622,-0.59531 0.063064,0.32742 0.063064,0.8632 0,1.19063 -0.063064,0.32742 -0.1146622,0.0595 -0.1146622,-0.59532 z M 85.869993,134.8266 c 0.0011,-1.01864 0.049,-1.40294 0.106272,-0.85399 0.05728,0.54895 0.05631,1.38238 -0.0021,1.85208 -0.05845,0.4697 -0.105313,0.0206 -0.104138,-0.99809 z m -91.3164856,-2.64583 c 0.00539,-0.43656 0.06469,-0.58313 0.1317736,-0.32569 0.067083,0.25743 0.062672,0.61461 -0.0098,0.79375 -0.072476,0.17913 -0.127363,-0.0315 -0.1219708,-0.46806 z m 91.0264646,-1.71979 c 0,-0.50933 0.05445,-0.71768 0.121002,-0.46302 0.06655,0.25466 0.06655,0.67138 0,0.92604 -0.06655,0.25466 -0.121002,0.0463 -0.121002,-0.46302 z m -95.5550732,0.11024 c 0.012695,-0.30822 0.075391,-0.37092 0.1598525,-0.15985 0.07643,0.19099 0.067031,0.4192 -0.020889,0.50712 -0.087919,0.0879 -0.150453,-0.0684 -0.1389645,-0.34727 z m 4.7833881,-0.63941 c 0,-0.3638 0.060053,-0.51263 0.1334521,-0.33073 0.073399,0.1819 0.073399,0.47956 0,0.66146 -0.073399,0.1819 -0.1334521,0.0331 -0.1334521,-0.33073 z m 0.243695,-1.47726 c 0.012695,-0.30822 0.075391,-0.37091 0.1598525,-0.15985 0.07643,0.191 0.067031,0.4192 -0.020889,0.50712 -0.087919,0.0879 -0.1504529,-0.0683 -0.1389635,-0.34727 z m 90.2437991,-0.11024 c 0,-0.3638 0.06005,-0.51263 0.133453,-0.33073 0.0734,0.1819 0.0734,0.47956 0,0.66146 -0.0734,0.1819 -0.133453,0.0331 -0.133453,-0.33073 z m -15.437217,-0.18074 c 0.190995,-0.0764 0.4192,-0.067 0.507119,0.0209 0.08792,0.0879 -0.06835,0.15045 -0.347266,0.13896 -0.308226,-0.0127 -0.370919,-0.0754 -0.159853,-0.15985 z m 2.116666,-0.52917 c 0.190995,-0.0764 0.419201,-0.067 0.507119,0.0209 0.08792,0.0879 -0.06835,0.15045 -0.347265,0.13896 -0.308227,-0.0127 -0.37092,-0.0754 -0.159854,-0.15985 z m 2.910417,-0.79375 c 0.190995,-0.0764 0.4192,-0.067 0.507119,0.0209 0.08792,0.0879 -0.06835,0.15045 -0.347266,0.13896 -0.308226,-0.0127 -0.370919,-0.0754 -0.159853,-0.15985 z m 1.852083,-0.52916 c 0.190995,-0.0764 0.419201,-0.067 0.507119,0.0209 0.08792,0.0879 -0.06835,0.15046 -0.347266,0.13897 -0.308226,-0.0127 -0.370919,-0.0754 -0.159853,-0.15985 z m 1.852083,-0.52917 c 0.190995,-0.0764 0.419201,-0.067 0.507119,0.0209 0.08792,0.0879 -0.06835,0.15045 -0.347265,0.13896 -0.308227,-0.0127 -0.37092,-0.0754 -0.159854,-0.15985 z m 1.058334,-0.26458 c 0.190994,-0.0764 0.4192,-0.067 0.507118,0.0209 0.08792,0.0879 -0.06835,0.15046 -0.347265,0.13897 -0.308226,-0.0127 -0.370919,-0.0754 -0.159853,-0.15985 z m 1.852083,-0.52917 c 0.190995,-0.0764 0.4192,-0.067 0.507119,0.0209 0.08792,0.0879 -0.06835,0.15045 -0.347266,0.13896 -0.308226,-0.0127 -0.370919,-0.0754 -0.159853,-0.15985 z m 2.960026,-0.14999 c 0,-0.23041 -0.148828,-0.47898 -0.330729,-0.55237 -0.259043,-0.10453 -0.257244,-0.13798 0.0083,-0.15434 0.37728,-0.0233 0.74552,0.70254 0.487405,0.96066 -0.09074,0.0907 -0.164983,-0.0235 -0.164983,-0.25395 z M 1.3810935,114.48608 c 0,-0.0549 0.2083593,-0.2633 0.4630208,-0.46302 0.419645,-0.32911 0.4290033,-0.31975 0.099896,0.0999 -0.3456438,0.44073 -0.5629169,0.58088 -0.5629168,0.36312 z m 1.1906249,-1.4876 c 0.2633901,-0.29104 0.5384218,-0.52917 0.6111822,-0.52917 0.07276,0 -0.083209,0.23813 -0.3465989,0.52917 -0.26339,0.29104 -0.5384217,0.52916 -0.6111822,0.52916 -0.07276,0 0.083209,-0.23812 0.3465989,-0.52916 z m 2.6458332,-2.91042 c 0.8640153,-0.87312 1.6304656,-1.5875 1.703226,-1.5875 0.07276,0 -0.5746273,0.71438 -1.4386427,1.5875 -0.8640153,0.87313 -1.6304656,1.5875 -1.703226,1.5875 -0.07276,0 0.5746273,-0.71437 1.4386427,-1.5875 z m 53.9498594,-0.0661 -0.504029,-0.59532 0.595313,0.50403 c 0.327421,0.27722 0.595312,0.54511 0.595312,0.59531 0,0.21174 -0.212934,0.0554 -0.686596,-0.50402 z m 19.967428,0.13229 c -0.329107,-0.41965 -0.319749,-0.42901 0.0999,-0.0999 0.44073,0.34564 0.580888,0.56292 0.363125,0.56292 -0.05494,0 -0.2633,-0.20836 -0.463021,-0.46302 z m -0.79375,-1.05834 c -0.329107,-0.41964 -0.319749,-0.429 0.0999,-0.0999 0.254662,0.19972 0.463021,0.40808 0.463021,0.46302 0,0.21776 -0.217273,0.0776 -0.562917,-0.36313 z M 7.7310931,107.8715 c 0,-0.0549 0.2083594,-0.2633 0.4630208,-0.46302 0.4196451,-0.32911 0.4290034,-0.31975 0.099896,0.0999 -0.3456437,0.44073 -0.5629169,0.58089 -0.5629169,0.36313 z m 1.7478242,-1.52784 c 0.2756244,-0.38593 0.5540507,-0.65051 0.6187257,-0.58796 0.06468,0.0626 -0.1608325,0.37831 -0.5011316,0.70169 l -0.6187281,0.58796 z M 0.58734351,104.6965 c 0,-0.0549 0.20835936,-0.2633 0.46302079,-0.46302 0.419645,-0.32911 0.4290034,-0.31975 0.099896,0.0999 -0.34564371,0.44073 -0.56291689,0.58089 -0.56291689,0.36313 z m 8.16833269,-0.36313 c -0.3291073,-0.41964 -0.319749,-0.429 0.099896,-0.0999 0.4407297,0.34564 0.5808874,0.56291 0.3631248,0.56291 -0.054941,0 -0.2633001,-0.20835 -0.4630208,-0.46302 z m 54.0087478,-0.6952 c 0,-0.055 0.208359,-0.2633 0.46302,-0.46303 0.419645,-0.3291 0.429004,-0.31974 0.0999,0.0999 -0.345643,0.44073 -0.562916,0.58089 -0.562916,0.36313 z m 9.780544,-1.68605 -1.44617,-1.52135 1.521354,1.44617 c 1.413386,1.34354 1.642557,1.59654 1.44617,1.59654 -0.04135,0 -0.725961,-0.68461 -1.521354,-1.52136 z m -65.1122084,0.79375 c -0.3291073,-0.41964 -0.319749,-0.429 0.099896,-0.0999 0.4407297,0.34564 0.5808874,0.56291 0.3631248,0.56291 -0.054941,0 -0.2633001,-0.20835 -0.4630208,-0.46302 z m -3.9460565,-1.19062 c 0.6487609,-0.69122 1.2143078,-1.25677 1.2567708,-1.25677 0.1986703,0 -0.011377,0.23755 -1.179568,1.33397 l -1.2567708,1.17957 z m 60.0714699,1.02458 c 0,-0.0549 0.20836,-0.2633 0.463021,-0.46302 0.419645,-0.32911 0.429004,-0.31975 0.0999,0.0999 -0.345643,0.44073 -0.562917,0.58088 -0.562917,0.36312 z m -57.44833,-1.42146 c -0.3291073,-0.41964 -0.319749,-0.429 0.099896,-0.0999 0.2546615,0.19972 0.4630209,0.40808 0.4630209,0.46302 0,0.21776 -0.2172732,0.0776 -0.5629169,-0.36313 z m 58.24208,0.36313 c 0,-0.0549 0.20836,-0.2633 0.463021,-0.46302 0.419645,-0.32911 0.429004,-0.31975 0.0999,0.0999 -0.345643,0.44073 -0.562917,0.58089 -0.562917,0.36313 z m 0.79375,-1.05833 c 0,-0.055 0.20836,-0.2633 0.463021,-0.46303 0.419645,-0.329103 0.429004,-0.319744 0.0999,0.0999 -0.345643,0.44073 -0.562917,0.58089 -0.562917,0.36313 z m 0.79375,-1.058338 c 0,-0.05494 0.20836,-0.2633 0.463021,-0.463021 0.419645,-0.329107 0.429003,-0.319749 0.0999,0.0999 -0.345643,0.44073 -0.562917,0.580888 -0.562917,0.363125 z m -33.581192,-2.96486 c 0.0127,-0.308226 0.07539,-0.370919 0.15985,-0.159853 0.07643,0.190995 0.06703,0.419198 -0.02088,0.507119 -0.08792,0.08792 -0.150453,-0.06835 -0.138965,-0.347266 z m 5.586941,-1.300869 c 0.0054,-0.436562 0.06469,-0.583125 0.131773,-0.325694 0.06708,0.257432 0.06267,0.614619 -0.0098,0.79375 -0.07248,0.179131 -0.127362,-0.03149 -0.12197,-0.468056 z m 23.462585,-1.653645 c -0.329108,-0.419645 -0.319749,-0.429004 0.0999,-0.0999 0.254661,0.199721 0.463021,0.408081 0.463021,0.463021 0,0.217763 -0.217274,0.07761 -0.562917,-0.363124 z m -29.31411,-0.749652 c 0.0127,-0.308227 0.07539,-0.37092 0.159851,-0.159854 0.07643,0.190995 0.06703,0.419198 -0.02088,0.507119 -0.08792,0.08792 -0.150452,-0.06835 -0.138964,-0.347265 z m 6.116108,-2.359203 c 0.0054,-0.436562 0.06469,-0.583125 0.131773,-0.325694 0.06708,0.257432 0.06267,0.614619 -0.0098,0.79375 -0.07248,0.179131 -0.127362,-0.03149 -0.12197,-0.468056 z m -6.380691,-1.080381 c 0.0127,-0.308226 0.07539,-0.370919 0.159851,-0.159853 0.07643,0.190995 0.06703,0.419198 -0.02088,0.507119 -0.08792,0.08792 -0.150453,-0.06835 -0.138964,-0.347266 z m 16.069084,-0.82015 c 0.190995,-0.07643 0.419201,-0.06703 0.507119,0.02088 0.08792,0.08792 -0.06835,0.150453 -0.347265,0.138964 -0.308227,-0.0127 -0.37092,-0.07539 -0.159854,-0.15985 z m -1.322916,-0.264583 c 0.190994,-0.07643 0.4192,-0.06703 0.507119,0.02088 0.08792,0.08792 -0.06835,0.150452 -0.347266,0.138964 -0.308226,-0.0127 -0.370919,-0.07539 -0.159853,-0.159851 z M 30.700233,87.946906 c 0.190994,-0.07643 0.419197,-0.06703 0.507118,0.02088 0.08792,0.08792 -0.06835,0.150453 -0.347265,0.138965 -0.308227,-0.0127 -0.37092,-0.07539 -0.159853,-0.159851 z m 13.879122,-0.0026 c 0.257432,-0.06708 0.614619,-0.06267 0.79375,0.0098 0.179131,0.07248 -0.03149,0.127362 -0.468056,0.12197 -0.436562,-0.0054 -0.583125,-0.06469 -0.325694,-0.131773 z m -4.767534,-0.535289 c 0.400182,-0.06062 1.055026,-0.06062 1.455208,0 0.400182,0.06062 0.07276,0.110222 -0.727604,0.110222 -0.800365,0 -1.127787,-0.0496 -0.727604,-0.110222 z"
         id="path4561" />
      <path
         style="fill:#d36d6e;stroke-width:0.264583"
         d="m 34.668982,144.03857 c 0.190995,-0.0764 0.419198,-0.067 0.507119,0.0209 0.08792,0.0879 -0.06835,0.15045 -0.347265,0.13896 -0.308227,-0.0127 -0.37092,-0.0754 -0.159854,-0.15985 z m -8.417057,-12.88374 c 0,-0.0549 0.20836,-0.2633 0.463021,-0.46302 0.419645,-0.32911 0.429004,-0.31975 0.0999,0.0999 -0.345643,0.44073 -0.562917,0.58088 -0.562917,0.36312 z m 0.79375,-1.05833 c 0,-0.0549 0.20836,-0.2633 0.463021,-0.46302 0.419645,-0.32911 0.429004,-0.31975 0.0999,0.0999 -0.345643,0.44073 -0.562917,0.58089 -0.562917,0.36313 z m 1.455209,-1.22302 c 0.26339,-0.29104 0.538421,-0.52917 0.611182,-0.52917 0.07276,0 -0.08321,0.23813 -0.346599,0.52917 -0.26339,0.29104 -0.538422,0.52916 -0.611182,0.52916 -0.07276,0 0.08321,-0.23812 0.346599,-0.52916 z m 59.705313,-18.52084 c 0,-0.3638 0.06005,-0.51263 0.133453,-0.33072 0.0734,0.1819 0.0734,0.47955 0,0.66145 -0.0734,0.1819 -0.133453,0.0331 -0.133453,-0.33073 z m -0.604692,-1.25677 c -0.329107,-0.41964 -0.319749,-0.429 0.0999,-0.0999 0.44073,0.34564 0.580888,0.56291 0.363125,0.56291 -0.05494,0 -0.2633,-0.20835 -0.463021,-0.46302 z M 54.496195,79.202665 c 0.618463,-0.0557 1.630494,-0.0557 2.248958,0 0.618464,0.05571 0.112448,0.101282 -1.124479,0.101282 -1.236927,0 -1.742943,-0.04558 -1.124479,-0.101282 z m -80.580187,-2.055228 c 0.0054,-0.436562 0.06469,-0.583126 0.131774,-0.325694 0.06708,0.257432 0.06267,0.614619 -0.0098,0.79375 -0.07248,0.179131 -0.127362,-0.03149 -0.12197,-0.468056 z m 5.208644,-0.454708 c 0.121804,-0.734726 0.159069,-0.771993 0.24238,-0.242379 0.05415,0.344204 -0.01062,0.734899 -0.143933,0.868206 -0.146784,0.146786 -0.185612,-0.100041 -0.09845,-0.625827 z m 25.2282413,0.05783 c 0,-0.509323 0.054451,-0.717682 0.1210019,-0.463021 0.066548,0.254662 0.066548,0.67138 0,0.926042 -0.066551,0.254661 -0.1210019,0.0463 -0.1210019,-0.463021 z M 26.313309,76.221395 c 0,-0.509323 0.05445,-0.717682 0.121002,-0.46302 0.06655,0.254661 0.06655,0.67138 0,0.926041 -0.06655,0.254662 -0.121002,0.0463 -0.121002,-0.463021 z m 54.768747,0 c 0,-0.509323 0.05445,-0.717682 0.121002,-0.46302 0.06655,0.254661 0.06655,0.67138 0,0.926041 -0.06655,0.254662 -0.121002,0.0463 -0.121002,-0.463021 z M 9.6347569,76.089104 c 0.0054,-0.436563 0.064691,-0.583126 0.1317731,-0.325694 0.067082,0.257431 0.062672,0.614619 -0.00982,0.79375 C 9.684233,76.73629 9.6293475,76.52567 9.6347398,76.089104 Z M 31.610314,75.559937 c 0.0029,-0.582083 0.05712,-0.789054 0.120407,-0.459936 0.06329,0.329118 0.06088,0.805368 -0.0053,1.058334 -0.06622,0.252965 -0.118004,-0.01632 -0.115067,-0.598398 z m 54.763408,0.132292 c 0,-0.509323 0.05445,-0.717683 0.121002,-0.463021 0.06655,0.254661 0.06655,0.67138 0,0.926042 -0.06655,0.254661 -0.121002,0.0463 -0.121002,-0.463021 z m -18.03216,-4.387674 c 0.0127,-0.308224 0.07539,-0.370919 0.159851,-0.159852 0.07643,0.190996 0.06703,0.419199 -0.02088,0.507118 -0.08792,0.08792 -0.150453,-0.06835 -0.138964,-0.347266 z m -94.690137,-1.300868 c 0.0054,-0.436562 0.06469,-0.583125 0.131774,-0.325693 0.06708,0.25743 0.06267,0.614618 -0.0098,0.79375 -0.07248,0.179131 -0.127362,-0.03149 -0.12197,-0.468057 z M 4.08831,69.606812 c 0,-0.509323 0.054451,-0.717682 0.1210019,-0.463021 0.066548,0.254662 0.066548,0.671381 0,0.926042 -0.066551,0.254661 -0.1210019,0.0463 -0.1210019,-0.463021 z m -25.145218,-0.132291 c 0.0054,-0.436563 0.06469,-0.583125 0.131773,-0.325694 0.06708,0.257431 0.06267,0.614618 -0.0098,0.79375 -0.07248,0.179131 -0.127363,-0.03149 -0.12197,-0.468056 z m 62.410972,0.242534 c 0.0127,-0.308224 0.07539,-0.370919 0.15985,-0.159852 0.07643,0.190996 0.06703,0.419199 -0.02087,0.507118 -0.08792,0.08792 -0.150453,-0.06835 -0.138965,-0.347266 z M 26.048725,69.077646 c 0,-0.509323 0.05445,-0.717683 0.121002,-0.463021 0.06655,0.254661 0.06655,0.67138 0,0.926041 -0.06655,0.254662 -0.121002,0.0463 -0.121002,-0.46302 z m 37.28664,0.264583 c 0,-0.363802 0.06005,-0.51263 0.133453,-0.330729 0.0734,0.181901 0.0734,0.479557 0,0.661458 -0.0734,0.181901 -0.133453,0.03307 -0.133453,-0.330729 z m 17.482108,-0.264583 c 0,-0.509323 0.05445,-0.717683 0.121001,-0.463021 0.06655,0.254661 0.06655,0.67138 0,0.926041 -0.06655,0.254662 -0.121001,0.0463 -0.121001,-0.46302 z M 9.3701736,68.945354 c 0.0054,-0.436563 0.064691,-0.583125 0.131773,-0.325694 0.067082,0.257431 0.062672,0.614619 -0.00982,0.79375 -0.072464,0.179132 -0.1273492,-0.03149 -0.121957,-0.468056 z M 31.345731,68.416187 c 0.0029,-0.582083 0.05712,-0.789054 0.120407,-0.459936 0.06329,0.329119 0.06088,0.805369 -0.0053,1.058333 -0.06622,0.252965 -0.118004,-0.01631 -0.115067,-0.598397 z m 54.753605,0 c 0.0054,-0.436562 0.06469,-0.583124 0.131773,-0.325693 0.06708,0.25743 0.06267,0.614618 -0.0098,0.79375 -0.07246,0.179131 -0.127349,-0.03149 -0.121957,-0.468057 z m -112.712494,-5.55625 c 0.0054,-0.436562 0.06469,-0.583124 0.131773,-0.325693 0.06708,0.257431 0.06267,0.614618 -0.0098,0.79375 -0.07248,0.179131 -0.127362,-0.03149 -0.12197,-0.468057 z M 3.8139239,62.595354 c 0.0054,-0.436562 0.064691,-0.583125 0.131773,-0.325694 0.067083,0.257431 0.062672,0.614619 -0.00979,0.79375 -0.072491,0.179132 -0.1273757,-0.03149 -0.121983,-0.468056 z m 48.8467241,0.480718 c 0.190995,-0.07643 0.419201,-0.06703 0.507119,0.02089 0.08792,0.08792 -0.06835,0.150453 -0.347266,0.138964 -0.308226,-0.0127 -0.370919,-0.07539 -0.159853,-0.159852 z m 27.892241,-1.142176 c 0,-0.509323 0.05445,-0.717683 0.121002,-0.463021 0.06655,0.254661 0.06655,0.67138 0,0.926042 -0.06655,0.254661 -0.121002,0.0463 -0.121002,-0.463021 z M 31.086487,61.404729 c 0,-0.654844 0.0516,-0.922734 0.114663,-0.595312 0.06307,0.327421 0.06307,0.863203 0,1.190625 -0.06306,0.327421 -0.114663,0.05953 -0.114663,-0.595313 z m 54.748266,-0.132292 c 0.0054,-0.436562 0.06469,-0.583124 0.131773,-0.325693 0.06708,0.257431 0.06267,0.614618 -0.0098,0.79375 -0.07246,0.179131 -0.127349,-0.03149 -0.121957,-0.468057 z m -60.586712,-0.03234 c 0.35038,-0.104222 0.473122,-0.515297 0.548791,-1.837952 l 0.09747,-1.703704 -0.01963,1.784262 c -0.01741,1.582546 -0.07945,1.790332 -0.548793,1.837952 -0.389689,0.03954 -0.410207,0.0183 -0.07784,-0.08056 z M 54.09932,59.634845 c 0.254661,-0.06655 0.67138,-0.06655 0.926041,0 0.254662,0.06655 0.0463,0.121 -0.46302,0.121 -0.509323,0 -0.717683,-0.05445 -0.463021,-0.121 z m 6.350576,-3.654074 c 0.0029,-0.582084 0.05712,-0.789055 0.120407,-0.459936 0.06329,0.329118 0.06088,0.805368 -0.0053,1.058333 -0.06622,0.252965 -0.117999,-0.01631 -0.115062,-0.598397 z m -87.327638,-0.264584 c 0.0054,-0.436562 0.06469,-0.583124 0.131774,-0.325693 0.06708,0.257431 0.06267,0.614618 -0.0098,0.79375 -0.07248,0.179131 -0.127362,-0.03149 -0.12197,-0.468057 z m 5.291667,-0.529166 c 0.0054,-0.436563 0.06469,-0.583125 0.131774,-0.325694 0.06708,0.257431 0.06267,0.614619 -0.0098,0.79375 -0.07248,0.179132 -0.127363,-0.03149 -0.121971,-0.468056 z m 70.124383,-0.132292 c 0,-0.509323 0.05445,-0.717682 0.121001,-0.463021 0.06655,0.254662 0.06655,0.671381 0,0.926042 -0.06655,0.254661 -0.121001,0.0463 -0.121001,-0.463021 z m 31.749998,-0.264583 c 0,-0.509323 0.05445,-0.717682 0.121002,-0.463021 0.06655,0.254661 0.06655,0.67138 0,0.926042 -0.06655,0.254661 -0.121002,0.0463 -0.121002,-0.463021 z m 5.281863,-0.661458 c 0.0054,-0.436563 0.06469,-0.583125 0.131774,-0.325694 0.06708,0.257431 0.06267,0.614618 -0.0098,0.79375 -0.07246,0.179131 -0.12735,-0.03149 -0.121958,-0.468056 z m -35.90262,-2.248959 c 0.26339,-0.291041 0.538422,-0.529166 0.611182,-0.529166 0.07276,0 -0.08321,0.238125 -0.346598,0.529166 -0.263391,0.291042 -0.538422,0.529167 -0.611183,0.529167 -0.07276,0 0.08321,-0.238125 0.346599,-0.529167 z M 5.7467182,51.085979 c 0.2633901,-0.291041 0.5384218,-0.529166 0.6111822,-0.529166 0.07276,0 -0.083209,0.238125 -0.3465988,0.529166 -0.2633901,0.291042 -0.5384218,0.529167 -0.6111822,0.529167 -0.07276,0 0.083209,-0.238125 0.3465988,-0.529167 z m 71.1147498,0.334362 c 0.695616,-0.05468 1.767178,-0.05402 2.38125,0.0015 0.614074,0.05549 0.04493,0.10023 -1.264754,0.09942 -1.309687,-7.94e-4 -1.81211,-0.04621 -1.116496,-0.10089 z M 63.789007,50.622958 c -0.329108,-0.419644 -0.319749,-0.429002 0.0999,-0.09989 0.440729,0.345643 0.580887,0.562915 0.363124,0.562915 -0.05494,0 -0.2633,-0.208359 -0.46302,-0.463021 z m -19.016249,-0.16604 c 0,-0.05494 0.208359,-0.263302 0.463021,-0.463021 0.419645,-0.329108 0.429003,-0.319749 0.0999,0.0999 -0.345644,0.440729 -0.562917,0.580887 -0.562917,0.363126 z m -71.915083,-1.88448 c 0.0054,-0.436563 0.06469,-0.583125 0.131774,-0.325694 0.06708,0.257431 0.06267,0.614618 -0.0098,0.79375 -0.07248,0.179131 -0.127362,-0.03149 -0.12197,-0.468056 z M 73.28161,47.713466 c 1.63711,-0.04642 4.316016,-0.04642 5.953125,0 1.637109,0.04642 0.297656,0.0844 -2.976562,0.0844 -3.274219,0 -4.613672,-0.03798 -2.976563,-0.0844 z M 13.237733,47.201072 c 0.190995,-0.07643 0.419198,-0.06703 0.507119,0.02089 0.08792,0.08792 -0.06835,0.150453 -0.347265,0.138964 -0.308227,-0.01269 -0.37092,-0.07539 -0.159854,-0.159852 z m 39.935545,-0.01066 c 0.472943,-0.05869 1.246849,-0.05869 1.719792,0 0.472942,0.05869 0.08599,0.106712 -0.859896,0.106712 -0.945885,0 -1.332838,-0.04802 -0.859896,-0.106712 z M 17.193032,46.9301 c 0.329118,-0.06329 0.805368,-0.06088 1.058333,0.0053 0.252966,0.06622 -0.01632,0.118004 -0.598397,0.115067 -0.582084,-0.0029 -0.789054,-0.05712 -0.459936,-0.120406 z"
         id="path4559" />
      <path
         style="fill:#ca4b4b;stroke-width:0.264583"
         d="m 32.143458,143.94551 c -1.772333,-0.358 -2.965733,-1.04484 -4.468413,-2.57172 -2.201407,-2.23686 -2.998369,-5.20373 -2.184921,-8.13387 0.695859,-2.50656 3.328934,-4.92031 6.582634,-6.03434 2.732207,-0.93547 15.553176,-5.40794 22.886458,-7.98372 2.328333,-0.81781 5.06677,-1.77354 6.085416,-2.12385 1.018646,-0.3503 3.221302,-1.12672 4.894791,-1.72538 4.958546,-1.77381 17.128021,-5.97885 19.182291,-6.62824 1.706443,-0.53944 3.142771,0.37661 2.99517,1.91024 -0.07772,0.80757 -0.348226,1.05069 -3.259753,2.92969 -13.414816,8.65747 -46.009841,29.11313 -47.360414,29.72197 -1.54214,0.6952 -3.763158,0.9604 -5.353259,0.63922 z m 3.792217,-5.91745 c 0.76509,-0.76509 0.899583,-1.0835 0.899583,-2.12981 0,-2.27799 -0.983821,-3.32061 -3.133352,-3.32061 -3.079564,0 -4.05975,4.4686 -1.314357,5.99206 0.336188,0.18655 1.069642,0.34341 1.629897,0.34857 0.812543,0.007 1.200658,-0.17264 1.918229,-0.89021 z M 81.278932,78.919611 c -0.0047,-0.726575 -1.009438,-27.147733 -1.045686,-27.497841 -0.0035,-0.0336 -2.613898,-0.09313 -5.800936,-0.132291 l -5.794613,-0.07121 0.965967,-1.648165 0.965967,-1.648165 13.163021,-0.0055 c 7.239661,-0.003 13.16302,0.05933 13.16302,0.138531 0,0.07921 -0.442079,0.912644 -0.982396,1.852083 l -0.982397,1.708072 h -4.737867 -4.73787 l 0.163031,2.976562 c 0.08967,1.63711 0.282564,6.6675 0.428662,11.178646 0.146095,4.511146 0.32699,9.113697 0.401987,10.227894 l 0.136361,2.025812 -1.790068,0.660371 c -0.984538,0.363206 -2.177021,0.784849 -2.649963,0.936987 l -0.859896,0.276617 z m -76.8114688,-2.391 C 4.3789283,74.977195 4.1645973,69.659729 3.9911709,64.712021 3.634793,54.544762 3.6857491,54.118809 5.5507255,51.675555 6.8070782,50.029643 7.2704747,49.661266 9.4508847,48.57512 14.297149,46.161009 22.082516,46.656317 26.437668,49.655826 c 1.820807,1.254038 2.906059,2.50906 3.742968,4.328497 0.649031,1.410993 0.687305,1.781929 0.997746,9.669364 0.177551,4.511146 0.375391,9.523747 0.439642,11.139112 l 0.116817,2.937031 -2.410727,0.834186 c -1.325902,0.458804 -2.485634,0.833782 -2.577182,0.833284 -0.09155,-5.29e-4 -0.241499,-1.757077 -0.333227,-3.903509 -0.09173,-2.146432 -0.238464,-5.420651 -0.32608,-7.276041 L 25.928319,64.844312 H 17.602067 9.2758126 l 0.1654571,5.490104 c 0.091004,3.019558 0.2250864,5.877058 0.2979632,6.35 0.072877,0.472943 0.089289,0.859896 0.03647,0.859896 -0.052822,0 -1.2325641,0.406138 -2.621653,0.902528 L 4.628433,79.349366 Z M 25.817816,58.806624 c -0.0464,-3.072952 -0.524873,-4.40737 -2.101361,-5.860526 -1.927151,-1.776386 -3.200434,-2.207918 -6.592654,-2.234332 -2.508782,-0.01953 -3.092979,0.06145 -4.233333,0.586836 -1.58863,0.731918 -2.650355,1.693721 -3.3315222,3.017983 -0.4069662,0.791181 -0.5049361,1.547614 -0.5049361,3.898607 v 2.916961 l 7.7390623,0.07014 c 4.256484,0.03858 8.036718,0.07014 8.40052,0.07014 0.660903,0 0.661427,-0.0021 0.624224,-2.465813 z m -51.695129,20.247295 c -0.07752,-0.666777 -1.041245,-27.187 -1.045684,-28.775569 l -0.0063,-2.262837 1.256771,-0.45045 c 1.085428,-0.389038 2.420098,-0.450273 9.789583,-0.449142 5.189206,7.96e-4 8.5328119,0.09943 8.5328119,0.251716 0,0.137725 -0.4224223,0.971162 -0.9387162,1.852084 l -0.9387162,1.601675 h -6.2461895 -6.24619 l 0.17248,3.770312 c 0.09486,2.073672 0.172916,4.33586 0.173448,5.027084 l 9.68e-4,1.25677 h 7.276041 c 4.3997111,0 7.2760416,0.09899 7.2760416,0.250408 0,0.137725 -0.4224224,0.971162 -0.9387162,1.852084 l -0.9387163,1.601675 h -6.2203591 -6.220359 l 0.08147,6.416146 0.08147,6.416145 -2.447396,0.848149 c -1.346067,0.466481 -2.450241,0.823669 -2.45372,0.79375 z m 75.92718,-0.542367 c -3.393093,-1.004737 -5.8313,-2.758271 -7.349458,-5.28566 -0.62775,-1.045062 -0.89449,-1.826619 -0.926042,-2.713336 l -0.04432,-1.245466 2.447395,-0.876573 2.447396,-0.876574 v 1.319516 c 0,0.725734 0.167024,1.719262 0.371165,2.20784 0.583486,1.396475 2.185964,2.981121 3.819475,3.776971 1.355058,0.660189 1.775886,0.730348 4.412956,0.735725 2.773259,0.0057 2.99848,-0.0362 4.630208,-0.860333 2.013937,-1.01718 2.869396,-2.001928 3.350591,-3.856977 0.761661,-2.936287 -0.48092,-5.311398 -3.502459,-6.694703 -1.032306,-0.472606 -2.165278,-0.684371 -4.77049,-0.891656 -4.446831,-0.353814 -6.833695,-1.121974 -9.150548,-2.944903 -3.063285,-2.41023 -3.160525,-7.831049 -0.186145,-10.377006 2.308521,-1.97601 4.878818,-2.657781 9.350967,-2.48034 2.461329,0.09766 3.558463,0.266379 4.835628,0.74364 3.040028,1.136024 5.341792,3.461421 5.761175,5.820326 l 0.16742,0.941689 -2.202783,0.74577 c -1.211532,0.410173 -2.326875,0.79333 -2.47854,0.85146 -0.1578,0.06048 -0.404691,-0.647039 -0.577186,-1.654062 -0.525552,-3.068158 -2.437283,-4.443588 -6.158518,-4.430862 -3.863943,0.01321 -5.634844,1.403769 -5.669811,4.45207 -0.01603,1.397163 0.08828,1.773198 0.72255,2.604825 0.407705,0.534565 1.062548,1.135925 1.455209,1.336356 1.084929,0.553796 3.317192,0.95794 5.29111,0.95794 2.94944,0 6.330831,0.897852 8.530884,2.265184 1.251116,0.777567 2.585942,2.332396 3.268143,3.80679 0.788355,1.703812 0.760066,5.42499 -0.05502,7.237106 -1.155031,2.567901 -4.539922,5.005389 -7.933695,5.713117 -2.48004,0.517179 -7.575838,0.347681 -9.857263,-0.327874 z"
         id="path4557" />
      <path
         style="fill:#615e5e;stroke-width:0.264583"
         d="m 84.195672,143.85074 c 0,-0.0572 0.184777,-0.17489 0.410618,-0.26155 0.235458,-0.0904 0.341662,-0.046 0.248967,0.10398 -0.155379,0.25141 -0.659585,0.37186 -0.659585,0.15757 z m -89.5002781,-0.97555 c 0.093559,-0.35777 0.2134928,-0.47771 0.2795455,-0.27955 0.063627,0.19088 -0.01011,0.47285 -0.1638599,0.6266 -0.1963388,0.19634 -0.2307724,0.093 -0.1156856,-0.34705 z m -0.1725787,-2.2498 c 0.012695,-0.30823 0.075391,-0.37092 0.1598525,-0.15986 0.076431,0.191 0.067031,0.41921 -0.020889,0.50712 -0.087919,0.0879 -0.1504529,-0.0683 -0.1389645,-0.34726 z M 85.274894,140.3608 c 0.0127,-0.30822 0.07539,-0.37091 0.159851,-0.15985 0.07643,0.191 0.06703,0.4192 -0.02088,0.50712 -0.08792,0.0879 -0.150453,-0.0683 -0.138965,-0.34727 z m -52.214359,-1.73057 c 0.179478,-0.18082 0.39297,-0.26212 0.474433,-0.18065 0.08146,0.0815 -0.06538,0.2294 -0.326319,0.32876 -0.377084,0.14359 -0.407474,0.1132 -0.148114,-0.14811 z m 1.525765,0.0328 c 0.08994,-0.14552 0.216027,-0.26458 0.280199,-0.26458 0.06417,0 0.116676,0.11906 0.116676,0.26458 0,0.14552 -0.12609,0.26458 -0.280199,0.26458 -0.154109,0 -0.206613,-0.11906 -0.116676,-0.26458 z m 1.190625,-0.66146 c 0.341775,-0.3638 0.68094,-0.66146 0.7537,-0.66146 0.07276,0 -0.147341,0.29766 -0.489117,0.66146 -0.341775,0.3638 -0.680939,0.66146 -0.7537,0.66146 -0.07276,0 0.147341,-0.29766 0.489117,-0.66146 z M -5.701272,137.6047 c 0,-0.50933 0.05445,-0.71768 0.121,-0.46302 0.06655,0.25466 0.06655,0.67138 0,0.92604 -0.06655,0.25466 -0.121,0.0463 -0.121,-0.46302 z m 37.476374,0.66146 c -0.01818,-0.0728 -0.04978,-0.22159 -0.0702,-0.33073 -0.02043,-0.10914 -0.145066,-0.37703 -0.276993,-0.59532 -0.148235,-0.24526 -0.02273,-0.20649 0.328541,0.10151 0.312627,0.27411 0.504659,0.60153 0.426742,0.72761 -0.156816,0.25373 -0.357005,0.30128 -0.408094,0.0969 z m 53.795067,-0.52917 c 0.0054,-0.43656 0.06469,-0.58313 0.131774,-0.3257 0.06708,0.25744 0.06267,0.61462 -0.0098,0.79375 -0.07248,0.17914 -0.127363,-0.0315 -0.121971,-0.46805 z m -15.586322,-1.85208 c 0.0021,-0.72761 0.05337,-0.99386 0.114186,-0.59168 0.06082,0.40218 0.05919,0.9975 -0.0036,1.32292 -0.0628,0.32542 -0.112559,-0.004 -0.110574,-0.73124 z m -39.234005,0.64584 c 0,-0.15411 0.119062,-0.20661 0.264583,-0.11668 0.145521,0.0899 0.264584,0.21603 0.264584,0.2802 0,0.0642 -0.119063,0.11668 -0.264584,0.11668 -0.145521,0 -0.264583,-0.12609 -0.264583,-0.2802 z m -40.6844471,-0.77814 c 0,-0.50932 0.05445,-0.71768 0.121,-0.46302 0.06655,0.25466 0.06655,0.67138 0,0.92605 -0.06655,0.25466 -0.121,0.0463 -0.121,-0.46303 z m 41.0760491,-1.50529 c 0.531974,-1.1247 1.367729,-1.66971 2.560462,-1.66971 1.337268,0 2.245445,0.38481 2.624008,1.11182 l 0.316577,0.60798 -0.688732,-0.63333 c -0.460115,-0.42309 -1.108768,-0.67347 -1.954138,-0.75427 -1.312947,-0.1255 -2.010942,0.27313 -2.922812,1.66923 -0.18397,0.28166 -0.154885,0.13239 0.06463,-0.33172 z m -36.8525199,-0.2145 c 0.00539,-0.43656 0.06469,-0.58312 0.1317736,-0.32569 0.067083,0.25743 0.062672,0.61462 -0.0098,0.79375 -0.072476,0.17913 -0.127363,-0.0315 -0.1219708,-0.46806 z m -4.2029272,-1.5875 c 0.00148,-0.87312 0.05088,-1.19841 0.1097656,-0.72286 0.058886,0.47555 0.057671,1.18992 -0.0027,1.5875 -0.060371,0.39757 -0.1085506,0.008 -0.1070656,-0.86464 z m 95.4743671,-0.66146 c 0,-0.3638 0.06005,-0.51263 0.133453,-0.33072 0.0734,0.1819 0.0734,0.47955 0,0.66145 -0.0734,0.1819 -0.133453,0.0331 -0.133453,-0.33073 z M 72.02484,121.89245 c 0,-0.056 0.297656,-0.2969 0.661458,-0.53527 0.751036,-0.49209 0.860507,-0.39346 0.245684,0.22136 -0.379531,0.37953 -0.907142,0.56211 -0.907142,0.31391 z m -10.617083,-9.35699 c -0.329108,-0.41965 -0.319749,-0.42901 0.0999,-0.0999 0.254661,0.19972 0.463021,0.40808 0.463021,0.46302 0,0.21776 -0.217274,0.0776 -0.562917,-0.36312 z M 2.9685934,112.36942 c 0,-0.055 0.2083593,-0.2633 0.4630208,-0.46303 0.419645,-0.3291 0.4290033,-0.31974 0.099896,0.0999 -0.3456437,0.44073 -0.5629169,0.58089 -0.5629168,0.36313 z m 57.2571506,-1.28917 -0.504029,-0.59531 0.595313,0.50402 c 0.327422,0.27722 0.595312,0.54511 0.595312,0.59532 0,0.21173 -0.212934,0.0554 -0.686596,-0.50403 z m 18.413679,-0.30242 c 0,-0.0572 0.184777,-0.17489 0.410617,-0.26156 0.235458,-0.0904 0.341662,-0.046 0.248968,0.10399 -0.155379,0.25141 -0.659585,0.37186 -0.659585,0.15757 z m -0.298334,-1.41737 c -0.329107,-0.41965 -0.319749,-0.42901 0.0999,-0.0999 0.44073,0.34564 0.580888,0.56292 0.363125,0.56292 -0.05494,0 -0.2633,-0.20836 -0.463021,-0.46302 z m -1.852083,-2.64584 c -0.329107,-0.41964 -0.319749,-0.429 0.0999,-0.0999 0.254661,0.19972 0.463021,0.40808 0.463021,0.46302 0,0.21776 -0.217273,0.0776 -0.562917,-0.36313 z m -0.91743,-1.19062 -0.504028,-0.59531 0.595312,0.50403 c 0.559446,0.47366 0.715762,0.68659 0.504029,0.68659 -0.05021,0 -0.318098,-0.26789 -0.595313,-0.59531 z m -66.4104127,-0.52917 -0.5040286,-0.59531 0.5953125,0.50403 c 0.5594456,0.47366 0.7157614,0.68659 0.5040286,0.68659 -0.050207,0 -0.318098,-0.26789 -0.5953125,-0.59531 z m 64.9661007,-1.19062 -0.911799,-0.99219 0.992187,0.9118 c 0.545703,0.50149 0.992188,0.94797 0.992188,0.99219 0,0.20204 -0.223896,0.0117 -1.072576,-0.9118 z M 1.7779684,103.47348 c 0.2633901,-0.29104 0.5384218,-0.52917 0.6111822,-0.52917 0.07276,0 -0.083209,0.23813 -0.3465988,0.52917 -0.2633901,0.29104 -0.5384218,0.52916 -0.6111822,0.52916 -0.07276,0 0.083209,-0.23812 0.3465988,-0.52916 z m 6.0602783,-0.0661 -0.5040286,-0.59531 0.5953125,0.50403 c 0.5594456,0.47366 0.7157614,0.68659 0.5040286,0.68659 -0.050207,0 -0.3180979,-0.26789 -0.5953125,-0.59531 z m -1.3229166,-1.5875 -0.5040285,-0.59531 0.5953124,0.50403 c 0.5594456,0.47366 0.7157614,0.68659 0.5040286,0.68659 -0.050207,0 -0.3180979,-0.26789 -0.5953125,-0.59531 z m 9.4178459,0.33073 c 0.218281,-0.14106 0.515937,-0.25648 0.661458,-0.25648 0.145521,0 0.08599,0.11542 -0.132291,0.25648 -0.218282,0.14107 -0.515938,0.25648 -0.661459,0.25648 -0.14552,0 -0.08599,-0.11541 0.132292,-0.25648 z m 54.884394,-1.65364 -0.777105,-0.8599 0.859896,0.7771 c 0.801544,0.72438 0.981511,0.94269 0.777105,0.94269 -0.04554,0 -0.432488,-0.38695 -0.859896,-0.85989 z M 23.027316,99.853155 c 0.190995,-0.07643 0.419198,-0.06703 0.507119,0.02088 0.08792,0.08792 -0.06835,0.150445 -0.347265,0.138965 -0.308227,-0.0127 -0.37092,-0.0754 -0.159854,-0.159851 z m 1.322917,-0.264583 c 0.190995,-0.07643 0.419198,-0.06703 0.507119,0.02088 0.08792,0.08792 -0.06835,0.150452 -0.347266,0.138964 -0.308226,-0.0127 -0.370919,-0.07539 -0.159853,-0.159851 z m 1.30638,-0.259072 c 0.181901,-0.0734 0.479557,-0.0734 0.661458,0 0.181901,0.0734 0.03307,0.133453 -0.330729,0.133453 -0.363802,0 -0.51263,-0.06006 -0.330729,-0.133453 z m 43.42406,-0.287793 c -0.329107,-0.419645 -0.319749,-0.429003 0.0999,-0.0999 0.254661,0.199721 0.463021,0.40808 0.463021,0.463021 0,0.217763 -0.217273,0.07761 -0.562917,-0.363125 z m -41.704268,0.01605 c 0.254661,-0.06655 0.67138,-0.06655 0.926041,0 0.254662,0.06655 0.0463,0.121002 -0.463021,0.121002 -0.509323,0 -0.717682,-0.05445 -0.46302,-0.121002 z m 2.910416,-0.271706 c 0.400182,-0.06062 1.055026,-0.06062 1.455208,0 0.400183,0.06062 0.07276,0.110223 -0.727604,0.110223 -0.800364,0 -1.127786,-0.0496 -0.727604,-0.110223 z m 36.446352,-0.174972 c 0,-0.05494 0.20836,-0.2633 0.463021,-0.463021 0.419645,-0.329107 0.429003,-0.319749 0.0999,0.0999 -0.345644,0.44073 -0.562917,0.580888 -0.562917,0.363125 z m 1.289167,-0.363125 c -0.329108,-0.419645 -0.319749,-0.429003 0.0999,-0.0999 0.440729,0.345644 0.580887,0.562917 0.363124,0.562917 -0.05494,0 -0.2633,-0.208359 -0.46302,-0.463021 z M 32.358231,97.233722 c 0.0127,-0.308226 0.07539,-0.370919 0.15985,-0.159853 0.07643,0.190995 0.06703,0.419198 -0.02088,0.507119 -0.08792,0.08792 -0.150453,-0.06835 -0.138965,-0.347266 z m 5.577136,-0.903994 c 0,-0.363802 0.06005,-0.51263 0.133453,-0.330729 0.0734,0.181901 0.0734,0.479557 0,0.661458 -0.0734,0.181902 -0.133453,0.03307 -0.133453,-0.330729 z m -5.84172,-2.800172 c 0.0127,-0.308227 0.07539,-0.37092 0.159851,-0.159854 0.07643,0.190995 0.06703,0.419198 -0.02088,0.507119 -0.08792,0.08792 -0.150452,-0.06835 -0.138964,-0.347265 z m 6.106303,-1.962328 c 0,-0.363802 0.06005,-0.51263 0.133453,-0.330729 0.0734,0.181901 0.0734,0.479558 0,0.661459 -0.0734,0.181901 -0.133453,0.03307 -0.133453,-0.33073 z m -6.370886,-1.477256 c 0.0127,-0.308226 0.07539,-0.370919 0.159851,-0.159853 0.07643,0.190995 0.06703,0.419198 -0.02088,0.507119 -0.08792,0.08792 -0.150453,-0.06835 -0.138964,-0.347266 z m 10.512835,-2.40765 c 0.190994,-0.07643 0.4192,-0.06703 0.507118,0.02088 0.08792,0.08792 -0.06835,0.150453 -0.347265,0.138964 -0.308226,-0.0127 -0.370919,-0.07539 -0.159853,-0.15985 z"
         id="path4555" />
      <path
         style="fill:#010101;stroke-width:0.264583"
         d="m 69.646442,143.56129 c -0.179589,-0.21639 -0.255725,-0.67554 -0.16919,-1.02032 0.454305,-1.81009 0.667705,-6.85402 0.4157,-9.82546 -0.14836,-1.74932 -0.332896,-3.38952 -0.410086,-3.6449 -0.07786,-0.25761 0.01503,-0.51373 0.208627,-0.5753 0.191934,-0.061 3.385065,-0.94371 7.095846,-1.96149 3.710781,-1.01779 6.943791,-1.92811 7.184469,-2.02294 0.361016,-0.14225 0.509228,0.14336 0.846945,1.63207 0.657061,2.89643 1.039318,7.6496 0.847299,10.53574 -0.285517,4.29149 -0.660834,6.57809 -1.139981,6.94531 -0.320384,0.24554 -2.250236,0.33073 -7.49232,0.33073 -5.926068,0 -7.113259,-0.0632 -7.387309,-0.39344 z m -78.6881337,-0.85178 c -1.0265853,-5.02005 -0.9359021,-15.59324 0.1451361,-16.92216 0.1867617,-0.22958 0.7576309,-0.13751 2.2423079,0.36167 1.7690514,0.59479 1.9758733,0.73297 1.849688,1.23573 -0.6073423,2.41984 -0.9992122,7.43688 -0.8085929,10.35227 0.1141767,1.74625 0.2165438,3.71078 0.2274827,4.36562 l 0.019889,1.19063 -1.7623776,0.0777 c -1.7408428,0.0767 -1.7642246,0.0687 -1.9135332,-0.66146 z m 41.9081997,-3.96806 c -0.555831,-0.20225 -1.852083,-1.44404 -1.852083,-1.77426 0,-0.15068 0.184701,-0.0103 0.410443,0.31204 0.473972,0.67668 1.240126,1.13058 2.367682,1.40269 0.707266,0.17069 0.72168,0.19223 0.132292,0.19775 -0.363802,0.003 -0.840052,-0.0588 -1.058334,-0.13822 z m -2.065086,-3.1211 c 0.0054,-0.43656 0.06469,-0.58312 0.131773,-0.32569 0.06708,0.25743 0.06267,0.61462 -0.0098,0.79375 -0.07248,0.17913 -0.127362,-0.0315 -0.12197,-0.46806 z m 42.281751,-14.23897 c 0,-0.13146 3.845846,-2.65414 5.026493,-3.29713 0.363477,-0.19795 0.849103,-0.53026 1.079167,-0.73847 0.230063,-0.2082 0.516747,-0.37855 0.637074,-0.37855 0.120327,0 0.61169,-0.29969 1.091917,-0.66598 0.849005,-0.64757 0.880782,-0.65171 1.149453,-0.14968 0.658045,1.22956 0.446963,1.39937 -4.138353,3.3292 -2.420329,1.01865 -4.500758,1.89177 -4.623176,1.94028 -0.122417,0.0485 -0.222575,0.0307 -0.222575,-0.0397 z m -77.3906209,-1.0134 c -0.8731249,-0.44391 -1.8537411,-0.97563 -2.1791471,-1.18159 l -0.5916469,-0.37447 0.621298,-1.64995 c 1.2956859,-3.44089 3.5230692,-7.42927 5.94532737,-10.64578 1.97818893,-2.62684 5.08773353,-5.95313 5.56521383,-5.95313 0.2462741,0 1.4494773,1.20993 2.673789,2.68872 l 2.2260189,2.68872 -1.1773032,0.93109 c -3.9082766,3.09091 -8.49119574,8.62337 -10.5939704,12.78894 -0.4275729,0.84702 -0.8054572,1.53431 -0.8397424,1.5273 -0.034285,-0.007 -0.7767121,-0.37593 -1.6498371,-0.81985 z m 67.1476219,-6.12111 c -0.613183,-0.9049 -1.766552,-2.38841 -2.563043,-3.2967 l -1.448167,-1.65142 3.726627,-4.96316 c 2.049644,-2.72973 4.023346,-5.284715 4.386003,-5.677732 l 0.659376,-0.714581 1.601684,1.232468 c 2.216123,1.705265 5.08005,4.648625 6.924669,7.116725 0.853279,1.14169 1.90259,2.53516 2.331805,3.0966 0.944787,1.23585 1.087419,1.11905 -3.126997,2.56064 -1.74625,0.59732 -4.996492,1.7325 -7.222759,2.52261 -2.226265,0.79012 -4.071734,1.4328 -4.101042,1.4282 -0.02931,-0.005 -0.554977,-0.74875 -1.168156,-1.65365 z m -10.3945,-9.6193 c -3.109256,-2.02774 -8.515984,-4.20127 -12.792902,-5.142802 -0.851464,-0.187444 -1.593173,-0.467992 -1.648243,-0.623443 -0.05507,-0.155451 0.04627,-2.72342 0.225194,-5.706597 l 0.325327,-5.423958 1.237546,-0.07986 c 1.457886,-0.09408 6.034045,0.544835 9.213495,1.286364 5.245732,1.223439 12.699999,4.248052 12.699999,5.153102 0,0.555125 -7.179592,11.494904 -7.540624,11.489894 -0.145521,-0.002 -0.919427,-0.43073 -1.719792,-0.9527 z m -39.739044,-5.307145 -2.035921,-3.34726 1.824823,-1.135623 c 4.521123,-2.813574 10.149234,-5.074671 15.37885,-6.178463 3.228829,-0.681495 3.933793,-0.684482 3.933793,-0.01667 0,0.582665 0.456933,6.587135 0.657752,8.643408 l 0.132133,1.352954 -2.577754,0.186177 c -3.705211,0.26761 -7.224344,1.007941 -11.098749,2.334872 -1.861891,0.63768 -3.56385,1.23781 -3.782131,1.33364 -0.296016,0.12995 -0.914273,-0.67642 -2.432796,-3.173027 z"
         id="path4553" />
    </g>
  </g>
</svg>
