<?xml version="1.0" encoding="UTF-8" standalone="no"?>
<!-- Created with Inkscape (http://www.inkscape.org/) -->

<svg
   width="36.247917mm"
   height="42.068748mm"
   viewBox="0 0 36.247918 42.068748"
   version="1.1"
   id="svg5"
   sodipodi:docname="view2.svg"
   inkscape:version="1.1 (c68e22c387, 2021-05-23)"
   xmlns:inkscape="http://www.inkscape.org/namespaces/inkscape"
   xmlns:sodipodi="http://sodipodi.sourceforge.net/DTD/sodipodi-0.dtd"
   xmlns="http://www.w3.org/2000/svg"
   xmlns:svg="http://www.w3.org/2000/svg">
  <sodipodi:namedview
     id="namedview7"
     pagecolor="#ffffff"
     bordercolor="#666666"
     borderopacity="1.0"
     inkscape:pageshadow="2"
     inkscape:pageopacity="0.0"
     inkscape:pagecheckerboard="0"
     inkscape:document-units="mm"
     showgrid="false"
     inkscape:zoom="0.74118967"
     inkscape:cx="18.888552"
     inkscape:cy="242.17823"
     inkscape:window-width="1920"
     inkscape:window-height="1017"
     inkscape:window-x="-8"
     inkscape:window-y="-8"
     inkscape:window-maximized="1"
     inkscape:current-layer="layer1" />
  <defs
     id="defs2" />
  <g
     inkscape:label="Ebene 1"
     inkscape:groupmode="layer"
     id="layer1"
     transform="translate(-100.06205,-84.429153)">
    <g
       id="g3583">
      <path
         style="fill:#e8e7e7;stroke-width:0.264583"
         d="m 104.29538,126.24382 -4.10104,-0.14279 0.0458,-0.69851 c 0.0416,-0.63374 6.48917,-15.1675 6.93949,-15.64257 0.10505,-0.11082 -0.23305,-1.05619 -0.75133,-2.10081 -0.91117,-1.83654 -0.94205,-1.99605 -0.93421,-4.82559 0.008,-2.71443 0.0716,-3.074725 0.88464,-4.976919 2.1964,-5.138527 5.71531,-7.901598 11.1127,-8.725769 1.44102,-0.22004 2.1225,-0.453291 2.38508,-0.816337 0.32508,-0.449462 0.61592,-0.493625 2.51354,-0.381665 2.90957,0.171664 4.817,0.942647 6.7425,2.72532 1.7999,1.666392 3.04717,3.856357 3.45059,6.058559 0.29453,1.607844 0.0382,5.779691 -0.54112,8.805171 -0.41144,2.14885 -1.73743,4.52576 -3.52021,6.31012 -4.6057,4.60978 -11.7579,5.31616 -16.95629,1.67468 -0.83098,-0.58211 -1.55418,-1.01507 -1.6071,-0.96215 -0.0529,0.0529 0.92406,2.76759 2.17108,6.03259 1.24702,3.26501 2.27155,6.2039 2.27674,6.53087 0.005,0.32698 -0.1391,0.77346 -0.32063,0.99219 -0.35378,0.42628 -1.28145,0.43989 -9.79026,0.14361 z m 8.73125,-1.30653 c 0,-0.25992 -4.69404,-12.6461 -5.00314,-13.2018 -0.11521,-0.20713 -1.39943,2.30412 -3.2473,6.34999 l -3.05671,6.69263 3.60306,0.14371 c 6.39293,0.255 7.70409,0.25763 7.70409,0.0155 z m 6.96995,-11.74925 0.75224,-0.3214 -1.86409,-1.27368 c -3.18103,-2.1735 -8.54775,-8.19736 -10.35556,-11.623559 -0.36355,-0.689012 -0.74589,-1.252749 -0.84964,-1.252749 -0.29066,0 -1.0029,2.625278 -1.0029,3.696598 0,1.26074 0.65332,3.72213 1.35088,5.08945 0.594,1.16434 2.78843,3.62257 4.01086,4.49302 1.91464,1.36333 6.09285,1.98933 7.95821,1.19232 z m 2.47616,-1.68285 c 0.18632,-0.48554 -0.86014,-2.65421 -2.11995,-4.39332 l -0.79186,-1.09314 -0.52659,1.76669 c -0.60368,2.02534 -0.57855,2.08835 1.33969,3.35893 1.37364,0.90986 1.8562,0.99283 2.09871,0.36084 z m -4.40554,-7.35022 c -0.69644,-0.74134 -0.79825,-0.70985 -2.39319,0.74015 l -1.12096,1.01909 1.41961,1.43858 1.4196,1.43859 0.64712,-1.9886 0.64712,-1.9886 z m -1.60098,-1.72017 c 0,-0.10248 -0.27387,-0.4436 -0.60859,-0.75806 l -0.60858,-0.57173 -1.80827,0.51712 c -0.99455,0.28442 -1.84446,0.55331 -1.88869,0.59753 -0.0442,0.0442 0.40249,0.70017 0.99271,1.45763 l 1.07312,1.37721 1.42415,-1.21669 c 0.78328,-0.66918 1.42415,-1.30053 1.42415,-1.40301 z m -3.63802,-1.88551 c 0.69122,-0.16938 1.25113,-0.38312 1.24425,-0.47499 -0.0445,-0.593472 -4.84849,-3.728581 -5.19005,-3.38703 -0.60585,0.605853 1.43855,4.54259 2.23568,4.30506 0.24934,-0.0743 1.01889,-0.27366 1.71012,-0.44304 z m 8.87631,-0.929748 c 0.0434,-0.303776 -0.0903,-0.692783 -0.2972,-0.864461 -0.76393,-0.634004 -1.8325,0.434571 -1.1985,1.1985 0.44854,0.540449 1.40115,0.327699 1.4957,-0.334039 z m 8.56148,-5.319585 c -0.80789,-1.583595 -2.5587,-3.217858 -4.36053,-4.070271 -2.41353,-1.141799 -3.35808,-1.00474 -1.04625,0.151819 2.10227,1.051724 3.85629,2.49695 4.95546,4.083048 0.9188,1.325824 1.16573,1.235768 0.45132,-0.164596 z m 4.06117,8.652563 c -0.0891,-0.14413 -0.0167,-1.21108 0.16088,-2.37099 0.60445,-3.948554 -0.71209,-7.992544 -3.5198,-10.811652 -2.5395,-2.549807 -5.41284,-3.753225 -8.9614,-3.753225 -1.33459,0 -2.13336,-0.117021 -2.31809,-0.339603 -0.83901,-1.010947 1.55058,-1.527597 4.62476,-0.99991 5.36657,0.921179 9.94662,5.106688 11.3475,10.369996 0.42486,1.596258 0.49483,5.123314 0.13261,6.684784 -0.28906,1.24612 -1.05611,1.88456 -1.46646,1.2206 z"
         id="path3621" />
      <path
         style="fill:#d3d2d2;stroke-width:0.264583"
         d="m 100.40203,125.93829 c -0.39693,-0.39693 -0.22705,-0.82788 3.71839,-9.43279 l 3.30782,-7.21427 -0.63135,-1.12961 c -2.55254,-4.56698 -1.39866,-10.789878 2.78697,-15.030209 2.51966,-2.552592 5.60899,-3.939758 8.77416,-3.939758 1.24598,0 1.50307,-0.07324 1.38029,-0.393198 -0.23608,-0.615205 1.13066,-1.001597 2.96308,-0.837695 4.48036,0.40075 7.95708,3.119101 9.38548,7.338249 0.52631,1.554573 0.559,2.008963 0.38744,5.384511 -0.21237,4.17825 -0.59087,5.92767 -1.75507,8.11192 -2.269,4.2571 -6.59924,6.83758 -11.49302,6.84896 -3.46614,0.008 -6.10179,-0.86551 -8.51469,-2.82216 -0.61846,-0.50152 -1.12448,-0.84475 -1.12448,-0.76273 0,0.082 1.08611,3.0005 2.41357,6.48552 1.76204,4.62595 2.36777,6.51887 2.24392,7.01235 l -0.16965,0.67594 h -6.68892 c -4.56661,0 -6.78253,-0.0936 -6.98394,-0.29503 z m 12.53002,-1.35862 c -0.20705,-0.81117 -4.81934,-12.87347 -4.9863,-13.04043 -0.0734,-0.0734 -1.50805,2.87539 -3.18823,6.55275 l -3.05486,6.68612 3.34688,0.14442 c 1.84079,0.0794 4.40159,0.16873 5.69067,0.19844 2.31044,0.0533 2.34163,0.0456 2.19184,-0.5413 z m 7.06468,-11.41549 0.75239,-0.29734 -1.879,-1.28386 c -3.0909,-2.11192 -8.29071,-7.93848 -10.23928,-11.47345 -0.41997,-0.761891 -0.83377,-1.386969 -0.91955,-1.389066 -0.31069,-0.0076 -0.82369,1.481076 -0.95859,2.781716 -0.18004,1.7359 0.29678,3.96088 1.26334,5.89514 0.94408,1.88928 3.68807,4.60893 5.42565,5.37755 2.21841,0.98131 4.68621,1.12787 6.55504,0.38931 z m 2.5549,-1.77664 c 0,-0.68888 -1.37387,-3.30686 -2.34727,-4.47284 l -0.72141,-0.86413 -0.49935,1.64924 c -0.58764,1.94083 -0.50326,2.16016 1.30275,3.38611 1.48816,1.01019 2.26528,1.11366 2.26528,0.30162 z m -4.56112,-7.29811 -0.70303,-0.70303 -1.27053,1.16076 c -0.69879,0.63842 -1.30973,1.25314 -1.35764,1.36605 -0.0479,0.11291 0.54395,0.81996 1.31525,1.57122 l 1.40235,1.36594 0.65832,-2.02895 0.65832,-2.02895 z m -1.62477,-1.45551 c 0.0911,-0.14747 -0.11685,-0.55016 -0.46222,-0.89487 -0.62301,-0.62183 -0.64035,-0.62349 -2.21543,-0.21228 -2.3664,0.61779 -2.35471,0.59582 -1.14344,2.15033 l 1.07771,1.3831 1.28883,-1.07907 c 0.70886,-0.59349 1.36341,-1.19973 1.45455,-1.34721 z m -3.53754,-2.08463 c 0.69122,-0.16938 1.25287,-0.38312 1.2481,-0.47499 -0.0142,-0.273449 -3.22898,-2.718694 -4.1552,-3.160536 -0.47111,-0.22474 -0.93189,-0.333299 -1.02395,-0.241243 -0.62987,0.62987 1.38935,4.567879 2.21582,4.321439 0.25215,-0.0752 1.024,-0.27529 1.71523,-0.44467 z m 8.87631,-0.929748 c 0.0434,-0.303776 -0.0903,-0.692783 -0.2972,-0.864461 -0.76393,-0.634004 -1.8325,0.434571 -1.1985,1.1985 0.44854,0.540449 1.40115,0.327699 1.4957,-0.334039 z m 8.67261,-5.250751 c -1.29792,-2.652856 -4.38196,-4.782251 -7.34205,-5.06936 l -1.40948,-0.136711 1.55877,0.559439 c 2.9325,1.052464 6.00624,3.487254 7.19941,5.702852 0.77537,1.439767 0.76964,0.530462 -0.007,-1.05622 z m 3.95972,8.334819 c -0.0937,-0.15163 -0.0459,-0.72377 0.10615,-1.27142 0.15209,-0.54766 0.27719,-1.774403 0.278,-2.726095 0.006,-7.098664 -5.39664,-12.608145 -12.56623,-12.814615 -1.89625,-0.05461 -2.39771,-0.151598 -2.46205,-0.476199 -0.12413,-0.626282 0.30821,-0.754389 2.5295,-0.749507 7.36062,0.01618 13.30189,5.753943 13.72732,13.257128 0.1467,2.587318 -0.30798,4.839338 -1.00396,4.972508 -0.24109,0.0461 -0.51502,-0.0402 -0.60873,-0.1918 z"
         id="path3619" />
      <path
         style="fill:#c9b5b5;stroke-width:0.264583"
         d="m 100.65736,126.05809 c -0.1819,-0.0734 -0.33073,-0.36668 -0.33073,-0.65174 0,-0.44921 6.24098,-14.45697 6.93934,-15.57522 0.18682,-0.29916 0.0322,-0.85421 -0.56577,-2.03093 -1.93402,-3.80592 -1.57156,-8.023942 1.06726,-12.4196 2.18652,-3.642236 6.61186,-6.188947 10.75434,-6.188947 0.77837,0 1.35653,-0.09498 1.28478,-0.211071 -0.59318,-0.95979 2.0671,-1.383117 4.61115,-0.733764 3.36181,0.85808 5.69752,2.787686 7.22876,5.971918 0.8145,1.693766 0.8264,1.776346 0.78651,5.456947 -0.0223,2.055437 -0.18274,4.436687 -0.35658,5.291667 -1.25542,6.17421 -6.72363,10.68263 -12.9568,10.68263 -3.37324,0 -6.33826,-1.0493 -8.71596,-3.08452 l -1.02723,-0.87927 2.24889,5.8845 c 1.23689,3.23648 2.36822,6.21403 2.51407,6.61678 0.14585,0.40275 0.191,1.02783 0.10034,1.38906 l -0.16484,0.65679 -6.5434,-0.0209 c -3.59887,-0.0115 -6.69223,-0.0809 -6.87413,-0.15434 z m 10.33195,-6.77008 c -1.23741,-3.23784 -2.37304,-6.24417 -2.52362,-6.68073 -0.15058,-0.43657 -0.35751,-0.88778 -0.45984,-1.0027 -0.10234,-0.11492 -1.57013,2.80211 -3.26175,6.48229 l -3.07567,6.69124 2.96712,0.14566 c 1.63192,0.0801 4.23533,0.16941 5.78536,0.19844 l 2.81823,0.0528 z m 9.12326,-6.12768 c 0.57995,-0.29974 0.52676,-0.36567 -1.35499,-1.67951 -3.16306,-2.20845 -7.89081,-7.50725 -10.02416,-11.23495 -0.47639,-0.832412 -0.93635,-1.517021 -1.02213,-1.521349 -0.30917,-0.0156 -0.82344,1.474559 -0.95859,2.777659 -0.32203,3.10498 1.09431,6.54067 3.74607,9.08702 1.7506,1.68101 3.27627,2.53545 5.24505,2.93745 1.30343,0.26613 3.50171,0.0818 4.36875,-0.36632 z m 2.43906,-1.75247 c 0,-0.67783 -1.01133,-2.67395 -2.13736,-4.21862 l -0.86363,-1.18471 -0.46337,1.317 c -0.78201,2.22262 -0.69826,2.5314 0.98768,3.64168 1.69372,1.11541 2.47668,1.25597 2.47668,0.44465 z m -4.56112,-7.31843 -0.70303,-0.70303 -1.27053,1.16076 c -0.69879,0.63842 -1.31332,1.26393 -1.36563,1.39002 -0.0523,0.1261 0.53762,0.83912 1.31094,1.58451 l 1.40604,1.35524 0.66262,-2.04223 0.66263,-2.04223 z m -1.62477,-1.45551 c 0.0911,-0.14747 -0.11685,-0.54868 -0.46222,-0.89158 -0.62629,-0.62182 -0.63241,-0.62234 -2.34772,-0.20034 -0.94589,0.23271 -1.81275,0.50549 -1.92637,0.60618 -0.11361,0.10069 0.28472,0.80011 0.88518,1.55425 l 1.09174,1.37117 1.29684,-1.08577 c 0.71326,-0.59717 1.37141,-1.20643 1.46255,-1.35391 z m -3.53754,-2.08463 c 0.69122,-0.16938 1.25677,-0.38954 1.25677,-0.48926 0,-0.211318 -3.29964,-2.726462 -4.1498,-3.163175 -0.87666,-0.450332 -1.14187,-0.362602 -1.14187,0.377728 0,1.297232 1.65156,3.917587 2.34016,3.712867 0.24088,-0.0716 1.00351,-0.26878 1.69474,-0.43816 z m 8.87631,-0.929748 c 0.0434,-0.303776 -0.0903,-0.692783 -0.2972,-0.864461 -0.76393,-0.634004 -1.8325,0.434571 -1.1985,1.1985 0.44854,0.540449 1.40115,0.327699 1.4957,-0.334039 z m 9.04429,-4.427174 c -1.16084,-3.102622 -4.50894,-5.624314 -7.82222,-5.891476 l -1.56557,-0.126238 1.45521,0.493207 c 3.27931,1.111445 5.94414,3.171462 7.54062,5.829196 0.43656,0.726767 0.8277,1.287896 0.8692,1.246954 0.0415,-0.04094 -0.17326,-0.739181 -0.47724,-1.551643 z m 3.6177,7.559222 c -0.0774,-0.12523 -0.0318,-0.69737 0.10131,-1.27142 0.89791,-3.872095 -0.29687,-8.373812 -3.02896,-11.412547 -2.41006,-2.680562 -5.41477,-4.042835 -9.24573,-4.191812 -1.28858,-0.05011 -2.40462,-0.152848 -2.48008,-0.228306 -0.0755,-0.07546 -0.0667,-0.320925 0.0195,-0.545483 0.12406,-0.323293 0.62077,-0.408286 2.38606,-0.408286 7.48033,0 13.40201,5.664027 13.83095,13.229166 0.1467,2.587318 -0.30798,4.839338 -1.00396,4.972508 -0.24109,0.0461 -0.50167,-0.0186 -0.57907,-0.14382 z"
         id="path3617" />
      <path
         style="fill:#afaeae;stroke-width:0.264583"
         d="m 100.65736,126.05809 c -0.1819,-0.0734 -0.33073,-0.35369 -0.33073,-0.62287 0,-0.41982 3.66748,-8.7284 6.32348,-14.32567 l 0.83624,-1.76232 -0.79648,-1.56738 c -1.56825,-3.08611 -1.57675,-6.45717 -0.0257,-10.183017 2.0168,-4.844564 6.29618,-7.99758 11.32338,-8.342976 1.63164,-0.112103 1.91823,-0.203864 1.91823,-0.614176 0,-1.141981 4.14454,-0.865115 6.84776,0.457448 2.0084,0.982621 3.84941,2.892662 4.8751,5.057908 0.84249,1.778516 0.8447,1.794414 0.7904,5.700136 -0.0849,6.110787 -1.00454,8.816697 -4.0289,11.855057 -2.68075,2.69315 -5.66492,3.94291 -9.39984,3.93661 -3.11842,-0.005 -5.86586,-0.97261 -8.35859,-2.943 l -1.30509,-1.03161 0.54961,1.39356 c 3.08553,7.82352 4.48146,11.85227 4.32404,12.47947 l -0.17269,0.68806 -6.51975,-0.0209 c -3.58587,-0.0115 -6.66859,-0.0809 -6.85049,-0.15434 z m 12.54495,-1.08154 c -0.0939,-0.1551 -3.16742,-8.17747 -4.93036,-12.86899 -0.15796,-0.42036 -0.34975,-0.70175 -0.4262,-0.6253 -0.0764,0.0764 -1.49747,3.09928 -3.15783,6.71742 l -3.01884,6.57843 2.70221,0.14664 c 4.39248,0.23838 8.9602,0.26517 8.83102,0.0518 z m 6.94501,-11.75052 c 0.72408,-0.27396 0.79531,-0.19059 -1.73486,-2.03072 -3.4253,-2.49115 -7.97912,-7.74712 -9.99179,-11.532422 l -0.65815,-1.237817 -0.43284,0.837019 c -0.60336,1.16677 -0.77207,3.2953 -0.40233,5.07629 0.92133,4.43804 4.65056,8.34656 8.7571,9.17813 1.24732,0.25258 3.39743,0.11263 4.46287,-0.29048 z m 2.50296,-1.49036 c 0.25774,-0.41703 -2.53467,-5.60058 -3.02126,-5.60837 -0.0795,-0.001 -0.39667,0.77331 -0.70488,1.7213 -0.64285,1.97724 -0.63247,2.00049 1.49648,3.35103 1.16988,0.74212 1.98167,0.93729 2.22966,0.53604 z m -4.46279,-5.29396 0.48765,-1.66765 -0.68317,-0.68317 -0.68316,-0.68316 -1.34721,1.16019 c -0.74096,0.6381 -1.34727,1.2665 -1.34734,1.39643 -7e-5,0.12992 0.60513,0.84149 1.3449,1.58125 1.516,1.51601 1.45312,1.54716 2.22833,-1.10389 z m -1.82175,-3.80779 c 0.0911,-0.14747 -0.11685,-0.54868 -0.46222,-0.89158 -0.62629,-0.62182 -0.63241,-0.62234 -2.34772,-0.20034 -0.94589,0.23271 -1.81275,0.50549 -1.92637,0.60618 -0.11361,0.10069 0.28472,0.80011 0.88518,1.55425 l 1.09174,1.37117 1.29684,-1.08577 c 0.71326,-0.59717 1.37141,-1.20643 1.46255,-1.35391 z m -3.9888,-1.96506 c 0.93942,-0.23597 1.70588,-0.50386 1.70326,-0.59531 -0.0136,-0.474311 -4.28063,-3.473564 -4.94183,-3.473564 -0.60582,0 -0.37475,1.334083 0.50975,2.942995 0.47015,0.855209 0.89217,1.554919 0.93781,1.554919 0.0456,0 0.8516,-0.19307 1.79101,-0.42904 z m 9.32911,-1.190804 c 0.0847,-0.73083 -0.43011,-1.129031 -1.11833,-0.864934 -0.98964,0.379758 -0.57188,1.788738 0.48555,1.637648 0.37308,-0.0533 0.57843,-0.304063 0.63278,-0.772714 z m 9.03829,-4.297602 c -1.17524,-3.141123 -4.46603,-5.603883 -7.87436,-5.893016 l -1.50897,-0.128008 1.7259,0.611424 c 3.12295,1.106346 5.92521,3.357586 7.42656,5.966234 0.34567,0.600611 0.66438,1.056124 0.70826,1.012252 0.0439,-0.04387 -0.17095,-0.749871 -0.47739,-1.568886 z m 3.61311,7.556486 c -0.0724,-0.11717 -0.0228,-0.68272 0.11036,-1.25677 0.35616,-1.535887 0.30025,-4.553087 -0.11315,-6.10563 -0.92718,-3.48214 -3.61351,-6.727755 -6.84309,-8.267803 -1.86288,-0.888331 -4.77657,-1.484425 -6.27405,-1.283571 -1.16897,0.156793 -1.7396,-0.109793 -1.51087,-0.705852 0.22285,-0.580745 4.04277,-0.581676 6.01811,-0.0015 3.43375,1.008585 6.70831,3.547738 8.40926,6.52069 1.26429,2.209744 1.99667,5.408748 1.80558,7.886704 -0.0851,1.103282 -0.27623,2.325642 -0.42478,2.716362 -0.25803,0.67866 -0.89819,0.94908 -1.17737,0.49734 z"
         id="path3615" />
      <path
         style="fill:#908e8e;stroke-width:0.264583"
         d="m 101.02524,126.04101 c -0.67857,-0.10136 -0.7407,-0.19253 -0.60243,-0.88387 0.18564,-0.92822 6.45294,-14.784 6.91102,-15.27894 0.25591,-0.27648 0.13931,-0.69174 -0.56853,-2.02476 -1.94811,-3.66875 -1.51505,-8.430756 1.15072,-12.653622 2.1535,-3.411358 6.78788,-6.008165 10.72245,-6.008165 1.07152,0 1.26733,-0.07817 1.26733,-0.505911 0,-1.140554 4.04654,-0.892227 6.81709,0.41835 1.97669,0.935051 3.88698,2.900031 4.9015,5.041813 0.8355,1.763861 0.84839,1.849931 0.80381,5.364497 -0.025,1.968638 -0.22311,4.417078 -0.44145,5.454918 -1.31274,6.23998 -6.65699,10.67022 -12.88526,10.68152 -3.03304,0.006 -5.68363,-0.925 -8.38927,-2.94511 l -1.38838,-1.0366 0.49266,1.26482 c 3.52643,9.05355 4.54339,11.97943 4.38419,12.61372 l -0.17309,0.68965 -6.12288,-0.0396 c -3.36758,-0.0218 -6.46335,-0.0905 -6.87948,-0.15267 z m 11.86526,-1.85821 c -0.21805,-0.54571 -1.39237,-3.61157 -2.60961,-6.81302 -1.21725,-3.20146 -2.29235,-5.82084 -2.38913,-5.82084 -0.0968,0 -1.53823,2.97657 -3.20324,6.61459 l -3.0273,6.61458 2.44156,0.14779 c 1.34286,0.0813 3.95864,0.17059 5.81286,0.19844 l 3.37129,0.0506 z m 7.21335,-10.94868 0.85951,-0.27075 -1.65326,-1.08292 c -3.21018,-2.10274 -9.04658,-8.62779 -10.85298,-12.133556 l -0.68783,-1.334913 -0.44302,0.856696 c -1.55276,3.002713 -0.1963,8.120353 2.97234,11.214013 2.937,2.8675 6.37457,3.83211 9.80524,2.75143 z m 2.54643,-1.49845 c 0.2598,-0.42037 -2.53613,-5.60081 -3.02689,-5.60837 -0.0826,-0.001 -0.36577,0.68229 -0.62935,1.51904 -0.26358,0.83674 -0.53057,1.65557 -0.59333,1.81961 -0.0628,0.16404 0.62097,0.78912 1.51939,1.38906 1.56582,1.04561 2.45164,1.33135 2.73018,0.88066 z m -4.46279,-5.29396 0.48765,-1.66765 -0.68317,-0.68317 -0.68316,-0.68316 -1.34721,1.16019 c -0.74096,0.6381 -1.34727,1.29273 -1.34734,1.45471 -7e-5,0.16199 0.60986,0.8651 1.35541,1.56247 1.52467,1.42615 1.4561,1.4615 2.21782,-1.14339 z m -2.1342,-3.47261 c 0.50961,-0.56449 0.50871,-0.57273 -0.13229,-1.20928 l -0.64541,-0.64092 -1.71979,0.4231 c -0.94589,0.23271 -1.81275,0.50549 -1.92637,0.60618 -0.11361,0.10069 0.28444,0.79976 0.88456,1.55348 l 1.09113,1.3704 0.96753,-0.76731 c 0.53214,-0.42201 1.19843,-1.02306 1.48064,-1.33565 z m -3.35631,-2.35274 1.65471,-0.46294 -1.1553,-0.965714 c -1.45592,-1.216996 -3.60546,-2.58772 -4.05802,-2.58772 -0.60582,0 -0.37475,1.334083 0.50975,2.942995 0.47015,0.855209 0.97617,1.550739 1.12448,1.545629 0.14831,-0.005 1.01428,-0.21762 1.92438,-0.47225 z m 9.00907,-1.138304 c 0.0847,-0.73083 -0.43011,-1.129031 -1.11833,-0.864934 -0.98964,0.379758 -0.57188,1.788738 0.48555,1.637648 0.37308,-0.0533 0.57843,-0.304063 0.63278,-0.772714 z m 9.43328,-3.208799 c -0.50658,-2.34697 -2.75654,-5.071289 -5.10636,-6.18293 -0.99667,-0.4715 -2.04495,-0.731284 -3.20844,-0.79511 l -1.7281,-0.0948 1.27229,0.37104 c 3.40955,0.994328 7.07425,3.861865 8.22674,6.437236 0.60122,1.343481 0.79733,1.438881 0.54387,0.264564 z m 3.2118,6.457463 c -0.0759,-0.1228 -0.009,-0.68835 0.14815,-1.25677 0.16159,-0.58369 0.23224,-2.159186 0.1623,-3.619885 -0.11356,-2.371931 -0.21354,-2.766811 -1.20588,-4.7625 -2.32416,-4.674101 -6.71423,-7.335495 -12.10018,-7.335495 -1.52689,0 -1.7417,-0.05975 -1.66475,-0.463021 0.0729,-0.38211 0.42856,-0.476716 2.03524,-0.541393 2.52438,-0.10162 4.36584,0.296428 6.64405,1.436172 4.89607,2.449401 8.12512,8.326633 7.56712,13.772993 -0.0944,0.921879 -0.28439,1.972479 -0.42208,2.334659 -0.24416,0.64216 -0.88743,0.8827 -1.16397,0.43524 z"
         id="path3613" />
      <path
         style="fill:#887474;stroke-width:0.264583"
         d="m 101.28929,126.03882 c -0.95109,-0.0983 -1.01184,-0.15488 -0.87896,-0.81932 0.16115,-0.80571 6.61177,-15.0479 6.98427,-15.4204 0.14447,-0.14447 -0.1224,-0.97202 -0.66773,-2.07065 -1.69601,-3.41677 -1.59123,-6.76563 0.33614,-10.742708 1.90454,-3.929975 4.94653,-6.455105 8.89866,-7.386688 0.93235,-0.219769 2.20119,-0.401339 2.81965,-0.40349 0.92111,-0.0032 1.12448,-0.0935 1.12448,-0.499262 0,-1.154466 4.12863,-0.882254 6.86292,0.452492 1.94531,0.949604 3.75957,2.826928 4.82445,4.992171 0.85595,1.740409 0.87962,1.878045 0.85432,4.968777 -0.0524,6.399678 -1.14584,9.715048 -4.18988,12.703788 -4.96617,4.87593 -12.43332,5.07884 -18.08422,0.4914 l -0.86887,-0.70536 0.29408,0.76844 c 3.84231,10.0399 4.74057,12.62393 4.59288,13.21238 l -0.16388,0.65293 -5.8583,-0.0445 c -3.22206,-0.0245 -6.31806,-0.092 -6.88001,-0.15002 z m 11.50395,-2.12061 c -0.26963,-0.69122 -1.47679,-3.84795 -2.68257,-7.01495 -1.20577,-3.16701 -2.21888,-5.72685 -2.25134,-5.68855 -0.0576,0.068 -5.86068,12.7207 -6.12464,13.35387 -0.14526,0.34846 1.39398,0.45592 7.91465,0.55255 l 3.63416,0.0539 z m 7.34345,-10.67738 0.85917,-0.2995 -1.66951,-1.06949 c -3.13428,-2.00783 -9.06539,-8.62415 -10.86923,-12.124946 l -0.68783,-1.334913 -0.44302,0.856696 c -1.00929,1.951763 -0.75779,5.311043 0.60852,8.127913 0.82019,1.69095 3.3179,4.30838 4.86401,5.09715 2.43776,1.24365 5.12781,1.51753 7.33789,0.74709 z m 2.51359,-1.50516 c 0.2598,-0.42037 -2.53613,-5.60081 -3.02689,-5.60837 -0.0826,-0.001 -0.36577,0.68229 -0.62935,1.51904 -0.26358,0.83674 -0.53057,1.65557 -0.59333,1.81961 -0.0628,0.16404 0.62097,0.78912 1.51939,1.38906 1.56582,1.04561 2.45164,1.33135 2.73018,0.88066 z m -4.28673,-5.70318 c 0.27001,-1.00955 0.24602,-1.23054 -0.19994,-1.84195 -0.27872,-0.38212 -0.60373,-0.6985 -0.72225,-0.70307 -0.3459,-0.0134 -2.82695,2.21151 -2.8271,2.53516 -7e-5,0.16199 0.6178,0.87252 1.37304,1.57896 l 1.37316,1.28443 0.34813,-0.85318 c 0.19148,-0.46924 0.48621,-1.36941 0.65496,-2.00035 z m -2.31026,-3.06339 c 0.50961,-0.56449 0.50871,-0.57273 -0.13229,-1.20928 l -0.64541,-0.64092 -1.71979,0.4231 c -0.94589,0.23271 -1.81275,0.50549 -1.92637,0.60618 -0.11361,0.10069 0.28444,0.79976 0.88456,1.55348 l 1.09113,1.3704 0.96753,-0.76731 c 0.53214,-0.42201 1.19843,-1.02306 1.48064,-1.33565 z m -3.33121,-2.34807 1.67983,-0.47481 -1.15264,-0.944503 c -1.49308,-1.223467 -3.67082,-2.601731 -4.1109,-2.601731 -0.19556,0 -0.34507,0.299191 -0.34507,0.690568 0,0.821271 1.53401,3.807796 1.95509,3.806316 0.16163,-5.6e-4 1.04979,-0.2147 1.97369,-0.47584 z m 9.02597,-0.82767 c 0.20635,-0.385567 0.17157,-0.612595 -0.14188,-0.926042 -0.52164,-0.521642 -0.76253,-0.521543 -1.2846,5.29e-4 -0.47431,0.474311 -0.47013,0.457633 -0.25517,1.017795 0.22474,0.585668 1.35192,0.523818 1.68165,-0.09228 z m 8.85855,-5.031032 c -0.84684,-1.887016 -2.96626,-4.016179 -4.80936,-4.831469 -0.75616,-0.334488 -1.98852,-0.592108 -3.10905,-0.64994 l -1.85635,-0.09581 1.38258,0.393064 c 3.46377,0.984741 6.42465,3.165884 8.01232,5.90231 1.12155,1.933044 1.36397,1.474731 0.37986,-0.718157 z m 4.03044,4.962936 c 0.13179,-2.896219 0.0838,-3.448341 -0.43292,-4.977361 -1.88999,-5.592977 -6.76915,-8.995833 -12.89862,-8.995833 -1.48035,0 -1.69115,-0.06056 -1.61184,-0.463021 0.0798,-0.404706 0.42375,-0.461857 2.73138,-0.453777 3.0853,0.0108 4.59955,0.440666 6.98623,1.983247 4.79157,3.096945 7.34974,8.745704 6.34832,14.017921 -0.27689,1.45775 -0.49335,1.99997 -0.82323,2.0621 -0.40709,0.0767 -0.43416,-0.21026 -0.29932,-3.173276 z"
         id="path3611" />
      <path
         style="fill:#c94a49;stroke-width:0.264583"
         d="m 101.45111,126.03959 c -0.82959,-0.0747 -1.12448,-0.21622 -1.12448,-0.53955 0,-0.46609 6.43185,-14.79067 6.97409,-15.53224 0.26326,-0.36003 0.15378,-0.7737 -0.61492,-2.3234 -0.90923,-1.83302 -0.93507,-1.97032 -0.93034,-4.94354 0.005,-3.039219 0.0117,-3.07257 1.11193,-5.383096 2.3564,-4.948703 6.98627,-8.105063 11.91393,-8.1222 0.92111,-0.0032 1.12448,-0.0935 1.12448,-0.499262 0,-0.675631 1.5079,-0.896201 3.70636,-0.542151 4.20062,0.676491 7.48551,3.642551 8.60196,7.767052 0.4269,1.577101 0.44299,2.112615 0.16359,5.447307 -0.56057,6.69064 -2.67215,10.39524 -7.25309,12.72498 -4.97238,2.52881 -10.43848,1.87492 -14.95123,-1.78856 l -0.86887,-0.70536 0.29408,0.76844 c 4.26016,11.13175 4.78114,12.66255 4.51112,13.25518 l -0.27799,0.61013 -5.62807,-0.0462 c -3.09544,-0.0254 -6.13408,-0.0918 -6.75255,-0.1475 z m 11.34213,-2.12138 c -0.26963,-0.69122 -1.47679,-3.84795 -2.68257,-7.01495 -1.20577,-3.16701 -2.21888,-5.72685 -2.25134,-5.68855 -0.0576,0.068 -5.86068,12.7207 -6.12464,13.35387 -0.14526,0.34846 1.39398,0.45592 7.91465,0.55255 l 3.63416,0.0539 z m 7.34345,-10.67738 0.85917,-0.2995 -1.66951,-1.07764 c -3.23247,-2.08649 -9.09617,-8.63869 -10.75157,-12.013982 -0.377,-0.768701 -0.77511,-1.397639 -0.88468,-1.397639 -0.33418,0 -1.01387,2.666521 -1.007,3.950631 0.0157,2.9375 1.27429,5.7959 3.53584,8.03039 0.85686,0.84661 2.04748,1.7924 2.64583,2.10175 2.33226,1.2058 5.07447,1.47203 7.27192,0.70599 z m 2.46292,-1.95647 c -0.15805,-0.99191 -2.55014,-5.13319 -2.97622,-5.15255 -0.0826,-0.004 -0.36577,0.67778 -0.62935,1.51453 -0.26358,0.83674 -0.53057,1.65557 -0.59333,1.81961 -0.0628,0.16404 0.62911,0.79455 1.53748,1.40114 1.7586,1.17434 2.80827,1.33892 2.66142,0.41727 z m -4.23606,-5.25187 c 0.27001,-1.00955 0.24602,-1.23054 -0.19994,-1.84195 -0.27872,-0.38212 -0.60447,-0.6985 -0.72388,-0.70307 -0.36654,-0.014 -2.8256,2.17075 -2.8256,2.51043 0,0.17559 0.61793,0.89725 1.37317,1.60369 l 1.37316,1.28443 0.34813,-0.85318 c 0.19148,-0.46924 0.48621,-1.36941 0.65496,-2.00035 z m -2.31026,-3.06339 c 0.50961,-0.56449 0.50871,-0.57273 -0.13229,-1.20928 l -0.64541,-0.64092 -1.71979,0.4231 c -0.94589,0.23271 -1.81488,0.50762 -1.9311,0.61092 -0.11622,0.1033 0.2773,0.80595 0.87449,1.56145 l 1.08579,1.37363 0.9776,-0.77527 c 0.53768,-0.4264 1.2085,-1.03104 1.49071,-1.34363 z m -2.76236,-2.47571 1.15239,-0.33365 -1.70053,-1.346871 c -1.69029,-1.338765 -3.14069,-2.212883 -3.67177,-2.212883 -0.53567,0 -0.26975,1.396086 0.56381,2.960008 0.93407,1.752506 0.87716,1.737976 3.6561,0.933396 z m 8.43912,-0.552577 c 0.69506,-0.837492 -0.70872,-1.923916 -1.48407,-1.148566 -0.56269,0.562688 -0.20401,1.511903 0.57129,1.511903 0.33618,0 0.74693,-0.1635 0.91278,-0.363337 z m 8.87655,-5.178485 c -0.84684,-1.887016 -2.96626,-4.016179 -4.80936,-4.831469 -0.75616,-0.334488 -1.98852,-0.592108 -3.10905,-0.64994 l -1.85635,-0.09581 1.42549,0.404045 c 3.36053,0.952519 6.81546,3.594096 8.2318,6.293876 0.90862,1.731973 1.00122,0.848543 0.11747,-1.120704 z m 4.03044,4.962936 c 0.13179,-2.896219 0.0838,-3.448341 -0.43292,-4.977361 -1.88999,-5.592977 -6.76915,-8.995833 -12.89862,-8.995833 -1.48011,0 -1.69122,-0.06062 -1.61248,-0.463021 0.13453,-0.68746 4.51108,-0.657223 6.65818,0.046 5.05081,1.654259 8.83266,6.312979 9.4668,11.661811 0.33562,2.830824 -0.10079,5.75159 -0.88164,5.90058 -0.40713,0.0777 -0.43417,-0.20888 -0.29932,-3.172176 z"
         id="path3609" />
      <path
         style="fill:#b74d4c;stroke-width:0.264583"
         d="m 101.45111,126.03959 c -0.82959,-0.0747 -1.12448,-0.21622 -1.12448,-0.53955 0,-0.46609 6.43185,-14.79067 6.97409,-15.53224 0.26326,-0.36003 0.15378,-0.7737 -0.61492,-2.3234 -0.90923,-1.83302 -0.93507,-1.97032 -0.93034,-4.94354 0.005,-3.039219 0.0117,-3.07257 1.11193,-5.383096 2.3564,-4.948703 6.98627,-8.105063 11.91393,-8.1222 0.92111,-0.0032 1.12448,-0.0935 1.12448,-0.499262 0,-0.675631 1.5079,-0.896201 3.70636,-0.542151 4.20062,0.676491 7.48551,3.642551 8.60196,7.767052 0.4269,1.577101 0.44299,2.112615 0.16359,5.447307 -0.56057,6.69064 -2.67215,10.39524 -7.25309,12.72498 -4.97238,2.52881 -10.43848,1.87492 -14.95123,-1.78856 l -0.86887,-0.70536 0.29408,0.76844 c 4.26016,11.13175 4.78114,12.66255 4.51112,13.25518 l -0.27799,0.61013 -5.62807,-0.0462 c -3.09544,-0.0254 -6.13408,-0.0918 -6.75255,-0.1475 z m 11.34213,-2.12138 c -0.26963,-0.69122 -1.47679,-3.84795 -2.68257,-7.01495 -1.20577,-3.16701 -2.21888,-5.72685 -2.25134,-5.68855 -0.0576,0.068 -5.86068,12.7207 -6.12464,13.35387 -0.14526,0.34846 1.39398,0.45592 7.91465,0.55255 l 3.63416,0.0539 z m 11.47819,-10.62689 c 2.91903,-1.36517 5.12263,-3.85116 6.2067,-7.00208 0.70298,-2.04323 0.68797,-5.50956 -0.0336,-7.771025 -0.29022,-0.909505 -0.54772,-1.653493 -0.57224,-1.653306 -0.0245,1.88e-4 -0.0451,0.828194 -0.0457,1.840015 -0.001,1.906336 -0.30736,2.585026 -1.03939,2.304126 -0.32316,-0.12401 -0.41595,-0.58424 -0.42047,-2.085656 -0.012,-3.975111 -2.35288,-6.506351 -6.26115,-6.770286 -1.02201,-0.06902 -1.68688,-0.241157 -1.77022,-0.458316 -0.15509,-0.404174 0.27121,-0.809283 1.02572,-0.974731 0.29104,-0.06382 -0.17764,-0.212185 -1.0415,-0.329702 -1.82112,-0.247738 -4.24854,0.123386 -6.15679,0.941299 -1.47877,0.633827 -3.82715,2.380597 -4.42292,3.289855 -0.40563,0.61908 -0.39095,0.642494 0.70871,1.130389 0.6176,0.274018 2.03364,1.231779 3.14674,2.128357 1.11311,0.896579 2.22124,1.630143 2.46253,1.630143 1.15277,0 2.78164,-0.616173 2.93893,-1.111745 0.24442,-0.7701 1.75959,-1.335427 2.66081,-0.992782 0.98461,0.374347 1.40491,1.005472 1.41487,2.124553 0.009,0.957972 -0.6439,1.828332 -1.63088,2.175692 -0.25517,0.0898 -0.62338,0.74622 -0.85376,1.52198 l -0.40508,1.36407 1.15225,1.6263 c 1.9915,2.81083 2.91809,5.09347 2.51257,6.18969 -0.11894,0.32154 -0.75454,0.83631 -1.41722,1.1478 -0.66085,0.31064 -1.20155,0.62413 -1.20155,0.69664 0,0.24308 1.44086,-0.21213 3.04271,-0.96128 z m 2.13673,-13.298342 c -0.0609,-0.192656 -0.16646,-0.929432 -0.23469,-1.63728 -0.0682,-0.707847 -0.35646,-1.600816 -0.64051,-1.984375 -0.74277,-1.003005 -2.14846,-1.888004 -2.99881,-1.888004 -1.07538,0 -1.57002,-0.257401 -1.57002,-0.817016 0,-1.239284 2.9703,-0.78795 4.73061,0.718811 1.28595,1.100724 1.94624,2.712162 1.8344,4.476859 -0.063,0.993509 -0.19346,1.326157 -0.54653,1.393207 -0.25511,0.0485 -0.51361,-0.0695 -0.57445,-0.262202 z m -2.0801,-1.301555 c -0.18385,-1.370674 -0.89477,-2.117727 -2.21897,-2.331759 -0.77911,-0.125929 -1.03188,-0.297996 -1.09599,-0.746076 -0.21155,-1.478709 3.14357,-0.648962 4.18324,1.034544 0.73565,1.191223 0.64324,2.959555 -0.16065,3.074306 -0.47396,0.06765 -0.58124,-0.08865 -0.70763,-1.031015 z m -4.19137,14.549407 0.85917,-0.2995 -1.66951,-1.07764 c -3.23247,-2.08649 -9.09617,-8.63869 -10.75157,-12.013982 -0.377,-0.768701 -0.77511,-1.397639 -0.88468,-1.397639 -0.33418,0 -1.01387,2.666521 -1.007,3.950631 0.0157,2.9375 1.27429,5.7959 3.53584,8.03039 0.85686,0.84661 2.04748,1.7924 2.64583,2.10175 2.33226,1.2058 5.07447,1.47203 7.27192,0.70599 z m 2.46292,-1.95647 c -0.15805,-0.99191 -2.55014,-5.13319 -2.97622,-5.15255 -0.0826,-0.004 -0.36577,0.67778 -0.62935,1.51453 -0.26358,0.83674 -0.53057,1.65557 -0.59333,1.81961 -0.0628,0.16404 0.62911,0.79455 1.53748,1.40114 1.7586,1.17434 2.80827,1.33892 2.66142,0.41727 z m -4.23606,-5.25187 c 0.27001,-1.00955 0.24602,-1.23054 -0.19994,-1.84195 -0.27872,-0.38212 -0.60447,-0.6985 -0.72388,-0.70307 -0.36654,-0.014 -2.8256,2.17075 -2.8256,2.51043 0,0.17559 0.61793,0.89725 1.37317,1.60369 l 1.37316,1.28443 0.34813,-0.85318 c 0.19148,-0.46924 0.48621,-1.36941 0.65496,-2.00035 z m -2.31026,-3.06339 c 0.50961,-0.56449 0.50871,-0.57273 -0.13229,-1.20928 l -0.64541,-0.64092 -1.71979,0.4231 c -0.94589,0.23271 -1.81488,0.50762 -1.9311,0.61092 -0.11622,0.1033 0.2773,0.80595 0.87449,1.56145 l 1.08579,1.37363 0.9776,-0.77527 c 0.53768,-0.4264 1.2085,-1.03104 1.49071,-1.34363 z m 3.31929,-0.80342 c 0.003,-0.32303 -0.0671,-0.31626 -0.42413,0.0408 -0.2359,0.2359 -0.33986,0.57108 -0.23151,0.7464 0.22895,0.37046 0.64881,-0.13362 0.65564,-0.78716 z m -1.31886,-1.20007 c 0.34892,-0.42043 0.0902,-0.51643 -0.6383,-0.23686 -0.22935,0.088 -0.35112,0.2666 -0.27061,0.39688 0.21428,0.3467 0.53526,0.29019 0.90891,-0.16002 z m -4.76279,-0.47222 1.15239,-0.33365 -1.70053,-1.346871 c -1.69029,-1.338765 -3.14069,-2.212883 -3.67177,-2.212883 -0.53567,0 -0.26975,1.396086 0.56381,2.960008 0.93407,1.752506 0.87716,1.737976 3.6561,0.933396 z m 8.43912,-0.552577 c 0.69506,-0.837492 -0.70872,-1.923916 -1.48407,-1.148566 -0.56269,0.562688 -0.20401,1.511903 0.57129,1.511903 0.33618,0 0.74693,-0.1635 0.91278,-0.363337 z m 8.87655,-5.178485 c -0.84684,-1.887016 -2.96626,-4.016179 -4.80936,-4.831469 -0.75616,-0.334488 -1.98852,-0.592108 -3.10905,-0.64994 l -1.85635,-0.09581 1.42549,0.404045 c 3.36053,0.952519 6.81546,3.594096 8.2318,6.293876 0.90862,1.731973 1.00122,0.848543 0.11747,-1.120704 z m 4.03044,4.962936 c 0.13179,-2.896219 0.0838,-3.448341 -0.43292,-4.977361 -1.88999,-5.592977 -6.76915,-8.995833 -12.89862,-8.995833 -1.48011,0 -1.69122,-0.06062 -1.61248,-0.463021 0.13453,-0.68746 4.51108,-0.657223 6.65818,0.046 5.05081,1.654259 8.83266,6.312979 9.4668,11.661811 0.33562,2.830824 -0.10079,5.75159 -0.88164,5.90058 -0.40713,0.0777 -0.43417,-0.20888 -0.29932,-3.172176 z"
         id="path3607" />
      <path
         style="fill:#6f6d6d;stroke-width:0.264583"
         d="m 101.45111,126.03959 c -0.82959,-0.0747 -1.12448,-0.21622 -1.12448,-0.53955 0,-0.46609 6.43185,-14.79067 6.97409,-15.53224 0.26326,-0.36003 0.15378,-0.7737 -0.61492,-2.3234 -0.90923,-1.83302 -0.93507,-1.97032 -0.93034,-4.94354 0.005,-3.039219 0.0117,-3.07257 1.11193,-5.383096 2.3564,-4.948703 6.98627,-8.105063 11.91393,-8.1222 0.92111,-0.0032 1.12448,-0.0935 1.12448,-0.499262 0,-0.675631 1.5079,-0.896201 3.70636,-0.542151 4.20062,0.676491 7.48551,3.642551 8.60196,7.767052 0.4269,1.577101 0.44299,2.112615 0.16359,5.447307 -0.56057,6.69064 -2.67215,10.39524 -7.25309,12.72498 -4.97238,2.52881 -10.43848,1.87492 -14.95123,-1.78856 l -0.86887,-0.70536 0.29408,0.76844 c 4.26016,11.13175 4.78114,12.66255 4.51112,13.25518 l -0.27799,0.61013 -5.62807,-0.0462 c -3.09544,-0.0254 -6.13408,-0.0918 -6.75255,-0.1475 z m 11.34213,-2.12138 c -0.26963,-0.69122 -1.47679,-3.84795 -2.68257,-7.01495 -1.20577,-3.16701 -2.21888,-5.72685 -2.25134,-5.68855 -0.0576,0.068 -5.86068,12.7207 -6.12464,13.35387 -0.14526,0.34846 1.39398,0.45592 7.91465,0.55255 l 3.63416,0.0539 z m 10.46426,-10.12114 c 2.64114,-0.91366 5.2609,-3.23626 6.57469,-5.82892 0.72435,-1.42942 1.57713,-4.86412 1.31357,-5.29057 -0.0827,-0.13374 -0.18469,-0.99037 -0.22674,-1.90361 -0.044,-0.954936 -0.30622,-2.166328 -0.61721,-2.851068 l -0.54074,-1.190625 -0.003,1.812762 c -0.002,1.264368 -0.12439,1.934181 -0.40433,2.214121 -0.6715,0.67149 -1.0115,0.16442 -0.82623,-1.232227 0.34582,-2.606958 -1.13846,-5.506323 -3.42182,-6.684137 -0.61483,-0.317146 -1.85645,-0.634269 -2.81868,-0.719925 -1.48929,-0.132575 -1.71979,-0.223668 -1.71979,-0.679662 0,-0.376227 0.22662,-0.568272 0.79375,-0.672637 l 0.79375,-0.14607 -0.89297,-0.187258 c -3.52409,-0.739012 -7.8996,0.584188 -10.62801,3.21402 -1.30967,1.262362 -1.6271,1.890388 -0.95546,1.890388 0.52096,0 3.42691,1.934336 4.78084,3.182345 l 1.17028,1.078724 1.52671,-0.39868 c 1.1107,-0.290043 1.69856,-0.618256 2.15736,-1.204492 0.48701,-0.622289 0.83992,-0.805813 1.54953,-0.805813 1.19204,0 2.21776,0.97897 2.21776,2.116666 0,0.869108 -0.99189,2.116668 -1.68289,2.116668 -0.3594,0 -1.22753,2.00609 -1.22753,2.83661 0,0.1986 0.46939,0.98279 1.04308,1.74263 2.20242,2.91709 3.242,6.24184 2.13192,6.81827 -0.21828,0.11335 -1.05172,0.52246 -1.85208,0.90913 -1.23963,0.5989 -1.31802,0.67589 -0.52917,0.51971 0.50933,-0.10083 1.54134,-0.39619 2.29337,-0.65635 z m 3.35558,-13.70649 c -0.15754,-0.100817 -0.34235,-0.87285 -0.41068,-1.715629 -0.19056,-2.350156 -1.47467,-3.683241 -3.95595,-4.106828 -0.74735,-0.127582 -1.15002,-0.332723 -1.15002,-0.585876 0,-0.297332 0.35154,-0.388379 1.48498,-0.384596 1.19606,0.004 1.69626,0.151376 2.57093,0.757517 1.33037,0.921951 2.42638,2.976636 2.42638,4.548745 0,1.126651 -0.44872,1.817477 -0.96564,1.486667 z m -2.03297,-0.491983 c -0.097,-0.09701 -0.17639,-0.555878 -0.17639,-1.019698 0,-1.169635 -1.0039,-2.18623 -2.37552,-2.405561 -0.81047,-0.129599 -1.06701,-0.283436 -1.00281,-0.601355 0.0654,-0.323721 0.38884,-0.423178 1.3354,-0.41058 0.9999,0.01331 1.40629,0.16719 2.03679,0.771246 0.91764,0.879151 1.44837,2.272595 1.21688,3.19493 -0.15518,0.618264 -0.65809,0.847279 -1.03435,0.471018 z m -4.44342,13.642233 0.85917,-0.2995 -1.66951,-1.07764 c -3.23247,-2.08649 -9.09617,-8.63869 -10.75157,-12.013982 -0.377,-0.768701 -0.77511,-1.397639 -0.88468,-1.397639 -0.33418,0 -1.01387,2.666521 -1.007,3.950631 0.0157,2.9375 1.27429,5.7959 3.53584,8.03039 0.85686,0.84661 2.04748,1.7924 2.64583,2.10175 2.33226,1.2058 5.07447,1.47203 7.27192,0.70599 z m 2.46292,-1.95647 c -0.15805,-0.99191 -2.55014,-5.13319 -2.97622,-5.15255 -0.0826,-0.004 -0.36577,0.67778 -0.62935,1.51453 -0.26358,0.83674 -0.53057,1.65557 -0.59333,1.81961 -0.0628,0.16404 0.62911,0.79455 1.53748,1.40114 1.7586,1.17434 2.80827,1.33892 2.66142,0.41727 z m -4.23606,-5.25187 c 0.27001,-1.00955 0.24602,-1.23054 -0.19994,-1.84195 -0.27872,-0.38212 -0.60447,-0.6985 -0.72388,-0.70307 -0.36654,-0.014 -2.8256,2.17075 -2.8256,2.51043 0,0.17559 0.61793,0.89725 1.37317,1.60369 l 1.37316,1.28443 0.34813,-0.85318 c 0.19148,-0.46924 0.48621,-1.36941 0.65496,-2.00035 z m -2.31026,-3.06339 c 0.50961,-0.56449 0.50871,-0.57273 -0.13229,-1.20928 l -0.64541,-0.64092 -1.71979,0.4231 c -0.94589,0.23271 -1.81488,0.50762 -1.9311,0.61092 -0.11622,0.1033 0.2773,0.80595 0.87449,1.56145 l 1.08579,1.37363 0.9776,-0.77527 c 0.53768,-0.4264 1.2085,-1.03104 1.49071,-1.34363 z m 3.45085,-0.76917 c 0.18484,-0.61067 0.17905,-0.61256 -0.50405,-0.16498 -0.5531,0.36241 -0.62898,0.52757 -0.38013,0.82742 0.35352,0.42597 0.61376,0.231 0.88418,-0.66244 z m -1.16581,-1.26518 0.64143,-0.69232 -0.92604,0.19427 c -1.25129,0.26249 -1.40118,0.38039 -1.03879,0.81705 0.42709,0.5146 0.58671,0.47613 1.3234,-0.319 z m -5.0474,-0.44136 1.15239,-0.33365 -1.70053,-1.346871 c -1.69029,-1.338765 -3.14069,-2.212883 -3.67177,-2.212883 -0.53567,0 -0.26975,1.396086 0.56381,2.960008 0.93407,1.752506 0.87716,1.737976 3.6561,0.933396 z m 8.43912,-0.552577 c 0.69506,-0.837492 -0.70872,-1.923916 -1.48407,-1.148566 -0.56269,0.562688 -0.20401,1.511903 0.57129,1.511903 0.33618,0 0.74693,-0.1635 0.91278,-0.363337 z m 8.87655,-5.178485 c -0.84684,-1.887016 -2.96626,-4.016179 -4.80936,-4.831469 -0.75616,-0.334488 -1.98852,-0.592108 -3.10905,-0.64994 l -1.85635,-0.09581 1.42549,0.404045 c 3.36053,0.952519 6.81546,3.594096 8.2318,6.293876 0.90862,1.731973 1.00122,0.848543 0.11747,-1.120704 z m 4.03044,4.962936 c 0.13179,-2.896219 0.0838,-3.448341 -0.43292,-4.977361 -1.88999,-5.592977 -6.76915,-8.995833 -12.89862,-8.995833 -1.48011,0 -1.69122,-0.06062 -1.61248,-0.463021 0.13453,-0.68746 4.51108,-0.657223 6.65818,0.046 5.05081,1.654259 8.83266,6.312979 9.4668,11.661811 0.33562,2.830824 -0.10079,5.75159 -0.88164,5.90058 -0.40713,0.0777 -0.43417,-0.20888 -0.29932,-3.172176 z"
         id="path3605" />
      <path
         style="fill:#924847;stroke-width:0.264583"
         d="m 101.96213,126.03695 -1.67179,-0.0944 0.17598,-0.80122 c 0.18526,-0.84347 6.60101,-15.01495 6.96025,-15.37419 0.11477,-0.11477 -0.21537,-1.06236 -0.73365,-2.10576 -0.84133,-1.69375 -0.95225,-2.164 -1.03486,-4.38743 -0.0987,-2.65697 0.25774,-4.100366 1.74086,-7.048955 1.8836,-3.744806 6.15385,-6.518869 10.68275,-6.939785 1.37875,-0.128142 1.80831,-0.269074 1.90105,-0.623706 0.26167,-1.000603 3.88493,-0.790063 6.42631,0.373421 2.82551,1.293559 4.79224,3.565274 5.71435,6.600464 0.55014,1.810853 0.56054,2.045385 0.24647,5.556961 -0.18035,2.01648 -0.55933,4.41558 -0.84218,5.33134 -1.83009,5.92512 -8.06616,9.82942 -14.25834,8.92691 -2.41416,-0.35187 -4.37346,-1.17556 -6.34372,-2.6669 -0.79176,-0.5993 -1.47017,-1.05904 -1.50757,-1.02164 -0.0374,0.0374 1.06395,3.03753 2.44744,6.66696 2.09505,5.49611 2.46955,6.69968 2.24085,7.20163 -0.27317,0.59953 -0.30127,0.60241 -5.3735,0.5517 -2.8044,-0.028 -5.85121,-0.0935 -6.7707,-0.14539 z m 10.83479,-2.11874 c -0.26761,-0.69122 -1.47318,-3.84954 -2.67904,-7.01848 -1.20585,-3.16895 -2.22105,-5.72879 -2.256,-5.68855 -0.0627,0.0722 -5.8746,12.73827 -6.12869,13.35642 -0.14818,0.36048 1.36233,0.47001 7.65156,0.55481 l 3.89875,0.0526 z m 10.46058,-10.12114 c 2.64114,-0.91366 5.2609,-3.23626 6.57469,-5.82892 0.72435,-1.42942 1.57713,-4.86412 1.31357,-5.29057 -0.0827,-0.13374 -0.18469,-0.99037 -0.22674,-1.90361 -0.044,-0.954936 -0.30622,-2.166328 -0.61721,-2.851068 l -0.54074,-1.190625 -0.003,1.812762 c -0.002,1.264368 -0.12439,1.934181 -0.40433,2.214121 -0.6715,0.67149 -1.0115,0.16442 -0.82623,-1.232227 0.34582,-2.606958 -1.13846,-5.506323 -3.42182,-6.684137 -0.61483,-0.317146 -1.85645,-0.634269 -2.81868,-0.719925 -1.48929,-0.132575 -1.71979,-0.223668 -1.71979,-0.679662 0,-0.376227 0.22662,-0.568272 0.79375,-0.672637 l 0.79375,-0.14607 -0.89297,-0.187258 c -3.52409,-0.739012 -7.8996,0.584188 -10.62801,3.21402 -1.30967,1.262362 -1.6271,1.890388 -0.95546,1.890388 0.52096,0 3.42691,1.934336 4.78084,3.182345 l 1.17028,1.078724 1.52671,-0.39868 c 1.1107,-0.290043 1.69856,-0.618256 2.15736,-1.204492 0.48701,-0.622289 0.83992,-0.805813 1.54953,-0.805813 1.19204,0 2.21776,0.97897 2.21776,2.116666 0,0.869108 -0.99189,2.116668 -1.68289,2.116668 -0.3594,0 -1.22753,2.00609 -1.22753,2.83661 0,0.1986 0.46939,0.98279 1.04308,1.74263 2.20242,2.91709 3.242,6.24184 2.13192,6.81827 -0.21828,0.11335 -1.05172,0.52246 -1.85208,0.90913 -1.23963,0.5989 -1.31802,0.67589 -0.52917,0.51971 0.50933,-0.10083 1.54134,-0.39619 2.29337,-0.65635 z m 3.35558,-13.70649 c -0.15754,-0.100817 -0.34235,-0.87285 -0.41068,-1.715629 -0.19056,-2.350156 -1.47467,-3.683241 -3.95595,-4.106828 -0.74735,-0.127582 -1.15002,-0.332723 -1.15002,-0.585876 0,-0.297332 0.35154,-0.388379 1.48498,-0.384596 1.19606,0.004 1.69626,0.151376 2.57093,0.757517 1.33037,0.921951 2.42638,2.976636 2.42638,4.548745 0,1.126651 -0.44872,1.817477 -0.96564,1.486667 z m -2.03297,-0.491983 c -0.097,-0.09701 -0.17639,-0.555878 -0.17639,-1.019698 0,-1.169635 -1.0039,-2.18623 -2.37552,-2.405561 -0.81047,-0.129599 -1.06701,-0.283436 -1.00281,-0.601355 0.0654,-0.323721 0.38884,-0.423178 1.3354,-0.41058 0.9999,0.01331 1.40629,0.16719 2.03679,0.771246 0.91764,0.879151 1.44837,2.272595 1.21688,3.19493 -0.15518,0.618264 -0.65809,0.847279 -1.03435,0.471018 z m -4.42404,13.635483 0.87856,-0.30627 -0.90701,-0.55714 c -3.85365,-2.36716 -9.65674,-8.6549 -11.54942,-12.513985 -0.37889,-0.772539 -0.77195,-1.404616 -0.87348,-1.404616 -0.36014,0 -1.02799,2.495541 -1.02162,3.817441 0.0148,3.0737 1.23454,5.88982 3.53584,8.16358 0.85686,0.84661 2.04748,1.7924 2.64583,2.10175 2.34026,1.20994 5.0742,1.47212 7.2913,0.69924 z m 2.44354,-1.94972 c -0.16068,-1.00841 -2.5543,-5.15743 -2.97622,-5.15886 -0.0826,-2.8e-4 -0.36577,0.68409 -0.62935,1.52084 -0.26358,0.83674 -0.53445,1.66567 -0.60194,1.84205 -0.0681,0.178 0.6202,0.80086 1.54702,1.39989 1.7824,1.15202 2.8052,1.30429 2.66049,0.39608 z m -4.57018,-4.15242 c 0.3044,-0.90138 0.54949,-1.82411 0.54465,-2.05052 -0.009,-0.43192 -0.87263,-1.60227 -1.18203,-1.60227 -0.099,0 -0.83024,0.55554 -1.625,1.23452 l -1.44502,1.23452 1.39379,1.41131 c 0.76658,0.77623 1.47621,1.41132 1.57696,1.41132 0.10076,0 0.43225,-0.73749 0.73665,-1.63888 z m -1.97614,-4.16284 c 0.50982,-0.56472 0.50885,-0.57263 -0.15226,-1.23373 l -0.66537,-0.66537 -1.69982,0.4556 c -0.93491,0.25058 -1.79492,0.5365 -1.91114,0.63537 -0.11622,0.0989 0.2773,0.7979 0.87449,1.5534 l 1.08579,1.37363 0.9776,-0.77527 c 0.53768,-0.4264 1.2085,-1.03104 1.49071,-1.34363 z m 3.45085,-0.76917 c 0.18484,-0.61067 0.17905,-0.61256 -0.50405,-0.16498 -0.5531,0.36241 -0.62898,0.52757 -0.38013,0.82742 0.35352,0.42597 0.61376,0.231 0.88418,-0.66244 z m -1.16581,-1.26518 0.64143,-0.69232 -0.92604,0.19427 c -1.25129,0.26249 -1.40118,0.38039 -1.03879,0.81705 0.42709,0.5146 0.58671,0.47613 1.3234,-0.319 z m -5.0474,-0.44136 1.15239,-0.33365 -1.70053,-1.346871 c -1.69029,-1.338765 -3.14069,-2.212883 -3.67177,-2.212883 -0.53567,0 -0.26975,1.396086 0.56381,2.960008 0.93407,1.752506 0.87716,1.737976 3.6561,0.933396 z m 8.58511,-1.321299 c -0.24325,-0.633889 -1.16194,-0.847966 -1.63006,-0.379844 -0.48038,0.480384 -0.23968,1.433603 0.39986,1.583513 0.61695,0.14461 1.43895,-0.659661 1.2302,-1.203669 z m 8.67524,-4.498719 c -1.55453,-3.305945 -4.398,-5.232245 -7.95394,-5.388357 l -2.03008,-0.08912 1.55202,0.395588 c 3.37295,0.859713 6.90601,3.524841 8.38283,6.323501 0.94155,1.784283 0.98275,0.743808 0.0492,-1.241608 z m 4.03879,6.490678 c 0.57219,-5.27185 -0.51165,-8.647334 -3.7765,-11.761476 -2.57186,-2.453141 -5.60375,-3.650504 -9.24357,-3.650504 -1.47225,0 -1.92878,-0.08724 -1.92878,-0.368568 0,-0.523112 0.59909,-0.689766 2.47959,-0.689766 6.00985,0 11.27568,3.985844 13.2829,10.054167 0.89638,2.709967 0.49442,8.202087 -0.60029,8.202087 -0.34545,0 -0.37779,-0.27077 -0.21335,-1.78594 z"
         id="path3603" />
      <path
         style="fill:#6c4d4d;stroke-width:0.264583"
         d="m 101.96213,126.03695 -1.67179,-0.0944 0.17598,-0.80122 c 0.18526,-0.84347 6.60101,-15.01495 6.96025,-15.37419 0.11477,-0.11477 -0.21537,-1.06236 -0.73365,-2.10576 -0.84133,-1.69375 -0.95225,-2.164 -1.03486,-4.38743 -0.0987,-2.65697 0.25774,-4.100366 1.74086,-7.048955 1.8836,-3.744806 6.15385,-6.518869 10.68275,-6.939785 1.37875,-0.128142 1.80831,-0.269074 1.90105,-0.623706 0.26167,-1.000603 3.88493,-0.790063 6.42631,0.373421 2.82551,1.293559 4.79224,3.565274 5.71435,6.600464 0.55014,1.810853 0.56054,2.045385 0.24647,5.556961 -0.18035,2.01648 -0.55933,4.41558 -0.84218,5.33134 -1.83009,5.92512 -8.06616,9.82942 -14.25834,8.92691 -2.41416,-0.35187 -4.37346,-1.17556 -6.34372,-2.6669 -0.79176,-0.5993 -1.47017,-1.05904 -1.50757,-1.02164 -0.0374,0.0374 1.06395,3.03753 2.44744,6.66696 2.09505,5.49611 2.46955,6.69968 2.24085,7.20163 -0.27317,0.59953 -0.30127,0.60241 -5.3735,0.5517 -2.8044,-0.028 -5.85121,-0.0935 -6.7707,-0.14539 z m 10.83479,-2.11874 c -0.26761,-0.69122 -1.47318,-3.84954 -2.67904,-7.01848 -1.20585,-3.16895 -2.22105,-5.72879 -2.256,-5.68855 -0.0627,0.0722 -5.8746,12.73827 -6.12869,13.35642 -0.14818,0.36048 1.36233,0.47001 7.65156,0.55481 l 3.89875,0.0526 z m 10.4075,-10.03516 c 3.75219,-1.31123 7.0438,-5.20877 7.7819,-9.21442 0.33308,-1.80762 -0.0272,-5.292668 -0.69726,-6.745728 l -0.54909,-1.190625 -0.0223,1.885833 c -0.0159,1.345586 -0.13782,1.98171 -0.42557,2.22052 -0.6257,0.51929 -0.77649,0.12349 -0.7897,-2.072938 -0.0145,-2.410387 -0.58728,-3.726704 -2.23548,-5.137505 -1.22445,-1.048091 -2.58688,-1.526118 -4.3496,-1.526118 -1.88784,0 -2.03544,-1.249894 -0.15944,-1.350169 1.28549,-0.06871 -0.8004,-0.437248 -2.64583,-0.467469 -3.25647,-0.05333 -6.71313,1.398128 -8.90163,3.737813 l -1.23559,1.32095 0.93183,0.320348 c 1.12103,0.385392 2.21882,1.122066 4.23568,2.842359 l 1.51258,1.290166 1.46752,-0.383222 c 0.97758,-0.255281 1.72261,-0.656299 2.23159,-1.201166 0.96832,-1.036588 2.14484,-1.101013 3.07734,-0.168512 1.04658,1.046583 0.69167,2.753853 -0.69158,3.326813 -0.53754,0.22266 -0.85752,0.64334 -1.15631,1.52023 -0.2272,0.6668 -0.4131,1.36405 -0.4131,1.54944 0,0.18539 0.5374,1.10582 1.19422,2.04541 2.25743,3.22928 3.09242,5.9815 1.98078,6.52885 -0.21828,0.10748 -1.05172,0.50791 -1.85208,0.88984 -1.45135,0.69259 -1.45241,0.69397 -0.39687,0.52027 0.58208,-0.0958 1.53068,-0.33923 2.10799,-0.54097 z m 3.05138,-15.24116 c 0,-2.356861 -1.44804,-3.936518 -4.00935,-4.373767 -1.55673,-0.265753 -1.57658,-0.944519 -0.0309,-1.056526 2.81561,-0.204033 5.60193,2.866842 5.31235,5.854878 -0.062,0.639734 -0.22385,0.861021 -0.6768,0.92535 -0.55455,0.07876 -0.59531,-0.01366 -0.59531,-1.349935 z m -1.67569,0.956707 c -0.097,-0.09701 -0.17639,-0.52156 -0.17639,-0.943436 0,-0.421876 -0.1226,-0.996112 -0.27243,-1.276081 -0.34697,-0.648319 -1.61411,-1.308261 -2.51196,-1.308261 -0.99158,0 -0.78335,-0.895648 0.2354,-1.012506 1.63635,-0.187701 3.42866,1.246296 3.75907,3.00757 0.21531,1.147657 -0.44286,2.123547 -1.03369,1.532714 z m -4.42404,13.635483 0.87856,-0.30627 -0.90701,-0.55714 c -3.85365,-2.36716 -9.65674,-8.6549 -11.54942,-12.513985 -0.37889,-0.772539 -0.77195,-1.404616 -0.87348,-1.404616 -0.36014,0 -1.02799,2.495541 -1.02162,3.817441 0.0148,3.0737 1.23454,5.88982 3.53584,8.16358 0.85686,0.84661 2.04748,1.7924 2.64583,2.10175 2.34026,1.20994 5.0742,1.47212 7.2913,0.69924 z m 2.44354,-1.94972 c -0.16068,-1.00841 -2.5543,-5.15743 -2.97622,-5.15886 -0.0826,-2.8e-4 -0.36577,0.68409 -0.62935,1.52084 -0.26358,0.83674 -0.53445,1.66567 -0.60194,1.84205 -0.0681,0.178 0.6202,0.80086 1.54702,1.39989 1.7824,1.15202 2.8052,1.30429 2.66049,0.39608 z m -4.57018,-4.15242 c 0.3044,-0.90138 0.54949,-1.82411 0.54465,-2.05052 -0.009,-0.43192 -0.87263,-1.60227 -1.18203,-1.60227 -0.099,0 -0.83024,0.55554 -1.625,1.23452 l -1.44502,1.23452 1.39379,1.41131 c 0.76658,0.77623 1.47621,1.41132 1.57696,1.41132 0.10076,0 0.43225,-0.73749 0.73665,-1.63888 z m -1.97614,-4.16284 c 0.50982,-0.56472 0.50885,-0.57263 -0.15226,-1.23373 l -0.66537,-0.66537 -1.69982,0.4556 c -0.93491,0.25058 -1.79492,0.5365 -1.91114,0.63537 -0.11622,0.0989 0.2773,0.7979 0.87449,1.5534 l 1.08579,1.37363 0.9776,-0.77527 c 0.53768,-0.4264 1.2085,-1.03104 1.49071,-1.34363 z m 3.4755,-0.65389 c 0.15177,-0.61402 0.11591,-0.72458 -0.17971,-0.55412 -0.92722,0.53464 -1.01659,0.68962 -0.69483,1.20485 0.36735,0.58821 0.61359,0.40498 0.87454,-0.65073 z m -1.19046,-1.38046 0.64143,-0.69232 -0.92604,0.19427 c -1.25129,0.26249 -1.40118,0.38039 -1.03879,0.81705 0.42709,0.5146 0.58671,0.47613 1.3234,-0.319 z m -5.0474,-0.44136 1.15239,-0.33365 -1.70053,-1.346871 c -1.69029,-1.338765 -3.14069,-2.212883 -3.67177,-2.212883 -0.53567,0 -0.26975,1.396086 0.56381,2.960008 0.93407,1.752506 0.87716,1.737976 3.6561,0.933396 z m 8.58511,-1.321299 c -0.24325,-0.633889 -1.16194,-0.847966 -1.63006,-0.379844 -0.48038,0.480384 -0.23968,1.433603 0.39986,1.583513 0.61695,0.14461 1.43895,-0.659661 1.2302,-1.203669 z m 8.67524,-4.498719 c -1.55453,-3.305945 -4.398,-5.232245 -7.95394,-5.388357 l -2.03008,-0.08912 1.55202,0.395588 c 3.37295,0.859713 6.90601,3.524841 8.38283,6.323501 0.94155,1.784283 0.98275,0.743808 0.0492,-1.241608 z m 4.03879,6.490678 c 0.57219,-5.27185 -0.51165,-8.647334 -3.7765,-11.761476 -2.57186,-2.453141 -5.60375,-3.650504 -9.24357,-3.650504 -1.47225,0 -1.92878,-0.08724 -1.92878,-0.368568 0,-0.523112 0.59909,-0.689766 2.47959,-0.689766 6.00985,0 11.27568,3.985844 13.2829,10.054167 0.89638,2.709967 0.49442,8.202087 -0.60029,8.202087 -0.34545,0 -0.37779,-0.27077 -0.21335,-1.78594 z"
         id="path3601" />
      <path
         style="fill:#813f3e;stroke-width:0.264583"
         d="m 101.96213,126.03695 -1.67179,-0.0944 0.17598,-0.80122 c 0.18526,-0.84347 6.60101,-15.01495 6.96025,-15.37419 0.11477,-0.11477 -0.21537,-1.06236 -0.73365,-2.10576 -0.84133,-1.69375 -0.95225,-2.164 -1.03486,-4.38743 -0.0987,-2.65697 0.25774,-4.100366 1.74086,-7.048955 1.8836,-3.744806 6.15385,-6.518869 10.68275,-6.939785 1.37875,-0.128142 1.80831,-0.269074 1.90105,-0.623706 0.26167,-1.000603 3.88493,-0.790063 6.42631,0.373421 2.82551,1.293559 4.79224,3.565274 5.71435,6.600464 0.55014,1.810853 0.56054,2.045385 0.24647,5.556961 -0.18035,2.01648 -0.55933,4.41558 -0.84218,5.33134 -1.83009,5.92512 -8.06616,9.82942 -14.25834,8.92691 -2.41416,-0.35187 -4.37346,-1.17556 -6.34372,-2.6669 -0.79176,-0.5993 -1.47017,-1.05904 -1.50757,-1.02164 -0.0374,0.0374 1.06395,3.03753 2.44744,6.66696 2.09505,5.49611 2.46955,6.69968 2.24085,7.20163 -0.27317,0.59953 -0.30127,0.60241 -5.3735,0.5517 -2.8044,-0.028 -5.85121,-0.0935 -6.7707,-0.14539 z m 10.83479,-2.11874 c -0.26761,-0.69122 -1.47318,-3.84954 -2.67904,-7.01848 -1.20585,-3.16895 -2.22105,-5.72879 -2.256,-5.68855 -0.0627,0.0722 -5.8746,12.73827 -6.12869,13.35642 -0.14818,0.36048 1.36233,0.47001 7.65156,0.55481 l 3.89875,0.0526 z m 9.50825,-9.75262 c 2.18105,-0.64663 3.37801,-1.34724 5.09197,-2.98048 3.14036,-2.99244 4.41453,-7.32144 3.46386,-11.768445 -0.14605,-0.683149 -1.1138,-3.080385 -1.24414,-3.081879 -0.0296,-3.43e-4 -0.0144,0.898611 0.0337,1.997665 0.0574,1.311884 -0.0243,2.133069 -0.23815,2.390679 -0.63645,0.76686 -0.89791,0.22259 -0.91016,-1.894622 -0.0143,-2.478496 -0.57249,-3.776957 -2.23537,-5.200321 -1.22446,-1.048091 -2.58689,-1.526118 -4.34961,-1.526118 -1.88784,0 -2.03544,-1.249894 -0.15944,-1.350169 1.29352,-0.06914 -0.80679,-0.437584 -2.64583,-0.464142 -3.36147,-0.04854 -6.10064,1.062437 -8.59896,3.487652 l -1.5875,1.541048 0.95645,0.333717 c 1.14833,0.400664 2.23959,1.132148 4.2603,2.855726 l 1.51258,1.290166 1.46752,-0.383222 c 0.97758,-0.255281 1.72261,-0.656299 2.23159,-1.201166 0.96832,-1.036588 2.14484,-1.101013 3.07734,-0.168512 1.04658,1.046583 0.69167,2.753853 -0.69158,3.326813 -0.53754,0.22266 -0.85752,0.64334 -1.15631,1.52023 -0.2272,0.6668 -0.4131,1.36405 -0.4131,1.54944 0,0.18539 0.5374,1.10582 1.19422,2.04541 2.25743,3.22928 3.09242,5.9815 1.98078,6.52885 -0.21828,0.10748 -1.05172,0.50201 -1.85208,0.87673 -1.66073,0.77752 -1.29783,0.90043 0.81187,0.27495 z m 3.95063,-15.5237 c 0,-2.356861 -1.44804,-3.936518 -4.00935,-4.373767 -1.55673,-0.265753 -1.57658,-0.944519 -0.0309,-1.056526 2.81561,-0.204033 5.60193,2.866842 5.31235,5.854878 -0.062,0.639734 -0.22385,0.861021 -0.6768,0.92535 -0.55455,0.07876 -0.59531,-0.01366 -0.59531,-1.349935 z m -1.67569,0.956707 c -0.097,-0.09701 -0.17639,-0.52156 -0.17639,-0.943436 0,-0.421876 -0.1226,-0.996112 -0.27243,-1.276081 -0.34697,-0.648319 -1.61411,-1.308261 -2.51196,-1.308261 -0.99158,0 -0.78335,-0.895648 0.2354,-1.012506 1.63635,-0.187701 3.42866,1.246296 3.75907,3.00757 0.21531,1.147657 -0.44286,2.123547 -1.03369,1.532714 z m -4.97735,13.789343 1.3805,-0.40997 -2.06009,-1.46658 c -3.54922,-2.52671 -8.68628,-8.32154 -10.34557,-11.670259 -0.37856,-0.763984 -0.77135,-1.389062 -0.87288,-1.389062 -0.36014,0 -1.02799,2.495541 -1.02162,3.817441 0.0148,3.07458 1.23446,5.88974 3.5375,8.16522 2.94802,2.91274 6.13763,3.91673 9.38216,2.95321 z m 2.99685,-2.10358 c -0.16068,-1.00841 -2.5543,-5.15743 -2.97622,-5.15886 -0.0826,-2.8e-4 -0.36577,0.68409 -0.62935,1.52084 -0.26358,0.83674 -0.53205,1.65942 -0.59662,1.82818 -0.1792,0.46837 2.84375,2.46833 3.62505,2.3983 0.49888,-0.0447 0.64073,-0.18935 0.57714,-0.58846 z m -4.51184,-4.35703 c 0.5308,-1.64807 0.5539,-1.91791 0.21798,-2.54558 -0.20666,-0.38615 -0.52365,-0.75885 -0.70443,-0.82822 -0.18077,-0.0694 -0.99256,0.44105 -1.80398,1.13427 l -1.47531,1.26039 1.39379,1.41131 c 0.76658,0.77623 1.48028,1.41132 1.586,1.41132 0.10572,0 0.45939,-0.82957 0.78595,-1.84349 z m -2.29445,-3.69401 0.7823,-0.82336 -0.67989,-0.67989 -0.6799,-0.6799 -1.68991,0.46008 c -0.92945,0.25305 -1.785,0.54342 -1.90122,0.64528 -0.11622,0.10186 0.2766,0.80246 0.87294,1.55689 l 1.08426,1.37168 0.71455,-0.51371 c 0.39301,-0.28255 1.0666,-0.88423 1.49687,-1.33707 z m 3.73547,-0.91811 c 0.15177,-0.61402 0.11591,-0.72458 -0.17971,-0.55412 -0.92722,0.53464 -1.01659,0.68962 -0.69483,1.20485 0.36735,0.58821 0.61359,0.40498 0.87454,-0.65073 z m -1.19046,-1.38046 0.64143,-0.69232 -0.92604,0.19427 c -1.25129,0.26249 -1.40118,0.38039 -1.03879,0.81705 0.42709,0.5146 0.58671,0.47613 1.3234,-0.319 z m -5.02933,-0.44659 1.17047,-0.33888 -1.58631,-1.26123 c -1.58299,-1.258578 -3.30388,-2.288064 -3.82474,-2.288064 -0.53327,0 -0.26555,1.399094 0.56641,2.960008 0.93481,1.753896 0.87467,1.738696 3.67417,0.928166 z m 8.55241,-0.60134 c 0.21426,-0.558341 -0.082,-1.127674 -0.68664,-1.319581 -0.70959,-0.225214 -1.37764,0.448528 -1.15144,1.161238 0.26918,0.848093 1.53167,0.956853 1.83808,0.158343 z m 8.68987,-5.213448 c -1.55453,-3.305945 -4.398,-5.232245 -7.95394,-5.388357 l -2.03008,-0.08912 1.55202,0.395588 c 3.37295,0.859713 6.90601,3.524841 8.38283,6.323501 0.94155,1.784283 0.98275,0.743808 0.0492,-1.241608 z m 4.03879,6.490678 c 0.57219,-5.27185 -0.51165,-8.647334 -3.7765,-11.761476 -2.57186,-2.453141 -5.60375,-3.650504 -9.24357,-3.650504 -1.47225,0 -1.92878,-0.08724 -1.92878,-0.368568 0,-0.523112 0.59909,-0.689766 2.47959,-0.689766 6.00985,0 11.27568,3.985844 13.2829,10.054167 0.89638,2.709967 0.49442,8.202087 -0.60029,8.202087 -0.34545,0 -0.37779,-0.27077 -0.21335,-1.78594 z"
         id="path3599" />
      <path
         style="fill:#4f4d4d;stroke-width:0.264583"
         d="m 101.96213,126.03695 -1.67179,-0.0944 0.17598,-0.80122 c 0.18526,-0.84347 6.60101,-15.01495 6.96025,-15.37419 0.11477,-0.11477 -0.21537,-1.06236 -0.73365,-2.10576 -0.84133,-1.69375 -0.95225,-2.164 -1.03486,-4.38743 -0.0987,-2.65697 0.25774,-4.100366 1.74086,-7.048955 1.8836,-3.744806 6.15385,-6.518869 10.68275,-6.939785 1.37875,-0.128142 1.80831,-0.269074 1.90105,-0.623706 0.26167,-1.000603 3.88493,-0.790063 6.42631,0.373421 2.82551,1.293559 4.79224,3.565274 5.71435,6.600464 0.55014,1.810853 0.56054,2.045385 0.24647,5.556961 -0.18035,2.01648 -0.55933,4.41558 -0.84218,5.33134 -1.83009,5.92512 -8.06616,9.82942 -14.25834,8.92691 -2.41416,-0.35187 -4.37346,-1.17556 -6.34372,-2.6669 -0.79176,-0.5993 -1.47017,-1.05904 -1.50757,-1.02164 -0.0374,0.0374 1.06395,3.03753 2.44744,6.66696 2.09505,5.49611 2.46955,6.69968 2.24085,7.20163 -0.27317,0.59953 -0.30127,0.60241 -5.3735,0.5517 -2.8044,-0.028 -5.85121,-0.0935 -6.7707,-0.14539 z m 10.83479,-2.11874 c -0.26761,-0.69122 -1.47318,-3.84954 -2.67904,-7.01848 -1.20585,-3.16895 -2.22105,-5.72879 -2.256,-5.68855 -0.0627,0.0722 -5.8746,12.73827 -6.12869,13.35642 -0.14818,0.36048 1.36233,0.47001 7.65156,0.55481 l 3.89875,0.0526 z m 9.50825,-9.75262 c 2.20833,-0.65472 3.39742,-1.35896 5.17233,-3.06331 1.77543,-1.70486 3.03855,-3.93703 3.49025,-6.16792 0.26434,-1.30554 0.21205,-4.04768 -0.10521,-5.517695 -0.1511,-0.70012 -1.11772,-3.081263 -1.25083,-3.081263 -0.0324,0 -0.0137,0.894747 0.0415,1.988326 0.0678,1.34298 -0.008,2.118712 -0.233,2.390062 -0.64431,0.77635 -0.90561,0.23968 -0.91791,-1.885282 -0.014,-2.425795 -0.55537,-3.734768 -2.10847,-5.098409 -1.29854,-1.140134 -2.5811,-1.62803 -4.27969,-1.62803 -1.0682,0 -1.47242,-0.107432 -1.59374,-0.423578 -0.19162,-0.499353 0.31297,-0.877175 1.23748,-0.926591 1.29352,-0.06914 -0.80679,-0.437584 -2.64583,-0.464142 -3.36147,-0.04854 -6.10064,1.062437 -8.59896,3.487652 l -1.5875,1.541048 0.95645,0.333717 c 1.14833,0.400664 2.23959,1.132148 4.2603,2.855726 l 1.51258,1.290166 1.46752,-0.383222 c 0.97758,-0.255281 1.72261,-0.656299 2.23159,-1.201166 0.96832,-1.036588 2.14484,-1.101013 3.07734,-0.168512 1.04658,1.046583 0.69167,2.753853 -0.69158,3.326813 -0.53754,0.22266 -0.85752,0.64334 -1.15631,1.52023 -0.2272,0.6668 -0.4131,1.36405 -0.4131,1.54944 0,0.18539 0.53394,1.10086 1.18652,2.03439 1.3883,1.98599 2.5114,4.28948 2.51507,5.15844 0.003,0.81455 -0.45606,1.63625 -0.91498,1.63625 -0.20337,0 -0.94332,0.2946 -1.64433,0.65466 -1.47211,0.75611 -1.07102,0.85399 0.99251,0.2422 z m 4.13617,-14.293263 c -0.10205,-0.102045 -0.18554,-0.707386 -0.18554,-1.345203 0,-2.209983 -1.57121,-3.933954 -3.88732,-4.265259 -1.66818,-0.238623 -1.77735,-0.932423 -0.16517,-1.04967 2.8063,-0.20409 5.61329,2.880991 5.3246,5.852113 -0.0777,0.79999 -0.66092,1.233672 -1.08657,0.808019 z m -1.86123,-0.27373 c -0.097,-0.09701 -0.17639,-0.578676 -0.17639,-1.07036 0,-1.053957 -0.89709,-2.087625 -2.02774,-2.336465 -1.28416,-0.282625 -1.45918,-0.375688 -1.3473,-0.716405 0.0597,-0.181824 0.43959,-0.369499 0.84419,-0.417054 1.63081,-0.191679 3.36989,1.21585 3.70423,2.998027 0.22227,1.184802 -0.3968,2.14245 -0.99699,1.542257 z m -4.97735,13.789343 1.3805,-0.40997 -2.06009,-1.46658 c -3.54922,-2.52671 -8.68628,-8.32154 -10.34557,-11.670259 -0.37856,-0.763984 -0.77135,-1.389062 -0.87288,-1.389062 -0.36014,0 -1.02799,2.495541 -1.02162,3.817441 0.0148,3.07458 1.23446,5.88974 3.5375,8.16522 2.94802,2.91274 6.13763,3.91673 9.38216,2.95321 z m 2.99685,-2.10358 c -0.16068,-1.00841 -2.5543,-5.15743 -2.97622,-5.15886 -0.0826,-2.8e-4 -0.36577,0.68409 -0.62935,1.52084 -0.26358,0.83674 -0.53205,1.65942 -0.59662,1.82818 -0.1792,0.46837 2.84375,2.46833 3.62505,2.3983 0.49888,-0.0447 0.64073,-0.18935 0.57714,-0.58846 z m -4.51184,-4.35703 c 0.5308,-1.64807 0.5539,-1.91791 0.21798,-2.54558 -0.20666,-0.38615 -0.52365,-0.75885 -0.70443,-0.82822 -0.18077,-0.0694 -0.99256,0.44105 -1.80398,1.13427 l -1.47531,1.26039 1.39379,1.41131 c 0.76658,0.77623 1.48028,1.41132 1.586,1.41132 0.10572,0 0.45939,-0.82957 0.78595,-1.84349 z m -2.29445,-3.69401 0.7823,-0.82336 -0.67989,-0.67989 -0.6799,-0.6799 -1.68991,0.46008 c -0.92945,0.25305 -1.785,0.54342 -1.90122,0.64528 -0.11622,0.10186 0.2766,0.80246 0.87294,1.55689 l 1.08426,1.37168 0.71455,-0.51371 c 0.39301,-0.28255 1.0666,-0.88423 1.49687,-1.33707 z m 3.80118,-1.02 c 0.30706,-0.91979 0.15911,-0.94234 -0.79825,-0.12164 -0.36119,0.30964 -0.38813,0.48014 -0.13892,0.8792 0.36063,0.57746 0.53986,0.43258 0.93717,-0.75756 z m -1.25617,-1.27857 0.64143,-0.69232 -0.92604,0.19427 c -1.25129,0.26249 -1.40118,0.38039 -1.03879,0.81705 0.42709,0.5146 0.58671,0.47613 1.3234,-0.319 z m -5.02933,-0.44659 1.17047,-0.33888 -1.58631,-1.26123 c -1.58299,-1.258578 -3.30388,-2.288064 -3.82474,-2.288064 -0.53327,0 -0.26555,1.399094 0.56641,2.960008 0.93481,1.753896 0.87467,1.738696 3.67417,0.928166 z m 8.55241,-0.60134 c 0.21426,-0.558341 -0.082,-1.127674 -0.68664,-1.319581 -0.70959,-0.225214 -1.37764,0.448528 -1.15144,1.161238 0.26918,0.848093 1.53167,0.956853 1.83808,0.158343 z m 8.68987,-5.213448 c -1.55453,-3.305945 -4.398,-5.232245 -7.95394,-5.388357 l -2.03008,-0.08912 1.55202,0.395588 c 3.37295,0.859713 6.90601,3.524841 8.38283,6.323501 0.94155,1.784283 0.98275,0.743808 0.0492,-1.241608 z m 4.03879,6.490678 c 0.57219,-5.27185 -0.51165,-8.647334 -3.7765,-11.761476 -2.57186,-2.453141 -5.60375,-3.650504 -9.24357,-3.650504 -1.47225,0 -1.92878,-0.08724 -1.92878,-0.368568 0,-0.523112 0.59909,-0.689766 2.47959,-0.689766 6.00985,0 11.27568,3.985844 13.2829,10.054167 0.89638,2.709967 0.49442,8.202087 -0.60029,8.202087 -0.34545,0 -0.37779,-0.27077 -0.21335,-1.78594 z"
         id="path3597" />
      <path
         style="fill:#6c3737;stroke-width:0.264583"
         d="m 102.49084,126.03617 -2.20142,-0.0894 0.16804,-0.76507 c 0.17531,-0.79817 6.63481,-15.06946 6.98021,-15.42171 0.10867,-0.11082 -0.22286,-1.04851 -0.73673,-2.08374 -0.8352,-1.68259 -0.94523,-2.15412 -1.03725,-4.44508 -0.0958,-2.38603 -0.045,-2.7077 0.73644,-4.663127 1.55708,-3.896188 3.54627,-6.233953 6.62822,-7.789717 4.12074,-2.080142 8.86892,-1.937931 12.83153,0.384311 1.53193,0.897772 4.10741,3.726161 4.88571,5.365471 0.35772,0.75346 0.69549,1.324829 0.75061,1.269709 0.26844,-0.268433 -0.88273,-3.341747 -1.70684,-4.556845 -1.7533,-2.585106 -4.03476,-3.812583 -7.50231,-4.036405 -1.75817,-0.113486 -2.24896,-0.231776 -2.24896,-0.542041 0,-0.323379 0.44097,-0.396875 2.38125,-0.396875 2.03336,0 2.60362,0.104208 3.90331,0.713287 4.41409,2.068598 6.89397,6.803872 6.07236,11.595082 -0.1751,1.02116 -0.32089,2.42 -0.32396,3.10852 -0.003,0.68852 -0.28325,2.03845 -0.62264,2.99985 -1.7526,4.96476 -6.0774,8.33196 -11.37266,8.85453 -3.05248,0.30124 -7.08233,-0.98115 -9.44893,-3.00688 -0.58579,-0.50141 -1.11555,-0.86117 -1.17726,-0.79947 -0.0617,0.0617 1.02217,3.07984 2.4086,6.70699 2.09569,5.48273 2.47463,6.69608 2.24717,7.19531 -0.27052,0.59371 -0.32516,0.59988 -4.84334,0.54663 -2.51335,-0.0296 -5.56037,-0.0941 -6.77115,-0.14329 z m 10.16805,-2.51483 c -0.34528,-0.90951 -1.48662,-3.91583 -2.5363,-6.68073 -1.04969,-2.7649 -1.99221,-5.17757 -2.0945,-5.36149 -0.10903,-0.19604 -1.43984,2.4154 -3.21612,6.31096 -1.66657,3.65496 -3.06765,6.74575 -3.11351,6.86842 -0.10808,0.28909 1.70101,0.40724 7.15871,0.46754 l 4.4295,0.0489 z m 9.64628,-9.35575 c 2.20833,-0.65472 3.39742,-1.35896 5.17233,-3.06331 1.77543,-1.70486 3.03855,-3.93703 3.49025,-6.16792 0.26434,-1.30554 0.21205,-4.04768 -0.10521,-5.517695 -0.1511,-0.70012 -1.11772,-3.081263 -1.25083,-3.081263 -0.0324,0 -0.0137,0.894747 0.0415,1.988326 0.0678,1.34298 -0.008,2.118712 -0.233,2.390062 -0.64431,0.77635 -0.90561,0.23968 -0.91791,-1.885282 -0.014,-2.425795 -0.55537,-3.734768 -2.10847,-5.098409 -1.29854,-1.140134 -2.5811,-1.62803 -4.27969,-1.62803 -1.0682,0 -1.47242,-0.107432 -1.59374,-0.423578 -0.19162,-0.499353 0.31297,-0.877175 1.23748,-0.926591 1.29352,-0.06914 -0.80679,-0.437584 -2.64583,-0.464142 -3.36147,-0.04854 -6.10064,1.062437 -8.59896,3.487652 l -1.5875,1.541048 0.95645,0.333717 c 1.14833,0.400664 2.23959,1.132148 4.2603,2.855726 l 1.51258,1.290166 1.46752,-0.383222 c 0.97758,-0.255281 1.72261,-0.656299 2.23159,-1.201166 0.96832,-1.036588 2.14484,-1.101013 3.07734,-0.168512 1.04658,1.046583 0.69167,2.753853 -0.69158,3.326813 -0.53754,0.22266 -0.85752,0.64334 -1.15631,1.52023 -0.2272,0.6668 -0.4131,1.36405 -0.4131,1.54944 0,0.18539 0.53394,1.10086 1.18652,2.03439 1.3883,1.98599 2.5114,4.28948 2.51507,5.15844 0.003,0.81455 -0.45606,1.63625 -0.91498,1.63625 -0.20337,0 -0.94332,0.2946 -1.64433,0.65466 -1.47211,0.75611 -1.07102,0.85399 0.99251,0.2422 z m 4.13617,-14.293263 c -0.10205,-0.102045 -0.18554,-0.707386 -0.18554,-1.345203 0,-2.209983 -1.57121,-3.933954 -3.88732,-4.265259 -1.66818,-0.238623 -1.77735,-0.932423 -0.16517,-1.04967 2.8063,-0.20409 5.61329,2.880991 5.3246,5.852113 -0.0777,0.79999 -0.66092,1.233672 -1.08657,0.808019 z m -1.86123,-0.27373 c -0.097,-0.09701 -0.17639,-0.578676 -0.17639,-1.07036 0,-1.053957 -0.89709,-2.087625 -2.02774,-2.336465 -1.28416,-0.282625 -1.45918,-0.375688 -1.3473,-0.716405 0.0597,-0.181824 0.43959,-0.369499 0.84419,-0.417054 1.63081,-0.191679 3.36989,1.21585 3.70423,2.998027 0.22227,1.184802 -0.3968,2.14245 -0.99699,1.542257 z m -4.45953,13.633533 0.87624,-0.36027 -1.66999,-1.10231 c -3.63336,-2.39829 -9.23525,-8.70113 -10.95459,-12.325294 -0.25888,-0.545703 -0.55652,-0.992187 -0.66141,-0.992187 -0.10489,0 -0.38049,0.556991 -0.61245,1.237758 -1.80659,5.302033 2.40312,12.368893 8.24228,13.836353 1.26561,0.31806 3.64754,0.17153 4.77992,-0.29405 z m 2.54597,-1.52279 c 0.0804,-0.13006 -0.0449,-0.69561 -0.27837,-1.25677 -0.47238,-1.13529 -2.50446,-4.32758 -2.75476,-4.32758 -0.0881,0 -0.3758,0.6846 -0.63938,1.52135 -0.26358,0.83674 -0.53205,1.65942 -0.59662,1.82818 -0.0646,0.16875 0.57583,0.78779 1.4231,1.37565 1.4883,1.03262 2.5422,1.35078 2.84603,0.85917 z m -4.57878,-4.78201 c 0.5308,-1.64807 0.5539,-1.91791 0.21798,-2.54558 -0.20666,-0.38615 -0.52365,-0.75885 -0.70443,-0.82822 -0.18077,-0.0694 -0.99256,0.44105 -1.80398,1.13427 l -1.47531,1.26039 1.39379,1.41131 c 0.76658,0.77623 1.48028,1.41132 1.586,1.41132 0.10572,0 0.45939,-0.82957 0.78595,-1.84349 z m -2.29445,-3.69401 0.7823,-0.82336 -0.67415,-0.67416 -0.67416,-0.67415 -1.69565,0.4355 c -0.93261,0.23953 -1.80183,0.53842 -1.93161,0.6642 -0.13625,0.13204 0.23767,0.79439 0.88478,1.56729 l 1.12074,1.3386 0.70272,-0.50528 c 0.3865,-0.27791 1.05476,-0.8758 1.48503,-1.32864 z m 3.80118,-1.02 c 0.30706,-0.91979 0.15911,-0.94234 -0.79825,-0.12164 -0.36119,0.30964 -0.38813,0.48014 -0.13892,0.8792 0.36063,0.57746 0.53986,0.43258 0.93717,-0.75756 z m -1.25617,-1.27857 0.64143,-0.69232 -0.92604,0.19427 c -1.25129,0.26249 -1.40118,0.38039 -1.03879,0.81705 0.42709,0.5146 0.58671,0.47613 1.3234,-0.319 z m -5.02933,-0.44659 1.17047,-0.33888 -1.58631,-1.26123 c -1.58299,-1.258578 -3.30388,-2.288064 -3.82474,-2.288064 -0.53327,0 -0.26555,1.399094 0.56641,2.960008 0.93481,1.753896 0.87467,1.738696 3.67417,0.928166 z m 8.29769,-0.3352 c 0.49189,-0.491882 0.49611,-0.527248 0.14188,-1.189118 -0.15064,-0.281475 -0.48401,-0.511773 -0.74083,-0.511773 -1.03458,0 -1.49874,1.33009 -0.63892,1.830891 0.62742,0.36544 0.75593,0.35194 1.23787,-0.13 z m 13.02857,1.01109 c 0.60375,-4.912421 -0.55434,-8.643123 -3.61968,-11.660491 -2.40016,-2.362596 -5.84238,-3.751489 -9.29767,-3.751489 -1.75372,0 -2.51795,-0.35178 -1.77986,-0.81928 0.20054,-0.127023 1.14328,-0.232774 2.09497,-0.235002 7.5606,-0.0177 13.86916,6.312899 13.83822,13.886573 -0.0102,2.496149 -0.45886,4.365629 -1.04774,4.365629 -0.34867,0 -0.37594,-0.25873 -0.18824,-1.78594 z"
         id="path3595" />
      <path
         style="fill:#4d2f2f;stroke-width:0.264583"
         d="m 102.49084,126.03617 -2.20142,-0.0894 0.16804,-0.76507 c 0.17531,-0.79817 6.63481,-15.06946 6.98021,-15.42171 0.10867,-0.11082 -0.22286,-1.04851 -0.73673,-2.08374 -0.8352,-1.68259 -0.94523,-2.15412 -1.03725,-4.44508 -0.0958,-2.38603 -0.045,-2.7077 0.73644,-4.663127 1.55708,-3.896188 3.54627,-6.233953 6.62822,-7.789717 4.12074,-2.080142 8.86892,-1.937931 12.83153,0.384311 1.53193,0.897772 4.10741,3.726161 4.88571,5.365471 0.35772,0.75346 0.69549,1.324829 0.75061,1.269709 0.26844,-0.268433 -0.88273,-3.341747 -1.70684,-4.556845 -1.7533,-2.585106 -4.03476,-3.812583 -7.50231,-4.036405 -1.75817,-0.113486 -2.24896,-0.231776 -2.24896,-0.542041 0,-0.323379 0.44097,-0.396875 2.38125,-0.396875 2.03336,0 2.60362,0.104208 3.90331,0.713287 4.41409,2.068598 6.89397,6.803872 6.07236,11.595082 -0.1751,1.02116 -0.32089,2.42 -0.32396,3.10852 -0.003,0.68852 -0.28325,2.03845 -0.62264,2.99985 -1.7526,4.96476 -6.0774,8.33196 -11.37266,8.85453 -3.05248,0.30124 -7.08233,-0.98115 -9.44893,-3.00688 -0.58579,-0.50141 -1.11555,-0.86117 -1.17726,-0.79947 -0.0617,0.0617 1.02217,3.07984 2.4086,6.70699 2.09569,5.48273 2.47463,6.69608 2.24717,7.19531 -0.27052,0.59371 -0.32516,0.59988 -4.84334,0.54663 -2.51335,-0.0296 -5.56037,-0.0941 -6.77115,-0.14329 z m 10.16805,-2.51483 c -0.34528,-0.90951 -1.48662,-3.91583 -2.5363,-6.68073 -1.04969,-2.7649 -1.99221,-5.17757 -2.0945,-5.36149 -0.10903,-0.19604 -1.43984,2.4154 -3.21612,6.31096 -1.66657,3.65496 -3.06765,6.74575 -3.11351,6.86842 -0.10808,0.28909 1.70101,0.40724 7.15871,0.46754 l 4.4295,0.0489 z m 9.93102,-9.44936 c 5.50018,-1.69984 8.9321,-6.7075 8.53292,-12.45073 -0.12451,-1.791404 -0.87385,-4.5735 -1.36381,-5.063463 -0.11294,-0.112942 -0.16036,0.685564 -0.10537,1.774458 0.0644,1.274669 -0.0115,2.114155 -0.21308,2.357005 -0.63985,0.77098 -0.93571,0.17126 -0.94194,-1.909377 -0.007,-2.387428 -0.5561,-3.689996 -2.14185,-5.082307 -1.26202,-1.108069 -2.39308,-1.575239 -4.13529,-1.708034 -0.76431,-0.05826 -1.47895,-0.1163 -1.58809,-0.128984 -0.10914,-0.01268 -0.19843,-0.188917 -0.19843,-0.391629 0,-0.406489 0.53023,-0.675662 1.4107,-0.71614 1.34791,-0.06197 -0.80344,-0.450628 -2.60133,-0.469951 -3.54155,-0.03806 -6.24289,1.041304 -8.72252,3.485245 l -1.59623,1.573247 0.79375,0.274049 c 1.1097,0.383133 2.42521,1.242944 4.34087,2.837176 l 1.64349,1.367727 1.37345,-0.322407 c 0.96569,-0.226689 1.61969,-0.586887 2.20288,-1.213268 1.35351,-1.453751 3.22403,-1.036091 3.69092,0.824128 0.20213,0.80538 -0.4291,1.884425 -1.34704,2.302665 -0.5923,0.26987 -1.45353,2.08276 -1.45353,3.05967 0,0.20266 0.53206,1.11408 1.18234,2.02537 2.00344,2.80757 2.91908,5.2319 2.31934,6.14088 -0.10691,0.16204 -1.02782,0.66447 -2.04647,1.11651 -2.09623,0.93025 -1.57387,1.10259 0.96432,0.31816 z m 3.84228,-14.2088 c -0.097,-0.09701 -0.17639,-0.73425 -0.17639,-1.416081 0,-2.155013 -1.56522,-3.853072 -3.85335,-4.180375 -1.57414,-0.22517 -1.84018,-0.923071 -0.40411,-1.060073 1.23191,-0.117526 2.93225,0.579253 3.93289,1.611656 1.2302,1.269236 1.95028,3.595165 1.48689,4.802747 -0.16504,0.430096 -0.67317,0.554886 -0.98593,0.242126 z m -1.85208,-0.264583 c -0.097,-0.09701 -0.17639,-0.557208 -0.17639,-1.022652 0,-1.217482 -0.85734,-2.169653 -2.19105,-2.433407 -1.30807,-0.258681 -1.53759,-0.949574 -0.3602,-1.084225 1.65771,-0.189583 3.23151,1.050803 3.64,2.868867 0.29671,1.320562 -0.25412,2.32966 -0.91236,1.671417 z m -4.45953,13.633533 0.87624,-0.36027 -1.66999,-1.10231 c -3.63336,-2.39829 -9.23525,-8.70113 -10.95459,-12.325294 -0.25888,-0.545703 -0.55652,-0.992187 -0.66141,-0.992187 -0.10489,0 -0.38049,0.556991 -0.61245,1.237758 -1.80659,5.302033 2.40312,12.368893 8.24228,13.836353 1.26561,0.31806 3.64754,0.17153 4.77992,-0.29405 z m 2.54597,-1.52279 c 0.0804,-0.13006 -0.0449,-0.69561 -0.27837,-1.25677 -0.47238,-1.13529 -2.50446,-4.32758 -2.75476,-4.32758 -0.0881,0 -0.3758,0.6846 -0.63938,1.52135 -0.26358,0.83674 -0.53205,1.65942 -0.59662,1.82818 -0.0646,0.16875 0.57583,0.78779 1.4231,1.37565 1.4883,1.03262 2.5422,1.35078 2.84603,0.85917 z m -4.57878,-4.78201 c 0.5308,-1.64807 0.5539,-1.91791 0.21798,-2.54558 -0.20666,-0.38615 -0.52365,-0.75885 -0.70443,-0.82822 -0.18077,-0.0694 -0.99256,0.44105 -1.80398,1.13427 l -1.47531,1.26039 1.39379,1.41131 c 0.76658,0.77623 1.48028,1.41132 1.586,1.41132 0.10572,0 0.45939,-0.82957 0.78595,-1.84349 z m -2.29445,-3.69401 0.7823,-0.82336 -0.67415,-0.67416 -0.67416,-0.67415 -1.69565,0.4355 c -0.93261,0.23953 -1.80183,0.53842 -1.93161,0.6642 -0.13625,0.13204 0.23767,0.79439 0.88478,1.56729 l 1.12074,1.3386 0.70272,-0.50528 c 0.3865,-0.27791 1.05476,-0.8758 1.48503,-1.32864 z m 3.80118,-1.02 c 0.30758,-0.92134 0.15915,-0.94271 -0.80467,-0.11583 -0.35511,0.30466 -0.39314,0.50459 -0.17392,0.9142 0.3269,0.61083 0.57599,0.40761 0.97859,-0.79837 z m -1.2762,-1.24771 c 0.69688,-0.7418 0.35624,-0.8844 -0.93757,-0.39249 -0.5869,0.22314 -0.65194,0.33585 -0.38171,0.66146 0.44122,0.53164 0.59698,0.49988 1.31928,-0.26897 z m -5.0093,-0.47745 1.17047,-0.33888 -1.58631,-1.26123 c -1.58299,-1.258578 -3.30388,-2.288064 -3.82474,-2.288064 -0.53327,0 -0.26555,1.399094 0.56641,2.960008 0.93481,1.753896 0.87467,1.738696 3.67417,0.928166 z m 8.29769,-0.3352 c 0.49189,-0.491882 0.49611,-0.527248 0.14188,-1.189118 -0.15064,-0.281475 -0.48401,-0.511773 -0.74083,-0.511773 -1.03458,0 -1.49874,1.33009 -0.63892,1.830891 0.62742,0.36544 0.75593,0.35194 1.23787,-0.13 z m 13.02857,1.01109 c 0.60375,-4.912421 -0.55434,-8.643123 -3.61968,-11.660491 -2.40016,-2.362596 -5.84238,-3.751489 -9.29767,-3.751489 -1.75372,0 -2.51795,-0.35178 -1.77986,-0.81928 0.20054,-0.127023 1.14328,-0.232774 2.09497,-0.235002 7.5606,-0.0177 13.86916,6.312899 13.83822,13.886573 -0.0102,2.496149 -0.45886,4.365629 -1.04774,4.365629 -0.34867,0 -0.37594,-0.25873 -0.18824,-1.78594 z"
         id="path3593" />
      <path
         style="fill:#312d2d;stroke-width:0.264583"
         d="m 102.49084,126.03617 -2.20142,-0.0894 0.16804,-0.76507 c 0.17531,-0.79817 6.63481,-15.06946 6.98021,-15.42171 0.10867,-0.11082 -0.21836,-1.03943 -0.72672,-2.06357 -0.77835,-1.56806 -0.94278,-2.21422 -1.04135,-4.09218 -0.13675,-2.60553 0.15283,-3.953061 1.42611,-6.63625 4.69342,-9.890438 18.32903,-10.254144 23.51597,-0.627248 0.50807,0.942971 0.92647,1.576272 0.92978,1.407336 0.0173,-0.882609 -1.10717,-3.665411 -1.93889,-4.79844 -1.74803,-2.381295 -3.96912,-3.516857 -7.31552,-3.740163 -1.75599,-0.117178 -2.24896,-0.237069 -2.24896,-0.546949 0,-0.323379 0.44097,-0.396875 2.38125,-0.396875 2.02994,0 2.60446,0.104616 3.89416,0.709098 1.7834,0.835881 3.88796,2.722283 4.82947,4.328854 0.96157,1.640799 1.54743,4.158676 1.37894,5.926342 -0.6467,6.784365 -0.99161,8.184555 -2.58752,10.504125 -2.3062,3.35196 -5.78753,5.40109 -9.85864,5.80285 -3.13658,0.30954 -7.17041,-1.01143 -9.58863,-3.14003 -0.64056,-0.56384 -1.16426,-0.92575 -1.16378,-0.80425 4.8e-4,0.12151 1.13819,3.19516 2.52824,6.83033 2.10135,5.49536 2.48124,6.71062 2.25375,7.2099 -0.27052,0.59371 -0.32516,0.59988 -4.84334,0.54663 -2.51335,-0.0296 -5.56037,-0.0941 -6.77115,-0.14329 z m 10.16805,-2.51483 c -0.34528,-0.90951 -1.48662,-3.91583 -2.5363,-6.68073 -1.04969,-2.7649 -1.99221,-5.17757 -2.0945,-5.36149 -0.10903,-0.19604 -1.43984,2.4154 -3.21612,6.31096 -1.66657,3.65496 -3.06765,6.74575 -3.11351,6.86842 -0.10808,0.28909 1.70101,0.40724 7.15871,0.46754 l 4.4295,0.0489 z m 11.69588,-10.15421 c 3.28272,-1.59105 5.6105,-4.41135 6.51862,-7.89781 0.72946,-2.80062 0.064,-7.508237 -1.31202,-9.282036 -0.37136,-0.47869 -0.38028,-0.463065 -0.13211,0.231489 0.35078,0.981768 0.34054,3.516537 -0.0169,4.184437 -0.50046,0.93513 -0.98029,0.15381 -0.83489,-1.359464 0.18434,-1.918404 -0.35849,-3.52131 -1.69645,-5.009447 -1.53535,-1.707667 -2.83974,-2.205888 -6.24761,-2.386307 -0.10914,-0.0058 -0.19843,-0.176361 -0.19843,-0.379073 0,-0.406489 0.53023,-0.675662 1.4107,-0.71614 1.4074,-0.0647 -0.84536,-0.451296 -2.77619,-0.476419 -3.4615,-0.04504 -6.39958,1.20135 -8.93676,3.791145 -0.64577,0.659159 -1.12202,1.230732 -1.05834,1.270163 0.0637,0.03943 0.77792,0.401939 1.58718,0.805573 0.80927,0.403634 2.27045,1.397134 3.24709,2.207778 l 1.77569,1.473898 1.38313,-0.324729 c 0.97552,-0.229033 1.62755,-0.587263 2.21256,-1.215591 0.97362,-1.045724 2.07059,-1.177324 2.95393,-0.354372 1.22995,1.145879 0.91947,2.706065 -0.70578,3.546515 -0.57313,0.29638 -0.84705,0.72474 -1.14245,1.78661 l -0.38856,1.39676 1.12938,1.53416 c 1.95337,2.65347 3.13478,5.62783 2.55916,6.44304 -0.11442,0.16204 -1.04147,0.67411 -2.06012,1.13794 l -1.85208,0.84333 1.32292,-0.15669 c 0.7276,-0.0862 2.19386,-0.57883 3.25834,-1.09476 z m 2.00157,-13.711766 c -0.0811,-0.211313 -0.072,-0.506222 0.0202,-0.655354 0.27949,-0.452232 -0.35631,-2.325007 -1.08223,-3.187708 -0.87013,-1.034097 -1.45404,-1.339913 -2.97326,-1.557228 -1.50207,-0.214861 -1.71764,-0.915341 -0.32266,-1.048423 1.35043,-0.128832 3.07272,0.647994 4.10157,1.849982 0.98252,1.147851 1.64291,3.234752 1.36898,4.326149 -0.17981,0.716428 -0.87671,0.887178 -1.11255,0.272582 z m -1.62543,-0.188186 c -0.17996,-0.179956 -0.32719,-0.644511 -0.32719,-1.032344 0,-1.085501 -0.91166,-2.039284 -2.19105,-2.292296 -1.27375,-0.251894 -1.54227,-0.948433 -0.41591,-1.078849 1.67407,-0.193834 3.23254,1.072765 3.66179,2.976007 0.24951,1.106279 -0.18886,1.966264 -0.72764,1.427482 z m -4.61033,13.764952 0.87624,-0.36027 -1.69607,-1.11438 c -3.19858,-2.10161 -8.8607,-8.38051 -10.65668,-11.817549 -0.42725,-0.817633 -0.85492,-1.486888 -0.95038,-1.487233 -0.0955,-3.44e-4 -0.36335,0.556362 -0.59531,1.237129 -1.80659,5.302033 2.40312,12.368893 8.24228,13.836353 1.26561,0.31806 3.64754,0.17153 4.77992,-0.29405 z m 2.49281,-2.08006 c -0.0787,-0.73859 -2.47705,-4.81795 -2.91915,-4.96531 -0.15557,-0.0519 -0.52578,0.71546 -0.8227,1.70516 -0.60408,2.01357 -0.65373,1.89004 1.29884,3.23202 1.4691,1.0097 2.549,1.02213 2.44301,0.0281 z m -4.52562,-4.22474 c 0.5308,-1.64807 0.5539,-1.91791 0.21798,-2.54558 -0.20666,-0.38615 -0.5279,-0.76048 -0.71386,-0.83184 -0.18596,-0.0714 -1.00057,0.43621 -1.81024,1.12793 l -1.47213,1.25768 1.40004,1.41765 c 0.77002,0.77971 1.48654,1.41765 1.59226,1.41765 0.10572,0 0.45939,-0.82957 0.78595,-1.84349 z m -2.46559,-3.46944 1.09899,-0.9473 -0.74467,-0.71344 -0.74468,-0.71344 -1.89634,0.45512 c -1.04299,0.25032 -1.89635,0.56441 -1.89635,0.69799 0,0.13357 0.48681,0.82428 1.08178,1.53492 1.20649,1.44102 1.04662,1.4572 3.10127,-0.31385 z m 3.96916,-1.23551 c 0.34274,-1.02714 0.0988,-1.09543 -0.73659,-0.20619 -0.51737,0.55071 -0.55975,0.71921 -0.269,1.06954 0.40514,0.48816 0.61464,0.30829 1.00559,-0.86335 z m -1.14075,-1.29224 0.79375,-0.67789 -1.18069,0.17036 c -1.41016,0.20347 -1.50864,0.27696 -1.07357,0.80119 0.43621,0.52561 0.52125,0.50851 1.46051,-0.29366 z m -5.75896,-0.27386 1.75812,-0.44163 -1.17458,-1.031143 c -1.24406,-1.092138 -3.61571,-2.576875 -4.12283,-2.581038 -0.66369,-0.0054 -0.55434,0.858651 0.33314,2.632626 0.51256,1.024545 1.04805,1.862805 1.18998,1.862805 0.14192,0 1.0492,-0.19873 2.01617,-0.44162 z m 8.91506,-0.50332 c 0.49189,-0.491882 0.49611,-0.527248 0.14188,-1.189118 -0.15064,-0.281475 -0.48401,-0.511773 -0.74083,-0.511773 -1.03458,0 -1.49874,1.33009 -0.63892,1.830891 0.62742,0.36544 0.75593,0.35194 1.23787,-0.13 z m 12.85644,2.334 c 0.003,-0.25466 0.11717,-1.23692 0.25398,-2.18281 0.65326,-4.51651 -1.4254,-9.377687 -5.14774,-12.038539 -2.18742,-1.563644 -4.31943,-2.286511 -7.22306,-2.449012 -1.34986,-0.07554 -2.52597,-0.253342 -2.61359,-0.395106 -0.28517,-0.461411 0.5354,-0.719573 2.3003,-0.723705 7.5606,-0.0177 13.86916,6.312899 13.83822,13.886573 -0.01,2.449949 -0.46052,4.365629 -1.02668,4.365629 -0.21267,0 -0.38432,-0.20836 -0.38143,-0.46303 z"
         id="path3591" />
      <path
         style="fill:#291919;stroke-width:0.264583"
         d="m 103.10476,125.98364 c -2.63086,-0.14636 -2.64543,-0.15094 -2.57488,-0.80866 0.0781,-0.72774 6.59991,-15.13041 6.95102,-15.35044 0.12016,-0.0753 -0.2119,-1.00391 -0.73789,-2.06358 -0.81255,-1.63695 -0.97396,-2.26201 -1.07341,-4.15676 -0.13853,-2.63946 0.15034,-3.945943 1.47753,-6.682451 3.07662,-6.34358 10.2907,-9.208882 16.76273,-6.657846 2.85441,1.125103 5.54918,3.642233 6.85553,6.403596 0.86408,1.826511 1.00548,1.586274 0.36185,-0.614804 -0.80821,-2.763902 -2.44663,-4.70214 -5.13602,-6.075876 -0.86734,-0.443033 -1.83721,-0.650158 -3.57188,-0.762813 -1.87154,-0.121543 -2.38125,-0.239595 -2.38125,-0.55152 0,-0.324 0.43725,-0.395337 2.38125,-0.388499 2.01096,0.0071 2.61794,0.117992 3.90331,0.713286 4.33147,2.006043 6.85969,6.730807 6.06899,11.341807 -0.17325,1.01034 -0.31501,2.34894 -0.31501,2.97467 0,4.52044 -3.92464,9.81767 -8.45905,11.41751 -4.44436,1.56806 -8.81208,0.866 -12.64147,-2.03197 -0.9095,-0.68828 -1.65364,-1.15541 -1.65364,-1.03805 0,0.11735 1.13421,3.17844 2.52047,6.80241 2.07025,5.41209 2.47298,6.69538 2.25463,7.18436 -0.26043,0.58319 -0.34807,0.59427 -4.30641,0.54407 -2.22231,-0.0282 -5.23119,-0.11748 -6.6864,-0.19844 z m 9.80777,-1.80084 c -0.75403,-2.1062 -4.7067,-12.38663 -4.88581,-12.70742 -0.1416,-0.2536 -5.04076,9.93026 -6.29626,13.088 -0.16335,0.41084 1.01118,0.50774 6.85267,0.56538 l 4.68461,0.0462 z m 11.44224,-10.80353 c 3.29353,-1.61695 5.61312,-4.43355 6.52066,-7.91781 0.73529,-2.82296 0.0749,-7.483754 -1.31406,-9.274176 -0.37136,-0.47869 -0.38028,-0.463065 -0.13211,0.231489 0.32718,0.915699 0.34304,3.618817 0.0242,4.122367 -0.12861,0.20311 -0.40793,0.30248 -0.62072,0.22082 -0.29448,-0.113 -0.35597,-0.47024 -0.25744,-1.495681 0.18645,-1.940369 -0.35173,-3.538731 -1.69429,-5.03198 -1.53533,-1.707667 -2.83972,-2.205888 -6.24759,-2.386307 -0.10914,-0.0058 -0.19843,-0.176361 -0.19843,-0.379073 0,-0.425638 0.5367,-0.676449 1.54299,-0.72107 1.48698,-0.06594 -0.80826,-0.434123 -2.90848,-0.466559 -2.2628,-0.03495 -4.52183,0.546185 -6.3641,1.637157 -1.08483,0.642419 -3.87401,3.268109 -3.63155,3.418671 0.064,0.03973 0.77847,0.402489 1.58773,0.806123 0.80927,0.403634 2.27045,1.397134 3.24709,2.207778 l 1.77569,1.473898 1.38313,-0.324729 c 0.97552,-0.229033 1.62755,-0.587263 2.21256,-1.215591 1.21809,-1.3083 2.91437,-1.069144 3.56544,0.502686 0.40759,0.984011 -0.0282,1.916787 -1.19779,2.563777 -0.54871,0.30354 -0.90688,0.82469 -1.23969,1.80381 l -0.46804,1.37694 1.5611,2.28773 c 1.65547,2.42603 2.52022,4.50569 2.2768,5.47555 -0.10551,0.42037 -0.69837,0.8361 -2.07601,1.45575 l -1.92833,0.86735 1.32292,-0.14437 c 0.7276,-0.0794 2.19386,-0.57195 3.25834,-1.09455 z m 2.04808,-13.580408 c -0.0818,-0.132389 -0.0809,-0.417565 0.002,-0.633726 0.24147,-0.629267 -0.3686,-2.47097 -1.11064,-3.352834 -0.87013,-1.034097 -1.45403,-1.339913 -2.97325,-1.557228 -1.50207,-0.214861 -1.71765,-0.915341 -0.32266,-1.048423 2.92322,-0.278878 6.06506,3.230053 5.44006,6.07568 -0.16039,0.730239 -0.72838,1.013549 -1.03556,0.516531 z m -1.67194,-0.331684 c -0.17996,-0.179956 -0.32719,-0.653928 -0.32719,-1.053271 0,-1.064278 -1.02629,-2.113589 -2.26398,-2.31477 -1.21463,-0.197433 -1.44977,-0.907298 -0.34298,-1.035448 1.67407,-0.193834 3.23254,1.072765 3.66179,2.976007 0.24951,1.106279 -0.18886,1.966264 -0.72764,1.427482 z m -4.61033,13.764952 0.87624,-0.36027 -1.6788,-1.10303 c -3.29026,-2.16183 -10.38588,-10.26608 -11.18055,-12.769865 -0.27195,-0.856837 -0.58197,-0.650713 -1.03909,0.690862 -0.87435,2.566083 -0.29539,6.127093 1.43443,8.822793 1.45137,2.26175 4.3484,4.39592 6.80482,5.01293 1.26844,0.31861 3.64969,0.17252 4.78295,-0.29342 z m 2.49281,-2.08006 c -0.0792,-0.74309 -2.47829,-4.81836 -2.92395,-4.96691 -0.1582,-0.0527 -0.48806,0.59676 -0.73301,1.44332 -0.24494,0.84657 -0.49675,1.67575 -0.55957,1.84262 -0.18351,0.48751 2.84217,2.51107 3.61905,2.4204 0.53856,-0.0629 0.65435,-0.20616 0.59748,-0.73943 z m -4.52562,-4.22474 c 0.5308,-1.64807 0.5539,-1.91791 0.21798,-2.54558 -0.20666,-0.38615 -0.5279,-0.76048 -0.71386,-0.83184 -0.18596,-0.0714 -1.00057,0.43621 -1.81024,1.12793 l -1.47213,1.25768 1.40004,1.41765 c 0.77002,0.77971 1.48654,1.41765 1.59226,1.41765 0.10572,0 0.45939,-0.82957 0.78595,-1.84349 z m -2.46559,-3.46944 1.09899,-0.9473 -0.74467,-0.71344 -0.74468,-0.71344 -1.89634,0.45512 c -1.04299,0.25032 -1.89635,0.56441 -1.89635,0.69799 0,0.13357 0.48681,0.82428 1.08178,1.53492 1.20649,1.44102 1.04662,1.4572 3.10127,-0.31385 z m 3.96916,-1.23551 c 0.34274,-1.02714 0.0988,-1.09543 -0.73659,-0.20619 -0.51737,0.55071 -0.55975,0.71921 -0.269,1.06954 0.40514,0.48816 0.61464,0.30829 1.00559,-0.86335 z m -1.14075,-1.29224 0.79375,-0.67789 -1.18069,0.17036 c -1.41016,0.20347 -1.50864,0.27696 -1.07357,0.80119 0.43621,0.52561 0.52125,0.50851 1.46051,-0.29366 z m -5.75896,-0.27386 1.75812,-0.44163 -1.17458,-1.031143 c -1.24406,-1.092138 -3.61571,-2.576875 -4.12283,-2.581038 -0.69391,-0.0057 -0.57596,0.936884 0.3339,2.66835 0.52806,1.004901 1.06972,1.827081 1.20369,1.827081 0.13397,0 1.03473,-0.19873 2.0017,-0.44162 z m 8.91506,-0.50332 c 0.49189,-0.491882 0.49611,-0.527248 0.14188,-1.189118 -0.15064,-0.281475 -0.48401,-0.511773 -0.74083,-0.511773 -1.03458,0 -1.49874,1.33009 -0.63892,1.830891 0.62742,0.36544 0.75593,0.35194 1.23787,-0.13 z m 12.85319,2.334 c 0.001,-0.25466 0.12611,-1.22793 0.2778,-2.16284 0.60681,-3.739962 -0.862,-8.033525 -3.70629,-10.833994 -2.50018,-2.461666 -5.61918,-3.729019 -9.19175,-3.734916 -1.8676,-0.0031 -2.65649,-0.344272 -1.90159,-0.82242 0.20054,-0.127023 1.03298,-0.232774 1.84987,-0.235002 6.11508,-0.01668 11.67632,4.009452 13.49025,9.766447 0.92368,2.931562 0.63987,8.485755 -0.43361,8.485755 -0.21267,0 -0.38578,-0.20836 -0.38468,-0.46303 z"
         id="path3589" />
      <path
         style="fill:#171515;stroke-width:0.264583"
         d="m 103.23705,125.98309 c -2.77047,-0.14624 -2.77792,-0.14846 -2.7038,-0.80572 0.0855,-0.75839 6.60136,-15.1407 6.95978,-15.36221 0.13062,-0.0807 -0.20799,-1.03334 -0.75247,-2.11692 -0.9644,-1.91924 -0.98997,-2.0454 -0.98997,-4.88427 v -2.914149 l 1.22075,-2.509814 c 1.86113,-3.826406 3.96977,-5.865037 7.43609,-7.189207 6.12576,-2.340099 13.29482,0.415889 16.24333,6.244392 l 0.94831,1.874585 -0.18755,-1.190625 c -0.44306,-2.812636 -2.33855,-5.498852 -4.80488,-6.809264 -1.70605,-0.906461 -2.83607,-1.180175 -5.07097,-1.228287 -1.14046,-0.02455 -1.49758,-0.126879 -1.49758,-0.429115 0,-0.323644 0.44116,-0.396509 2.39085,-0.394891 2.15807,0.0018 2.56005,0.08528 4.12882,0.857588 2.16874,1.067667 3.95736,2.936776 5.05508,5.282549 0.94698,2.023654 1.06174,3.808457 0.54074,8.409958 -0.44217,3.90523 -1.37298,6.15648 -3.47493,8.40443 -4.77245,5.10395 -12.07766,5.72484 -17.65835,1.50083 -0.93381,-0.7068 -1.69783,-1.18907 -1.69783,-1.07171 0,0.11735 1.13421,3.17844 2.52047,6.80241 2.07025,5.41209 2.47298,6.69538 2.25463,7.18436 -0.25994,0.58208 -0.35268,0.59416 -4.17412,0.54352 -2.14955,-0.0285 -5.15843,-0.11779 -6.6864,-0.19844 z m 9.67387,-1.80029 c -0.90546,-2.51777 -4.66471,-12.31599 -4.85717,-12.65991 -0.14879,-0.26586 -1.14501,1.65081 -3.20705,6.1702 -1.64517,3.60572 -3.04731,6.69691 -3.11587,6.86932 -0.16788,0.42219 0.92505,0.51459 6.72,0.5681 l 4.81691,0.0445 z m 9.96551,-10.1406 c 4.03544,-1.35944 6.92564,-4.45983 7.999,-8.58074 0.73252,-2.81234 0.0816,-7.44175 -1.304,-9.274176 -0.35399,-0.468151 -0.36562,-0.431975 -0.1321,0.410955 0.3168,1.14356 0.32735,3.448281 0.018,3.936601 -0.12647,0.19964 -0.3855,0.31112 -0.57563,0.24775 -0.24224,-0.0807 -0.32476,-0.56712 -0.27575,-1.625252 0.092,-1.986072 -0.53185,-3.790347 -1.74099,-5.035222 -1.33518,-1.374637 -2.70472,-2.013277 -4.7212,-2.201579 -0.93985,-0.08776 -1.70881,-0.257228 -1.70881,-0.376585 0,-0.314017 0.92336,-0.760487 1.63625,-0.791173 1.56873,-0.06753 -0.83622,-0.451507 -2.9839,-0.476419 -3.64226,-0.04225 -6.31303,1.087153 -8.96207,3.789835 -1.01373,1.034264 -1.30726,1.475457 -0.98164,1.475457 0.77311,0 2.40283,0.957069 4.49315,2.638643 1.09028,0.87708 2.12483,1.594691 2.29902,1.594691 0.17419,0 0.94251,-0.181928 1.70739,-0.404285 0.97837,-0.284418 1.47571,-0.590868 1.67742,-1.033589 0.61291,-1.34518 2.83993,-1.032935 3.53648,0.495842 0.37238,0.817281 -0.17016,1.947786 -1.20939,2.520056 -0.55063,0.30321 -0.90651,0.82165 -1.24246,1.81 l -0.4708,1.38508 1.53692,2.3098 c 1.53596,2.30836 2.40321,4.13469 2.40321,5.06089 0,0.64678 -0.52519,1.05576 -2.48135,1.93229 -1.31373,0.58867 -1.48067,0.72716 -0.88374,0.73317 0.40477,0.004 1.46991,-0.23984 2.36697,-0.54204 z m 3.56058,-14.174202 c -0.0944,-0.09436 -0.10289,-0.445229 -0.0189,-0.779699 0.49421,-1.969096 -1.93923,-4.869563 -4.08548,-4.869563 -0.94862,0 -1.66787,-0.695461 -0.98877,-0.956057 1.42616,-0.54727 4.2733,0.801235 5.2605,2.491563 0.64802,1.10956 1.02674,2.794035 0.81651,3.631664 -0.15659,0.623904 -0.6166,0.849314 -0.98382,0.482092 z m -1.8569,-0.533985 c -0.097,-0.09701 -0.17639,-0.522891 -0.17639,-0.946394 0,-1.052486 -1.27986,-2.3168 -2.34529,-2.3168 -0.89689,0 -1.35229,-0.467856 -0.79746,-0.81928 0.93353,-0.59129 2.93201,0.196602 3.70216,1.459562 0.84021,1.377845 0.52569,3.531629 -0.38302,2.622912 z m -4.45953,13.898117 0.87624,-0.36027 -1.6788,-1.10303 c -3.29026,-2.16183 -10.38588,-10.26608 -11.18055,-12.769865 -0.27195,-0.856837 -0.58197,-0.650713 -1.03909,0.690862 -0.87435,2.566083 -0.29539,6.127093 1.43443,8.822793 1.45137,2.26175 4.3484,4.39592 6.80482,5.01293 1.26844,0.31861 3.64969,0.17252 4.78295,-0.29342 z m 2.56146,-1.54784 c 0.23069,-0.37327 -0.68856,-2.33099 -2.00423,-4.2684 l -1.12858,-1.66191 -0.61546,1.82454 c -0.33851,1.0035 -0.61547,1.91386 -0.61547,2.02302 0,0.10917 0.67423,0.68129 1.49828,1.27138 1.4541,1.04126 2.53434,1.34713 2.86546,0.81137 z m -4.55581,-4.84523 0.6495,-1.93176 -0.56938,-0.71407 c -0.31316,-0.39275 -0.67114,-0.71408 -0.7955,-0.71408 -0.12437,0 -0.87305,0.55268 -1.66373,1.22819 l -1.4376,1.22818 1.40004,1.41765 c 0.77002,0.77971 1.48264,1.41765 1.58361,1.41765 0.10096,0 0.47584,-0.86929 0.83306,-1.93176 z m -2.63386,-3.25297 1.22025,-1.08369 -0.7404,-0.70934 -0.7404,-0.70935 -1.89634,0.45512 c -1.04299,0.25032 -1.89558,0.58094 -1.89464,0.7347 9.5e-4,0.15377 0.48688,0.84562 1.07986,1.53745 1.19567,1.39498 1.14319,1.39896 2.97167,-0.22489 z m 4.08853,-1.16527 c 0.31033,-1.22261 0.1344,-1.32064 -0.72615,-0.40463 -0.50945,0.54229 -0.55689,0.72266 -0.2783,1.05833 0.5167,0.62259 0.7129,0.4949 1.00445,-0.6537 z m -1.13031,-1.47414 0.79375,-0.67777 -1.18069,0.16203 c -1.40868,0.19331 -1.50941,0.26771 -1.07357,0.79286 0.44251,0.53319 0.53125,0.51635 1.46051,-0.27712 z m -5.75896,-0.2904 1.75812,-0.44163 -1.17458,-1.031143 c -1.24406,-1.092138 -3.61571,-2.576875 -4.12283,-2.581038 -0.85635,-0.007 -0.44904,1.607925 0.98366,3.900121 0.44484,0.7117 0.35554,0.70633 2.55563,0.15369 z m 8.91506,-0.50332 c 0.49189,-0.491882 0.49611,-0.527248 0.14188,-1.189118 -0.15064,-0.281475 -0.48401,-0.511773 -0.74083,-0.511773 -1.03458,0 -1.49874,1.33009 -0.63892,1.830891 0.62742,0.36544 0.75593,0.35194 1.23787,-0.13 z m 12.85319,2.334 c 0.001,-0.25466 0.12611,-1.22793 0.2778,-2.16284 0.60681,-3.739962 -0.862,-8.033525 -3.70629,-10.833994 -2.50018,-2.461666 -5.61918,-3.729019 -9.19175,-3.734916 -1.8676,-0.0031 -2.65649,-0.344272 -1.90159,-0.82242 0.56611,-0.358571 3.36324,-0.272819 5.19599,0.159295 4.73219,1.115727 8.71079,4.79361 10.13844,9.37215 0.91239,2.926051 0.63202,8.485755 -0.42792,8.485755 -0.21267,0 -0.38578,-0.20836 -0.38468,-0.46303 z"
         id="path3587" />
      <path
         style="fill:#000000;stroke-width:0.264583"
         d="m 103.63393,125.98518 c -3.1219,-0.14625 -3.1739,-0.15896 -3.10921,-0.75966 0.0762,-0.70785 6.63278,-15.19142 6.97621,-15.41061 0.12627,-0.0806 -0.21589,-1.03309 -0.76037,-2.11667 -0.96417,-1.91878 -0.98997,-2.04598 -0.98997,-4.88055 v -2.910413 l 1.38122,-2.69153 c 2.05898,-4.012277 4.59087,-6.262084 8.25795,-7.337908 2.01997,-0.592607 5.38026,-0.546064 7.48382,0.103659 4.36695,1.348814 7.96793,5.119193 8.43506,8.831882 0.20129,1.59978 0.20322,1.5927 0.1341,-0.493603 -0.11319,-3.41697 -1.72387,-6.224214 -4.48439,-7.81579 -1.76377,-1.016904 -3.07704,-1.3737 -5.20047,-1.412888 -1.33821,-0.0247 -1.71979,-0.119795 -1.71979,-0.428613 0,-0.324 0.43725,-0.395337 2.38125,-0.388499 2.00738,0.0071 2.61879,0.118392 3.89416,0.709098 3.01764,1.397662 5.34756,4.386806 6.03098,7.737394 0.50171,2.459699 -0.0396,5.700341 -0.9522,5.700341 -0.34445,0 -0.40053,-0.17564 -0.27454,-0.8599 0.0871,-0.47294 -0.001,-1.45521 -0.19568,-2.182809 -0.35019,-1.308704 -1.90207,-4.630208 -2.16332,-4.630208 -0.0744,0 0.0527,0.363588 0.28254,0.807975 0.87609,1.694173 0.82719,5.400692 -0.069,5.227792 -0.35126,-0.0678 -0.41688,-0.39818 -0.36473,-1.836243 0.14141,-3.898771 -2.45741,-6.723629 -6.48289,-7.046755 -0.92934,-0.0746 -1.68971,-0.241343 -1.68971,-0.370542 0,-0.407901 1.35008,-0.768121 2.34775,-0.62641 0.93669,0.13305 0.94064,0.130018 0.16579,-0.127316 -4.33503,-1.439701 -9.34595,-0.245471 -12.60557,3.00423 -0.77954,0.777169 -1.59594,1.481931 -1.81422,1.566138 -0.22232,0.08576 -0.0478,0.163384 0.39687,0.176475 1.00756,0.02967 2.99473,1.181134 5.01563,2.906314 0.86683,0.739984 1.72095,1.345425 1.89805,1.345425 0.1771,0 0.93965,-0.142573 1.69457,-0.31683 0.98001,-0.226212 1.44964,-0.485956 1.64201,-0.908158 0.14818,-0.325232 0.62751,-0.739652 1.06516,-0.920935 0.98153,-0.406561 1.99293,0.0597 2.5235,1.163347 0.44301,0.921532 -0.005,1.94824 -1.11683,2.5606 -0.55365,0.30487 -0.90684,0.82264 -1.25017,1.83268 l -0.47851,1.40776 1.1717,1.64199 c 1.33834,1.87552 2.78333,4.78416 2.78364,5.60322 2.2e-4,0.58995 -0.75568,1.43007 -1.2867,1.43007 -0.17557,0 -0.62048,0.19741 -0.9887,0.43867 -0.36822,0.24127 -1.28676,0.5945 -2.04121,0.78496 l -1.37172,0.34628 1.5875,-0.15704 c 4.57971,-0.45304 8.20357,-2.80612 10.12155,-6.57224 0.74861,-1.46996 1.37988,-3.5981 1.38468,-4.66805 0.002,-0.38461 0.18174,-0.76783 0.40002,-0.85159 0.48883,-0.18758 0.51898,0.54241 0.10449,2.53005 -1.24829,5.98593 -6.54921,10.26563 -12.7152,10.26563 -2.31741,0 -4.53993,-0.44214 -4.28621,-0.85268 0.10079,-0.16308 -0.0632,-0.19084 -0.43329,-0.0734 -0.44614,0.1416 -0.54307,0.10426 -0.3866,-0.14891 0.14678,-0.23751 0.0831,-0.28964 -0.21436,-0.1755 -0.23275,0.0893 -0.46064,0.0754 -0.50642,-0.031 -0.0458,-0.10636 -0.67856,-0.53217 -1.40616,-0.94625 -0.72761,-0.41407 -1.65826,-1.0645 -2.06813,-1.4454 l -0.74521,-0.69253 0.79078,2.11666 c 0.43493,1.16417 1.62028,4.31487 2.63411,7.00155 1.28882,3.4154 1.78345,5.04705 1.64429,5.42396 -0.18626,0.50443 -0.42666,0.54013 -3.74099,0.55552 -1.94806,0.009 -4.97068,-0.0505 -6.71693,-0.13229 z m 9.5276,-1.27322 c -0.10247,-0.25466 -1.24596,-3.24117 -2.54108,-6.6367 -1.29513,-3.39552 -2.45216,-6.34768 -2.57117,-6.56036 -0.14958,-0.26727 -1.13645,1.62823 -3.19597,6.13853 -1.63876,3.58886 -3.03912,6.68038 -3.11189,6.87003 -0.19442,0.50664 0.51596,0.57546 6.35258,0.61549 4.90617,0.0337 5.2415,0.005 5.06753,-0.42699 z m 2.96845,-10.01558 c -0.0879,-0.0879 -0.31613,-0.0973 -0.50712,-0.0209 -0.21107,0.0845 -0.14837,0.14715 0.15985,0.15985 0.27891,0.0115 0.43518,-0.051 0.34727,-0.13897 z m 4.17143,-1.49207 0.66719,-0.34958 -1.68059,-1.10491 c -3.24103,-2.13086 -10.36571,-10.27806 -11.15054,-12.750855 -0.42924,-1.352418 -1.20485,0.148535 -1.39785,2.705115 -0.48337,6.40299 5.16364,12.41456 11.24446,11.97035 0.90758,-0.0663 1.95038,-0.27786 2.31733,-0.47012 z m 2.38063,-1.52002 c 0.23069,-0.37327 -0.68856,-2.33099 -2.00423,-4.2684 l -1.12858,-1.66191 -0.61546,1.82454 c -0.33851,1.0035 -0.61547,1.91386 -0.61547,2.02302 0,0.10917 0.67423,0.68129 1.49828,1.27138 1.4541,1.04126 2.53434,1.34713 2.86546,0.81137 z m -4.55052,-4.86098 0.65479,-1.9475 -0.65452,-0.83632 -0.65452,-0.83632 -1.5807,1.36939 -1.58071,1.36938 1.39687,1.41444 c 0.76828,0.77794 1.47947,1.41444 1.58044,1.41444 0.10096,0 0.47822,-0.87638 0.83835,-1.94751 z m -2.63915,-3.23722 1.22025,-1.08369 -0.7404,-0.70934 -0.7404,-0.70935 -1.89634,0.45512 c -1.04299,0.25032 -1.89558,0.58094 -1.89464,0.7347 9.5e-4,0.15377 0.48688,0.84562 1.07986,1.53745 1.19567,1.39498 1.14319,1.39896 2.97167,-0.22489 z m 4.09586,-1.08567 c 0.38733,-1.26205 0.20594,-1.41116 -0.66146,-0.54375 -0.58806,0.58805 -0.64438,0.76353 -0.35647,1.11045 0.50838,0.61255 0.68643,0.51343 1.01793,-0.5667 z m -1.1708,-1.4237 c 0.92461,-0.7273 0.66584,-1.05887 -0.56423,-0.72299 -1.23517,0.33727 -1.27336,0.37576 -0.86312,0.87007 0.43676,0.52627 0.59161,0.51031 1.42735,-0.14708 z m -5.64999,-0.41946 c 1.54575,-0.42976 1.57343,-0.45341 1.12049,-0.957425 -0.75232,-0.837141 -3.59202,-2.780084 -4.33621,-2.966864 -1.26525,-0.317556 -1.15011,0.921869 0.31656,3.407689 0.6462,1.09522 0.75088,1.11387 2.89916,0.5166 z m 8.85247,-0.51751 c 0.5157,-0.515701 0.4383,-1.128265 -0.19276,-1.525677 -0.98874,-0.622663 -2.04557,0.916986 -1.10268,1.606447 0.61387,0.44887 0.7759,0.43877 1.29544,-0.0808 z m 6.48797,-6.536352 c 0,-0.04739 -0.32742,-0.374816 -0.7276,-0.727604 l -0.7276,-0.641433 0.64143,0.727604 c 0.59951,0.680056 0.81377,0.848939 0.81377,0.641433 z m 6.35,9.092812 c 0,-0.13958 0.1318,-1.1399 0.29288,-2.22294 0.58798,-3.953297 -0.8137,-8.10474 -3.7098,-10.987513 -2.54093,-2.529243 -5.50576,-3.733687 -9.19076,-3.733687 -1.878,0 -2.66993,-0.339311 -1.91215,-0.81928 0.57067,-0.36146 3.36892,-0.27147 5.23479,0.168347 4.98147,1.174215 9.31583,5.533978 10.36491,10.425646 0.38932,1.815368 0.21791,6.419017 -0.26048,6.995437 -0.39415,0.47492 -0.81939,0.56522 -0.81939,0.17399 z m -7.94927,-2.855079 c -0.006,-0.10914 -0.0529,-0.767243 -0.10314,-1.462449 -0.15859,-2.193632 -1.74555,-3.847125 -3.98266,-4.149608 -0.7595,-0.102694 -1.08195,-0.283494 -1.15159,-0.645716 -0.0884,-0.459806 0.025,-0.488674 1.31774,-0.335562 1.73603,0.205606 3.30616,1.238673 4.10744,2.70248 0.80806,1.476194 0.94919,4.089294 0.22086,4.089294 -0.21828,0 -0.40217,-0.0893 -0.40865,-0.198439 z m -1.9285,-0.507118 c -0.097,-0.09701 -0.17639,-0.56268 -0.17639,-1.034813 0,-1.046865 -1.24995,-2.228381 -2.35746,-2.228381 -0.90226,0 -1.16822,-0.238921 -0.78285,-0.70326 0.66262,-0.798412 2.8859,0.009 3.69972,1.343542 0.84021,1.377845 0.52569,3.531629 -0.38302,2.622912 z"
         id="path3585" />
    </g>
  </g>
</svg>
