<?xml version="1.0" encoding="UTF-8" standalone="no"?>
<!-- Created with Inkscape (http://www.inkscape.org/) -->

<svg
   width="36.247917mm"
   height="42.068748mm"
   viewBox="0 0 36.247917 42.068748"
   version="1.1"
   id="svg402"
   inkscape:version="1.1 (c68e22c387, 2021-05-23)"
   sodipodi:docname="smaller_viewfield.svg"
   xmlns:inkscape="http://www.inkscape.org/namespaces/inkscape"
   xmlns:sodipodi="http://sodipodi.sourceforge.net/DTD/sodipodi-0.dtd"
   xmlns="http://www.w3.org/2000/svg"
   xmlns:svg="http://www.w3.org/2000/svg">
  <sodipodi:namedview
     id="namedview404"
     pagecolor="#ffffff"
     bordercolor="#666666"
     borderopacity="1.0"
     inkscape:pageshadow="2"
     inkscape:pageopacity="0.0"
     inkscape:pagecheckerboard="0"
     inkscape:document-units="mm"
     showgrid="false"
     inkscape:zoom="0.74118967"
     inkscape:cx="95.791944"
     inkscape:cy="122.101"
     inkscape:window-width="1920"
     inkscape:window-height="1017"
     inkscape:window-x="-8"
     inkscape:window-y="-8"
     inkscape:window-maximized="1"
     inkscape:current-layer="layer1" />
  <defs
     id="defs399" />
  <g
     inkscape:label="Ebene 1"
     inkscape:groupmode="layer"
     id="layer1"
     transform="translate(-79.686134,-116.39952)">
    <g
       id="g508">
      <path
         style="fill:#f4f4f4;stroke-width:0.264583"
         d="m 81.408251,158.22535 c -1.866338,-0.18126 -1.985672,-0.40542 -1.222926,-2.29712 0.913024,-2.26441 6.308323,-13.89831 6.564013,-14.154 0.15082,-0.15082 -0.113537,-0.96853 -0.685878,-2.12156 -3.958289,-7.97435 3.101107,-18.75523 12.281053,-18.75523 0.613426,0 0.895682,-0.14001 0.987109,-0.48962 0.287412,-1.09907 4.296468,-0.8583 7.018818,0.42152 5.51286,2.59168 7.66257,10.14582 5.07397,17.83 -2.8579,8.48351 -12.957851,11.84658 -20.4335,6.8039 -1.527515,-1.03038 -1.527515,-1.03038 -1.168024,-0.16424 2.507965,6.04259 4.430683,11.77152 4.175748,12.44205 -0.282575,0.74324 -7.189091,1.0089 -12.590383,0.4843 z m 28.292449,-32.0665 c -1.11734,-2.16069 -3.85584,-4.1856 -6.20207,-4.58596 -0.84987,-0.14502 -0.82609,-0.11741 0.28904,0.33562 1.76191,0.71579 3.42878,1.93772 4.90158,3.59321 1.51668,1.70479 1.5717,1.74054 1.01145,0.65713 z m 4.23661,8.74149 c -0.0968,-0.15653 -0.0903,-0.9602 0.0144,-1.78594 1.09173,-8.61368 -4.40515,-15.12738 -12.76592,-15.12738 -2.043959,0 -2.614034,-0.35494 -1.917683,-1.19399 0.43475,-0.52385 3.848293,-0.52415 5.816033,-5.2e-4 6.6793,1.7774 11.42397,8.46629 10.70043,15.08513 -0.28356,2.59393 -1.19277,4.08168 -1.84725,3.0227 z"
         id="path554" />
      <path
         style="fill:#ecebea;stroke-width:0.264583"
         d="m 84.448634,158.20007 c -2.546615,-0.0883 -4.672881,-0.18308 -4.725037,-0.21072 -0.28175,-0.1493 6.339697,-15.31404 7.132922,-16.33614 0.122493,-0.15783 -0.02436,-0.67393 -0.338792,-1.19062 -4.557628,-7.48943 1.151133,-17.91887 10.597822,-19.36136 1.441014,-0.22004 2.122498,-0.45329 2.385076,-0.81634 1.046285,-1.44663 6.734755,0.009 9.294145,2.37893 3.53063,3.26874 4.15492,6.36442 2.91015,14.43062 -1.42001,9.20179 -13.331976,13.8607 -20.84014,8.15082 -1.745995,-1.32781 -1.797471,-1.64514 0.859896,5.30093 3.378517,8.83108 4.122106,8.04888 -7.276042,7.65388 z m 25.512586,-31.78794 c -1.23479,-2.39719 -3.45921,-4.17687 -6.05515,-4.84453 -2.31191,-0.59461 -2.64078,-0.47043 -0.68088,0.2571 2.25124,0.83567 4.36126,2.34468 5.82819,4.16811 1.3126,1.63159 1.60087,1.76474 0.90784,0.41932 z m 4.13958,8.51986 c -0.26348,-0.16284 -0.26206,-0.60871 0.007,-2.21022 1.29755,-7.72209 -4.64055,-14.73475 -12.4769,-14.73475 -2.131802,0 -2.826732,-0.31442 -2.358718,-1.06721 0.393987,-0.63371 4.473498,-0.48365 6.658058,0.24492 5.88328,1.96211 9.7392,7.29144 9.7392,13.46072 0,3.17843 -0.62366,4.89059 -1.56867,4.30654 z"
         id="path552" />
      <path
         style="fill:#d3d3d3;stroke-width:0.264583"
         d="m 80.026111,157.90866 c -0.400193,-0.40019 -0.210596,-0.8822 3.694611,-9.39267 3.29201,-7.17415 3.29201,-7.17415 2.810112,-8.06979 -4.3733,-8.12807 2.179656,-19.28418 11.327281,-19.28418 1.059421,0 1.407186,-0.0958 1.407186,-0.38757 0,-1.73517 5.992239,-0.86295 8.803749,1.28147 3.82923,2.92064 5.19083,9.10596 3.46397,15.73579 -2.41599,9.27564 -13.798201,13.00332 -21.248613,6.95894 -0.646627,-0.5246 -1.111186,-0.77813 -1.032353,-0.56341 0.07883,0.21472 1.188128,3.1515 2.465102,6.52618 3.124833,8.25805 3.607329,7.49026 -4.707104,7.49026 -4.566604,0 -6.782525,-0.0936 -6.983941,-0.29502 z m 12.800285,-0.96175 c -0.0939,-0.15509 -3.167425,-8.17746 -4.930365,-12.86898 -0.37804,-1.00604 -0.14459,-1.40285 -3.584032,6.09212 l -3.01884,6.57843 2.702217,0.14664 c 4.392481,0.23838 8.960196,0.26517 8.83102,0.0518 z m 6.94501,-11.75052 c 0.724084,-0.27395 0.795304,-0.19058 -1.734863,-2.03072 -3.425303,-2.49114 -7.979122,-7.74711 -9.991788,-11.53241 -0.793796,-1.49293 -1.427947,-0.74475 -1.674632,1.97574 -0.644453,7.10714 7.235272,13.92032 13.401283,11.58739 z m 2.502964,-1.49035 c 0.25773,-0.41703 -2.53468,-5.60058 -3.021269,-5.60837 -0.510486,-0.008 -1.247434,3.46276 -0.824973,3.88552 1.281679,1.28259 3.503312,2.27772 3.846242,1.72285 z m -4.64911,-7.63558 c -0.692371,-0.69237 -0.692371,-0.69237 -2.039577,0.46782 -1.649987,1.42095 -1.650511,1.33271 0.01769,2.98393 l 1.365157,1.35127 0.674549,-2.05532 c 0.674549,-2.05533 0.674549,-2.05533 -0.01782,-2.7477 z m -1.635436,-1.46617 c 0.555541,-0.89888 -1.053339,-1.52408 -2.80994,-1.09192 -2.289668,0.56331 -2.298405,0.58144 -1.041194,2.16043 l 1.091744,1.37117 1.296838,-1.08577 c 0.71326,-0.59718 1.371409,-1.20644 1.462552,-1.35391 z m -3.988795,-1.96506 c 1.999007,-0.50214 2.002191,-0.50952 0.68929,-1.59917 -2.712107,-2.25092 -4.272935,-2.89954 -4.272935,-1.77567 0,0.57547 1.521438,3.80388 1.792634,3.80388 0.04564,0 0.851599,-0.19307 1.791011,-0.42904 z m 9.329101,-1.19081 c 0.0848,-0.73083 -0.43011,-1.12903 -1.11833,-0.86493 -0.989634,0.37976 -0.571878,1.78873 0.48556,1.63765 0.37308,-0.0533 0.57843,-0.30407 0.63277,-0.77272 z m 8.7716,-4.82778 c -1.34239,-2.8558 -4.37277,-5.04656 -7.39918,-5.34909 l -1.45287,-0.14524 1.74798,0.64049 c 2.87219,1.05242 5.8207,3.41982 7.0102,5.62858 0.7025,1.30447 0.77806,0.68082 0.0939,-0.77474 z m 3.8592,8.05333 c -0.0937,-0.15162 -0.046,-0.72376 0.10614,-1.27142 2.12525,-7.6528 -5.48792,-16.5694 -13.28499,-15.55947 -1.014524,0.13141 -1.29321,0.0803 -1.424194,-0.261 -0.276815,-0.72137 0.335661,-0.9958 2.222474,-0.9958 7.77449,0 14.16247,6.39814 14.06781,14.09018 -0.0367,2.98017 -0.96162,5.1716 -1.68724,3.99751 z"
         id="path550" />
      <path
         style="fill:#c5b5b5;stroke-width:0.264583"
         d="m 80.281447,158.02846 c -0.181902,-0.0734 -0.33073,-0.36669 -0.33073,-0.65175 0,-0.4492 6.240976,-14.45696 6.939335,-15.57521 0.186826,-0.29916 0.0322,-0.85421 -0.565763,-2.03093 -4.04049,-7.95117 2.729906,-18.60855 11.82159,-18.60855 0.778379,0 1.356533,-0.095 1.284786,-0.21107 -0.593183,-0.95979 2.067105,-1.38312 4.611155,-0.73377 6.59445,1.6832 9.44906,7.9154 7.65868,16.72054 -2.00556,9.86344 -14.080571,14.09674 -21.672757,7.59811 -1.027229,-0.87927 -1.027229,-0.87927 1.221661,5.00523 1.23689,3.23647 2.368222,6.21402 2.514071,6.61677 0.732543,2.02286 0.650059,2.04814 -6.607903,2.02497 -3.598868,-0.0115 -6.692224,-0.0809 -6.874125,-0.15434 z m 10.247447,-7.03467 c -1.283548,-3.38336 -2.465651,-6.4955 -2.626895,-6.91586 -0.384982,-1.00365 -0.143086,-1.41352 -3.594634,6.09063 l -3.026445,6.57992 2.708336,0.14664 c 1.489585,0.0807 4.095467,0.16995 5.79085,0.19844 l 3.082513,0.0518 z m 9.236122,-5.79497 c 0.347604,-0.13151 0.585734,-0.28285 0.529164,-0.33631 -0.0566,-0.0535 -1.056917,-0.80264 -2.223013,-1.66485 -3.371554,-2.4929 -8.489252,-8.4166 -10.121376,-11.71542 l -0.550168,-1.11198 -0.446141,0.86274 c -3.470451,6.71111 5.664972,16.66961 12.811534,13.96582 z m 2.509354,-1.49278 c 0.25773,-0.41703 -2.53468,-5.60058 -3.021269,-5.60837 -0.510486,-0.008 -1.247434,3.46276 -0.824973,3.88552 1.281679,1.28259 3.503312,2.27772 3.846242,1.72285 z m -4.462793,-5.29396 c 0.782751,-2.67682 -0.267145,-3.56064 -2.225894,-1.8738 -1.648117,1.41934 -1.648045,1.33209 -0.0024,2.97769 1.516004,1.516 1.453123,1.54715 2.228338,-1.10389 z m -1.821753,-3.80779 c 0.555541,-0.89888 -1.053339,-1.52408 -2.80994,-1.09192 -2.289668,0.56331 -2.298405,0.58144 -1.041194,2.16043 l 1.091744,1.37117 1.296838,-1.08577 c 0.71326,-0.59718 1.371409,-1.20644 1.462552,-1.35391 z m -3.988795,-1.96506 c 1.999007,-0.50214 2.002191,-0.50952 0.68929,-1.59917 -2.712107,-2.25092 -4.272935,-2.89954 -4.272935,-1.77567 0,0.57547 1.521438,3.80388 1.792634,3.80388 0.04564,0 0.851599,-0.19307 1.791011,-0.42904 z m 9.329101,-1.19081 c 0.0848,-0.73083 -0.43011,-1.12903 -1.11833,-0.86493 -0.989634,0.37976 -0.571878,1.78873 0.48556,1.63765 0.37308,-0.0533 0.57843,-0.30407 0.63277,-0.77272 z m 9.04275,-4.28569 c -1.16084,-3.10262 -4.50893,-5.62431 -7.82222,-5.89147 l -1.56557,-0.12624 1.45521,0.49321 c 3.27932,1.11144 5.94415,3.17146 7.54063,5.82919 0.9948,1.65611 1.09611,1.57735 0.39195,-0.30469 z m 3.6177,7.55923 c -0.0774,-0.12523 -0.0318,-0.69737 0.10131,-1.27142 1.81588,-7.83069 -4.04737,-15.28442 -12.27468,-15.60436 -2.524981,-0.0982 -2.698875,-0.15288 -2.460608,-0.77379 0.12406,-0.32329 0.620768,-0.40829 2.386068,-0.40829 7.48032,0 13.402,5.66403 13.83095,13.22917 0.18476,3.25857 -0.76429,6.15344 -1.58304,4.82869 z"
         id="path548" />
      <path
         style="fill:#afaeae;stroke-width:0.264583"
         d="m 80.281447,158.02846 c -0.684321,-0.27613 0.868786,-4.15027 5.992743,-14.94855 l 0.836245,-1.76231 -0.796485,-1.56738 c -3.91394,-7.70213 2.310214,-17.90851 11.297705,-18.526 1.625016,-0.11164 1.918229,-0.20488 1.918229,-0.60995 0,-1.99576 6.922546,-0.22782 9.602816,2.45245 4.81625,4.81625 3.96861,16.03983 -1.59543,21.12505 -4.8363,4.42011 -12.045332,4.62136 -17.281457,0.48244 l -1.305091,-1.03162 0.549611,1.39357 c 3.085527,7.82352 4.481461,11.85227 4.324044,12.47946 -0.162899,0.64905 -12.086406,1.10056 -13.54293,0.51284 z m 10.247447,-7.03467 c -1.283548,-3.38336 -2.470692,-6.50875 -2.638097,-6.94531 -0.380742,-0.99291 -0.104125,-1.47037 -3.755503,6.48229 l -2.854793,6.21771 2.708545,0.14664 c 1.489701,0.0807 4.095677,0.16995 5.79106,0.19844 l 3.082513,0.0518 z m 9.236122,-5.79497 c 0.347604,-0.13151 0.585734,-0.28285 0.529164,-0.33631 -0.0566,-0.0535 -1.058838,-0.80407 -2.227283,-1.66801 -3.290574,-2.43305 -8.282322,-8.17143 -9.988298,-11.4823 -0.819382,-1.59021 -1.456417,-0.88295 -1.708476,1.8968 -0.646744,7.1324 7.209515,13.92996 13.394893,11.58982 z m 2.509354,-1.49278 c 0.2598,-0.42037 -2.536134,-5.60081 -3.026896,-5.60837 -0.08257,-0.001 -0.365772,0.68229 -0.629349,1.51904 -0.263576,0.83674 -0.530575,1.65557 -0.593331,1.81961 -0.268215,0.70109 3.857236,2.90452 4.249576,2.26972 z m -4.462793,-5.29396 c 0.782751,-2.67682 -0.267145,-3.56064 -2.225894,-1.8738 -1.659076,1.42878 -1.658998,1.45784 0.0081,3.01719 1.524672,1.42615 1.456104,1.4615 2.217823,-1.14339 z m -1.821753,-3.80779 c 0.555541,-0.89888 -1.053339,-1.52408 -2.80994,-1.09192 -2.289668,0.56331 -2.298405,0.58144 -1.041194,2.16043 l 1.091744,1.37117 1.296838,-1.08577 c 0.71326,-0.59718 1.371409,-1.20644 1.462552,-1.35391 z m -3.988795,-1.96506 c 1.999007,-0.50214 2.002191,-0.50952 0.68929,-1.59917 -2.712107,-2.25092 -4.272935,-2.89954 -4.272935,-1.77567 0,0.57547 1.521438,3.80388 1.792634,3.80388 0.04564,0 0.851599,-0.19307 1.791011,-0.42904 z m 9.329101,-1.19081 c 0.0848,-0.73083 -0.43011,-1.12903 -1.11833,-0.86493 -0.989634,0.37976 -0.571878,1.78873 0.48556,1.63765 0.37308,-0.0533 0.57843,-0.30407 0.63277,-0.77272 z m 9.04815,-4.27126 c -1.28418,-3.43227 -5.03676,-6.05506 -8.58131,-5.99773 -1.07646,0.0174 -1.07646,0.0174 0.35106,0.4013 3.009,0.80916 6.26139,3.25068 7.8329,5.88003 0.99243,1.66048 1.09684,1.58596 0.39735,-0.2836 z m 3.60325,7.53015 c -0.0724,-0.11717 -0.0228,-0.68272 0.11036,-1.25677 1.88082,-8.11074 -4.84119,-16.07709 -13.24237,-15.69375 -1.439361,0.0657 -1.729678,-0.0674 -1.492918,-0.6844 0.218018,-0.56814 4.074418,-0.55674 6.012238,0.0178 6.25838,1.85547 10.1731,7.10554 10.13849,13.59686 -0.0179,3.36457 -0.74579,5.28237 -1.5258,4.02029 z"
         id="path546" />
      <path
         style="fill:#908e8e;stroke-width:0.264583"
         d="m 80.649323,158.01138 c -0.678567,-0.10137 -0.740702,-0.19253 -0.602433,-0.88387 0.185645,-0.92823 6.452945,-14.78401 6.911028,-15.27894 0.255904,-0.27649 0.139305,-0.69174 -0.568532,-2.02476 -4.135879,-7.78882 2.781822,-18.66179 11.87317,-18.66179 1.07152,0 1.267328,-0.0782 1.267328,-0.50591 0,-0.704 1.587796,-0.93618 3.737156,-0.54649 7.17012,1.30001 10.28756,7.58661 8.3438,16.82607 -2.07549,9.86564 -13.068562,13.86323 -21.27454,7.73641 l -1.388376,-1.0366 0.492659,1.26482 c 3.526432,9.05355 4.543389,11.97943 4.384193,12.61371 -0.165609,0.65985 -9.682695,1.0191 -13.175453,0.49735 z m 11.865256,-1.85822 c -0.21804,-0.5457 -1.392364,-3.61156 -2.609608,-6.81302 -1.217244,-3.20145 -2.292349,-5.82083 -2.389123,-5.82083 -0.09677,0 -1.538235,2.97656 -3.203247,6.61458 l -3.027296,6.61459 2.441561,0.14779 c 1.342858,0.0813 3.958642,0.17058 5.812855,0.19843 l 3.371295,0.0507 z m 7.252696,-10.94423 c 0.809625,-0.28223 0.809625,-0.28223 -0.83836,-1.36163 -3.205125,-2.0993 -9.042662,-8.6269 -10.847709,-12.13004 -0.82207,-1.59543 -1.458701,-0.89158 -1.711083,1.89174 -0.650083,7.16922 7.030419,13.81939 13.397152,11.59993 z m 2.507095,-1.50289 c 0.2598,-0.42037 -2.536134,-5.60081 -3.026896,-5.60837 -0.08257,-0.001 -0.365772,0.68229 -0.629349,1.51904 -0.263576,0.83674 -0.530575,1.65557 -0.593331,1.81961 -0.268215,0.70109 3.857236,2.90452 4.249576,2.26972 z m -4.452346,-5.29969 c 0.748305,-2.68857 -0.283121,-3.55015 -2.236341,-1.86807 -1.659076,1.42878 -1.658998,1.45784 0.0081,3.01719 1.536478,1.43719 1.503728,1.45408 2.228271,-1.14912 z m -2.144651,-3.46689 c 1.048479,-1.16136 -0.343828,-1.95694 -2.497489,-1.42709 -2.289575,0.56329 -2.298359,0.5815 -1.04181,2.15965 l 1.091128,1.3704 0.967529,-0.7673 c 0.53214,-0.42201 1.198429,-1.02306 1.480642,-1.33566 z m -3.356313,-2.35273 1.654718,-0.46294 -1.155302,-0.96572 c -4.024849,-3.36435 -5.511325,-3.21552 -3.54827,0.35528 0.962278,1.75038 0.814725,1.69843 3.048854,1.07338 z m 9.00907,-1.13831 c 0.0848,-0.73083 -0.43011,-1.12903 -1.11833,-0.86493 -0.989634,0.37976 -0.571878,1.78873 0.48556,1.63765 0.37308,-0.0533 0.57843,-0.30407 0.63277,-0.77272 z m 9.43328,-3.2088 c -0.78545,-3.63898 -4.51583,-6.76963 -8.31479,-6.97804 -1.72811,-0.0948 -1.72811,-0.0948 -0.45581,0.27624 3.40955,0.99433 7.07424,3.86187 8.22674,6.43724 0.60121,1.34348 0.79733,1.43888 0.54386,0.26456 z m 3.2118,6.45746 c -0.0759,-0.12279 -0.009,-0.68834 0.14815,-1.25677 2.12415,-7.67231 -4.60379,-15.71787 -13.14375,-15.71787 -2.739922,0 -2.410734,-0.89246 0.37048,-1.00442 6.84625,-0.27559 12.89645,4.7203 14.0583,11.60851 0.60894,3.61025 -0.39129,8.05636 -1.43318,6.37055 z"
         id="path544" />
      <path
         style="fill:#887474;stroke-width:0.264583"
         d="m 80.913378,158.00918 c -0.951097,-0.0982 -1.011847,-0.15487 -0.87896,-0.81931 0.161143,-0.80572 6.61177,-15.0479 6.984268,-15.4204 0.144468,-0.14447 -0.122398,-0.97202 -0.667735,-2.07066 -3.946874,-7.95134 2.915063,-18.50109 12.054454,-18.53288 0.92111,-0.003 1.124479,-0.0935 1.124479,-0.49926 0,-1.15447 4.128626,-0.88225 6.862926,0.45249 4.86051,2.37266 6.57265,7.21776 5.34449,15.12411 -1.62312,10.44901 -13.573422,14.82393 -21.939828,8.03203 -0.868871,-0.70536 -0.868871,-0.70536 -0.574789,0.0631 3.842309,10.0399 4.740567,12.62393 4.592876,13.21238 -0.159514,0.63555 -8.365209,0.92711 -12.902181,0.45842 z m 11.50395,-2.1206 c -0.269637,-0.69122 -1.476794,-3.84795 -2.68257,-7.01496 -1.205776,-3.167 -2.218882,-5.72684 -2.251348,-5.68854 -0.05764,0.068 -5.860681,12.7207 -6.124631,13.35387 -0.145263,0.34846 1.393971,0.45592 7.91464,0.55255 l 3.63416,0.0539 z m 7.343441,-10.67738 c 0.859171,-0.29951 0.859171,-0.29951 -0.810334,-1.369 -3.134285,-2.00782 -9.065387,-8.62414 -10.869229,-12.12494 -0.82044,-1.59226 -1.458617,-0.8925 -1.70952,1.8745 -0.657398,7.2499 6.960106,13.8606 13.389083,11.61944 z m 2.513601,-1.50516 c 0.2598,-0.42037 -2.536134,-5.60081 -3.026896,-5.60837 -0.08257,-0.001 -0.365772,0.68229 -0.629349,1.51904 -0.263576,0.83674 -0.530575,1.65557 -0.593331,1.81961 -0.268215,0.70109 3.857236,2.90452 4.249576,2.26972 z m -4.286737,-5.70319 c 0.270012,-1.00954 0.246023,-1.23053 -0.199942,-1.84194 -0.6644,-0.91088 -0.717417,-0.90111 -2.243468,0.41309 -1.61544,1.39118 -1.614687,1.42479 0.06716,2.99796 1.530228,1.43135 1.58309,1.39644 2.376253,-1.56911 z m -2.31026,-3.06339 c 1.048479,-1.16136 -0.343828,-1.95694 -2.497489,-1.42709 -2.289575,0.56329 -2.298359,0.5815 -1.04181,2.15965 l 1.091128,1.3704 0.967529,-0.7673 c 0.53214,-0.42201 1.198429,-1.02306 1.480642,-1.33566 z m -3.331206,-2.34807 1.679825,-0.47481 -1.152637,-0.9445 c -4.114577,-3.37158 -5.532043,-3.23951 -3.625358,0.3378 0.938153,1.76015 0.83035,1.72252 3.09817,1.08151 z m 9.025963,-0.82766 c 0.27178,-0.50783 -0.21533,-1.34129 -0.78391,-1.34129 -0.21754,0 -1.058336,0.73351 -1.058336,0.9233 0,0.9591 1.384536,1.27324 1.842246,0.41799 z m 8.85856,-5.03104 c -1.42295,-3.17073 -4.50655,-5.30531 -7.91842,-5.4814 l -1.85634,-0.0958 1.38257,0.39306 c 3.46377,0.98474 6.42465,3.16589 8.01233,5.90231 1.12155,1.93305 1.36397,1.47473 0.37986,-0.71816 z m 4.03043,4.96294 c 0.37583,-8.25889 -5.07607,-13.97319 -13.33154,-13.97319 -1.48035,0 -1.691147,-0.0606 -1.61184,-0.46302 0.131116,-0.66538 4.77622,-0.64819 6.74388,0.0249 6.34851,2.17187 10.53408,9.14139 9.32206,15.52244 -0.27689,1.45775 -0.49335,1.99997 -0.82323,2.06209 -0.4071,0.0767 -0.43416,-0.21026 -0.29933,-3.17327 z"
         id="path542" />
      <path
         style="fill:#c94b4a;stroke-width:0.264583"
         d="m 81.075197,158.00995 c -0.829593,-0.0747 -1.12448,-0.21621 -1.12448,-0.53955 0,-0.46608 6.431846,-14.79067 6.97409,-15.53223 0.263262,-0.36003 0.153777,-0.77371 -0.614922,-2.3234 -3.87729,-7.81662 3.072885,-18.41746 12.09552,-18.44884 0.92111,-0.003 1.124479,-0.0935 1.124479,-0.49926 0,-1.68505 6.021146,-0.50386 8.879016,1.74182 5.48536,4.31033 4.88596,16.8193 -1.05156,21.94535 -4.98401,4.30285 -12.202557,4.27056 -17.559868,-0.0785 -0.868871,-0.70536 -0.868871,-0.70536 -0.574789,0.0631 4.260161,11.13174 4.78114,12.66255 4.511123,13.25518 -0.273338,0.59991 -7.852931,0.84923 -12.658609,0.41639 z m 11.342131,-2.12137 c -0.269637,-0.69122 -1.476794,-3.84795 -2.68257,-7.01496 -1.205776,-3.167 -2.218882,-5.72684 -2.251348,-5.68854 -0.05764,0.068 -5.860681,12.7207 -6.124631,13.35387 -0.145263,0.34846 1.393971,0.45592 7.91464,0.55255 l 3.63416,0.0539 z m 7.343441,-10.67738 c 0.859171,-0.29951 0.859171,-0.29951 -0.810334,-1.37714 -3.232467,-2.08649 -9.096171,-8.63869 -10.751569,-12.01398 -0.850074,-1.73327 -0.983518,-1.73566 -1.491023,-0.0267 -2.253584,7.58864 5.857279,15.92625 13.052926,13.41783 z m 2.462921,-1.95647 c -0.15805,-0.99191 -2.550134,-5.13319 -2.976216,-5.15256 -0.08257,-0.004 -0.365772,0.67779 -0.629349,1.51454 -0.263576,0.83674 -0.530575,1.65557 -0.593331,1.81961 -0.06276,0.16404 0.629112,0.79455 1.537484,1.40114 1.758592,1.17434 2.808272,1.33891 2.661412,0.41727 z m -4.236057,-5.25188 c 0.270012,-1.00954 0.246023,-1.23053 -0.199942,-1.84194 -0.662957,-0.9089 -0.718072,-0.89936 -2.245235,0.38836 -1.617867,1.36421 -1.615987,1.44665 0.06892,3.02269 1.530228,1.43135 1.58309,1.39644 2.376253,-1.56911 z m -2.31026,-3.06339 c 1.048479,-1.16136 -0.343828,-1.95694 -2.497489,-1.42709 -2.293569,0.56427 -2.306586,0.59103 -1.056614,2.17236 l 1.085797,1.37364 0.977596,-0.77527 c 0.537678,-0.42641 1.208497,-1.03104 1.49071,-1.34364 z m -2.762362,-2.4757 1.15239,-0.33365 -1.700529,-1.34687 c -3.848636,-3.04825 -4.98524,-2.77502 -3.107958,0.74712 0.934074,1.7525 0.877164,1.73798 3.656097,0.9334 z m 8.439129,-0.55258 c 0.69505,-0.83749 -0.70873,-1.92392 -1.484077,-1.14857 -0.562688,0.56269 -0.204012,1.51191 0.571297,1.51191 0.33618,0 0.74693,-0.1635 0.91278,-0.36334 z m 8.87655,-5.17849 c -1.42295,-3.17073 -4.50655,-5.30531 -7.91842,-5.4814 l -1.85634,-0.0958 1.42548,0.40404 c 3.36053,0.95252 6.81547,3.5941 8.23181,6.29388 0.90861,1.73197 1.00121,0.84854 0.11747,-1.12071 z m 4.03043,4.96294 c 0.37583,-8.25889 -5.07607,-13.97319 -13.33154,-13.97319 -1.480109,0 -1.691217,-0.0606 -1.612472,-0.46302 0.134528,-0.68746 4.511082,-0.65723 6.658172,0.046 6.44594,2.11119 10.73627,9.3113 9.39092,15.76002 -0.68171,3.26773 -1.28224,2.52334 -1.10508,-1.36981 z"
         id="path540" />
      <path
         style="fill:#c44a49;stroke-width:0.264583"
         d="m 81.075197,158.00995 c -0.829593,-0.0747 -1.12448,-0.21621 -1.12448,-0.53955 0,-0.46608 6.431846,-14.79067 6.97409,-15.53223 0.263262,-0.36003 0.153777,-0.77371 -0.614922,-2.3234 -3.87729,-7.81662 3.072885,-18.41746 12.09552,-18.44884 0.92111,-0.003 1.124479,-0.0935 1.124479,-0.49926 0,-1.68505 6.021146,-0.50386 8.879016,1.74182 5.48536,4.31033 4.88596,16.8193 -1.05156,21.94535 -4.98401,4.30285 -12.202557,4.27056 -17.559868,-0.0785 -0.868871,-0.70536 -0.868871,-0.70536 -0.574789,0.0631 4.260161,11.13174 4.78114,12.66255 4.511123,13.25518 -0.273338,0.59991 -7.852931,0.84923 -12.658609,0.41639 z m 11.342131,-2.12137 c -0.269637,-0.69122 -1.476794,-3.84795 -2.68257,-7.01496 -1.205776,-3.167 -2.218882,-5.72684 -2.251348,-5.68854 -0.05764,0.068 -5.860681,12.7207 -6.124631,13.35387 -0.145263,0.34846 1.393971,0.45592 7.91464,0.55255 l 3.63416,0.0539 z m 11.478182,-10.63579 c 4.44657,-2.05466 6.83516,-6.09324 6.63959,-11.22613 -0.12103,-3.17665 -0.89967,-5.92838 -0.93241,-3.29513 -0.0238,1.91356 -0.196,2.33674 -0.95094,2.33674 -0.75821,0 -0.89143,-0.33923 -0.72731,-1.85208 0.38201,-3.52127 -2.49287,-6.87917 -5.88961,-6.87917 -1.84849,0 -3.082353,-1.01642 -1.8213,-1.50033 0.67929,-0.26067 -0.11296,-0.6076 -1.398227,-0.61229 -2.983896,-0.0109 -6.398436,1.37175 -8.50243,3.44281 l -1.365638,1.34427 1.506288,0.79235 c 0.828458,0.4358 2.266576,1.44139 3.195819,2.23465 0.929242,0.79326 1.769305,1.441 1.866807,1.43943 0.824608,-0.0133 2.750576,-0.89135 3.416997,-1.55777 2.196564,-2.19657 5.429554,0.87772 3.345164,3.18094 -0.24705,0.273 -0.59475,0.49636 -0.77266,0.49636 -1.39503,0 -1.729003,2.80149 -0.52177,4.37683 2.8147,3.67299 3.51755,7.48371 1.39028,7.53783 -0.18191,0.005 -0.56886,0.19554 -0.8599,0.42424 -0.75013,0.58946 0.24362,0.3042 2.38125,-0.68355 z m 1.86709,-13.56631 c -0.22654,-0.32342 -0.41188,-0.45522 -0.41188,-0.29289 0,0.44909 -0.81386,0.66445 -1.22416,0.32393 -0.19984,-0.16585 -0.36334,-0.6931 -0.36334,-1.17167 0,-1.00199 -1.22497,-2.24008 -2.21634,-2.24008 -1.51855,0 -1.34868,-1.56606 0.17513,-1.61458 0.85058,-0.0271 0.85058,-0.0271 -0.0338,-0.23618 -1.84821,-0.43697 -1.661,-1.58882 0.25823,-1.58882 2.87221,0 5.47126,2.75223 5.50936,5.83406 0.0189,1.52852 -0.9273,2.07966 -1.69317,0.98623 z m -0.68209,-3.25752 c -0.53712,-0.86908 -2.00216,-1.90777 -2.28786,-1.62207 -0.0702,0.0702 0.11212,0.20375 0.40517,0.29675 0.75112,0.2384 2.14695,1.90067 2.18359,2.6004 0.0237,0.45191 0.0585,0.47948 0.15221,0.1204 0.0668,-0.25614 -0.13707,-0.88411 -0.45311,-1.39548 z m -5.319741,16.78224 c 0.859171,-0.29951 0.859171,-0.29951 -0.810334,-1.37714 -3.232467,-2.08649 -9.096171,-8.63869 -10.751569,-12.01398 -0.850074,-1.73327 -0.983518,-1.73566 -1.491023,-0.0267 -2.253584,7.58864 5.857279,15.92625 13.052926,13.41783 z m 2.462921,-1.95647 c -0.15805,-0.99191 -2.550134,-5.13319 -2.976216,-5.15256 -0.08257,-0.004 -0.365772,0.67779 -0.629349,1.51454 -0.263576,0.83674 -0.530575,1.65557 -0.593331,1.81961 -0.06276,0.16404 0.629112,0.79455 1.537484,1.40114 1.758592,1.17434 2.808272,1.33891 2.661412,0.41727 z m -4.236057,-5.25188 c 0.270012,-1.00954 0.246023,-1.23053 -0.199942,-1.84194 -0.662957,-0.9089 -0.718072,-0.89936 -2.245235,0.38836 -1.617867,1.36421 -1.615987,1.44665 0.06892,3.02269 1.530228,1.43135 1.58309,1.39644 2.376253,-1.56911 z m -2.31026,-3.06339 c 1.048479,-1.16136 -0.343828,-1.95694 -2.497489,-1.42709 -2.293569,0.56427 -2.306586,0.59103 -1.056614,2.17236 l 1.085797,1.37364 0.977596,-0.77527 c 0.537678,-0.42641 1.208497,-1.03104 1.49071,-1.34364 z m 3.159715,-0.42972 c 0.09035,-0.23546 0.046,-0.34167 -0.103984,-0.24897 -0.143854,0.0889 -0.261553,0.27368 -0.261553,0.41061 0,0.38059 0.189644,0.29672 0.365537,-0.16164 z m -1.176563,-1.55295 c 0.256091,-0.30857 0.214422,-0.35051 -0.232186,-0.23372 -0.299359,0.0783 -0.544288,0.24751 -0.544288,0.37606 0,0.35687 0.427151,0.27857 0.776474,-0.14234 z m -4.745514,-0.49303 1.15239,-0.33365 -1.700529,-1.34687 c -3.848636,-3.04825 -4.98524,-2.77502 -3.107958,0.74712 0.934074,1.7525 0.877164,1.73798 3.656097,0.9334 z m 8.439129,-0.55258 c 0.69505,-0.83749 -0.70873,-1.92392 -1.484077,-1.14857 -0.562688,0.56269 -0.204012,1.51191 0.571297,1.51191 0.33618,0 0.74693,-0.1635 0.91278,-0.36334 z m 8.87655,-5.17849 c -1.42295,-3.17073 -4.50655,-5.30531 -7.91842,-5.4814 l -1.85634,-0.0958 1.42548,0.40404 c 3.36053,0.95252 6.81547,3.5941 8.23181,6.29388 0.90861,1.73197 1.00121,0.84854 0.11747,-1.12071 z m 4.03043,4.96294 c 0.37583,-8.25889 -5.07607,-13.97319 -13.33154,-13.97319 -1.480109,0 -1.691217,-0.0606 -1.612472,-0.46302 0.134528,-0.68746 4.511082,-0.65723 6.658172,0.046 6.44594,2.11119 10.73627,9.3113 9.39092,15.76002 -0.68171,3.26773 -1.28224,2.52334 -1.10508,-1.36981 z"
         id="path538" />
      <path
         style="fill:#b74d4c;stroke-width:0.264583"
         d="m 81.075197,158.00995 c -0.829593,-0.0747 -1.12448,-0.21621 -1.12448,-0.53955 0,-0.46608 6.431846,-14.79067 6.97409,-15.53223 0.263262,-0.36003 0.153777,-0.77371 -0.614922,-2.3234 -3.87729,-7.81662 3.072885,-18.41746 12.09552,-18.44884 0.92111,-0.003 1.124479,-0.0935 1.124479,-0.49926 0,-1.68505 6.021146,-0.50386 8.879016,1.74182 5.48536,4.31033 4.88596,16.8193 -1.05156,21.94535 -4.98401,4.30285 -12.202557,4.27056 -17.559868,-0.0785 -0.868871,-0.70536 -0.868871,-0.70536 -0.574789,0.0631 4.260161,11.13174 4.78114,12.66255 4.511123,13.25518 -0.273338,0.59991 -7.852931,0.84923 -12.658609,0.41639 z m 11.342131,-2.12137 c -0.269637,-0.69122 -1.476794,-3.84795 -2.68257,-7.01496 -1.205776,-3.167 -2.218882,-5.72684 -2.251348,-5.68854 -0.05764,0.068 -5.860681,12.7207 -6.124631,13.35387 -0.145263,0.34846 1.393971,0.45592 7.91464,0.55255 l 3.63416,0.0539 z m 11.478182,-10.61887 c 5.42892,-2.56643 8.06022,-8.86696 6.17306,-14.78113 -0.62161,-1.94807 -0.7283,-2.04916 -0.55845,-0.52916 0.17813,1.59413 -0.22543,2.97656 -0.86893,2.97656 -0.45546,0 -0.51558,-0.20679 -0.54145,-1.86247 -0.0652,-4.1752 -2.78435,-7.00107 -6.7366,-7.00107 -1.828917,0 -2.023309,-1.09118 -0.24576,-1.37951 0.37392,-0.0607 -0.12004,-0.20064 -1.136325,-0.32203 -3.10057,-0.37034 -6.235793,0.52832 -8.832789,2.53179 -2.255883,1.74031 -2.424336,2.18977 -1.066966,2.84686 0.61629,0.29834 2.065403,1.30022 3.22025,2.22639 2.214802,1.77624 4.81565,1.97977 5.312065,0.41571 0.621897,-1.95943 4.091265,-1.09873 4.091265,1.01497 0,0.92931 -0.95553,2.19082 -1.65944,2.19082 -1.372251,0 -1.267893,2.85127 0.18373,5.02001 2.82127,4.21502 2.97652,5.79977 0.68196,6.96163 -2.046925,1.03647 -0.27976,0.76096 1.98438,-0.30937 z m 2.16076,-13.17158 c -0.097,-0.097 -0.17639,-0.62504 -0.17639,-1.1734 0,-2.35008 -1.40917,-4.04064 -3.75235,-4.50163 -1.21249,-0.23855 -1.53931,-0.40682 -1.53931,-0.79255 0,-1.70905 4.26675,-0.31446 5.7099,1.8663 1.30006,1.96452 1.09139,5.93452 -0.24185,4.60128 z m -1.84293,-0.52002 c -0.10205,-0.10204 -0.18554,-0.53204 -0.18554,-0.95554 0,-0.90361 -1.2655,-2.3168 -2.07467,-2.3168 -1.31222,0 -1.965684,-1.10409 -0.82934,-1.40125 2.08,-0.54394 4.60812,2.00463 4.18223,4.21606 -0.0969,0.5031 -0.76666,0.78355 -1.09268,0.45753 z m -4.452571,13.63309 c 0.859171,-0.29951 0.859171,-0.29951 -0.810334,-1.37714 -3.232467,-2.08649 -9.096171,-8.63869 -10.751569,-12.01398 -0.850074,-1.73327 -0.983518,-1.73566 -1.491023,-0.0267 -2.253584,7.58864 5.857279,15.92625 13.052926,13.41783 z m 2.462921,-1.95647 c -0.15805,-0.99191 -2.550134,-5.13319 -2.976216,-5.15256 -0.08257,-0.004 -0.365772,0.67779 -0.629349,1.51454 -0.263576,0.83674 -0.530575,1.65557 -0.593331,1.81961 -0.06276,0.16404 0.629112,0.79455 1.537484,1.40114 1.758592,1.17434 2.808272,1.33891 2.661412,0.41727 z m -4.236057,-5.25188 c 0.270012,-1.00954 0.246023,-1.23053 -0.199942,-1.84194 -0.662957,-0.9089 -0.718072,-0.89936 -2.245235,0.38836 -1.617867,1.36421 -1.615987,1.44665 0.06892,3.02269 1.530228,1.43135 1.58309,1.39644 2.376253,-1.56911 z m -2.31026,-3.06339 c 1.048479,-1.16136 -0.343828,-1.95694 -2.497489,-1.42709 -2.293569,0.56427 -2.306586,0.59103 -1.056614,2.17236 l 1.085797,1.37364 0.977596,-0.77527 c 0.537678,-0.42641 1.208497,-1.03104 1.49071,-1.34364 z m 3.306058,-0.61442 c 0.299062,-0.8599 0.299062,-0.8599 -0.27081,-0.29127 -0.313429,0.31274 -0.488864,0.6997 -0.389856,0.85989 0.266506,0.43122 0.332767,0.37419 0.660666,-0.56862 z m -1.004213,-1.52539 c 0.624625,-0.53321 0.624625,-0.53321 -0.169126,-0.3603 -1.033217,0.22508 -1.231985,0.34794 -1.047034,0.6472 0.229485,0.37132 0.527428,0.30103 1.21616,-0.2869 z m -5.064207,-0.33589 1.15239,-0.33365 -1.700529,-1.34687 c -3.848636,-3.04825 -4.98524,-2.77502 -3.107958,0.74712 0.934074,1.7525 0.877164,1.73798 3.656097,0.9334 z m 8.439129,-0.55258 c 0.69505,-0.83749 -0.70873,-1.92392 -1.484077,-1.14857 -0.562688,0.56269 -0.204012,1.51191 0.571297,1.51191 0.33618,0 0.74693,-0.1635 0.91278,-0.36334 z m 8.87655,-5.17849 c -1.42295,-3.17073 -4.50655,-5.30531 -7.91842,-5.4814 l -1.85634,-0.0958 1.42548,0.40404 c 3.36053,0.95252 6.81547,3.5941 8.23181,6.29388 0.90861,1.73197 1.00121,0.84854 0.11747,-1.12071 z m 4.03043,4.96294 c 0.37583,-8.25889 -5.07607,-13.97319 -13.33154,-13.97319 -1.480109,0 -1.691217,-0.0606 -1.612472,-0.46302 0.134528,-0.68746 4.511082,-0.65723 6.658172,0.046 6.44594,2.11119 10.73627,9.3113 9.39092,15.76002 -0.68171,3.26773 -1.28224,2.52334 -1.10508,-1.36981 z"
         id="path536" />
      <path
         style="fill:#6f6d6d;stroke-width:0.264583"
         d="m 81.075197,158.00995 c -0.829593,-0.0747 -1.12448,-0.21621 -1.12448,-0.53955 0,-0.46608 6.431846,-14.79067 6.97409,-15.53223 0.263262,-0.36003 0.153777,-0.77371 -0.614922,-2.3234 -3.87729,-7.81662 3.072885,-18.41746 12.09552,-18.44884 0.92111,-0.003 1.124479,-0.0935 1.124479,-0.49926 0,-1.68505 6.021146,-0.50386 8.879016,1.74182 5.48536,4.31033 4.88596,16.8193 -1.05156,21.94535 -4.98401,4.30285 -12.202557,4.27056 -17.559868,-0.0785 -0.868871,-0.70536 -0.868871,-0.70536 -0.574789,0.0631 4.260161,11.13174 4.78114,12.66255 4.511123,13.25518 -0.273338,0.59991 -7.852931,0.84923 -12.658609,0.41639 z m 11.342131,-2.12137 c -0.269637,-0.69122 -1.476794,-3.84795 -2.68257,-7.01496 -1.205776,-3.167 -2.218882,-5.72684 -2.251348,-5.68854 -0.05764,0.068 -5.860681,12.7207 -6.124631,13.35387 -0.145263,0.34846 1.393971,0.45592 7.91464,0.55255 l 3.63416,0.0539 z m 10.464262,-10.12114 c 2.64113,-0.91367 5.26089,-3.23626 6.57469,-5.82892 0.72434,-1.42943 1.57712,-4.86412 1.31356,-5.29057 -0.0827,-0.13375 -0.18469,-0.99037 -0.22674,-1.90361 -0.044,-0.95494 -0.30622,-2.16633 -0.6172,-2.85107 l -0.54074,-1.19063 -0.003,1.81277 c -0.002,1.26436 -0.12439,1.93418 -0.40433,2.21411 -0.6715,0.6715 -1.0115,0.16442 -0.82623,-1.23222 0.50622,-3.81613 -2.21589,-7.0458 -6.2405,-7.40406 -1.962903,-0.17474 -2.563001,-1.05106 -0.92604,-1.3523 0.79375,-0.14607 0.79375,-0.14607 -0.0992,-0.33333 -3.524088,-0.73901 -7.899599,0.58419 -10.628003,3.21402 -1.309678,1.26236 -1.627102,1.89039 -0.955461,1.89039 0.520956,0 3.426912,1.93433 4.780842,3.18234 1.413077,1.30253 3.6103,1.06515 4.854346,-0.52444 1.220186,-1.55911 3.767286,-0.67282 3.767286,1.31085 0,0.86911 -0.99189,2.11667 -1.68289,2.11667 -0.3594,0 -1.227522,2.00609 -1.227522,2.83661 0,0.1986 0.469382,0.98278 1.043072,1.74263 2.20242,2.91709 3.242,6.24183 2.13193,6.81827 -0.21828,0.11335 -1.05172,0.52246 -1.85209,0.90913 -1.669298,0.80648 -0.75803,0.7359 1.76421,-0.13664 z m 3.35557,-13.70649 c -0.15754,-0.10082 -0.34234,-0.87285 -0.41068,-1.71563 -0.19056,-2.35016 -1.47467,-3.68324 -3.95595,-4.10683 -1.78656,-0.30499 -1.55469,-0.97678 0.33496,-0.97047 1.94587,0.006 3.37872,0.9519 4.32709,2.85503 0.99019,1.98706 0.79165,4.63357 -0.29542,3.9379 z m -2.03297,-0.49199 c -0.097,-0.097 -0.17639,-0.55587 -0.17639,-1.01969 0,-1.16964 -1.0039,-2.18623 -2.37552,-2.40556 -1.62765,-0.26028 -1.37314,-1.03464 0.33259,-1.01194 1.45912,0.0194 2.62632,0.92553 3.1203,2.42232 0.46725,1.41575 -0.14065,2.7752 -0.90098,2.01487 z m -4.443421,13.64224 c 0.859171,-0.29951 0.859171,-0.29951 -0.810334,-1.37714 -3.232467,-2.08649 -9.096171,-8.63869 -10.751569,-12.01398 -0.850074,-1.73327 -0.983518,-1.73566 -1.491023,-0.0267 -2.253584,7.58864 5.857279,15.92625 13.052926,13.41783 z m 2.462921,-1.95647 c -0.15805,-0.99191 -2.550134,-5.13319 -2.976216,-5.15256 -0.08257,-0.004 -0.365772,0.67779 -0.629349,1.51454 -0.263576,0.83674 -0.530575,1.65557 -0.593331,1.81961 -0.06276,0.16404 0.629112,0.79455 1.537484,1.40114 1.758592,1.17434 2.808272,1.33891 2.661412,0.41727 z m -4.236057,-5.25188 c 0.270012,-1.00954 0.246023,-1.23053 -0.199942,-1.84194 -0.662957,-0.9089 -0.718072,-0.89936 -2.245235,0.38836 -1.617867,1.36421 -1.615987,1.44665 0.06892,3.02269 1.530228,1.43135 1.58309,1.39644 2.376253,-1.56911 z m -2.31026,-3.06339 c 1.048479,-1.16136 -0.343828,-1.95694 -2.497489,-1.42709 -2.293569,0.56427 -2.306586,0.59103 -1.056614,2.17236 l 1.085797,1.37364 0.977596,-0.77527 c 0.537678,-0.42641 1.208497,-1.03104 1.49071,-1.34364 z m 3.450854,-0.76916 c 0.184836,-0.61067 0.179046,-0.61256 -0.504056,-0.16498 -0.5531,0.36241 -0.628978,0.52757 -0.380127,0.82742 0.353524,0.42597 0.613756,0.231 0.884183,-0.66244 z m -1.165818,-1.26518 c 0.641434,-0.69232 0.641434,-0.69232 -0.284608,-0.49806 -1.251283,0.2625 -1.401177,0.3804 -1.038785,0.81706 0.427084,0.5146 0.58671,0.47612 1.323393,-0.319 z m -5.047398,-0.44136 1.15239,-0.33365 -1.700529,-1.34687 c -3.848636,-3.04825 -4.98524,-2.77502 -3.107958,0.74712 0.934074,1.7525 0.877164,1.73798 3.656097,0.9334 z m 8.439129,-0.55258 c 0.69505,-0.83749 -0.70873,-1.92392 -1.484077,-1.14857 -0.562688,0.56269 -0.204012,1.51191 0.571297,1.51191 0.33618,0 0.74693,-0.1635 0.91278,-0.36334 z m 8.87655,-5.17849 c -1.42295,-3.17073 -4.50655,-5.30531 -7.91842,-5.4814 l -1.85634,-0.0958 1.42548,0.40404 c 3.36053,0.95252 6.81547,3.5941 8.23181,6.29388 0.90861,1.73197 1.00121,0.84854 0.11747,-1.12071 z m 4.03043,4.96294 c 0.37583,-8.25889 -5.07607,-13.97319 -13.33154,-13.97319 -1.480109,0 -1.691217,-0.0606 -1.612472,-0.46302 0.134528,-0.68746 4.511082,-0.65723 6.658172,0.046 6.44594,2.11119 10.73627,9.3113 9.39092,15.76002 -0.68171,3.26773 -1.28224,2.52334 -1.10508,-1.36981 z"
         id="path534" />
      <path
         style="fill:#924847;stroke-width:0.264583"
         d="m 81.454067,158.00762 c -1.539359,-0.096 -1.539359,-0.096 -1.363522,-0.89658 0.18516,-0.84303 6.601038,-15.01447 6.960107,-15.37354 0.114772,-0.11477 -0.215371,-1.06236 -0.73365,-2.10576 -3.940016,-7.93201 3.097839,-18.46972 12.335434,-18.46972 0.680447,0 0.877448,-0.11099 0.877448,-0.49433 0,-1.08472 3.843206,-0.88021 6.524166,0.34718 5.5914,2.55982 7.59598,9.39069 5.11397,17.42651 -2.66954,8.64296 -13.257152,11.88455 -20.618325,6.31268 -0.791761,-0.59931 -1.470009,-1.0592 -1.507219,-1.02199 -0.03721,0.0372 1.06662,3.03189 2.452956,6.65484 3.273512,8.55478 3.577795,7.83224 -3.270813,7.76675 -2.877156,-0.0275 -5.923905,-0.0932 -6.770552,-0.14604 z m 10.966941,-2.11904 c -0.267615,-0.69122 -1.473183,-3.84954 -2.679041,-7.01849 -1.205857,-3.16894 -2.221057,-5.72878 -2.255998,-5.68854 -0.06267,0.0722 -5.874601,12.73826 -6.128699,13.35642 -0.148178,0.36048 1.362335,0.47 7.651566,0.55481 l 3.898743,0.0526 z m 10.460582,-10.12114 c 2.64113,-0.91367 5.26089,-3.23626 6.57469,-5.82892 0.72434,-1.42943 1.57712,-4.86412 1.31356,-5.29057 -0.0827,-0.13375 -0.18469,-0.99037 -0.22674,-1.90361 -0.044,-0.95494 -0.30622,-2.16633 -0.6172,-2.85107 l -0.54074,-1.19063 -0.003,1.81277 c -0.002,1.26436 -0.12439,1.93418 -0.40433,2.21411 -0.6715,0.6715 -1.0115,0.16442 -0.82623,-1.23222 0.50622,-3.81613 -2.21589,-7.0458 -6.2405,-7.40406 -1.962903,-0.17474 -2.563001,-1.05106 -0.92604,-1.3523 0.79375,-0.14607 0.79375,-0.14607 -0.0992,-0.33333 -3.524088,-0.73901 -7.899599,0.58419 -10.628003,3.21402 -1.309678,1.26236 -1.627102,1.89039 -0.955461,1.89039 0.520956,0 3.426912,1.93433 4.780842,3.18234 1.413077,1.30253 3.6103,1.06515 4.854346,-0.52444 1.220186,-1.55911 3.767286,-0.67282 3.767286,1.31085 0,0.86911 -0.99189,2.11667 -1.68289,2.11667 -0.3594,0 -1.227522,2.00609 -1.227522,2.83661 0,0.1986 0.469382,0.98278 1.043072,1.74263 2.20242,2.91709 3.242,6.24183 2.13193,6.81827 -0.21828,0.11335 -1.05172,0.52246 -1.85209,0.90913 -1.669298,0.80648 -0.75803,0.7359 1.76421,-0.13664 z m 3.35557,-13.70649 c -0.15754,-0.10082 -0.34234,-0.87285 -0.41068,-1.71563 -0.19056,-2.35016 -1.47467,-3.68324 -3.95595,-4.10683 -1.78656,-0.30499 -1.55469,-0.97678 0.33496,-0.97047 1.94587,0.006 3.37872,0.9519 4.32709,2.85503 0.99019,1.98706 0.79165,4.63357 -0.29542,3.9379 z m -2.03297,-0.49199 c -0.097,-0.097 -0.17639,-0.55587 -0.17639,-1.01969 0,-1.16964 -1.0039,-2.18623 -2.37552,-2.40556 -1.62765,-0.26028 -1.37314,-1.03464 0.33259,-1.01194 1.45912,0.0194 2.62632,0.92553 3.1203,2.42232 0.46725,1.41575 -0.14065,2.7752 -0.90098,2.01487 z m -4.424036,13.63548 0.878556,-0.30626 -0.907006,-0.55715 c -3.853653,-2.36715 -9.656744,-8.65489 -11.549416,-12.51398 -0.853703,-1.74066 -0.986635,-1.74366 -1.494445,-0.0337 -2.257203,7.60083 5.857758,15.92608 13.072311,13.41107 z m 2.443536,-1.94971 c -0.16068,-1.00842 -2.554301,-5.15743 -2.976216,-5.15887 -0.08257,-2.8e-4 -0.365772,0.6841 -0.629349,1.52085 -0.263576,0.83674 -0.53445,1.66566 -0.601941,1.84204 -0.06811,0.17801 0.620202,0.80086 1.547021,1.3999 1.782395,1.15201 2.805205,1.30428 2.660485,0.39608 z m -4.570179,-4.15242 c 0.671065,-1.98713 0.675019,-2.29534 0.03922,-3.05748 -0.652909,-0.78265 -0.62978,-0.78907 -2.301596,0.63921 l -1.44502,1.23452 1.393783,1.41131 c 1.723828,1.74551 1.644665,1.7533 2.313611,-0.22756 z m -1.976138,-4.16285 c 1.061001,-1.17523 -0.397704,-2.01164 -2.517452,-1.44349 -2.277312,0.61038 -2.279926,0.6159 -1.036651,2.18876 l 1.085797,1.37364 0.977596,-0.77527 c 0.537678,-0.42641 1.208497,-1.03104 1.49071,-1.34364 z m 3.450854,-0.76916 c 0.184836,-0.61067 0.179046,-0.61256 -0.504056,-0.16498 -0.5531,0.36241 -0.628978,0.52757 -0.380127,0.82742 0.353524,0.42597 0.613756,0.231 0.884183,-0.66244 z m -1.165818,-1.26518 c 0.641434,-0.69232 0.641434,-0.69232 -0.284608,-0.49806 -1.251283,0.2625 -1.401177,0.3804 -1.038785,0.81706 0.427084,0.5146 0.58671,0.47612 1.323393,-0.319 z m -5.047398,-0.44136 1.15239,-0.33365 -1.700529,-1.34687 c -3.848636,-3.04825 -4.98524,-2.77502 -3.107958,0.74712 0.934074,1.7525 0.877164,1.73798 3.656097,0.9334 z m 8.585109,-1.3213 c -0.24325,-0.63389 -1.16193,-0.84797 -1.630057,-0.37985 -0.480384,0.48039 -0.239682,1.43361 0.399857,1.58351 0.61696,0.14461 1.43896,-0.65965 1.2302,-1.20366 z m 8.67156,-4.49872 c -1.55499,-3.29128 -4.42049,-5.2334 -7.95025,-5.38836 l -2.03009,-0.0891 1.55203,0.39559 c 3.37294,0.85971 6.90601,3.52484 8.38283,6.3235 0.94368,1.78833 0.98206,0.74074 0.0455,-1.24161 z m 4.09256,5.23762 c 0.44184,-8.24469 -5.0176,-14.15892 -13.07015,-14.15892 -1.472251,0 -1.928789,-0.0872 -1.928789,-0.36857 0,-1.5351 6.668539,-0.57587 9.751979,1.40277 4.94829,3.17531 7.82176,10.25907 6.1542,15.17152 -0.7072,2.08334 -1.08313,1.23521 -0.90724,-2.0468 z"
         id="path532" />
      <path
         style="fill:#6c4d4d;stroke-width:0.264583"
         d="m 81.454067,158.00762 c -1.539359,-0.096 -1.539359,-0.096 -1.363522,-0.89658 0.18516,-0.84303 6.601038,-15.01447 6.960107,-15.37354 0.114772,-0.11477 -0.215371,-1.06236 -0.73365,-2.10576 -3.940016,-7.93201 3.097839,-18.46972 12.335434,-18.46972 0.680447,0 0.877448,-0.11099 0.877448,-0.49433 0,-1.08472 3.843206,-0.88021 6.524166,0.34718 5.5914,2.55982 7.59598,9.39069 5.11397,17.42651 -2.66954,8.64296 -13.257152,11.88455 -20.618325,6.31268 -0.791761,-0.59931 -1.470009,-1.0592 -1.507219,-1.02199 -0.03721,0.0372 1.06662,3.03189 2.452956,6.65484 3.273512,8.55478 3.577795,7.83224 -3.270813,7.76675 -2.877156,-0.0275 -5.923905,-0.0932 -6.770552,-0.14604 z m 10.966941,-2.11904 c -0.267615,-0.69122 -1.473183,-3.84954 -2.679041,-7.01849 -1.205857,-3.16894 -2.221057,-5.72878 -2.255998,-5.68854 -0.06267,0.0722 -5.874601,12.73826 -6.128699,13.35642 -0.148178,0.36048 1.362335,0.47 7.651566,0.55481 l 3.898743,0.0526 z m 10.407502,-10.03517 c 6.18531,-2.1615 9.74743,-10.18618 7.08463,-15.96014 l -0.54908,-1.19063 -0.0223,1.88584 c -0.0395,3.3368 -1.19523,3.47715 -1.21527,0.14758 -0.0242,-4.01784 -2.63877,-6.66362 -6.58508,-6.66362 -1.887841,0 -2.035436,-1.2499 -0.15943,-1.35017 1.28549,-0.0687 -0.8004,-0.43725 -2.645836,-0.46747 -3.256472,-0.0533 -6.713128,1.39813 -8.90163,3.73781 l -1.235594,1.32095 0.931833,0.32035 c 1.12103,0.38539 2.218822,1.12207 4.235682,2.84236 1.766963,1.50714 3.627062,1.40213 5.211692,-0.29422 0.968319,-1.03659 2.144833,-1.10102 3.077333,-0.16852 1.04659,1.04659 0.69168,2.75386 -0.69158,3.32682 -0.53754,0.22266 -0.85752,0.64334 -1.1563,1.52022 -0.566582,1.66282 -0.565277,1.66883 0.78112,3.59486 2.25742,3.22927 3.09241,5.98149 1.98078,6.52885 -0.21828,0.10748 -1.05172,0.50791 -1.85209,0.88984 -1.649483,0.78714 -0.56295,0.77399 1.71113,-0.0207 z m 3.05137,-15.24115 c 0,-2.35686 -1.44804,-3.93652 -4.00935,-4.37377 -1.55672,-0.26575 -1.57657,-0.94452 -0.0309,-1.05653 2.81561,-0.20403 5.60194,2.86685 5.31236,5.85488 -0.16275,1.6793 -1.27212,1.30903 -1.27212,-0.42458 z m -1.67569,0.9567 c -0.097,-0.097 -0.17639,-0.52156 -0.17639,-0.94343 0,-1.46571 -1.20523,-2.58434 -2.78439,-2.58434 -0.99158,0 -0.78334,-0.89565 0.23541,-1.01251 1.63634,-0.1877 3.42865,1.2463 3.75907,3.00757 0.2153,1.14766 -0.44286,2.12355 -1.0337,1.53271 z m -4.424036,13.63548 0.878556,-0.30626 -0.907006,-0.55715 c -3.853653,-2.36715 -9.656744,-8.65489 -11.549416,-12.51398 -0.853703,-1.74066 -0.986635,-1.74366 -1.494445,-0.0337 -2.257203,7.60083 5.857758,15.92608 13.072311,13.41107 z m 2.443536,-1.94971 c -0.16068,-1.00842 -2.554301,-5.15743 -2.976216,-5.15887 -0.08257,-2.8e-4 -0.365772,0.6841 -0.629349,1.52085 -0.263576,0.83674 -0.53445,1.66566 -0.601941,1.84204 -0.06811,0.17801 0.620202,0.80086 1.547021,1.3999 1.782395,1.15201 2.805205,1.30428 2.660485,0.39608 z m -4.570179,-4.15242 c 0.671065,-1.98713 0.675019,-2.29534 0.03922,-3.05748 -0.652909,-0.78265 -0.62978,-0.78907 -2.301596,0.63921 l -1.44502,1.23452 1.393783,1.41131 c 1.723828,1.74551 1.644665,1.7533 2.313611,-0.22756 z m -1.976138,-4.16285 c 1.061001,-1.17523 -0.397704,-2.01164 -2.517452,-1.44349 -2.277312,0.61038 -2.279926,0.6159 -1.036651,2.18876 l 1.085797,1.37364 0.977596,-0.77527 c 0.537678,-0.42641 1.208497,-1.03104 1.49071,-1.34364 z m 3.475501,-0.65388 c 0.151771,-0.61402 0.115914,-0.72458 -0.179715,-0.55412 -0.927215,0.53464 -1.01659,0.68962 -0.694822,1.20485 0.367342,0.58821 0.613588,0.40498 0.874537,-0.65073 z m -1.190465,-1.38046 c 0.641434,-0.69232 0.641434,-0.69232 -0.284608,-0.49806 -1.251283,0.2625 -1.401177,0.3804 -1.038785,0.81706 0.427084,0.5146 0.58671,0.47612 1.323393,-0.319 z m -5.047398,-0.44136 1.15239,-0.33365 -1.700529,-1.34687 c -3.848636,-3.04825 -4.98524,-2.77502 -3.107958,0.74712 0.934074,1.7525 0.877164,1.73798 3.656097,0.9334 z m 8.585109,-1.3213 c -0.24325,-0.63389 -1.16193,-0.84797 -1.630057,-0.37985 -0.480384,0.48039 -0.239682,1.43361 0.399857,1.58351 0.61696,0.14461 1.43896,-0.65965 1.2302,-1.20366 z m 8.67156,-4.49872 c -1.55499,-3.29128 -4.42049,-5.2334 -7.95025,-5.38836 l -2.03009,-0.0891 1.55203,0.39559 c 3.37294,0.85971 6.90601,3.52484 8.38283,6.3235 0.94368,1.78833 0.98206,0.74074 0.0455,-1.24161 z m 4.09256,5.23762 c 0.44184,-8.24469 -5.0176,-14.15892 -13.07015,-14.15892 -1.472251,0 -1.928789,-0.0872 -1.928789,-0.36857 0,-1.5351 6.668539,-0.57587 9.751979,1.40277 4.94829,3.17531 7.82176,10.25907 6.1542,15.17152 -0.7072,2.08334 -1.08313,1.23521 -0.90724,-2.0468 z"
         id="path530" />
      <path
         style="fill:#575757;stroke-width:0.264583"
         d="m 81.454067,158.00762 c -1.539359,-0.096 -1.539359,-0.096 -1.363522,-0.89658 0.18516,-0.84303 6.601038,-15.01447 6.960107,-15.37354 0.114772,-0.11477 -0.215371,-1.06236 -0.73365,-2.10576 -3.940016,-7.93201 3.097839,-18.46972 12.335434,-18.46972 0.680447,0 0.877448,-0.11099 0.877448,-0.49433 0,-1.08472 3.843206,-0.88021 6.524166,0.34718 5.5914,2.55982 7.59598,9.39069 5.11397,17.42651 -2.66954,8.64296 -13.257152,11.88455 -20.618325,6.31268 -0.791761,-0.59931 -1.470009,-1.0592 -1.507219,-1.02199 -0.03721,0.0372 1.06662,3.03189 2.452956,6.65484 3.273512,8.55478 3.577795,7.83224 -3.270813,7.76675 -2.877156,-0.0275 -5.923905,-0.0932 -6.770552,-0.14604 z m 10.966941,-2.11904 c -0.267615,-0.69122 -1.473183,-3.84954 -2.679041,-7.01849 -1.205857,-3.16894 -2.221057,-5.72878 -2.255998,-5.68854 -0.06267,0.0722 -5.874601,12.73826 -6.128699,13.35642 -0.148178,0.36048 1.362335,0.47 7.651566,0.55481 l 3.898743,0.0526 z m 9.508252,-9.75262 c 7.10389,-2.10614 10.83242,-9.99252 7.87991,-16.66716 -0.65663,-1.48441 -0.63733,-1.51452 -0.53448,0.83402 0.0574,1.31188 -0.0243,2.13306 -0.23815,2.39068 -0.63644,0.76686 -0.8979,0.22259 -0.91016,-1.89463 -0.0236,-4.08382 -2.61066,-6.72643 -6.58498,-6.72643 -1.887841,0 -2.035436,-1.2499 -0.15943,-1.35017 1.29351,-0.0691 -0.8068,-0.43759 -2.645836,-0.46414 -3.361468,-0.0485 -6.100641,1.06243 -8.598958,3.48765 l -1.5875,1.54105 0.95645,0.33371 c 1.148327,0.40067 2.239587,1.13215 4.260299,2.85573 1.766963,1.50714 3.627062,1.40213 5.211692,-0.29422 0.968319,-1.03659 2.144833,-1.10102 3.077333,-0.16852 1.04659,1.04659 0.69168,2.75386 -0.69158,3.32682 -0.53754,0.22266 -0.85752,0.64334 -1.1563,1.52022 -0.566582,1.66282 -0.565277,1.66883 0.78112,3.59486 2.25742,3.22927 3.09241,5.98149 1.98078,6.52885 -0.21828,0.10748 -1.05172,0.502 -1.85209,0.87672 -1.660724,0.77753 -1.297823,0.90043 0.81188,0.27496 z m 3.95062,-15.5237 c 0,-2.35686 -1.44804,-3.93652 -4.00935,-4.37377 -1.55672,-0.26575 -1.57657,-0.94452 -0.0309,-1.05653 2.81561,-0.20403 5.60194,2.86685 5.31236,5.85488 -0.16275,1.6793 -1.27212,1.30903 -1.27212,-0.42458 z m -1.67569,0.9567 c -0.097,-0.097 -0.17639,-0.52156 -0.17639,-0.94343 0,-1.46571 -1.20523,-2.58434 -2.78439,-2.58434 -0.99158,0 -0.78334,-0.89565 0.23541,-1.01251 1.63634,-0.1877 3.42865,1.2463 3.75907,3.00757 0.2153,1.14766 -0.44286,2.12355 -1.0337,1.53271 z m -4.968007,13.78657 1.389847,-0.41274 -1.936555,-1.35999 c -3.546601,-2.49068 -8.824489,-8.41448 -10.487795,-11.7713 -0.854195,-1.72391 -0.986797,-1.72552 -1.493837,-0.0181 -2.186713,7.36346 5.474544,15.65691 12.52834,13.56216 z m 3.070897,-1.70242 c 0.27114,-0.43872 -2.545949,-5.5555 -3.059606,-5.55725 -0.08257,-2.8e-4 -0.365772,0.6841 -0.629349,1.52085 -0.263576,0.83674 -0.532055,1.65942 -0.596619,1.82817 -0.304241,0.7952 3.839334,2.93026 4.285574,2.20823 z m -4.595227,-4.75541 c 0.530798,-1.64808 0.553905,-1.91791 0.217984,-2.54558 -0.583219,-1.08976 -0.923156,-1.04828 -2.508413,0.30604 l -1.475307,1.2604 1.393783,1.41131 c 1.74039,1.76228 1.660493,1.77684 2.371953,-0.43217 z M 95.4174,135.20368 c 1.335803,-1.40589 0.111553,-2.34569 -2.261657,-1.73616 -2.261249,0.58077 -2.285292,0.63228 -1.034016,2.21526 1.214145,1.53601 1.407773,1.50786 3.295673,-0.4791 z m 3.735474,-0.9181 c 0.151771,-0.61402 0.115914,-0.72458 -0.179715,-0.55412 -0.927215,0.53464 -1.01659,0.68962 -0.694822,1.20485 0.367342,0.58821 0.613588,0.40498 0.874537,-0.65073 z m -1.190465,-1.38046 c 0.641434,-0.69232 0.641434,-0.69232 -0.284608,-0.49806 -1.251283,0.2625 -1.401177,0.3804 -1.038785,0.81706 0.427084,0.5146 0.58671,0.47612 1.323393,-0.319 z m -5.029321,-0.44659 1.170467,-0.33889 -1.586315,-1.26122 c -3.902432,-3.1027 -5.134738,-2.84857 -3.258326,0.67194 0.934815,1.75389 0.874666,1.7387 3.674174,0.92817 z m 8.552412,-0.60134 c 0.21425,-0.55834 -0.082,-1.12768 -0.68664,-1.31958 -0.70959,-0.22522 -1.377651,0.44852 -1.151446,1.16123 0.269176,0.8481 1.531666,0.95686 1.838086,0.15835 z m 8.68618,-5.21345 c -1.55499,-3.29128 -4.42049,-5.2334 -7.95025,-5.38836 l -2.03009,-0.0891 1.55203,0.39559 c 3.37294,0.85971 6.90601,3.52484 8.38283,6.3235 0.94368,1.78833 0.98206,0.74074 0.0455,-1.24161 z m 4.09256,5.23762 c 0.44184,-8.24469 -5.0176,-14.15892 -13.07015,-14.15892 -1.472251,0 -1.928789,-0.0872 -1.928789,-0.36857 0,-1.5351 6.668539,-0.57587 9.751979,1.40277 4.94829,3.17531 7.82176,10.25907 6.1542,15.17152 -0.7072,2.08334 -1.08313,1.23521 -0.90724,-2.0468 z"
         id="path528" />
      <path
         style="fill:#813f3e;stroke-width:0.264583"
         d="m 81.718379,158.00707 c -1.804213,-0.093 -1.804213,-0.093 -1.632552,-0.87455 0.17969,-0.81812 6.623363,-15.05198 6.972585,-15.4022 0.110504,-0.11082 -0.223131,-1.05508 -0.74141,-2.09836 -3.794395,-7.63795 2.33951,-17.53535 11.388749,-18.37639 1.470312,-0.13665 1.804989,-0.25635 1.917268,-0.6857 0.239168,-0.91458 4.302461,-0.58638 6.570101,0.53069 4.96719,2.44688 6.46219,6.18227 5.58401,13.95208 -1.28128,11.33634 -13.848968,16.62023 -21.835632,9.18046 -1.187814,-1.10648 -1.087968,-0.70751 1.543818,6.16894 3.260464,8.51908 3.531532,7.81793 -2.996114,7.74982 -2.731635,-0.0285 -5.778506,-0.0937 -6.770823,-0.14479 z m 10.903817,-1.58932 c -0.154003,-0.40019 -1.293784,-3.40651 -2.532846,-6.68073 -1.239062,-3.27422 -2.334693,-6.10099 -2.434736,-6.2817 -0.132161,-0.23874 -5.341525,10.60469 -6.332521,13.18131 -0.101973,0.26513 1.929702,0.39048 7.419472,0.45774 4.160638,0.051 4.160638,0.051 3.880631,-0.67662 z m 9.307064,-10.28179 c 7.10389,-2.10614 10.83242,-9.99252 7.87991,-16.66716 -0.65663,-1.48441 -0.63733,-1.51452 -0.53448,0.83402 0.0574,1.31188 -0.0243,2.13306 -0.23815,2.39068 -0.63644,0.76686 -0.8979,0.22259 -0.91016,-1.89463 -0.0236,-4.08382 -2.61066,-6.72643 -6.58498,-6.72643 -1.887841,0 -2.035436,-1.2499 -0.15943,-1.35017 1.29351,-0.0691 -0.8068,-0.43759 -2.645836,-0.46414 -3.361468,-0.0485 -6.100641,1.06243 -8.598958,3.48765 l -1.5875,1.54105 0.95645,0.33371 c 1.148327,0.40067 2.239587,1.13215 4.260299,2.85573 1.766963,1.50714 3.627062,1.40213 5.211692,-0.29422 0.968319,-1.03659 2.144833,-1.10102 3.077333,-0.16852 1.04659,1.04659 0.69168,2.75386 -0.69158,3.32682 -0.53754,0.22266 -0.85752,0.64334 -1.1563,1.52022 -0.566582,1.66282 -0.565277,1.66883 0.78112,3.59486 2.25742,3.22927 3.09241,5.98149 1.98078,6.52885 -0.21828,0.10748 -1.05172,0.502 -1.85209,0.87672 -1.660724,0.77753 -1.297823,0.90043 0.81188,0.27496 z m 3.95062,-15.5237 c 0,-2.35686 -1.44804,-3.93652 -4.00935,-4.37377 -1.55672,-0.26575 -1.57657,-0.94452 -0.0309,-1.05653 2.81561,-0.20403 5.60194,2.86685 5.31236,5.85488 -0.16275,1.6793 -1.27212,1.30903 -1.27212,-0.42458 z m -1.67569,0.9567 c -0.097,-0.097 -0.17639,-0.52156 -0.17639,-0.94343 0,-1.46571 -1.20523,-2.58434 -2.78439,-2.58434 -0.99158,0 -0.78334,-0.89565 0.23541,-1.01251 1.63634,-0.1877 3.42865,1.2463 3.75907,3.00757 0.2153,1.14766 -0.44286,2.12355 -1.0337,1.53271 z m -4.968007,13.78657 1.389847,-0.41274 -1.936555,-1.35999 c -3.546601,-2.49068 -8.824489,-8.41448 -10.487795,-11.7713 -0.841863,-1.69902 -0.948154,-1.70989 -1.479216,-0.15131 -2.441137,7.16434 5.44456,15.79465 12.513719,13.69534 z m 3.070897,-1.70242 c 0.27114,-0.43872 -2.545949,-5.5555 -3.059606,-5.55725 -0.08257,-2.8e-4 -0.365772,0.6841 -0.629349,1.52085 -0.263576,0.83674 -0.532055,1.65942 -0.596619,1.82817 -0.304241,0.7952 3.839334,2.93026 4.285574,2.20823 z m -4.595227,-4.75541 c 0.530798,-1.64808 0.553905,-1.91791 0.217984,-2.54558 -0.583219,-1.08976 -0.923156,-1.04828 -2.508413,0.30604 l -1.475307,1.2604 1.393783,1.41131 c 1.74039,1.76228 1.660493,1.77684 2.371953,-0.43217 z M 95.4174,135.20368 c 1.335803,-1.40589 0.111553,-2.34569 -2.261657,-1.73616 -2.261249,0.58077 -2.285292,0.63228 -1.034016,2.21526 1.214145,1.53601 1.407773,1.50786 3.295673,-0.4791 z m 3.735474,-0.9181 c 0.151771,-0.61402 0.115914,-0.72458 -0.179715,-0.55412 -0.927215,0.53464 -1.01659,0.68962 -0.694822,1.20485 0.367342,0.58821 0.613588,0.40498 0.874537,-0.65073 z m -1.190465,-1.38046 c 0.641434,-0.69232 0.641434,-0.69232 -0.284608,-0.49806 -1.251283,0.2625 -1.401177,0.3804 -1.038785,0.81706 0.427084,0.5146 0.58671,0.47612 1.323393,-0.319 z m -5.029321,-0.44659 1.170467,-0.33889 -1.586315,-1.26122 c -3.902432,-3.1027 -5.134738,-2.84857 -3.258326,0.67194 0.934815,1.75389 0.874666,1.7387 3.674174,0.92817 z m 8.552412,-0.60134 c 0.21425,-0.55834 -0.082,-1.12768 -0.68664,-1.31958 -0.70959,-0.22522 -1.377651,0.44852 -1.151446,1.16123 0.269176,0.8481 1.531666,0.95686 1.838086,0.15835 z m 9.4028,-3.23882 c -0.98067,-4.36465 -4.43933,-7.24634 -8.84487,-7.3694 -2.051986,-0.0573 -2.076243,-0.051 -0.79375,0.20701 3.62524,0.72929 7.47907,3.63743 9.01767,6.80484 0.89629,1.84511 0.96393,1.88406 0.62095,0.35755 z m 3.34468,4.64834 c 1.09222,-8.89835 -4.48254,-15.54427 -13.03889,-15.54427 -1.472251,0 -1.928789,-0.0872 -1.928789,-0.36857 0,-1.30049 5.368119,-0.79672 8.731249,0.81937 5.32294,2.55784 8.94378,10.51061 7.17313,15.75492 -0.58214,1.72418 -1.17788,1.30349 -0.9367,-0.66145 z"
         id="path526" />
      <path
         style="fill:#6c3737;stroke-width:0.264583"
         d="m 81.718379,158.00707 c -1.804213,-0.093 -1.804213,-0.093 -1.632552,-0.87455 0.17969,-0.81812 6.623363,-15.05198 6.972585,-15.4022 0.110504,-0.11082 -0.223131,-1.05508 -0.74141,-2.09836 -3.794395,-7.63795 2.33951,-17.53535 11.388749,-18.37639 1.470312,-0.13665 1.804989,-0.25635 1.917268,-0.6857 0.239168,-0.91458 4.302461,-0.58638 6.570101,0.53069 4.96719,2.44688 6.46219,6.18227 5.58401,13.95208 -1.28128,11.33634 -13.848968,16.62023 -21.835632,9.18046 -1.187814,-1.10648 -1.087968,-0.70751 1.543818,6.16894 3.260464,8.51908 3.531532,7.81793 -2.996114,7.74982 -2.731635,-0.0285 -5.778506,-0.0937 -6.770823,-0.14479 z m 10.903817,-1.58932 c -0.154003,-0.40019 -1.293784,-3.40651 -2.532846,-6.68073 -1.239062,-3.27422 -2.334693,-6.10099 -2.434736,-6.2817 -0.132161,-0.23874 -5.341525,10.60469 -6.332521,13.18131 -0.101973,0.26513 1.929702,0.39048 7.419472,0.45774 4.160638,0.051 4.160638,0.051 3.880631,-0.67662 z m 9.307064,-10.28179 c 7.1366,-2.11584 10.84602,-9.96178 7.87991,-16.66716 -0.66066,-1.49354 -0.64982,-1.51037 -0.53187,0.82529 0.0678,1.34299 -0.008,2.11872 -0.23301,2.39007 -0.64431,0.77635 -0.90561,0.23967 -0.91791,-1.88529 -0.0233,-4.01984 -2.59373,-6.72643 -6.38815,-6.72643 -2.050554,0 -2.378295,-1.24209 -0.35626,-1.35017 1.29351,-0.0691 -0.8068,-0.43759 -2.645836,-0.46414 -3.361468,-0.0485 -6.100641,1.06243 -8.598958,3.48765 l -1.5875,1.54105 0.95645,0.33371 c 1.148327,0.40067 2.239587,1.13215 4.260299,2.85573 1.766963,1.50714 3.627062,1.40213 5.211692,-0.29422 0.968319,-1.03659 2.144833,-1.10102 3.077333,-0.16852 1.04659,1.04659 0.69168,2.75386 -0.69158,3.32682 -0.53754,0.22266 -0.85752,0.64334 -1.1563,1.52022 -0.566352,1.66214 -0.564747,1.66958 0.77341,3.58384 2.53162,3.62151 3.27888,6.79469 1.6001,6.79469 -0.20338,0 -0.94333,0.29459 -1.64434,0.65466 -1.472103,0.75611 -1.071015,0.85399 0.99252,0.2422 z m 4.13616,-14.29327 c -0.10204,-0.10204 -0.18554,-0.70738 -0.18554,-1.3452 0,-2.20998 -1.57121,-3.93395 -3.88732,-4.26526 -1.66818,-0.23862 -1.77735,-0.93242 -0.16517,-1.04967 2.8063,-0.20409 5.61329,2.88099 5.32461,5.85212 -0.0777,0.79999 -0.66093,1.23367 -1.08658,0.80801 z m -1.86123,-0.27373 c -0.097,-0.097 -0.17639,-0.57867 -0.17639,-1.07036 0,-1.05395 -0.89708,-2.08762 -2.02773,-2.33646 -1.28416,-0.28263 -1.45918,-0.37569 -1.3473,-0.71641 0.30506,-0.92906 2.69632,-0.36997 3.74427,0.87545 1.18452,1.40772 1.00418,4.44482 -0.19285,3.24778 z m -4.968007,13.78657 1.389847,-0.41274 -1.936555,-1.35999 c -3.546601,-2.49068 -8.824489,-8.41448 -10.487795,-11.7713 -0.841863,-1.69902 -0.948154,-1.70989 -1.479216,-0.15131 -2.441137,7.16434 5.44456,15.79465 12.513719,13.69534 z m 3.070897,-1.70242 c 0.27114,-0.43872 -2.545949,-5.5555 -3.059606,-5.55725 -0.08257,-2.8e-4 -0.365772,0.6841 -0.629349,1.52085 -0.263576,0.83674 -0.532055,1.65942 -0.596619,1.82817 -0.304241,0.7952 3.839334,2.93026 4.285574,2.20823 z m -4.595227,-4.75541 c 0.530798,-1.64808 0.553905,-1.91791 0.217984,-2.54558 -0.583219,-1.08976 -0.923156,-1.04828 -2.508413,0.30604 l -1.475307,1.2604 1.393783,1.41131 c 1.74039,1.76228 1.660493,1.77684 2.371953,-0.43217 z M 95.4174,135.20368 c 1.335803,-1.40589 0.111553,-2.34569 -2.261657,-1.73616 -2.261249,0.58077 -2.285292,0.63228 -1.034016,2.21526 1.214145,1.53601 1.407773,1.50786 3.295673,-0.4791 z m 3.801185,-1.01999 c 0.307061,-0.9198 0.159114,-0.94234 -0.79825,-0.12164 -0.361195,0.30964 -0.388135,0.48013 -0.138917,0.87919 0.360629,0.57746 0.539857,0.43259 0.937167,-0.75755 z m -1.256176,-1.27857 c 0.641434,-0.69232 0.641434,-0.69232 -0.284608,-0.49806 -1.251283,0.2625 -1.401177,0.3804 -1.038785,0.81706 0.427084,0.5146 0.58671,0.47612 1.323393,-0.319 z m -5.029321,-0.44659 1.170467,-0.33889 -1.586315,-1.26122 c -3.902432,-3.1027 -5.134738,-2.84857 -3.258326,0.67194 0.934815,1.75389 0.874666,1.7387 3.674174,0.92817 z m 8.552412,-0.60134 c 0.21425,-0.55834 -0.082,-1.12768 -0.68664,-1.31958 -0.70959,-0.22522 -1.377651,0.44852 -1.151446,1.16123 0.269176,0.8481 1.531666,0.95686 1.838086,0.15835 z m 9.4028,-3.23882 c -0.98067,-4.36465 -4.43933,-7.24634 -8.84487,-7.3694 -2.051986,-0.0573 -2.076243,-0.051 -0.79375,0.20701 3.62524,0.72929 7.47907,3.63743 9.01767,6.80484 0.89629,1.84511 0.96393,1.88406 0.62095,0.35755 z m 3.34468,4.64834 c 1.09222,-8.89835 -4.48254,-15.54427 -13.03889,-15.54427 -1.472251,0 -1.928789,-0.0872 -1.928789,-0.36857 0,-1.30049 5.368119,-0.79672 8.731249,0.81937 5.32294,2.55784 8.94378,10.51061 7.17313,15.75492 -0.58214,1.72418 -1.17788,1.30349 -0.9367,-0.66145 z"
         id="path524" />
      <path
         style="fill:#484646;stroke-width:0.264583"
         d="m 81.718379,158.00707 c -1.804213,-0.093 -1.804213,-0.093 -1.632552,-0.87455 0.17969,-0.81812 6.623363,-15.05198 6.972585,-15.4022 0.110504,-0.11082 -0.223131,-1.05508 -0.74141,-2.09836 -3.794395,-7.63795 2.33951,-17.53535 11.388749,-18.37639 1.470312,-0.13665 1.804989,-0.25635 1.917268,-0.6857 0.239168,-0.91458 4.302461,-0.58638 6.570101,0.53069 4.96719,2.44688 6.46219,6.18227 5.58401,13.95208 -1.28128,11.33634 -13.848968,16.62023 -21.835632,9.18046 -1.187814,-1.10648 -1.087968,-0.70751 1.543818,6.16894 3.260464,8.51908 3.531532,7.81793 -2.996114,7.74982 -2.731635,-0.0285 -5.778506,-0.0937 -6.770823,-0.14479 z m 10.903817,-1.58932 c -0.154003,-0.40019 -1.293784,-3.40651 -2.532846,-6.68073 -1.239062,-3.27422 -2.334693,-6.10099 -2.434736,-6.2817 -0.132161,-0.23874 -5.341525,10.60469 -6.332521,13.18131 -0.101973,0.26513 1.929702,0.39048 7.419472,0.45774 4.160638,0.051 4.160638,0.051 3.880631,-0.67662 z m 9.591794,-10.37541 c 6.67024,-2.06144 10.22313,-9.20386 7.88603,-15.85334 -0.74861,-2.12993 -0.93429,-2.10428 -0.82229,0.11361 0.0644,1.27467 -0.0115,2.11415 -0.21307,2.35701 -0.63986,0.77098 -0.93572,0.17126 -0.94195,-1.90938 -0.0117,-3.88877 -2.42231,-6.49652 -6.27714,-6.79034 -0.7643,-0.0583 -1.47894,-0.1163 -1.58808,-0.12898 -0.910904,-0.10587 0.13112,-1.05807 1.21226,-1.10777 1.34791,-0.062 -0.80344,-0.45063 -2.601324,-0.46996 -3.541554,-0.0381 -6.242888,1.04131 -8.722526,3.48525 -1.596224,1.57325 -1.596224,1.57325 -0.802474,1.8473 1.109698,0.38313 2.425206,1.24294 4.34087,2.83717 1.961727,1.63257 3.592297,1.5801 5.219814,-0.16795 1.35351,-1.45375 3.22403,-1.03609 3.69092,0.82413 0.20214,0.80538 -0.42909,1.88443 -1.34704,2.30267 -0.59229,0.26987 -1.453522,2.08275 -1.453522,3.05967 0,0.20266 0.532052,1.11408 1.182332,2.02537 3.23159,4.52866 3.28394,5.92116 0.27288,7.25739 -2.096232,0.93024 -1.573873,1.10258 0.96431,0.31815 z m 3.84228,-14.20879 c -0.097,-0.097 -0.17639,-0.73425 -0.17639,-1.41608 0,-2.15502 -1.56522,-3.85308 -3.85335,-4.18038 -1.57414,-0.22517 -1.84018,-0.92307 -0.4041,-1.06007 2.64616,-0.25245 5.58037,2.58131 5.58037,5.38933 0,1.18694 -0.58273,1.831 -1.14653,1.2672 z m -1.85208,-0.26459 c -0.097,-0.097 -0.17639,-0.5572 -0.17639,-1.02265 0,-1.21748 -0.85734,-2.16965 -2.19105,-2.4334 -1.30806,-0.25869 -1.53759,-0.94958 -0.3602,-1.08423 1.65772,-0.18958 3.23151,1.0508 3.64,2.86887 0.29671,1.32056 -0.25412,2.32966 -0.91236,1.67141 z m -4.968007,13.78657 1.389847,-0.41274 -1.936555,-1.35999 c -3.546601,-2.49068 -8.824489,-8.41448 -10.487795,-11.7713 -0.841863,-1.69902 -0.948154,-1.70989 -1.479216,-0.15131 -2.441137,7.16434 5.44456,15.79465 12.513719,13.69534 z m 3.070897,-1.70242 c 0.27114,-0.43872 -2.545949,-5.5555 -3.059606,-5.55725 -0.08257,-2.8e-4 -0.365772,0.6841 -0.629349,1.52085 -0.263576,0.83674 -0.532055,1.65942 -0.596619,1.82817 -0.304241,0.7952 3.839334,2.93026 4.285574,2.20823 z m -4.595227,-4.75541 c 0.530798,-1.64808 0.553905,-1.91791 0.217984,-2.54558 -0.583219,-1.08976 -0.923156,-1.04828 -2.508413,0.30604 l -1.475307,1.2604 1.393783,1.41131 c 1.74039,1.76228 1.660493,1.77684 2.371953,-0.43217 z M 95.4174,135.20368 c 1.335803,-1.40589 0.111553,-2.34569 -2.261657,-1.73616 -2.261249,0.58077 -2.285292,0.63228 -1.034016,2.21526 1.214145,1.53601 1.407773,1.50786 3.295673,-0.4791 z m 3.801185,-1.01999 c 0.307578,-0.92134 0.159146,-0.94271 -0.804666,-0.11583 -0.355111,0.30466 -0.393147,0.50458 -0.173926,0.9142 0.326902,0.61082 0.575994,0.4076 0.978592,-0.79837 z m -1.276201,-1.24771 c 0.696883,-0.7418 0.35624,-0.8844 -0.937575,-0.39249 -0.586892,0.22313 -0.651934,0.33585 -0.381702,0.66146 0.441221,0.53164 0.596977,0.49988 1.319277,-0.26897 z m -5.009296,-0.47745 1.170467,-0.33889 -1.586315,-1.26122 c -3.902432,-3.1027 -5.134738,-2.84857 -3.258326,0.67194 0.934815,1.75389 0.874666,1.7387 3.674174,0.92817 z m 8.552412,-0.60134 c 0.21425,-0.55834 -0.082,-1.12768 -0.68664,-1.31958 -0.70959,-0.22522 -1.377651,0.44852 -1.151446,1.16123 0.269176,0.8481 1.531666,0.95686 1.838086,0.15835 z m 9.4028,-3.23882 c -0.98067,-4.36465 -4.43933,-7.24634 -8.84487,-7.3694 -2.051986,-0.0573 -2.076243,-0.051 -0.79375,0.20701 3.62524,0.72929 7.47907,3.63743 9.01767,6.80484 0.89629,1.84511 0.96393,1.88406 0.62095,0.35755 z m 3.34468,4.64834 c 1.09222,-8.89835 -4.48254,-15.54427 -13.03889,-15.54427 -1.472251,0 -1.928789,-0.0872 -1.928789,-0.36857 0,-1.30049 5.368119,-0.79672 8.731249,0.81937 5.32294,2.55784 8.94378,10.51061 7.17313,15.75492 -0.58214,1.72418 -1.17788,1.30349 -0.9367,-0.66145 z"
         id="path522" />
      <path
         style="fill:#4d2f2f;stroke-width:0.264583"
         d="m 82.114924,158.00654 c -2.201419,-0.0894 -2.201419,-0.0894 -2.03009,-0.8695 0.177867,-0.80982 6.626486,-15.05149 6.976155,-15.40672 0.109087,-0.11082 -0.2221,-1.04851 -0.73597,-2.08375 -2.855357,-5.75238 0.150516,-13.77983 6.327416,-16.89792 6.709898,-3.38714 14.365755,-0.83062 17.830015,5.95399 0.80607,1.57865 0.86894,1.28642 0.19151,-0.89014 -1.24973,-4.0154 -4.31551,-6.33593 -8.76283,-6.6327 -3.35094,-0.22361 -3.249991,-0.94382 0.1323,-0.94382 6.37904,0 11.08965,5.81213 9.97567,12.30837 -0.17511,1.02116 -0.32089,2.41999 -0.32396,3.10852 -0.0441,9.89684 -13.656855,15.51321 -21.44424,8.8475 -1.530372,-1.30994 -1.533895,-1.32685 1.231341,5.90752 3.239115,8.47412 3.460706,7.81332 -2.596164,7.74194 -2.513354,-0.0296 -5.560373,-0.0941 -6.771153,-0.14329 z m 10.168047,-2.51483 c -0.34528,-0.90951 -1.486615,-3.91584 -2.536299,-6.68073 -1.049684,-2.7649 -1.992209,-5.17757 -2.094501,-5.3615 -0.136525,-0.24548 -5.435843,10.78862 -6.329631,13.17939 -0.108073,0.28908 1.701009,0.40723 7.158716,0.46754 l 4.429498,0.0489 z m 9.931019,-9.44937 c 6.67024,-2.06144 10.22313,-9.20386 7.88603,-15.85334 -0.74861,-2.12993 -0.93429,-2.10428 -0.82229,0.11361 0.0644,1.27467 -0.0115,2.11415 -0.21307,2.35701 -0.63986,0.77098 -0.93572,0.17126 -0.94195,-1.90938 -0.0117,-3.88877 -2.42231,-6.49652 -6.27714,-6.79034 -0.7643,-0.0583 -1.47894,-0.1163 -1.58808,-0.12898 -0.910904,-0.10587 0.13112,-1.05807 1.21226,-1.10777 1.34791,-0.062 -0.80344,-0.45063 -2.601324,-0.46996 -3.541554,-0.0381 -6.242888,1.04131 -8.722526,3.48525 -1.596224,1.57325 -1.596224,1.57325 -0.802474,1.8473 1.109698,0.38313 2.425206,1.24294 4.34087,2.83717 1.961727,1.63257 3.592297,1.5801 5.219814,-0.16795 1.35351,-1.45375 3.22403,-1.03609 3.69092,0.82413 0.20214,0.80538 -0.42909,1.88443 -1.34704,2.30267 -0.59229,0.26987 -1.453522,2.08275 -1.453522,3.05967 0,0.20266 0.532052,1.11408 1.182332,2.02537 3.23159,4.52866 3.28394,5.92116 0.27288,7.25739 -2.096232,0.93024 -1.573873,1.10258 0.96431,0.31815 z m 3.84228,-14.20879 c -0.097,-0.097 -0.17639,-0.73425 -0.17639,-1.41608 0,-2.15502 -1.56522,-3.85308 -3.85335,-4.18038 -1.57414,-0.22517 -1.84018,-0.92307 -0.4041,-1.06007 2.64616,-0.25245 5.58037,2.58131 5.58037,5.38933 0,1.18694 -0.58273,1.831 -1.14653,1.2672 z m -1.85208,-0.26459 c -0.097,-0.097 -0.17639,-0.5572 -0.17639,-1.02265 0,-1.21748 -0.85734,-2.16965 -2.19105,-2.4334 -1.30806,-0.25869 -1.53759,-0.94958 -0.3602,-1.08423 1.65772,-0.18958 3.23151,1.0508 3.64,2.86887 0.29671,1.32056 -0.25412,2.32966 -0.91236,1.67141 z m -4.459527,13.63354 c 0.876237,-0.36027 0.876237,-0.36027 -0.822552,-1.47645 -3.268003,-2.14721 -8.813368,-8.29346 -10.644777,-11.79821 -0.95148,-1.82084 -1.021535,-1.8329 -1.55487,-0.26765 -2.511225,7.37004 6.143556,16.37049 13.022199,13.54231 z m 2.492817,-2.08006 c -0.0755,-0.70759 -2.46855,-4.81511 -2.886523,-4.95444 -0.137617,-0.0459 -0.466628,0.60363 -0.731137,1.44333 -0.264508,0.8397 -0.53375,1.6648 -0.598314,1.83355 -0.179198,0.46838 2.843754,2.46833 3.625044,2.3983 0.53548,-0.048 0.64803,-0.18527 0.59093,-0.72074 z m -4.525627,-4.22474 c 0.530798,-1.64808 0.553905,-1.91791 0.217984,-2.54558 -0.583219,-1.08976 -0.923156,-1.04828 -2.508413,0.30604 l -1.475307,1.2604 1.393783,1.41131 c 1.74039,1.76228 1.660493,1.77684 2.371953,-0.43217 z m -2.51068,-3.48533 c 1.749794,-1.56278 0.557597,-2.57498 -2.24161,-1.90317 -2.219448,0.53267 -2.225055,0.54823 -0.807472,2.24138 1.211734,1.44728 1.026975,1.46778 3.049082,-0.33821 z m 4.017412,-1.22868 c 0.307578,-0.92134 0.159146,-0.94271 -0.804666,-0.11583 -0.355111,0.30466 -0.393147,0.50458 -0.173926,0.9142 0.326902,0.61082 0.575994,0.4076 0.978592,-0.79837 z m -1.276201,-1.24771 c 0.696883,-0.7418 0.35624,-0.8844 -0.937575,-0.39249 -0.586892,0.22313 -0.651934,0.33585 -0.381702,0.66146 0.441221,0.53164 0.596977,0.49988 1.319277,-0.26897 z m -5.626672,-0.30934 1.75812,-0.44162 -1.174578,-1.03115 c -2.231526,-1.95902 -4.286095,-2.94616 -4.573435,-2.19737 -0.171395,0.44665 1.587926,4.11177 1.97372,4.11177 0.141929,0 1.049206,-0.19873 2.016173,-0.44163 z m 8.915068,-0.50331 c 0.49188,-0.49189 0.4961,-0.52725 0.14188,-1.18912 -0.15064,-0.28148 -0.48402,-0.51177 -0.74083,-0.51177 -1.034591,0 -1.498748,1.33009 -0.638925,1.83089 0.627415,0.36543 0.755935,0.35194 1.237875,-0.13 z m 13.02857,1.01109 c 1.06784,-8.68855 -4.56732,-15.41198 -12.91736,-15.41198 -1.75372,0 -2.51795,-0.35178 -1.779857,-0.81928 1.151227,-0.72918 5.672547,-0.0356 8.373007,1.28438 5.47382,2.67565 8.83257,9.92074 7.23586,15.60833 -0.55033,1.96032 -1.17791,1.50497 -0.91165,-0.66145 z"
         id="path520" />
      <path
         style="fill:#383737;stroke-width:0.264583"
         d="m 82.114924,158.00654 c -2.201419,-0.0894 -2.201419,-0.0894 -2.03009,-0.8695 0.177867,-0.80982 6.626486,-15.05149 6.976155,-15.40672 0.109087,-0.11082 -0.2221,-1.04851 -0.73597,-2.08375 -2.855357,-5.75238 0.150516,-13.77983 6.327416,-16.89792 6.709898,-3.38714 14.365755,-0.83062 17.830015,5.95399 0.80607,1.57865 0.86894,1.28642 0.19151,-0.89014 -1.24973,-4.0154 -4.31551,-6.33593 -8.76283,-6.6327 -3.35094,-0.22361 -3.249991,-0.94382 0.1323,-0.94382 6.37904,0 11.08965,5.81213 9.97567,12.30837 -0.17511,1.02116 -0.32089,2.41999 -0.32396,3.10852 -0.0441,9.89684 -13.656855,15.51321 -21.44424,8.8475 -1.530372,-1.30994 -1.533895,-1.32685 1.231341,5.90752 3.239115,8.47412 3.460706,7.81332 -2.596164,7.74194 -2.513354,-0.0296 -5.560373,-0.0941 -6.771153,-0.14329 z m 10.168047,-2.51483 c -0.34528,-0.90951 -1.486615,-3.91584 -2.536299,-6.68073 -1.049684,-2.7649 -1.992209,-5.17757 -2.094501,-5.3615 -0.136525,-0.24548 -5.435843,10.78862 -6.329631,13.17939 -0.108073,0.28908 1.701009,0.40723 7.158716,0.46754 l 4.429498,0.0489 z M 103.97886,145.3375 c 6.27612,-3.04188 9.05672,-12.21688 5.20659,-17.17985 -0.37136,-0.47869 -0.38027,-0.46306 -0.13211,0.23149 0.35079,0.98177 0.34054,3.51654 -0.0169,4.18444 -0.50046,0.93513 -0.98029,0.15381 -0.83489,-1.35947 0.41873,-4.35774 -2.53704,-7.10949 -7.94405,-7.39575 -1.042215,-0.0552 0.17132,-1.04812 1.34455,-1.10014 1.48699,-0.0659 -0.80826,-0.43413 -2.908479,-0.46656 -3.455809,-0.0534 -6.395197,1.19195 -8.936759,3.78621 -0.645768,0.65916 -1.122018,1.23073 -1.058333,1.27016 0.06368,0.0394 0.777915,0.40194 1.587178,0.80558 0.809264,0.40363 2.270451,1.39713 3.247083,2.20778 2.100975,1.74389 3.704349,1.72406 5.37138,-0.0664 1.20981,-1.29941 2.91396,-1.07015 3.55535,0.4783 0.41558,1.00332 0.0291,1.88795 -1.13375,2.59513 -1.754981,1.06726 -1.990041,2.91415 -0.60957,4.78939 1.98662,2.69863 3.17356,5.66862 2.59365,6.48989 -0.11442,0.16204 -1.04147,0.67412 -2.06011,1.13795 -1.852087,0.84333 -1.852087,0.84333 -0.52917,0.68663 0.7276,-0.0862 2.19386,-0.57882 3.25835,-1.09475 z m 2.00157,-13.71177 c -0.0811,-0.21131 -0.072,-0.50622 0.0201,-0.65535 0.88888,-1.43823 -1.64232,-4.39975 -4.05548,-4.74494 -1.50207,-0.21486 -1.71765,-0.91534 -0.32266,-1.04842 2.92322,-0.27888 6.06506,3.23005 5.44006,6.07568 -0.17527,0.79801 -0.83209,1.02445 -1.08206,0.37303 z m -1.62544,-0.18819 c -0.17995,-0.17995 -0.32719,-0.64451 -0.32719,-1.03234 0,-1.0855 -0.91166,-2.03928 -2.19105,-2.29229 -1.27374,-0.2519 -1.54226,-0.94844 -0.4159,-1.07885 1.67407,-0.19384 3.23254,1.07276 3.66179,2.976 0.24951,1.10628 -0.18886,1.96627 -0.72765,1.42748 z m -4.610327,13.76496 c 0.876237,-0.36027 0.876237,-0.36027 -0.822552,-1.47645 -3.268003,-2.14721 -8.813368,-8.29346 -10.644777,-11.79821 -0.95148,-1.82084 -1.021535,-1.8329 -1.55487,-0.26765 -2.511225,7.37004 6.143556,16.37049 13.022199,13.54231 z m 2.492817,-2.08006 c -0.0755,-0.70759 -2.46855,-4.81511 -2.886523,-4.95444 -0.137617,-0.0459 -0.466628,0.60363 -0.731137,1.44333 -0.264508,0.8397 -0.53375,1.6648 -0.598314,1.83355 -0.179198,0.46838 2.843754,2.46833 3.625044,2.3983 0.53548,-0.048 0.64803,-0.18527 0.59093,-0.72074 z m -4.525627,-4.22474 c 0.530798,-1.64808 0.553905,-1.91791 0.217984,-2.54558 -0.583219,-1.08976 -0.923156,-1.04828 -2.508413,0.30604 l -1.475307,1.2604 1.393783,1.41131 c 1.74039,1.76228 1.660493,1.77684 2.371953,-0.43217 z m -2.51068,-3.48533 c 1.749794,-1.56278 0.557597,-2.57498 -2.24161,-1.90317 -2.219448,0.53267 -2.225055,0.54823 -0.807472,2.24138 1.211734,1.44728 1.026975,1.46778 3.049082,-0.33821 z m 4.014254,-1.21962 c 0.342738,-1.02715 0.0988,-1.09543 -0.73659,-0.2062 -0.517369,0.55072 -0.559749,0.71922 -0.269,1.06955 0.405133,0.48816 0.614637,0.30829 1.00559,-0.86335 z m -1.140751,-1.29224 c 0.79375,-0.67789 0.79375,-0.67789 -0.386942,-0.50753 -1.410157,0.20346 -1.508642,0.27696 -1.073573,0.80119 0.436216,0.52561 0.521254,0.50851 1.460515,-0.29366 z m -5.758964,-0.27387 1.75812,-0.44162 -1.174578,-1.03115 c -2.231526,-1.95902 -4.286095,-2.94616 -4.573435,-2.19737 -0.171395,0.44665 1.587926,4.11177 1.97372,4.11177 0.141929,0 1.049206,-0.19873 2.016173,-0.44163 z m 8.915068,-0.50331 c 0.49188,-0.49189 0.4961,-0.52725 0.14188,-1.18912 -0.15064,-0.28148 -0.48402,-0.51177 -0.74083,-0.51177 -1.034591,0 -1.498748,1.33009 -0.638925,1.83089 0.627415,0.36543 0.755935,0.35194 1.237875,-0.13 z m 13.02857,1.01109 c 1.06784,-8.68855 -4.56732,-15.41198 -12.91736,-15.41198 -1.75372,0 -2.51795,-0.35178 -1.779857,-0.81928 1.151227,-0.72918 5.672547,-0.0356 8.373007,1.28438 5.47382,2.67565 8.83257,9.92074 7.23586,15.60833 -0.55033,1.96032 -1.17791,1.50497 -0.91165,-0.66145 z"
         id="path518" />
      <path
         style="fill:#272727;stroke-width:0.264583"
         d="m 82.379326,158.0063 c -2.466183,-0.0876 -2.466183,-0.0876 -2.297965,-0.85345 0.175432,-0.79873 6.634777,-15.07006 6.980394,-15.42253 0.108665,-0.11082 -0.21836,-1.03943 -0.726723,-2.06358 -3.636221,-7.3255 1.971871,-16.99332 10.594442,-18.2638 5.277346,-0.77759 10.912406,2.1704 13.310166,6.96322 1.0096,2.01808 1.16823,1.91285 0.51717,-0.3431 -1.17693,-4.07805 -4.33178,-6.55413 -8.71338,-6.83869 -1.87155,-0.12154 -2.381254,-0.23959 -2.381254,-0.55152 0,-0.75583 4.447564,-0.52598 6.284554,0.32479 5.56103,2.57549 7.07443,7.06875 5.46034,16.21167 -1.65142,9.35435 -13.512517,13.48657 -21.071457,7.34096 -0.763984,-0.62114 -1.389062,-1.03655 -1.389062,-0.92314 0,0.11341 1.136047,3.18064 2.524548,6.81607 3.228245,8.4523 3.418042,7.81877 -2.320438,7.74557 -2.367834,-0.0302 -5.414934,-0.0943 -6.771335,-0.14247 z m 10.157292,-1.85314 c -0.750392,-2.09603 -4.706274,-12.38585 -4.884223,-12.70457 -0.138147,-0.24743 -5.525947,10.9659 -6.3296,13.17344 -0.111029,0.30499 1.563604,0.4185 7.016707,0.47563 l 4.552325,0.0477 z M 103.97886,145.3375 c 6.27612,-3.04188 9.05672,-12.21688 5.20659,-17.17985 -0.37136,-0.47869 -0.38027,-0.46306 -0.13211,0.23149 0.35079,0.98177 0.34054,3.51654 -0.0169,4.18444 -0.50046,0.93513 -0.98029,0.15381 -0.83489,-1.35947 0.41873,-4.35774 -2.53704,-7.10949 -7.94405,-7.39575 -1.042215,-0.0552 0.17132,-1.04812 1.34455,-1.10014 1.48699,-0.0659 -0.80826,-0.43413 -2.908479,-0.46656 -3.455809,-0.0534 -6.395197,1.19195 -8.936759,3.78621 -0.645768,0.65916 -1.122018,1.23073 -1.058333,1.27016 0.06368,0.0394 0.777915,0.40194 1.587178,0.80558 0.809264,0.40363 2.270451,1.39713 3.247083,2.20778 2.100975,1.74389 3.704349,1.72406 5.37138,-0.0664 1.20981,-1.29941 2.91396,-1.07015 3.55535,0.4783 0.41558,1.00332 0.0291,1.88795 -1.13375,2.59513 -1.754981,1.06726 -1.990041,2.91415 -0.60957,4.78939 1.98662,2.69863 3.17356,5.66862 2.59365,6.48989 -0.11442,0.16204 -1.04147,0.67412 -2.06011,1.13795 -1.852087,0.84333 -1.852087,0.84333 -0.52917,0.68663 0.7276,-0.0862 2.19386,-0.57882 3.25835,-1.09475 z m 2.00157,-13.71177 c -0.0811,-0.21131 -0.072,-0.50622 0.0201,-0.65535 0.88888,-1.43823 -1.64232,-4.39975 -4.05548,-4.74494 -1.50207,-0.21486 -1.71765,-0.91534 -0.32266,-1.04842 2.92322,-0.27888 6.06506,3.23005 5.44006,6.07568 -0.17527,0.79801 -0.83209,1.02445 -1.08206,0.37303 z m -1.62544,-0.18819 c -0.17995,-0.17995 -0.32719,-0.64451 -0.32719,-1.03234 0,-1.0855 -0.91166,-2.03928 -2.19105,-2.29229 -1.27374,-0.2519 -1.54226,-0.94844 -0.4159,-1.07885 1.67407,-0.19384 3.23254,1.07276 3.66179,2.976 0.24951,1.10628 -0.18886,1.96627 -0.72765,1.42748 z m -4.610327,13.76496 c 0.876237,-0.36027 0.876237,-0.36027 -0.802555,-1.4633 -3.290267,-2.16183 -10.385886,-10.26609 -11.180555,-12.76987 -0.27195,-0.85683 -0.581969,-0.65071 -1.039089,0.69086 -2.515277,7.38193 6.132458,16.37506 13.022199,13.54231 z m 2.492817,-2.08006 c -0.0792,-0.74309 -2.478295,-4.81836 -2.923956,-4.96692 -0.158204,-0.0527 -0.488056,0.59677 -0.733006,1.44333 -0.244949,0.84657 -0.496756,1.67574 -0.55957,1.84262 -0.183511,0.48751 2.842162,2.51107 3.619042,2.42039 0.53856,-0.0629 0.65435,-0.20615 0.59749,-0.73942 z m -4.525627,-4.22474 c 0.530798,-1.64808 0.553905,-1.91791 0.217984,-2.54558 -0.586073,-1.09509 -0.944998,-1.05299 -2.524106,0.29609 l -1.472128,1.25768 1.40004,1.41765 c 1.747404,1.76938 1.666528,1.78386 2.37821,-0.42584 z m -2.465594,-3.46944 c 1.769896,-1.5256 0.503211,-2.58864 -2.286696,-1.91906 -2.218127,0.53235 -2.224265,0.54918 -0.814564,2.23291 1.206488,1.44102 1.046615,1.45719 3.10126,-0.31385 z m 3.969168,-1.23551 c 0.342738,-1.02715 0.0988,-1.09543 -0.73659,-0.2062 -0.517369,0.55072 -0.559749,0.71922 -0.269,1.06955 0.405133,0.48816 0.614637,0.30829 1.00559,-0.86335 z m -1.140751,-1.29224 c 0.79375,-0.67789 0.79375,-0.67789 -0.386942,-0.50753 -1.410157,0.20346 -1.508642,0.27696 -1.073573,0.80119 0.436216,0.52561 0.521254,0.50851 1.460515,-0.29366 z m -5.758964,-0.27387 1.75812,-0.44162 -1.174578,-1.03115 c -2.231526,-1.95902 -4.286095,-2.94616 -4.573435,-2.19737 -0.171395,0.44665 1.587926,4.11177 1.97372,4.11177 0.141929,0 1.049206,-0.19873 2.016173,-0.44163 z m 8.915068,-0.50331 c 0.49188,-0.49189 0.4961,-0.52725 0.14188,-1.18912 -0.15064,-0.28148 -0.48402,-0.51177 -0.74083,-0.51177 -1.034591,0 -1.498748,1.33009 -0.638925,1.83089 0.627415,0.36543 0.755935,0.35194 1.237875,-0.13 z m 13.02365,1.14338 c 1.17995,-8.6947 -4.44348,-15.52736 -12.7907,-15.54113 -1.867603,-0.003 -2.6565,-0.34428 -1.901597,-0.82242 1.194147,-0.75636 5.706907,-0.0284 8.469717,1.36626 5.46926,2.76088 8.71111,9.81639 7.13404,15.52645 -0.52661,1.9067 -1.18978,1.52168 -0.91146,-0.52916 z"
         id="path516" />
      <path
         style="fill:#291919;stroke-width:0.264583"
         d="m 82.861134,157.95346 c -2.770469,-0.14625 -2.77792,-0.14847 -2.703801,-0.80572 0.08604,-0.76294 6.602454,-15.14138 6.963243,-15.36436 0.132524,-0.0819 -0.206089,-1.02023 -0.752474,-2.08517 -2.934285,-5.71911 0.225483,-13.93968 6.547199,-17.03344 6.482003,-3.1722 14.367119,-0.47976 17.492879,5.9731 0.80036,1.65227 0.80036,1.65227 0.62011,0.46165 -0.67387,-4.45137 -4.25563,-7.60648 -8.98486,-7.91463 -3.472444,-0.22626 -3.465114,-0.94981 0.01,-0.94693 5.46836,0.005 9.99529,4.48039 10.01642,9.90339 0.0105,2.68758 -0.50056,7.04136 -0.98321,8.37661 -3.15817,8.73702 -13.112925,11.72146 -20.486033,6.1417 -0.909506,-0.68829 -1.653646,-1.15541 -1.653646,-1.03806 0,0.11736 1.134211,3.17845 2.52047,6.80242 3.203818,8.37546 3.347331,7.79767 -1.919485,7.72787 -2.149553,-0.0285 -5.158433,-0.11778 -6.686402,-0.19843 z m 9.673873,-1.8003 c -0.905463,-2.51776 -4.66471,-12.31598 -4.857178,-12.6599 -0.169378,-0.30267 -4.882368,9.41676 -6.322914,13.03951 -0.167882,0.4222 0.92505,0.5146 6.720003,0.5681 l 4.816909,0.0445 z M 103.98065,145.3723 c 6.24222,-2.96095 9.05228,-12.25509 5.2048,-17.21465 -0.37136,-0.47869 -0.38027,-0.46306 -0.13211,0.23149 0.35079,0.98177 0.34054,3.51654 -0.0169,4.18444 -0.50046,0.93513 -0.98029,0.15381 -0.83489,-1.35947 0.41873,-4.35774 -2.53704,-7.10949 -7.94405,-7.39575 -1.046393,-0.0554 0.17659,-1.05158 1.34455,-1.09521 1.63051,-0.0609 -0.63858,-0.45031 -2.776187,-0.47642 -2.401248,-0.0293 -4.621744,0.53194 -6.496392,1.64208 -1.084823,0.64242 -3.874007,3.26811 -3.631542,3.41867 0.06399,0.0397 0.778465,0.40249 1.587728,0.80613 0.809264,0.40363 2.270451,1.39713 3.247083,2.20778 2.100975,1.74389 3.704349,1.72406 5.37138,-0.0664 1.20981,-1.29941 2.91396,-1.07015 3.55535,0.4783 0.41558,1.00332 0.0291,1.88795 -1.13375,2.59513 -1.754981,1.06726 -1.990041,2.91415 -0.60957,4.78939 1.98662,2.69863 3.17356,5.66862 2.59365,6.48989 -0.11442,0.16204 -1.04147,0.67537 -2.06011,1.14074 -1.852087,0.84611 -1.852087,0.84611 -0.52917,0.69446 0.7276,-0.0834 2.19467,-0.56517 3.26014,-1.07057 z m 1.99978,-13.74657 c -0.0811,-0.21131 -0.072,-0.50622 0.0201,-0.65535 0.88888,-1.43823 -1.64232,-4.39975 -4.05548,-4.74494 -1.50207,-0.21486 -1.71765,-0.91534 -0.32266,-1.04842 2.92322,-0.27888 6.06506,3.23005 5.44006,6.07568 -0.17527,0.79801 -0.83209,1.02445 -1.08206,0.37303 z m -1.62544,-0.18819 c -0.17995,-0.17995 -0.32719,-0.64451 -0.32719,-1.03234 0,-1.0855 -0.91166,-2.03928 -2.19105,-2.29229 -1.27374,-0.2519 -1.54226,-0.94844 -0.4159,-1.07885 1.67407,-0.19384 3.23254,1.07276 3.66179,2.976 0.24951,1.10628 -0.18886,1.96627 -0.72765,1.42748 z m -4.610327,13.76496 c 0.876237,-0.36027 0.876237,-0.36027 -0.802555,-1.4633 -3.290267,-2.16183 -10.385886,-10.26609 -11.180555,-12.76987 -0.27195,-0.85683 -0.581969,-0.65071 -1.039089,0.69086 -2.520996,7.39872 6.116792,16.3815 13.022199,13.54231 z m 2.492817,-2.08006 c -0.0789,-0.74006 -2.477457,-4.81808 -2.920724,-4.96584 -0.211322,-0.0704 -1.374372,2.91166 -1.374372,3.52394 0,0.0494 0.681657,0.57798 1.514793,1.17457 1.773513,1.26999 2.898753,1.37818 2.780303,0.26733 z m -4.525627,-4.22474 c 0.530798,-1.64808 0.553905,-1.91791 0.217984,-2.54558 -0.586073,-1.09509 -0.944998,-1.05299 -2.524106,0.29609 l -1.472128,1.25768 1.40004,1.41765 c 1.747404,1.76938 1.666528,1.78386 2.37821,-0.42584 z m -2.595401,-3.34124 c 1.876284,-1.66631 0.741952,-2.74298 -2.156889,-2.04726 -2.218281,0.53239 -2.224356,0.54907 -0.81374,2.23389 1.199608,1.4328 1.14312,1.43635 2.970629,-0.18663 z m 4.098975,-1.36371 c 0.342738,-1.02715 0.0988,-1.09543 -0.73659,-0.2062 -0.517369,0.55072 -0.559749,0.71922 -0.269,1.06955 0.405133,0.48816 0.614637,0.30829 1.00559,-0.86335 z m -1.140751,-1.29224 c 0.79375,-0.67789 0.79375,-0.67789 -0.386942,-0.50753 -1.410157,0.20346 -1.508642,0.27696 -1.073573,0.80119 0.436216,0.52561 0.521254,0.50851 1.460515,-0.29366 z m -5.758964,-0.27387 1.75812,-0.44162 -1.174578,-1.03115 c -2.28016,-2.00171 -4.285827,-2.94686 -4.587144,-2.16164 -0.176324,0.45949 1.599902,4.07604 2.001901,4.07604 0.133968,0 1.034734,-0.19873 2.001701,-0.44163 z m 8.915068,-0.50331 c 0.49188,-0.49189 0.4961,-0.52725 0.14188,-1.18912 -0.15064,-0.28148 -0.48402,-0.51177 -0.74083,-0.51177 -1.034591,0 -1.498748,1.33009 -0.638925,1.83089 0.627415,0.36543 0.755935,0.35194 1.237875,-0.13 z m 12.85319,2.334 c 0.001,-0.25466 0.1261,-1.22794 0.27779,-2.16284 1.2196,-7.51669 -5.0123,-14.5559 -12.89803,-14.56891 -1.867603,-0.003 -2.6565,-0.34428 -1.901597,-0.82242 1.129467,-0.7154 5.807327,0.0223 8.381547,1.32175 5.53912,2.79614 8.79968,9.82726 7.22076,15.57096 -0.3073,1.11788 -1.0845,1.59367 -1.08047,0.66146 z"
         id="path514" />
      <path
         style="fill:#171515;stroke-width:0.264583"
         d="m 82.861134,157.95346 c -2.770469,-0.14625 -2.77792,-0.14847 -2.703801,-0.80572 0.08552,-0.7584 6.601363,-15.1407 6.95978,-15.36222 0.130619,-0.0807 -0.207994,-1.03333 -0.752474,-2.11691 -3.115435,-6.20005 0.662291,-14.82162 7.66688,-17.49744 6.125761,-2.3401 13.294811,0.41589 16.243321,6.24439 0.94831,1.87458 0.94831,1.87458 0.76076,0.68396 -0.75004,-4.76151 -4.63678,-7.92477 -9.87585,-8.03755 -2.81311,-0.0606 -1.982909,-0.82639 0.89327,-0.82401 5.46836,0.005 9.99529,4.48039 10.01642,9.90339 0.0105,2.68758 -0.50056,7.04136 -0.98321,8.37661 -3.13712,8.67879 -13.141422,11.70103 -20.441846,6.17535 -0.933808,-0.70679 -1.697833,-1.18906 -1.697833,-1.07171 0,0.11736 1.134211,3.17845 2.52047,6.80242 3.203818,8.37546 3.347331,7.79767 -1.919485,7.72787 -2.149553,-0.0285 -5.158433,-0.11778 -6.686402,-0.19843 z m 9.673873,-1.8003 c -0.905463,-2.51776 -4.66471,-12.31598 -4.857178,-12.6599 -0.169378,-0.30267 -4.882368,9.41676 -6.322914,13.03951 -0.167882,0.4222 0.92505,0.5146 6.720003,0.5681 l 4.816909,0.0445 z m 9.965513,-10.14059 c 6.54522,-2.20493 10.0282,-9.47026 7.62248,-15.90013 -0.69102,-1.8469 -1.44983,-2.95251 -1.05959,-1.54383 0.3168,1.14356 0.32735,3.44828 0.018,3.9366 -0.5131,0.81 -0.92205,0.14833 -0.85137,-1.37751 0.18291,-3.94852 -2.41601,-6.85896 -6.4622,-7.2368 -0.93985,-0.0878 -1.70881,-0.25722 -1.70881,-0.37658 0,-0.31402 0.92336,-0.76049 1.63625,-0.79117 1.56873,-0.0675 -0.83621,-0.45151 -2.983891,-0.47642 -3.642265,-0.0422 -6.313037,1.08715 -8.96207,3.78983 -1.013734,1.03427 -1.307268,1.47546 -0.981647,1.47546 0.773113,0 2.402836,0.95707 4.493154,2.63864 2.216002,1.78268 2.093876,1.7464 4.006411,1.19041 0.978363,-0.28442 1.475703,-0.59087 1.67742,-1.03359 0.612905,-1.34518 2.839923,-1.03294 3.536483,0.49584 0.37238,0.81728 -0.17016,1.94779 -1.20939,2.52005 -1.849332,1.01836 -1.90961,2.90001 -0.17635,5.50489 3.16024,4.74945 3.15134,5.54608 -0.0781,6.99317 -2.033412,0.91115 -1.035737,1.03971 1.48323,0.19114 z m 3.56057,-14.17421 c -0.0944,-0.0944 -0.10289,-0.44522 -0.0189,-0.77969 0.49421,-1.9691 -1.93923,-4.86957 -4.08548,-4.86957 -0.94861,0 -1.66787,-0.69546 -0.98877,-0.95605 1.42617,-0.54727 4.2733,0.80123 5.2605,2.49156 1.20222,2.05848 1.06837,5.34944 -0.16731,4.11375 z m -1.8569,-0.53398 c -0.097,-0.097 -0.17639,-0.52289 -0.17639,-0.94639 0,-1.05249 -1.27986,-2.3168 -2.34528,-2.3168 -0.8969,0 -1.3523,-0.46786 -0.79747,-0.81928 0.93353,-0.59129 2.93201,0.1966 3.70217,1.45956 0.8402,1.37784 0.52569,3.53163 -0.38303,2.62291 z m -4.459527,13.89812 c 0.876237,-0.36027 0.876237,-0.36027 -0.802555,-1.4633 -3.290267,-2.16183 -10.385886,-10.26609 -11.180555,-12.76987 -0.27195,-0.85683 -0.581969,-0.65071 -1.039089,0.69086 -2.520996,7.39872 6.116792,16.3815 13.022199,13.54231 z m 2.561457,-1.54785 c 0.23069,-0.37326 -0.68855,-2.33098 -2.00422,-4.26839 l -1.128585,-1.66191 -0.615466,1.82454 c -0.783341,2.3222 -0.856597,2.04883 0.882816,3.2944 1.454095,1.04126 2.534335,1.34713 2.865455,0.81136 z m -4.555806,-4.84522 c 0.649498,-1.93177 0.649498,-1.93177 0.08012,-2.64584 -0.742371,-0.93102 -0.775878,-0.92401 -2.459224,0.51411 l -1.437603,1.22819 1.40004,1.41765 c 1.748193,1.77018 1.640976,1.79299 2.416671,-0.51411 z m -2.633862,-3.25297 c 1.876284,-1.66631 0.741952,-2.74298 -2.156889,-2.04726 -2.209881,0.53037 -2.238733,0.61083 -0.814777,2.27215 1.195672,1.39498 1.143188,1.39895 2.971666,-0.22489 z m 4.088532,-1.16527 c 0.310331,-1.22261 0.1344,-1.32064 -0.726147,-0.40464 -0.509456,0.5423 -0.556888,0.72267 -0.278307,1.05834 0.516704,0.62259 0.712908,0.4949 1.004454,-0.6537 z m -1.130308,-1.47415 c 0.79375,-0.67776 0.79375,-0.67776 -0.386942,-0.51573 -1.408683,0.19331 -1.509412,0.2677 -1.073573,0.79286 0.44251,0.53319 0.531249,0.51635 1.460515,-0.27713 z m -5.758964,-0.2904 1.75812,-0.44162 -1.174578,-1.03115 c -4.269414,-3.74804 -5.882606,-3.07018 -3.13917,1.31909 0.444835,0.7117 0.355544,0.70633 2.555628,0.15368 z m 8.915068,-0.50331 c 0.49188,-0.49189 0.4961,-0.52725 0.14188,-1.18912 -0.15064,-0.28148 -0.48402,-0.51177 -0.74083,-0.51177 -1.034591,0 -1.498748,1.33009 -0.638925,1.83089 0.627415,0.36543 0.755935,0.35194 1.237875,-0.13 z m 12.85319,2.334 c 0.001,-0.25466 0.1261,-1.22794 0.27779,-2.16284 1.2196,-7.51669 -5.0123,-14.5559 -12.89803,-14.56891 -1.867603,-0.003 -2.6565,-0.34428 -1.901597,-0.82242 0.566117,-0.35857 3.363237,-0.27282 5.195987,0.15929 7.39545,1.74365 12.30993,9.65068 10.40037,16.73342 -0.30139,1.11787 -1.07856,1.59629 -1.07452,0.66146 z"
         id="path512" />
      <path
         style="fill:#000000;stroke-width:0.264583"
         d="m 83.258009,157.95555 c -3.121899,-0.14625 -3.1739,-0.15896 -3.109208,-0.75966 0.07623,-0.70785 6.632782,-15.19142 6.976214,-15.41061 0.126273,-0.0806 -0.215896,-1.03309 -0.760376,-2.11667 -3.24944,-6.46674 1.200485,-15.63515 8.649205,-17.8204 6.815056,-1.99936 15.130306,2.66813 15.918886,8.93554 0.20129,1.59978 0.20321,1.5927 0.1341,-0.49361 -0.17835,-5.38386 -4.10515,-9.1257 -9.68486,-9.22867 -1.33821,-0.0247 -1.719794,-0.1198 -1.719794,-0.42862 0,-0.75342 4.447044,-0.52623 6.275404,0.3206 4.71024,2.18161 7.47029,8.28614 5.76927,12.76015 -0.39763,1.04583 -1.16449,0.90097 -0.96503,-0.18231 0.24357,-1.32287 -1.65738,-6.81302 -2.359,-6.81302 -0.0744,0 0.0527,0.36359 0.28254,0.80797 0.8761,1.69418 0.82719,5.4007 -0.069,5.2278 -0.35126,-0.0678 -0.41689,-0.39818 -0.36473,-1.83625 0.1414,-3.89877 -2.45742,-6.72362 -6.48289,-7.04675 -0.92935,-0.0746 -1.68972,-0.24134 -1.68972,-0.37054 0,-0.4079 1.35009,-0.76812 2.34775,-0.62641 0.9367,0.13305 0.94064,0.13002 0.16579,-0.12732 -4.335028,-1.4397 -9.345944,-0.24547 -12.605566,3.00423 -0.779542,0.77717 -1.595942,1.48193 -1.814223,1.56614 -0.222313,0.0858 -0.04775,0.16338 0.396875,0.17647 1.007563,0.0297 2.994731,1.18114 5.015632,2.90632 1.748878,1.49296 1.673883,1.47149 3.592618,1.02859 0.980005,-0.22621 1.449639,-0.48595 1.642007,-0.90816 0.415977,-0.91297 1.692817,-1.34475 2.552197,-0.86306 1.61536,0.90544 1.57483,2.75462 -0.0804,3.66607 -1.68243,0.92646 -1.916399,2.97739 -0.55699,4.88244 2.83347,3.97075 3.48529,7.03329 1.49694,7.03329 -0.17556,0 -0.62047,0.1974 -0.98869,0.43867 -0.36822,0.24127 -1.28677,0.5945 -2.041216,0.78495 l -1.371722,0.34629 1.587501,-0.15704 c 6.241687,-0.61745 11.481517,-5.73617 11.506237,-11.24029 0.002,-0.38461 0.18173,-0.76783 0.40001,-0.85159 0.48884,-0.18759 0.51899,0.54241 0.10449,2.53005 -1.24829,5.98593 -6.5492,10.26563 -12.715195,10.26563 -2.31741,0 -4.539934,-0.44214 -4.286206,-0.85268 0.100789,-0.16308 -0.06316,-0.19084 -0.433295,-0.0734 -0.446142,0.1416 -0.543074,0.10426 -0.386605,-0.14891 0.146787,-0.23751 0.0831,-0.28965 -0.214355,-0.1755 -0.232752,0.0893 -0.460643,0.0754 -0.506425,-0.031 -0.04578,-0.10636 -0.678552,-0.53218 -1.406157,-0.94625 -0.727604,-0.41408 -1.658261,-1.06451 -2.068127,-1.4454 -0.849505,-0.78946 -1.127338,-1.66304 2.679682,8.42568 1.288816,3.4154 1.783452,5.04705 1.644283,5.42396 -0.222343,0.60217 -3.664537,0.74147 -10.457921,0.42323 z m 9.527602,-1.27322 c -0.102468,-0.25466 -1.245954,-3.24118 -2.54108,-6.6367 -1.295126,-3.39552 -2.452152,-6.34768 -2.57117,-6.56036 -0.170892,-0.30536 -5.097971,9.85564 -6.30786,13.00856 -0.194414,0.50664 0.515962,0.57546 6.352586,0.61549 4.906165,0.0336 5.2415,0.005 5.067524,-0.42699 z m 2.968449,-10.01558 c -0.08792,-0.0879 -0.316122,-0.0973 -0.507119,-0.0209 -0.211066,0.0845 -0.148372,0.14716 0.159853,0.15985 0.278915,0.0115 0.435184,-0.051 0.347266,-0.13896 z m 4.171435,-1.49207 c 0.667185,-0.34958 0.667185,-0.34958 -1.013397,-1.4545 -3.241036,-2.13086 -10.365709,-10.27805 -11.150545,-12.75085 -0.429241,-1.35242 -1.204848,0.14854 -1.397849,2.70512 -0.553967,7.33809 7.870689,14.48209 13.561791,11.50023 z m 2.380625,-1.52003 c 0.23069,-0.37326 -0.68855,-2.33098 -2.00422,-4.26839 l -1.128585,-1.66191 -0.615466,1.82454 c -0.783341,2.3222 -0.856597,2.04883 0.882816,3.2944 1.454095,1.04126 2.534335,1.34713 2.865455,0.81136 z m -4.550513,-4.86097 c 0.654791,-1.9475 0.654791,-1.9475 2.65e-4,-2.78382 l -0.65452,-0.83633 -1.580706,1.36939 -1.580705,1.36939 1.396868,1.41444 c 1.745419,1.76737 1.637327,1.79119 2.418792,-0.53307 z m -2.639155,-3.23722 c 1.876284,-1.66631 0.741952,-2.74298 -2.156889,-2.04726 -2.209881,0.53037 -2.238733,0.61083 -0.814777,2.27215 1.195672,1.39498 1.143188,1.39895 2.971666,-0.22489 z m 4.095863,-1.08567 c 0.387333,-1.26205 0.205944,-1.41116 -0.661466,-0.54375 -0.588051,0.58805 -0.64438,0.76353 -0.356461,1.11045 0.508374,0.61255 0.686426,0.51342 1.017927,-0.5667 z m -1.1708,-1.42371 c 0.924604,-0.72729 0.665839,-1.05886 -0.564231,-0.72299 -1.235171,0.33728 -1.27336,0.37577 -0.863123,0.87008 0.436764,0.52627 0.59161,0.51031 1.427354,-0.14709 z m -5.649988,-0.41945 c 1.864676,-0.51843 1.820596,-0.64143 -0.936479,-2.61308 -3.332619,-2.38323 -4.113583,-1.54903 -1.962682,2.09648 0.646196,1.09522 0.750882,1.11387 2.899161,0.5166 z m 8.852463,-0.51752 c 0.5157,-0.51569 0.43831,-1.12826 -0.19275,-1.52567 -0.98874,-0.62266 -2.045573,0.91699 -1.102682,1.60645 0.613872,0.44887 0.775892,0.43877 1.295432,-0.0808 z m 6.48798,-6.53634 c 0,-0.0474 -0.32742,-0.37482 -0.72761,-0.72761 -0.7276,-0.64143 -0.7276,-0.64143 -0.0862,0.0862 0.59952,0.68006 0.81378,0.84894 0.81378,0.64144 z m 6.35,9.09281 c 0,-0.13958 0.13179,-1.1399 0.29288,-2.22295 1.15699,-7.77907 -4.92657,-14.72119 -12.90056,-14.72119 -1.878004,0 -2.669936,-0.33931 -1.912157,-0.81928 0.570677,-0.36146 3.368917,-0.27147 5.234797,0.16834 4.98146,1.17422 9.31582,5.53398 10.3649,10.42565 0.38933,1.81537 0.21791,6.41902 -0.26047,6.99544 -0.39416,0.47492 -0.81939,0.56521 -0.81939,0.17399 z m -7.94927,-2.85508 c -0.21932,-3.69771 -1.34305,-5.24121 -4.0858,-5.61206 -0.75951,-0.10269 -1.08195,-0.28349 -1.1516,-0.64572 -0.0884,-0.4598 0.025,-0.48867 1.31775,-0.33556 3.07056,0.36367 4.88372,2.67691 4.7532,6.06417 -0.0245,0.63686 -0.79804,1.1279 -0.83355,0.52917 z m -1.92851,-0.50712 c -0.097,-0.097 -0.17639,-0.56268 -0.17639,-1.03481 0,-1.04687 -1.24995,-2.22838 -2.35745,-2.22838 -0.90226,0 -1.16822,-0.23893 -0.78286,-0.70326 0.66263,-0.79842 2.8859,0.009 3.69973,1.34354 0.8402,1.37784 0.52569,3.53163 -0.38303,2.62291 z"
         id="path510" />
    </g>
  </g>
</svg>
